<?xml version="1.0" encoding="UTF-8"?>
<svg id="_2024_rn" data-name="2024_rn" xmlns="http://www.w3.org/2000/svg" viewBox="0 0 176 15">
  <g>
    <g>
      <path d="M42.86,10.36c-.17,0-.3-.13-.3-.3v-3.64h-1.79c-.17,0-.3-.13-.3-.3v-.77c0-.17.13-.3.3-.3h5.23c.17,0,.3.13.3.3v.77c0,.17-.13.3-.3.3h-1.79v3.64c0,.17-.13.3-.3.3h-1.06Z" style="fill: #fff; stroke-width: 0px;"/>
      <path d="M50.79,10.36c-.17,0-.3-.13-.3-.3v-1.68h-2.54v1.68c0,.17-.13.3-.3.3h-1.06c-.17,0-.3-.13-.3-.3v-4.7c0-.17.13-.3.3-.3h1.06c.17,0,.3.13.3.3v1.65h2.54v-1.65c0-.17.13-.3.3-.3h1.06c.17,0,.3.13.3.3v4.7c0,.17-.13.3-.3.3h-1.06Z" style="fill: #fff; stroke-width: 0px;"/>
      <path d="M52.93,10.36c-.17,0-.3-.13-.3-.3v-4.7c0-.17.13-.3.3-.3h4.98c.17,0,.3.13.3.3v.77c0,.17-.13.3-.3.3h-3.62v.5h2.69c.17,0,.3.13.3.3v.79c0,.17-.13.3-.3.3h-2.69v.67h3.65c.12,0,.22.07.27.17l.32.68s.03.08.03.13c0,.3-.32.34-.48.36-.15.02-.41.03-.78.03h-4.37Z" style="fill: #fff; stroke-width: 0px;"/>
      <rect x="60.12" y="5.06" width="1.66" height="5.3" rx=".3" ry=".3" style="fill: #fff; stroke-width: 0px;"/>
      <path d="M62.63,10.36c-.17,0-.3-.13-.3-.3v-4.06l-.08-.6c-.01-.09.02-.17.07-.24.06-.06.14-.1.22-.1h3.71c.48,0,.85.06,1.12.19.3.14.51.35.63.63.11.25.16.55.16.91v1.85c0,.36-.05.67-.16.91-.12.28-.33.49-.63.63-.27.13-.64.19-1.13.19h-3.63ZM66.2,9c.3,0,.32-.11.32-.27v-2.04c0-.08-.02-.15-.07-.21-.02-.02-.1-.05-.26-.05h-2.21v2.57h2.21Z" style="fill: #fff; stroke-width: 0px;"/>
      <path d="M70.19,10.36c-.42,0-.76-.06-1.01-.19-.28-.14-.48-.35-.59-.63-.1-.25-.16-.55-.16-.91v-1.85c0-.35.05-.65.15-.89.11-.28.31-.49.59-.63.26-.13.59-.2,1.03-.2h2.34c.43,0,.76.06,1.01.2.27.14.47.35.59.63.1.25.15.54.15.9v1.85c0,.54-.13.97-.38,1.26-.27.32-.72.47-1.37.47h-2.34ZM70.42,6.43c-.12,0-.21.03-.27.08-.04.03-.07.08-.07.18v2.04c0,.12.04.17.07.19.06.05.15.08.27.08h1.88c.12,0,.21-.02.26-.07.03-.03.07-.08.07-.2v-2.04c0-.07-.02-.13-.08-.18-.04-.03-.1-.08-.25-.08h-1.88Z" style="fill: #fff; stroke-width: 0px;"/>
      <path d="M74.98,10.36c-.09,0-.17-.04-.22-.1-.06-.06-.08-.15-.07-.24l.08-.64v-4.03c0-.17.13-.3.3-.3h1.06c.17,0,.3.13.3.3v3.64h3.01c.12,0,.22.07.27.17l.32.68s.03.08.03.13c0,.3-.32.34-.48.36-.15.02-.41.03-.78.03h-3.81Z" style="fill: #fff; stroke-width: 0px;"/>
      <path d="M85.19,10.36c-.17,0-.3-.13-.3-.3v-1.85l-.85,1.52c-.05.1-.15.15-.26.15h-.97c-.11,0-.21-.06-.26-.15l-.85-1.52v1.85c0,.17-.13.3-.3.3h-1.05c-.17,0-.3-.13-.3-.3v-4.06l-.08-.6c-.01-.09.02-.17.07-.24.06-.06.14-.1.22-.1h1.21c.11,0,.21.06.26.15l1.55,2.75,1.61-2.75c.05-.09.15-.15.26-.15h1.08c.17,0,.3.13.3.3v4.7c0,.17-.13.3-.3.3h-1.06Z" style="fill: #fff; stroke-width: 0px;"/>
      <path d="M88.86,11.16c-.42,0-.76-.07-1.03-.22-.28-.15-.49-.36-.62-.62-.12-.25-.19-.52-.19-.81v-2.82c0-.33.06-.63.18-.9.13-.28.34-.51.61-.67.27-.16.61-.24,1.04-.24h3.28c.54,0,.96.15,1.26.45.3.3.45.7.45,1.2v2.06c0,.42-.14.75-.42.98-.26.21-.6.31-1.02.31h-.14c-.36,0-.65-.09-.85-.27-.03-.02-.05-.05-.08-.07-.11.1-.24.18-.4.25-.2.08-.46.12-.78.12h-.62c-.31,0-.56-.09-.74-.27-.18-.18-.27-.4-.27-.66v-1.74c0-.28.09-.51.27-.69.18-.17.42-.25.73-.25.13,0,.29,0,.48.01.19,0,1.09.06,1.09.06l.42-.2s.09-.03.13-.03h.32c.17,0,.3.13.3.3v2.05l.08.11s.13,0,.15,0c0,0,0-.04,0-.1v-1.86c0-.12,0-.21-.04-.29-.01-.04-.04-.09-.13-.14-.04-.03-.15-.07-.39-.07h-3.05c-.24,0-.35.04-.39.07-.09.05-.12.1-.13.14-.03.09-.05.18-.05.29v2.78c0,.1.02.2.05.29.01.04.04.09.13.14.05.03.16.07.39.07h3.52c.1,0,.2.05.25.13.06.08.07.19.03.28l-.24.56s-.04.07-.07.1c-.06.05-.13.09-.26.12-.1.03-.21.04-.36.04h-2.92ZM90.11,8.66l.19-.05c.16,0,.28-.03.33-.08.06-.07.09-.18.09-.33v-.55h-.61v1.01Z" style="fill: #fff; stroke-width: 0px;"/>
      <path d="M95.53,10.36c-.38,0-.66-.02-.86-.05-.15-.03-.5-.1-.5-.41,0-.04,0-.09.03-.13l.32-.7c.05-.11.16-.17.27-.17.02,0,.03,0,.05,0,.12.02.41.04.88.06.49.02,1.15.03,2,.03h.15c.23,0,.29-.05.29-.05.01-.01.04-.07.04-.19v-.16c0-.13-.03-.18-.03-.19h0s-.08-.03-.3-.03h-1.86c-.62,0-1.06-.12-1.37-.37-.32-.26-.48-.67-.48-1.21v-.13c0-.28.05-.54.16-.77.12-.26.31-.46.58-.62.26-.15.6-.22,1.03-.22h2.18c.38,0,.69.02.93.06.22.04.59.1.59.42l-.17.74c-.03.14-.15.23-.29.23-.01,0-.02,0-.03,0-.14-.02-.44-.03-.92-.05-.49-.02-1.14-.03-1.96-.03,0,0-.11,0-.11,0-.19,0-.24.05-.24.05-.02.03-.06.08-.06.18v.13c0,.06,0,.14.05.17,0,0,.07.06.29.06h1.78c.37,0,.69.04.95.12.31.09.55.25.72.5.17.24.25.56.25.98v.13c0,.47-.13.86-.38,1.16-.26.31-.7.48-1.3.48h-2.66Z" style="fill: #fff; stroke-width: 0px;"/>
      <path d="M102.09,10.36c-.17,0-.3-.13-.3-.3v-3.64h-1.79c-.17,0-.3-.13-.3-.3v-.77c0-.17.13-.3.3-.3h5.23c.17,0,.3.13.3.3v.77c0,.17-.13.3-.3.3h-1.79v3.64c0,.17-.13.3-.3.3h-1.06Z" style="fill: #fff; stroke-width: 0px;"/>
      <path d="M105.83,10.36c-.17,0-.3-.13-.3-.3v-4.7c0-.17.13-.3.3-.3h4.98c.17,0,.3.13.3.3v.77c0,.17-.13.3-.3.3h-3.62v.5h2.69c.17,0,.3.13.3.3v.79c0,.17-.13.3-.3.3h-2.69v.67h3.65c.12,0,.22.07.27.17l.32.68s.03.08.03.13c0,.3-.32.34-.48.36-.15.02-.41.03-.78.03h-4.37Z" style="fill: #fff; stroke-width: 0px;"/>
      <path d="M116.87,10.44c-.24,0-.49-.04-.72-.11-.25-.08-.52-.27-.82-.57l-.58-.58c-.21-.21-.43-.37-.67-.46-.23-.09-.53-.14-.89-.15v1.48c0,.17-.13.3-.3.3h-1.06c-.17,0-.3-.13-.3-.3v-4.06l-.08-.61c-.01-.08.02-.17.07-.24s.14-.1.22-.1h3.54c.39,0,.69.05.93.16.25.12.43.27.56.47.11.18.19.38.22.58.03.18.04.36.04.52v.15c0,.14-.02.29-.05.46-.04.18-.12.35-.22.52-.12.18-.28.33-.49.45-.03.02-.06.03-.09.05.02.02.38.3.38.3.08.06.15.11.19.14.17.1.32.17.44.2.16.05.25.06.3.06h.15c.09,0,.18.05.24.12.06.07.08.17.05.26l-.16.65c-.02.1-.1.18-.19.21-.06.02-.15.04-.29.06-.12.02-.27.03-.44.03ZM113.55,7.24c.19,0,.38,0,.54,0,.2,0,.37,0,.53-.01.16,0,.3-.02.42-.03.21-.02.28-.08.29-.1.03-.03.06-.08.06-.2v-.18c0-.1-.02-.18-.07-.25-.02-.03-.1-.06-.25-.06h-1.88v.81c.12,0,.24.01.36.01Z" style="fill: #fff; stroke-width: 0px;"/>
      <path d="M121.13,10.36c-.43,0-.77-.06-1.02-.19-.28-.14-.48-.35-.59-.64-.1-.25-.15-.55-.15-.9v-1.78c0-.59.14-1.04.42-1.34.29-.3.74-.46,1.34-.46h2.41c.39,0,.69.02.9.07.19.04.53.11.53.42l-.17.73c-.03.14-.16.23-.29.23-.02,0-.04,0-.05,0-.09-.02-.34-.03-.76-.05-.44-.02-1.08-.03-1.93-.03h-.41c-.32,0-.34.11-.34.27v2.04c0,.1.02.17.06.21,0,0,.05.05.28.05h.33c.51,0,.94,0,1.29-.01h.58v-.5h-.17s-1.05.08-1.05.08c-.08,0-.15-.03-.2-.08-.06-.06-.1-.14-.1-.22v-.78c0-.17.13-.3.3-.3h2.58c.17,0,.3.13.3.3v2.18l.05.11s.03.08.03.13c0,.32-.37.38-.59.41-.24.04-.63.06-1.18.06h-2.38Z" style="fill: #fff; stroke-width: 0px;"/>
      <path d="M129.38,10.36s-.09-.01-.14-.03l-.22-.11c-.21.03-.45.06-.73.09-.32.04-.69.05-1.11.05h-.4c-.49,0-.86-.13-1.1-.38-.24-.25-.36-.58-.36-.99s.13-.77.37-1.01c.25-.24.61-.37,1.08-.37h.41c.41,0,.78.01,1.1.03.17.01.33.02.47.03v-.2s.01-.02-.08-.02h-.4c-.57,0-1.06,0-1.44.03-.38.02-.64.03-.77.05-.01,0-.02,0-.03,0-.15,0-.28-.11-.3-.26l-.09-.61c0-.44.51-.46.89-.48.41-.02,1.09-.02,2.04-.02h.4c.32,0,.56.05.75.15.2.1.34.24.43.4.08.15.13.3.15.45.02.13.02.24.02.33v2.56c0,.17-.13.3-.3.3h-.66ZM126.91,8.83s0,.05,0,.12c0,.09.02.12.02.12h1.84v-.25s-1.77,0-1.77,0c-.04,0-.06,0-.08,0Z" style="fill: #fff; stroke-width: 0px;"/>
      <path d="M134.59,10.44c-.25,0-.48-.03-.67-.1-.2-.07-.41-.21-.62-.42l-.68-.69c-.16-.16-.27-.25-.37-.31-.06-.04-.13-.06-.23-.06v1.19c0,.17-.13.3-.3.3h-.98c-.17,0-.3-.13-.3-.3v-5.06c0-.17.13-.3.3-.3h.98c.17,0,.3.13.3.3v2.54c.08-.07.16-.15.26-.27l.45-.49c.17-.18.32-.35.46-.5.06-.06.14-.1.22-.1h1.18c.1,0,.2.05.26.14.05.09.06.2.01.29l-.13.25c-.18.2-.31.34-.46.48l-.42.41c-.11.11-.22.21-.32.3.04.03.08.06.11.09.13.11.27.24.42.37.15.13.32.28.53.45.14.11.27.18.37.19.13.02.21.03.25.03.09,0,.18.05.23.12.05.07.08.17.05.25l-.14.56c-.03.1-.1.18-.2.21-.06.02-.14.04-.24.06-.11.02-.22.03-.33.03Z" style="fill: #fff; stroke-width: 0px;"/>
      <path d="M139,10.36s-.1-.01-.14-.03l-.21-.11c-.2.04-.42.07-.68.1-.3.03-.64.05-1.01.05h-.41c-.31,0-.55-.04-.74-.13-.2-.1-.35-.23-.44-.39-.08-.14-.13-.29-.15-.45-.01-.13-.02-.25-.02-.35v-2.56c0-.17.13-.3.3-.3h.98c.17,0,.3.13.3.3v2.58s.04.02.08.02h1.52v-2.6c0-.17.14-.3.3-.3h.98c.17,0,.3.13.3.3v3.58c0,.17-.13.3-.3.3h-.66Z" style="fill: #fff; stroke-width: 0px;"/>
      <path d="M141.39,10.36c-.32,0-.56-.04-.75-.13-.2-.1-.35-.23-.44-.39-.08-.14-.13-.29-.15-.45-.01-.13-.02-.25-.02-.35v-1.54c0-.09,0-.2.02-.33.02-.16.07-.31.15-.45.09-.16.24-.3.44-.4.19-.1.44-.14.75-.14h1.72c.39,0,.69.04.92.12.27.09.47.24.59.46.11.2.16.44.16.75v1.18c0,.17-.13.3-.3.3h-1.4c-.49,0-.89-.01-1.19-.03l-.28-.02v.12s0,.02.08.02h.41c.29,0,.56,0,.84-.01.27,0,.52-.02.75-.03.23-.01.56-.04.57-.04.1,0,.2.05.26.14l.32.52s.04.1.04.16c0,.46-.63.55-1.88.55h-1.61ZM143.21,7.7v-.22c-.15-.01-.32-.02-.55-.02h-.97c-.07,0-.1.01-.1.01v.22h1.62Z" style="fill: #fff; stroke-width: 0px;"/>
      <path d="M148.52,10.36c-.17,0-.3-.13-.3-.3v-2.58s0-.02-.08-.02h-1.68v2.6c0,.17-.13.3-.3.3h-.98c-.17,0-.3-.13-.3-.3v-3.58c0-.17.13-.3.3-.3h.66s.09.01.13.03l.23.12c.21-.04.45-.07.73-.1.32-.03.69-.05,1.11-.05h.4c.32,0,.56.05.75.14.2.1.34.24.43.4.08.14.13.29.15.45.02.13.02.24.02.33v2.56c0,.17-.13.3-.3.3h-.98Z" style="fill: #fff; stroke-width: 0px;"/>
    </g>
    <g>
      <path d="M42.86,10.06v-3.94h-2.09v-.77h5.23v.77h-2.09v3.94h-1.06Z" style="fill: #5a6172; stroke-width: 0px;"/>
      <path d="M46.6,10.06v-4.7h1.06v1.95h3.14v-1.95h1.06v4.7h-1.06v-1.98h-3.14v1.98h-1.06Z" style="fill: #5a6172; stroke-width: 0px;"/>
      <path d="M52.93,10.06v-4.7h4.98v.77h-3.92v1.1h2.99v.79h-2.99v1.27h3.95l.32.68s-.07.04-.22.06-.39.03-.74.03h-4.37Z" style="fill: #5a6172; stroke-width: 0px;"/>
      <path d="M60.42,10.06v-4.7h1.06v4.7h-1.06Z" style="fill: #5a6172; stroke-width: 0px;"/>
      <path d="M62.63,10.06v-4.06l-.08-.64h3.71c.43,0,.76.05,1,.16.23.11.39.27.48.48.09.21.14.47.14.79v1.85c0,.32-.04.59-.13.8-.09.21-.25.37-.48.48-.23.11-.57.16-1,.16h-3.63ZM63.69,9.3h2.51c.41,0,.62-.19.62-.57v-2.04c0-.15-.05-.29-.14-.4-.09-.11-.25-.16-.49-.16h-2.51v3.17Z" style="fill: #5a6172; stroke-width: 0px;"/>
      <path d="M70.19,10.06c-.37,0-.67-.05-.88-.16s-.36-.27-.45-.48c-.09-.21-.13-.48-.13-.79v-1.85c0-.31.04-.57.13-.78.08-.21.23-.37.45-.48s.51-.16.89-.16h2.34c.37,0,.67.05.88.16.21.11.36.27.45.48.09.21.13.47.13.78v1.85c0,.47-.1.83-.31,1.07s-.59.36-1.14.36h-2.34ZM70.42,9.3h1.88c.2,0,.35-.05.46-.15.11-.1.16-.24.16-.42v-2.04c0-.15-.06-.29-.17-.4s-.26-.16-.46-.16h-1.88c-.19,0-.35.05-.46.15-.12.1-.18.24-.18.41v2.04c0,.18.06.32.17.42s.27.15.47.15Z" style="fill: #5a6172; stroke-width: 0px;"/>
      <path d="M74.98,10.06l.08-.64v-4.06h1.06v3.94h3.31l.32.68s-.07.04-.22.06c-.14.02-.39.03-.74.03h-3.81Z" style="fill: #5a6172; stroke-width: 0px;"/>
      <path d="M80.35,10.06v-4.06l-.08-.64h1.21l1.81,3.2,1.87-3.2h1.08v4.7h-1.06v-2.98h-.09l-.31.7-1.01,1.81h-.97l-1.01-1.81-.32-.7h-.08v2.98h-1.05Z" style="fill: #5a6172; stroke-width: 0px;"/>
      <path d="M88.86,10.86c-.37,0-.66-.06-.89-.18-.22-.12-.39-.29-.49-.49s-.16-.43-.16-.67v-2.82c0-.29.05-.55.16-.77s.27-.41.49-.54.52-.2.89-.2h3.28c.46,0,.81.12,1.05.36.24.24.36.57.36.98v2.06c0,.33-.1.58-.31.74-.21.17-.48.25-.83.25h-.14c-.29,0-.51-.06-.66-.2-.15-.13-.22-.31-.22-.52-.04.14-.1.26-.18.38-.09.11-.21.2-.38.27-.16.07-.39.1-.67.1h-.62c-.23,0-.4-.06-.52-.18s-.18-.27-.18-.45v-1.74c0-.2.06-.35.18-.47.12-.11.29-.17.52-.17.12,0,.28,0,.47.01.19,0,.39.02.6.03.21.01.4.03.56.04l.49-.24h.32v2.05c0,.13.04.23.11.3.07.07.16.1.27.1h.08c.14,0,.24-.03.3-.1.06-.07.09-.17.09-.3v-1.86c0-.14-.01-.28-.06-.4-.05-.12-.13-.22-.26-.29-.13-.07-.31-.11-.55-.11h-3.05c-.23,0-.42.04-.54.11-.13.07-.21.17-.26.29-.05.12-.07.25-.07.4v2.78c0,.14.02.27.07.39.04.12.13.22.26.3.13.07.31.11.54.11h3.52l-.24.56s-.06.03-.13.05-.17.03-.29.03h-2.92ZM90.06,8.9h.24c.26,0,.45-.06.56-.18.11-.12.16-.3.16-.53v-.85h-.96c-.1,0-.16.02-.2.05-.04.03-.05.1-.05.19v1.07c0,.09.02.15.06.19.04.04.1.06.18.06Z" style="fill: #5a6172; stroke-width: 0px;"/>
      <path d="M95.53,10.06c-.36,0-.63-.02-.8-.05-.17-.03-.26-.07-.26-.11l.32-.7c.12.02.43.04.92.06s1.16.03,2.01.03h.15c.23,0,.39-.04.49-.12.1-.08.14-.22.14-.42v-.16c0-.19-.04-.32-.12-.4s-.25-.12-.52-.12h-1.86c-.54,0-.93-.1-1.18-.3s-.37-.53-.37-.98v-.13c0-.23.04-.45.13-.65.09-.2.24-.36.45-.48s.51-.18.88-.18h2.18c.36,0,.66.02.88.06.22.04.34.08.34.12l-.16.67c-.14-.02-.45-.03-.94-.05-.49-.02-1.15-.03-1.98-.03h-.09c-.24,0-.41.04-.5.14-.08.1-.13.22-.13.37v.14c0,.18.05.31.15.4s.26.13.49.13h1.78c.34,0,.63.03.87.1s.42.2.55.38c.13.18.19.45.19.81v.13c0,.4-.1.72-.31.97-.21.25-.56.37-1.07.37h-2.66Z" style="fill: #5a6172; stroke-width: 0px;"/>
      <path d="M102.09,10.06v-3.94h-2.09v-.77h5.23v.77h-2.09v3.94h-1.06Z" style="fill: #5a6172; stroke-width: 0px;"/>
      <path d="M105.83,10.06v-4.7h4.98v.77h-3.92v1.1h2.99v.79h-2.99v1.27h3.95l.32.68s-.07.04-.21.06c-.14.02-.39.03-.74.03h-4.37Z" style="fill: #5a6172; stroke-width: 0px;"/>
      <path d="M116.87,10.14c-.21,0-.42-.03-.63-.1s-.44-.23-.7-.49l-.58-.58c-.23-.24-.49-.42-.77-.53-.28-.11-.63-.17-1.05-.17h-.25v1.78h-1.06v-4.06l-.08-.65h3.54c.34,0,.61.05.8.14.19.09.34.21.43.36.09.15.15.3.18.47.03.17.04.32.04.47v.15c0,.12-.02.25-.05.39-.03.14-.09.29-.18.42-.09.14-.22.26-.39.35s-.39.15-.66.17c.07.04.16.09.26.17.11.08.22.16.33.25.12.09.22.17.32.25s.17.13.22.16c.19.11.36.19.51.23.15.04.27.07.37.07.1,0,.15,0,.17,0l-.16.65s-.13.03-.24.05c-.11.02-.24.03-.39.03ZM114.1,7.55c.2,0,.38,0,.54-.01.16,0,.3-.02.43-.03.23-.03.4-.09.49-.2s.14-.24.14-.4v-.18c0-.17-.05-.31-.14-.43-.09-.12-.25-.18-.49-.18h-2.18v1.39c.23.02.45.03.65.03s.38,0,.55,0Z" style="fill: #5a6172; stroke-width: 0px;"/>
      <path d="M121.13,10.06c-.38,0-.68-.05-.89-.16-.21-.11-.36-.27-.45-.48-.09-.21-.13-.48-.13-.79v-1.78c0-.51.12-.89.34-1.13.23-.24.6-.36,1.12-.36h2.41c.37,0,.65.02.84.06.19.04.29.08.29.12l-.16.66c-.09-.02-.36-.03-.8-.05s-1.09-.03-1.94-.03h-.41c-.43,0-.64.19-.64.57v2.04c0,.18.05.32.14.42s.26.15.5.15h.33c.51,0,.94,0,1.3-.01.35,0,.64-.01.87-.02v-1.09h-.48s-1.05.09-1.05.09v-.78h2.58v2.25l.08.17s-.11.08-.34.12-.6.05-1.14.05h-2.38Z" style="fill: #5a6172; stroke-width: 0px;"/>
      <path d="M126.78,10.06c-.41,0-.7-.09-.88-.28-.18-.19-.27-.45-.27-.78s.09-.61.28-.8c.19-.19.48-.28.87-.28h.41c.4,0,.76.01,1.08.03.32.02.58.04.79.06v-.53s0-.1-.02-.15c-.01-.05-.04-.09-.1-.12-.05-.03-.14-.05-.27-.05h-.4c-.58,0-1.07,0-1.46.03-.39.02-.65.04-.79.05l-.09-.61c0-.07.2-.12.61-.14s1.08-.02,2.03-.02h.4c.27,0,.47.04.62.11.14.07.25.17.31.28.06.11.1.23.11.34.01.11.02.21.02.29v2.56h-.66l-.31-.16c-.22.04-.49.07-.81.11s-.67.05-1.08.05h-.4ZM126.99,9.38h1.83c.12,0,.19-.01.21-.03.02-.02.03-.09.03-.2v-.62h-2.07c-.14,0-.24.03-.3.1-.06.07-.08.18-.08.33s.03.26.1.32.16.1.29.1Z" style="fill: #5a6172; stroke-width: 0px;"/>
      <path d="M134.59,10.14c-.22,0-.41-.03-.57-.08s-.32-.17-.5-.34c-.02-.02-.06-.06-.13-.13-.07-.07-.15-.15-.23-.23-.08-.08-.16-.16-.23-.23-.07-.07-.11-.11-.13-.14-.13-.13-.26-.24-.38-.31-.12-.07-.27-.11-.44-.11-.12,0-.19.01-.21.03-.02.02-.03.09-.03.22v1.25h-.98v-5.06h.98v2.88h.26c.1,0,.18-.04.26-.11.05-.05.14-.14.27-.29.13-.14.28-.31.45-.49.17-.18.32-.35.46-.5h1.18l-.13.25c-.12.13-.26.26-.4.4-.14.14-.28.28-.42.41-.14.13-.26.25-.37.34s-.2.16-.26.2c.16.09.3.18.43.29.13.11.27.23.42.37.15.14.33.29.54.46.19.15.36.24.52.26.16.02.26.04.29.04l-.14.56c-.05.02-.12.03-.22.05-.09.02-.18.03-.27.03Z" style="fill: #5a6172; stroke-width: 0px;"/>
      <path d="M136.55,10.06c-.26,0-.47-.03-.61-.1-.15-.07-.25-.16-.31-.26-.06-.11-.1-.22-.11-.34-.01-.12-.02-.22-.02-.32v-2.56h.98v2.58c0,.12.03.2.12.25.08.05.17.07.27.07h1.58c.12,0,.19-.01.21-.03.02-.02.03-.09.03-.21v-2.66h.98v3.58h-.66l-.3-.16c-.21.04-.47.08-.76.11-.29.03-.62.05-.98.05h-.41Z" style="fill: #5a6172; stroke-width: 0px;"/>
      <path d="M141.39,10.06c-.27,0-.47-.03-.62-.1-.14-.07-.25-.16-.31-.26-.06-.11-.1-.22-.11-.34-.01-.12-.02-.22-.02-.32v-1.54c0-.08,0-.18.02-.29.01-.11.05-.23.11-.34.06-.11.16-.21.31-.28.15-.07.35-.11.61-.11h1.72c.35,0,.63.03.83.1.2.07.34.17.42.32.08.15.12.35.12.6v1.18h-1.4c-.48,0-.87-.01-1.17-.03-.3-.02-.5-.03-.6-.04v.44c0,.21.12.32.38.32h.41c.29,0,.57,0,.84-.01.27,0,.53-.02.76-.03s.41-.03.55-.04l.32.52c0,.17-.53.25-1.58.25h-1.61ZM141.31,8h2.2v-.51c0-.11-.01-.18-.04-.22-.02-.04-.1-.07-.21-.08s-.32-.02-.6-.02h-.97c-.26,0-.38.11-.38.32v.51Z" style="fill: #5a6172; stroke-width: 0px;"/>
      <path d="M145.18,10.06v-3.58h.66l.32.16c.22-.04.49-.08.81-.11.31-.03.67-.05,1.08-.05h.4c.27,0,.47.04.62.11.14.07.25.17.31.28.06.11.1.23.11.34s.02.21.02.29v2.56h-.98v-2.58c0-.21-.13-.32-.38-.32h-1.74c-.1,0-.17,0-.2.03-.03.02-.04.07-.04.15v2.72h-.98Z" style="fill: #5a6172; stroke-width: 0px;"/>
    </g>
  </g>
  <g>
    <g>
      <path d="M32.46,4.71c-.17,0-.3-.13-.3-.3,0-.49-.28-.9-.6-.9-.17,0-.3-.13-.3-.3s.13-.3.3-.3c.33,0,.6-.41.6-.9,0-.17.13-.3.3-.3s.3.13.3.3c0,.49.28.9.6.9.17,0,.3.13.3.3s-.13.3-.3.3c-.33,0-.6.41-.6.9,0,.17-.13.3-.3.3Z" style="fill: #fff; stroke-width: 0px;"/>
      <path d="M31.98,5.4c-.1-.01-.19-.08-.24-.17-.62-1.31-.63-1.4-.64-1.47,0-.1.01-.19.03-.23.03-.1.12-.18.23-.2.02,0,.04,0,.05,0,.09,0,.18.04.24.11.1.13.52.65.89,1.11.09.11.09.27,0,.38l-.3.37c-.06.07-.14.11-.23.11-.01,0-.02,0-.04,0Z" style="fill: #fff; stroke-width: 0px;"/>
      <path d="M35.79,13.3c-.1,0-.2-.05-.26-.14-.77-1.25-1.74-2.54-3.07-2.54-.1,0-.2-.05-.25-.14-.06-.09-.06-.19-.02-.29.78-1.72.94-3.25.45-4.31-.06-.13-.05-.28.02-.41l.06-.1c.04-.07.11-.12.2-.14.02,0,.04,0,.06,0,.06,0,.12.02.17.06.06.04.13.07.2.11.21.1.47.23.66.5.18.26.23.59.24.85.15.01.31.02.47.02,1.13,0,2.44-.26,3.59-.7.04-.01.07-.02.11-.02.08,0,.17.04.23.1.08.1.1.23.04.34-.56,1.01-2.41,2.69-3.39,2.69-.06,0-.11-.02-.16-.03l.95,3.78c.04.14-.04.29-.17.35-.04.02-.08.02-.12.02ZM34.24,8.88c.07.06.13.13.18.21.05-.08.12-.15.18-.21,0,0,0,0,0,0-.07-.06-.13-.13-.18-.21-.05.08-.12.15-.18.21Z" style="fill: #fff; stroke-width: 0px;"/>
      <path d="M29.14,13.3s-.08,0-.12-.02c-.14-.06-.21-.21-.17-.35,0,0,.93-3.71.93-3.72-.59-.06-1.14-.32-1.61-.75-.1-.09-.12-.23-.07-.35,0-.02.02-.04.04-.06-.81-.29-1.49-.84-1.9-1.57-.06-.11-.05-.25.04-.34.06-.07.14-.1.23-.1.04,0,.07,0,.11.02,1.15.45,2.46.7,3.59.7.16,0,.32,0,.47-.02,0-.26.06-.59.24-.85.19-.27.45-.4.66-.5.1-.05.21-.1.24-.15.15-.19,1.29-1.59,1.46-1.81.06-.07.14-.11.24-.11.02,0,.04,0,.05,0,.11.02.2.1.23.2.01.04.04.13.03.23-.01.1-.07.29-.8,1.81l-.05.1c.07.13.13.27.18.48.42,1.72-.66,4.29-1.49,4.63-.22.09-.45.22-.67.4-.21.16-.41.35-.63.61-.39.45-.73.97-.97,1.37-.06.09-.15.14-.26.14Z" style="fill: #fff; stroke-width: 0px;"/>
    </g>
    <g>
      <path d="M33.36,3.2c-.5,0-.9-.54-.9-1.2,0,.66-.4,1.2-.9,1.2.5,0,.9.54.9,1.2,0-.66.4-1.2.9-1.2Z" style="fill: #ff8b00; stroke-width: 0px;"/>
      <path d="M31.42,3.62s-.02.07-.01.11c0,.1.36.84.61,1.37l.3-.37c-.37-.46-.79-.99-.89-1.11Z" style="fill: #f39800; stroke-width: 0px;"/>
      <path d="M34.42,7.67c0,.63.36,1.15.83,1.2.77.06,2.61-1.53,3.17-2.54-1.53.59-3.2.83-4.48.68.02-.22.03-.65-.18-.95-.21-.31-.57-.39-.79-.54-.02.04-.04.08-.05.09h0s-.04.09-.01.15c.48,1.05.43,2.62-.45,4.56,1.51,0,2.55,1.41,3.33,2.68-.2-.78-.8-3.19-.98-3.9-.23.22-.38.58-.38.98,0-.66-.4-1.2-.9-1.2.5,0,.9-.54.9-1.2ZM33.57,6.28c-.06.06-.16.05-.23-.02-.06-.07-.06-.17,0-.23.06-.06.16-.05.23.02.06.07.06.17,0,.23Z" style="fill: #f39800; stroke-width: 0px;"/>
      <path d="M33.52,3.73s0-.08-.01-.11c-.17.22-1.3,1.62-1.46,1.81-.18.22-.64.27-.89.63-.21.3-.2.73-.18.95-1.28.15-2.95-.09-4.48-.68,1.14,2.04,4.38,2.25,5.85.25-.91,1.7-2.36,1.91-3.98,1.66,1.41,1.3,3.53.64,4.2-1.17-.31,1.41-1.32,2.22-2.51,2.23-.09.37-.71,2.83-.93,3.7.29-.48.62-.97,1-1.41.22-.25.44-.48.67-.65.23-.18.47-.33.74-.44.62-.25,1.72-2.64,1.32-4.28-.11-.43-.25-.48-.19-.62.11-.24.83-1.73.85-1.87ZM31.58,6.26c-.06.07-.16.08-.23.02-.06-.06-.06-.16,0-.23.06-.07.16-.08.23-.02.06.06.06.16,0,.23Z" style="fill: #ff8b00; stroke-width: 0px;"/>
    </g>
  </g>
</svg>