<?xml version="1.0" encoding="UTF-8"?>
<svg id="l" xmlns="http://www.w3.org/2000/svg" version="1.1" xmlns:xlink="http://www.w3.org/1999/xlink" viewBox="0 0 409 63">
  <!-- Generator: Adobe Illustrator 29.1.0, SVG Export Plug-In . SVG Version: 2.1.0 Build 142)  -->
  <defs>
    <style>
      .st0 {
        fill: url(#_名称未設定グラデーション_632);
      }
    </style>
    <linearGradient id="_名称未設定グラデーション_632" data-name="名称未設定グラデーション 632" x1=".02" y1="31.5" x2="408.98" y2="31.5" gradientUnits="userSpaceOnUse">
      <stop offset="0" stop-color="#caf380"/>
      <stop offset="1" stop-color="#99e800"/>
    </linearGradient>
  </defs>
  <path class="st0" d="M61.13,38.64c-3.47,13.99-15.66,23.24-29.98,23.21C12.59,61.8-.01,46.97.02,30.97.06,15.85,11.78.36,31.14.4c18.56.04,28.45,14.39,30.02,23.67l-15.84-.04c-1.67-4.4-6.14-10.34-14.3-10.35-10.16-.02-15.86,8.84-15.88,17.24-.02,8.96,6.04,17.62,15.88,17.64,9.44.02,13.3-7.89,14.26-9.97l15.84.04Z"/>
  <path class="st0" d="M79.87,60.84l-16.4-.04L87.06,1.66l13.04.03,22.58,59.26-16.56-.04-2.78-8.57-20.72-.05-2.74,8.55ZM92.85,19.67l-6.45,20.62,13.04.03-6.59-20.66Z"/>
  <path class="st0" d="M132.9,1.77l19.36.05c9.28.02,15.04,1.72,18.31,4.28,4.95,3.85,7.18,9.7,7.16,16.18-.01,4.56-1.3,8.08-2.99,10.71-2.01,3.12-4.89,5.11-7.7,6.3l12.19,21.79-15.6-.04-15.37-28.6h2.48c3.84.02,7.12-.3,9.12-1.57,1.84-1.2,3.37-3.99,3.38-7.27,0-3.12-1.51-5.6-3.5-6.89-1.68-1.04-4.08-1.61-6.16-1.61h-5.6s-.11,45.91-.11,45.91l-15.12-.04.14-59.2Z"/>
  <path class="st0" d="M189.14,1.9l19.6.05c6.64.02,18.48.04,26.13,11.1,4.07,5.61,5.41,11.93,5.4,18.41-.04,16.16-8.07,29.74-30.55,29.69l-20.72-.05.14-59.2ZM204.15,47.86l6.48.02c11.28.03,14.5-7.81,14.52-16.21,0-3.36-.7-7.6-2.85-10.97-1.75-2.64-4.79-5.45-11.51-5.47l-6.56-.02-.08,32.64Z"/>
  <path class="st0" d="M252.89,2.06l15.12.04-.11,45.92,17.52.04-.03,13.28-32.64-.08.14-59.2Z"/>
  <path class="st0" d="M295.45,2.16l15.12.04-.14,59.2-15.12-.04.14-59.2Z"/>
  <path class="st0" d="M336.88,41.86c-.02,6.88,4.22,8.09,6.14,8.1,3.6,0,5.77-2.95,5.77-5.67,0-3.12-2.47-4.09-11.58-7.95-4.16-1.69-14.47-5.88-14.44-17,.03-11.92,10.84-18.21,20.76-18.19,8.16.02,19.67,4.21,19.88,18.45l-14.96-.04c-.32-2-.79-5.76-5.43-5.77-2.64,0-5.2,1.83-5.21,4.63,0,2.72,1.59,3.44,12.22,8.27,11.03,4.99,13.82,10.11,13.8,16.99-.02,9.44-5.01,18.95-20.69,18.91-15.52-.04-21.74-9.17-21.31-20.77l15.04.04Z"/>
  <path class="st0" d="M382.22,15.65l-11.68-.03.03-13.28,38.4.09-.03,13.28-11.6-.03-.11,45.92-15.12-.04.11-45.92Z"/>
</svg>