<?xml version="1.0" encoding="UTF-8"?>
<svg id="_レイヤー_1" data-name="レイヤー_1" xmlns="http://www.w3.org/2000/svg" version="1.1" viewBox="0 0 157 22">
  <!-- Generator: Adobe Illustrator 29.1.0, SVG Export Plug-In . SVG Version: 2.1.0 Build 142)  -->
  <defs>
    <style>
      .st0 {
        fill: #231815;
      }
    </style>
  </defs>
  <path class="st0" d="M.35,17.39c4.39-.54,5.94-2.79,6.05-8.79H1.04s0-4.12,0-4.12h5.54s.01-4.16.01-4.16h4.2s-.01,4.19-.01,4.19l9.58.02-.02,9.1c.04,5.33-1.96,7.34-7.36,7.47h-2.28s0-4.11,0-4.11h1.73c3.19-.04,3.65-.56,3.66-4.12v-4.25s-5.51-.01-5.51-.01c-.3,4.7-1.05,7.34-2.66,9.21-1.95,2.28-4.28,3.4-7.59,3.65v-4.08Z"/>
  <path class="st0" d="M49.26,8.78v4.08s-19.67-.05-19.67-.05v-4.08s19.67.05,19.67.05Z"/>
  <path class="st0" d="M63.58.58l-.02,6.43,2.02.56c1.32.39,2.64.75,3.96,1.11,1.01.27,2.09.61,4.92,1.48v4.54c-2.58-1.01-6.01-2.1-10.9-3.48l-.02,10.22h-4.44s.05-20.87.05-20.87h4.44ZM71.75.48v3.65s-2.27,0-2.27,0V.47s2.27,0,2.27,0ZM74.75.48v3.65s-2.24,0-2.24,0V.48s2.24,0,2.24,0Z"/>
  <path class="st0" d="M91.75,16.85c4.49-.04,6-1.71,5.92-6.51l.02-9.98h4.37s-.02,9.18-.02,9.18c.01,4.56-.45,6.67-1.92,8.47-1.61,1.99-4.3,2.97-8.07,2.96l-7.85-.02v-4.1s7.55.02,7.55.02ZM84.27.41h4.37s-.03,13.07-.03,13.07h-4.37s.03-13.07.03-13.07Z"/>
  <path class="st0" d="M112.32,5.13V1.17s17.36.04,17.36.04c-1.31,4.17-2.39,6.91-3.91,9.78,2.66,3.73,4.4,6.66,6.17,10.31h-5.21c-1.05-2.54-1.79-3.95-3.2-6.24-2.29,4.12-5.46,6.18-9.88,6.46h-3.02s0-4.06,0-4.06h1.51c3.65.04,5.52-.87,7.31-3.53,1.18-1.65,3.04-5.49,4.25-8.77l-11.38-.03Z"/>
  <path class="st0" d="M145.52.41l-.02,6.41c5.59,1.36,7.63,1.94,11.15,3.17v4.44c-3.22-1.18-6.25-2.08-11.16-3.29l-.03,10.54h-4.39s.05-21.28.05-21.28h4.39Z"/>
</svg>