<?xml version="1.0" encoding="UTF-8"?>
<svg id="category" xmlns="http://www.w3.org/2000/svg" xmlns:xlink="http://www.w3.org/1999/xlink" viewBox="0 0 40 40">
  <defs>
    <style>
      .cls-1 {
        fill: #fff;
      }

      .cls-2 {
        fill: url(#_名称未設定グラデーション_32);
      }
    </style>
    <linearGradient id="_名称未設定グラデーション_32" data-name="名称未設定グラデーション 32" x1="20" y1="37.65" x2="20" y2="2.35" gradientUnits="userSpaceOnUse">
      <stop offset="0" stop-color="#a8d9ff"/>
      <stop offset="1" stop-color="#73a3ea"/>
    </linearGradient>
  </defs>
  <g id="shinycolors">
    <g id="c-media">
      <g>
        <path class="cls-1" d="m34.32,10.87c-.14-.41-.52-.67-.94-.67-.05,0-.11,0-.16.01l-4.95.82c-.34.06-.63.29-.76.61-.13.32-.09.69.12.97l.51.7-2.22,1.04c-.44.21-.67.7-.54,1.17.12.44.52.73.96.73.04,0,.07,0,.1,0l5.7-.59c.35-.04.65-.25.8-.57s.12-.69-.08-.98l-.72-1.06,1.72-.97c.42-.24.61-.75.45-1.2Z"/>
        <path class="cls-1" d="m23.73,17.79c.62-.7.98-1.61.98-2.56,0-1.11-.47-2.09-1.22-2.79l5.72-4.39c.28-.21.42-.56.38-.91-.04-.35-.26-.65-.58-.8l-1.87-.86,1.49-2.64c.24-.42.14-.96-.24-1.26-.18-.15-.41-.23-.63-.23s-.47.08-.66.24l-5.09,4.42c-.26.23-.39.57-.33.92.06.34.28.63.6.76l1.43.59-2.06,3.11s-.02.06-.04.08c-.22-.04-.45-.07-.69-.07-1,0-1.91.4-2.58,1.05-.06-.22-.19-.42-.39-.56l-5.73-4.04c-.17-.12-.37-.18-.58-.18-.14,0-.28.03-.41.09-.32.15-.54.45-.58.8l-.18,1.67-3.56-1.08c-.1-.03-.19-.04-.29-.04-.38,0-.75.22-.91.59-.21.46-.04,1,.38,1.26l6.29,3.89c.16.1.34.15.53.15.16,0,.31-.04.46-.11.31-.16.52-.47.54-.82l.09-1.31,3.1.89c.09.03.18.04.28.04.03,0,.06,0,.09-.01-.2.47-.32.98-.32,1.53,0,.95.36,1.86.99,2.56l-7.07,19.51c-.11.31-.07.65.12.92.19.27.49.43.82.43h2.65c.42,0,.8-.26.94-.66l1.03-2.84,7.52-3.02,2.12,5.85c.14.4.52.66.94.66h2.65c.33,0,.63-.16.82-.43.19-.27.23-.61.12-.92l-7.07-19.5Z"/>
      </g>
      <path class="cls-2" d="m22.49,11.95l2.73-4.12-2.55-1.06,5.09-4.42-2.02,3.59,2.85,1.31-6.11,4.7Zm-9.39-.47l4.28,1.23-5.73-4.04-.31,2.87-4.72-1.43,6.3,3.89.18-2.54Zm20.29-.28l-4.95.82,1.23,1.68-3.32,1.55,5.7-.59-1.32-1.96,2.66-1.5Zm-10.82,6.3l7.3,20.13h-2.65l-2.47-6.82-8.9,3.57-1.18,3.26h-2.65l7.3-20.14c-.7-.51-1.15-1.34-1.15-2.28,0-1.56,1.25-2.82,2.78-2.82s2.78,1.27,2.78,2.82c0,.94-.46,1.76-1.15,2.27Zm-3.31,7.46l2.81-1.52-1.13-3.11-1.68,4.64Zm1.22,4.57l-2.64-.68-.74,2.03,3.37-1.35Zm.99-2.62l2.05.53-.49-1.37-1.55.84Z"/>
    </g>
  </g>
</svg>