<?xml version="1.0" encoding="UTF-8"?>
<svg id="category" xmlns="http://www.w3.org/2000/svg" xmlns:xlink="http://www.w3.org/1999/xlink" viewBox="0 0 40 40">
  <defs>
    <style>
      .cls-1 {
        fill: #fff;
      }

      .cls-2 {
        fill: url(#_名称未設定グラデーション_32);
      }
    </style>
    <linearGradient id="_名称未設定グラデーション_32" data-name="名称未設定グラデーション 32" x1="20" y1="33.87" x2="20" y2="6.13" gradientUnits="userSpaceOnUse">
      <stop offset="0" stop-color="#a8d9ff"/>
      <stop offset="1" stop-color="#73a3ea"/>
    </linearGradient>
  </defs>
  <g id="shinycolors">
    <g id="c-movie">
      <path class="cls-1" d="m6.91,34.87c-2.14,0-3.88-1.68-3.88-3.75v-15.78l-.35-2.73c-.13-1.03.15-2.04.8-2.87.67-.86,1.66-1.41,2.77-1.54l25.94-3.04c.16-.02.33-.03.5-.03.04,0,.16,0,.2.01.09,0,.21.01.32.03.14.02.28.04.42.07.11.02.22.05.33.09.13.04.26.09.39.15.09.04.19.08.29.14.13.07.25.14.37.22.11.07.19.13.26.19.1.08.21.18.31.28.1.1.16.16.22.22.11.12.19.24.28.37.07.1.12.17.16.24.08.14.15.29.21.44.05.11.08.18.11.25.09.26.15.52.18.77l.38,2.93c.03.26-.04.53-.2.74-.17.21-.41.35-.67.38l-9.92,1.16h10.03c.55,0,1,.45,1,1v16.31c0,2.07-1.74,3.75-3.88,3.75H6.91Z"/>
      <path class="cls-2" d="m9.19,14.81l26.93-3.16-.38-2.93c-.03-.2-.07-.38-.13-.56-.02-.06-.05-.12-.08-.17-.05-.12-.1-.23-.16-.34-.04-.06-.08-.12-.13-.18-.06-.09-.13-.18-.2-.27-.05-.06-.11-.11-.17-.17-.08-.08-.15-.15-.24-.22-.06-.05-.13-.09-.2-.14-.09-.06-.18-.12-.27-.17-.07-.04-.15-.07-.23-.11-.1-.04-.2-.08-.3-.11-.08-.03-.16-.05-.25-.07-.11-.02-.21-.04-.32-.06-.09-.01-.17-.02-.26-.02-.04,0-.09-.01-.13-.01-.13,0-.25,0-.38.02l-25.93,3.04c-1.69.2-2.9,1.67-2.69,3.29l.36,2.8v15.84c0,1.52,1.29,2.75,2.88,2.75h26.55c1.59,0,2.88-1.23,2.88-2.75V14.81H9.19Zm2.37-2.13l1.73-2.45,2.9-.34-1.73,2.45-2.9.34Zm5.81-.68l1.73-2.45,2.9-.34-1.73,2.45-2.9.34Zm5.81-.68l1.73-2.45,2.9-.34-1.73,2.45-2.9.34Zm8.71-1.02l-2.9.34,1.73-2.45,2.9-.34-1.73,2.45Zm-24.38.61l2.9-.34-1.73,2.45-2.9.34,1.73-2.45Zm8.41,18v-9.13l9.83,4.57-9.83,4.57Z"/>
    </g>
  </g>
</svg>