<?xml version="1.0" encoding="UTF-8"?><svg id="_レイヤー_2" xmlns="http://www.w3.org/2000/svg" viewBox="0 0 176 15"><g id="brand_room"><g id="shinycolors"><path d="m35.57,4.46h-1.06c-.17,0-.3.13-.3.3v1.65h-2.54v-1.65c0-.17-.13-.3-.3-.3h-1.05c-.17,0-.3.13-.3.3v4.7c0,.17.13.3.3.3h1.05c.17,0,.3-.13.3-.3v-1.68h2.54v1.68c0,.17.13.3.3.3h1.06c.17,0,.3-.13.3-.3v-4.7c0-.17-.13-.3-.3-.3Z" style="fill:#fff;"/><path d="m41.93,8.57c-.05-.11-.16-.17-.27-.17h-3.65v-.67h2.69c.17,0,.3-.13.3-.3v-.79c0-.17-.13-.3-.3-.3h-2.69v-.5h3.62c.17,0,.3-.13.3-.3v-.77c0-.17-.13-.3-.3-.3h-4.98c-.17,0-.3.13-.3.3v4.7c0,.17.13.3.3.3h4.37c.37,0,.63-.01.78-.03.16-.02.48-.06.48-.36,0-.04,0-.09-.03-.13l-.32-.68Z" style="fill:#fff;"/><rect x="43.84" y="4.46" width="1.66" height="5.3" rx=".3" ry=".3" style="fill:#fff;"/><path d="m51.11,4.65c-.27-.13-.64-.19-1.12-.19h-3.71c-.09,0-.17.04-.22.1-.06.06-.08.15-.07.24l.08.6v4.06c0,.17.13.3.3.3h3.63c.49,0,.86-.06,1.13-.19.3-.14.51-.35.63-.63.1-.25.16-.55.16-.91v-1.85c0-.36-.05-.66-.16-.91-.12-.28-.33-.49-.63-.63Zm-3.4,1.18h2.21c.17,0,.24.04.26.06.04.05.07.12.07.2v2.04c0,.16-.03.27-.32.27h-2.21v-2.57Z" style="fill:#fff;"/><path d="m57.25,4.66c-.26-.13-.59-.2-1.01-.2h-2.34c-.43,0-.77.06-1.02.2-.28.14-.48.36-.59.63-.1.25-.15.55-.15.89v1.85c0,.35.05.66.15.91.12.28.32.49.59.63.26.13.59.19,1.01.19h2.34c.65,0,1.1-.15,1.37-.47.26-.3.38-.72.38-1.26v-1.85c0-.35-.05-.65-.16-.9-.12-.28-.31-.49-.59-.63Zm-.91,1.43v2.04c0,.12-.04.17-.07.2-.05.05-.14.07-.26.07h-1.88c-.12,0-.21-.03-.27-.08-.03-.03-.07-.07-.07-.19v-2.04c0-.1.04-.15.07-.18.06-.05.15-.08.27-.08h1.88c.17,0,.23.06.25.08.05.05.08.11.08.18Z" style="fill:#fff;"/><path d="m63.42,8.57c-.05-.1-.16-.17-.27-.17h-3.01v-3.64c0-.17-.13-.3-.3-.3h-1.06c-.17,0-.3.13-.3.3v4.03s-.08.64-.08.64c-.01.09.02.17.07.24.06.06.14.1.22.1h3.81c.37,0,.63-.01.78-.03.16-.02.48-.06.48-.36,0-.04,0-.09-.03-.13l-.32-.68Z" style="fill:#fff;"/><path d="m69.96,4.46h-1.08c-.11,0-.21.06-.26.15l-1.61,2.75-1.55-2.75c-.05-.09-.15-.15-.26-.15h-1.22c-.09,0-.17.04-.22.1-.06.06-.08.15-.07.24l.08.6v4.06c0,.17.13.3.3.3h1.06c.17,0,.3-.13.3-.3v-1.85l.85,1.52c.05.1.15.15.26.15h.97c.11,0,.21-.06.26-.15l.85-1.52v1.85c0,.17.13.3.3.3h1.06c.17,0,.3-.13.3-.3v-4.7c0-.17-.13-.3-.3-.3Z" style="fill:#fff;"/><path d="m75.86,4.3h-3.28c-.42,0-.77.08-1.04.24-.28.16-.48.39-.61.67-.12.26-.18.57-.18.9v2.82c0,.29.06.57.19.81.13.26.34.46.62.62.27.15.61.22,1.03.22h2.92c.15,0,.27-.01.37-.04.12-.03.2-.07.26-.12.03-.03.05-.06.07-.1l.24-.56c.04-.09.03-.2-.03-.28-.05-.08-.15-.13-.25-.13h-3.52c-.22,0-.34-.04-.39-.07-.09-.05-.12-.1-.13-.14-.03-.09-.05-.18-.05-.29v-2.78c0-.11.02-.2.05-.29.01-.03.04-.09.13-.14.06-.03.17-.07.39-.07h3.05c.24,0,.35.04.39.07.09.05.12.1.13.14.03.08.04.17.04.29v1.86c0,.06,0,.09,0,.1-.03,0-.16.01-.16.01l-.08-.11v-2.05c0-.17-.13-.3-.3-.3h-.32s-.09.01-.13.03l-.42.2s-.89-.06-1.09-.06c-.2,0-.36-.01-.48-.01-.31,0-.55.08-.73.26-.18.17-.27.41-.27.68v1.74c0,.26.09.49.27.67.18.18.43.27.74.27h.62c.32,0,.58-.04.78-.12.16-.06.29-.15.4-.25.02.03.05.05.08.08.2.18.49.27.85.27h.14c.42,0,.76-.11,1.02-.31.28-.22.42-.55.42-.98v-2.06c0-.5-.15-.9-.45-1.2-.3-.3-.72-.45-1.26-.45Zm-1.42,2.74v.55c0,.15-.03.26-.09.33-.05.05-.17.08-.33.08l-.19.05v-1.01h.61Z" style="fill:#fff;"/><path d="m82.62,6.52c-.27-.08-.59-.12-.96-.12h-1.78c-.22,0-.28-.05-.29-.06-.04-.04-.05-.11-.05-.17v-.13c0-.11.04-.16.06-.18,0,0,.06-.05.24-.05,0,0,.11,0,.11,0,.82,0,1.48,0,1.96.03.48.02.79.03.92.05.01,0,.02,0,.03,0,.14,0,.26-.09.29-.23l.17-.74c0-.32-.37-.38-.59-.42-.24-.04-.55-.06-.93-.06h-2.18c-.43,0-.77.07-1.03.22-.27.15-.46.36-.58.62-.1.23-.16.49-.16.77v.13c0,.55.16.95.48,1.21.3.25.75.37,1.37.37h1.86c.21,0,.29.03.3.03,0,0,.03.06.03.19v.16c0,.13-.03.18-.04.19,0,0-.07.05-.29.05h-.15c-.85,0-1.52,0-2-.03-.47-.02-.76-.04-.88-.06-.02,0-.04,0-.05,0-.12,0-.22.07-.27.17l-.32.7s-.03.08-.03.12c0,.31.36.38.5.41.19.04.47.05.85.05h2.66c.6,0,1.04-.16,1.3-.48.25-.3.38-.69.38-1.16v-.13c0-.42-.08-.75-.25-.98-.17-.24-.41-.41-.71-.5Z" style="fill:#fff;"/><path d="m94.83,8.57c-.05-.1-.16-.17-.27-.17h-3.65v-.67h2.69c.17,0,.3-.13.3-.3v-.79c0-.17-.13-.3-.3-.3h-2.69v-.5h3.62c.17,0,.3-.13.3-.3v-.77c0-.17-.13-.3-.3-.3h-4.98c-.17,0-.3.13-.3.3h0c0-.17-.13-.31-.3-.31h-5.23c-.17,0-.3.13-.3.3v.77c0,.17.13.3.3.3h1.78v3.64c0,.17.14.3.31.3h1.06c.17,0,.3-.13.3-.3v-3.64h1.79c.17,0,.3-.13.3-.3v3.94c0,.17.13.3.3.3h4.37c.37,0,.63-.01.78-.03.16-.02.48-.06.48-.36,0-.04,0-.09-.03-.13l-.32-.68Z" style="fill:#fff;"/><path d="m101.39,8.52h-.15c-.05-.01-.14-.02-.3-.07-.12-.03-.27-.1-.44-.2-.05-.03-.11-.07-.19-.14,0,0-.36-.28-.38-.3.03-.01.06-.03.09-.05.21-.12.37-.27.49-.45.11-.17.19-.34.23-.52.04-.16.05-.32.05-.46v-.15c0-.16-.01-.34-.04-.52-.03-.2-.11-.4-.22-.58-.12-.19-.31-.35-.56-.47-.24-.11-.54-.16-.93-.16h-3.54c-.09,0-.17.04-.22.1s-.08.15-.07.24l.08.61v4.06c0,.17.13.3.3.3h1.06c.17,0,.3-.13.3-.3v-1.48c.36,0,.66.05.89.15.24.1.46.25.67.46l.57.58c.3.3.57.48.82.57.24.08.48.11.72.11.17,0,.32-.01.44-.03.13-.02.23-.04.29-.06.1-.03.17-.11.2-.21l.16-.65c.02-.09,0-.18-.05-.26-.06-.07-.14-.12-.24-.12Zm-4.47-2.7h1.88c.15,0,.23.03.25.06.05.07.07.15.07.25v.18c0,.12-.04.17-.06.2-.02.02-.08.07-.29.1-.12.01-.27.02-.42.03-.16,0-.33.01-.53.01-.17,0-.35,0-.54,0-.11,0-.23,0-.36-.01v-.81Z" style="fill:#fff;"/><path d="m107.73,6.52c-.27-.08-.59-.12-.95-.12h-1.78c-.22,0-.29-.05-.29-.06-.04-.03-.05-.11-.05-.17v-.13c0-.1.04-.15.06-.18,0,0,.06-.05.24-.05,0,0,.11,0,.11,0,.82,0,1.48,0,1.96.03.48.02.79.03.92.05.01,0,.02,0,.03,0,.14,0,.26-.09.29-.23l.17-.74c0-.32-.37-.38-.59-.42-.24-.04-.55-.06-.93-.06h-2.18c-.43,0-.77.07-1.03.22-.27.15-.46.36-.58.62-.1.23-.16.49-.16.77v.13c0,.55.16.95.48,1.21.3.25.75.37,1.37.37h1.86c.22,0,.29.03.3.03h0s.03.06.03.19v.16c0,.13-.03.18-.04.19,0,0-.06.05-.29.05h-.15c-.85,0-1.51,0-2-.03-.47-.02-.76-.04-.88-.06-.02,0-.04,0-.05,0-.12,0-.22.07-.27.17l-.32.7s-.03.08-.03.13c0,.31.35.38.5.41.19.04.47.05.86.05h2.66c.6,0,1.03-.16,1.3-.48.25-.3.38-.69.38-1.16v-.13c0-.42-.08-.74-.25-.98-.17-.24-.41-.41-.72-.5Z" style="fill:#fff;"/><path d="m114.56,4.46h-1.06c-.17,0-.3.13-.3.3v1.65h-2.54v-1.65c0-.17-.13-.3-.3-.3h-1.06c-.17,0-.3.13-.3.3v4.7c0,.17.13.3.3.3h1.06c.17,0,.3-.13.3-.3v-1.68h2.54v1.68c0,.17.13.3.3.3h1.06c.17,0,.3-.13.3-.3v-4.7c0-.17-.13-.3-.3-.3Z" style="fill:#fff;"/><rect x="115.34" y="4.46" width="1.66" height="5.3" rx=".3" ry=".3" style="fill:#fff;"/><path d="m129.37,4.46h-1.28c-.09,0-.18.04-.24.11l-1.19,1.5-.17.23-.17-.23-1.18-1.5c-.06-.07-.14-.11-.24-.11h-1.28c-.12,0-.22.07-.27.17,0,0,0,0,0,0-.05-.1-.13-.18-.25-.18h-1.05c-.17,0-.3.13-.3.3v2.52l-2.6-2.73c-.06-.06-.13-.09-.22-.09h-1.15c-.09,0-.17.04-.22.1-.06.06-.08.15-.07.24l.08.6v4.06c0,.17.13.3.3.3h1.06c.17,0,.3-.13.3-.3v-2.56l2.66,2.77c.06.06.13.09.22.09h1.02c.17,0,.3-.13.3-.3v-4.5l2.25,2.66v1.84c0,.17.13.3.3.3h1.05c.17,0,.3-.13.3-.3v-1.81l2-2.25.31-.48c.06-.09.07-.21.01-.31s-.15-.16-.26-.16Z" style="fill:#fff;"/><path d="m136.61,8.45c-.06-.09-.15-.14-.25-.14-.02,0-.04,0-.05,0-.11.02-.4.04-.87.06-.49.02-1.17.03-2.05.03h-.33c-.23,0-.28-.05-.28-.05-.04-.04-.06-.11-.06-.21v-2.04c0-.16.02-.27.34-.27h.41c.84,0,1.48,0,1.93.03.42.02.68.03.77.05.02,0,.04,0,.05,0,.14,0,.26-.09.29-.23l.17-.73c0-.31-.35-.38-.53-.42-.22-.04-.51-.07-.9-.07h-2.41c-.6,0-1.05.15-1.34.46-.28.3-.43.75-.43,1.34v1.78c0,.36.05.65.15.9.11.28.31.5.59.64.26.13.59.19,1.02.19h2.22c.46,0,.82-.02,1.07-.07.28-.05.46-.11.59-.18.09-.05.28-.17.28-.38,0-.06-.02-.11-.04-.16l-.33-.53Z" style="fill:#fff;"/><path d="m142.02,4.66c-.26-.13-.59-.2-1.01-.2h-2.34c-.43,0-.77.06-1.02.2-.28.14-.48.35-.59.63-.1.25-.15.54-.15.89v1.85c0,.35.05.66.15.91.12.28.32.5.6.63.26.13.59.19,1.01.19h2.34c.65,0,1.1-.15,1.37-.47.25-.3.38-.72.38-1.26v-1.85c0-.35-.05-.65-.16-.9-.12-.28-.31-.49-.59-.63Zm-.91,1.43v2.04c0,.12-.04.17-.07.2-.05.05-.14.07-.26.07h-1.88c-.12,0-.21-.03-.27-.08-.03-.03-.07-.07-.07-.19v-2.04c0-.1.04-.15.07-.18.06-.05.15-.08.27-.08h1.88c.15,0,.21.05.25.08.05.05.08.11.08.18Z" style="fill:#fff;"/><path d="m148.18,8.57c-.05-.1-.16-.17-.27-.17h-3.01v-3.64c0-.17-.13-.3-.3-.3h-1.05c-.17,0-.3.13-.3.3v4.03s-.08.64-.08.64c-.01.09.02.17.07.24.06.06.14.1.22.1h3.81c.37,0,.63-.01.78-.03.16-.02.48-.06.48-.36,0-.04,0-.09-.03-.13l-.32-.68Z" style="fill:#fff;"/><path d="m153.48,4.66c-.26-.13-.59-.2-1.01-.2h-2.34c-.43,0-.77.06-1.02.2-.28.14-.48.36-.59.63-.1.25-.15.55-.15.89v1.85c0,.35.05.66.15.91.12.28.32.49.59.63.26.13.59.19,1.01.19h2.34c.65,0,1.1-.15,1.37-.47.26-.3.38-.72.38-1.26v-1.85c0-.35-.05-.65-.16-.9-.12-.28-.31-.49-.59-.63Zm-.91,1.43v2.04c0,.12-.04.17-.07.2-.05.05-.14.07-.26.07h-1.88c-.12,0-.21-.03-.27-.08-.03-.03-.07-.07-.07-.19v-2.04c0-.1.04-.15.07-.18.06-.05.15-.08.27-.08h1.88c.17,0,.23.06.25.08.05.05.08.11.08.18Z" style="fill:#fff;"/><path d="m166.33,7.02c-.17-.24-.41-.41-.71-.5-.27-.08-.58-.12-.96-.12h-1.78c-.22,0-.28-.05-.29-.06-.04-.03-.05-.11-.05-.17v-.13c0-.1.04-.16.06-.18,0,0,.06-.05.24-.05,0,0,.11,0,.11,0,.82,0,1.48,0,1.96.03.48.02.79.03.92.05.01,0,.02,0,.03,0,.14,0,.26-.09.29-.23l.17-.74c0-.32-.37-.38-.59-.42-.24-.04-.55-.06-.93-.06h-2.18c-.43,0-.77.07-1.03.22-.27.15-.46.36-.58.62-.11.24-.16.5-.16.77v.13c0,.55.16.95.48,1.21.3.25.75.37,1.37.37h1.86c.22,0,.29.03.3.03h0s.03.05.03.19v.16c0,.12-.03.18-.04.19,0,0-.06.05-.29.05h-.15c-.85,0-1.51,0-2-.03-.47-.02-.76-.04-.88-.06-.02,0-.04,0-.05,0-.12,0-.22.07-.27.17l-.12.26s-.03-.08-.05-.11c-.06-.07-.14-.12-.24-.12h-.15c-.05-.01-.14-.02-.3-.07-.12-.03-.27-.1-.44-.2-.05-.03-.11-.07-.19-.14,0,0-.36-.28-.38-.3.03-.01.06-.03.09-.05.21-.12.37-.27.49-.45.11-.17.19-.34.23-.52.04-.16.05-.32.05-.46v-.15c0-.16-.01-.34-.04-.52-.03-.2-.11-.4-.22-.58-.12-.19-.31-.35-.56-.47-.24-.11-.54-.16-.93-.16h-3.54c-.09,0-.17.04-.22.1s-.08.15-.07.24l.08.61v4.06c0,.17.13.3.3.3h1.06c.17,0,.3-.13.3-.3v-1.48c.36,0,.66.05.89.15.24.1.46.25.67.46l.57.58c.3.3.57.48.82.57.24.08.48.11.72.11.17,0,.32-.01.44-.03.13-.02.23-.04.29-.06.1-.03.17-.11.2-.21v-.02c.12.13.32.18.43.2.19.04.47.05.86.05h2.66c.6,0,1.03-.16,1.3-.48.25-.3.38-.69.38-1.16v-.13c0-.42-.08-.75-.25-.98Zm-9.97-1.2h1.88c.15,0,.23.03.25.06.05.07.07.15.07.25v.18c0,.12-.04.17-.06.2-.02.02-.08.07-.29.1-.12.01-.27.02-.42.03-.16,0-.33.01-.53.01-.17,0-.35,0-.54,0-.11,0-.23,0-.36-.01v-.81Z" style="fill:#fff;"/><path d="m26.58,9.47v-3.94h-2.09v-.77h5.23v.77h-2.09v3.94h-1.06Z" style="fill:#5a6172;"/><path d="m30.32,9.47v-4.7h1.05v1.95h3.14v-1.95h1.06v4.7h-1.06v-1.98h-3.14v1.98h-1.05Z" style="fill:#5a6172;"/><path d="m36.65,9.47v-4.7h4.98v.77h-3.92v1.1h2.99v.79h-2.99v1.27h3.95l.32.68s-.07.04-.21.06c-.14.02-.39.03-.74.03h-4.37Z" style="fill:#5a6172;"/><path d="m44.14,9.47v-4.7h1.06v4.7h-1.06Z" style="fill:#5a6172;"/><path d="m46.35,9.47v-4.06l-.08-.64h3.71c.43,0,.76.05,1,.16.23.11.39.27.48.48.09.21.14.47.14.79v1.85c0,.32-.04.59-.13.8-.09.21-.25.37-.48.48-.23.11-.57.16-1,.16h-3.63Zm1.06-.77h2.51c.41,0,.62-.19.62-.57v-2.04c0-.15-.04-.29-.14-.4s-.25-.16-.49-.16h-2.51v3.17Z" style="fill:#5a6172;"/><path d="m53.9,9.47c-.37,0-.67-.05-.88-.16-.21-.11-.36-.27-.45-.48-.09-.21-.13-.48-.13-.79v-1.85c0-.31.04-.57.13-.78.08-.21.24-.37.45-.48s.51-.16.89-.16h2.34c.37,0,.67.05.88.16s.36.27.45.48c.09.21.13.47.13.78v1.85c0,.47-.1.83-.31,1.07-.21.24-.59.36-1.14.36h-2.34Zm.23-.77h1.88c.2,0,.35-.05.46-.15.11-.1.16-.24.16-.42v-2.04c0-.15-.05-.29-.17-.4-.11-.11-.26-.16-.46-.16h-1.88c-.19,0-.35.05-.46.15-.12.1-.18.24-.18.41v2.04c0,.18.06.32.17.42.11.1.27.15.47.15Z" style="fill:#5a6172;"/><path d="m58.7,9.47l.08-.64v-4.06h1.06v3.94h3.31l.32.68s-.07.04-.22.06-.39.03-.74.03h-3.81Z" style="fill:#5a6172;"/><path d="m64.06,9.47v-4.06l-.08-.64h1.22l1.81,3.2,1.87-3.2h1.08v4.7h-1.06v-2.98h-.09l-.31.7-1.01,1.81h-.97l-1.01-1.81-.32-.7h-.08v2.98h-1.06Z" style="fill:#5a6172;"/><path d="m72.58,10.27c-.37,0-.66-.06-.89-.18-.22-.12-.39-.29-.49-.49-.1-.2-.16-.43-.16-.67v-2.82c0-.29.05-.55.16-.77.1-.23.27-.41.49-.54.22-.13.52-.2.89-.2h3.28c.46,0,.81.12,1.05.36.24.24.37.57.37.98v2.06c0,.33-.1.58-.31.74-.21.17-.48.25-.83.25h-.14c-.29,0-.51-.06-.66-.2s-.22-.31-.22-.52c-.04.14-.1.26-.18.38-.08.11-.21.2-.38.27-.17.07-.39.1-.67.1h-.62c-.23,0-.4-.06-.52-.18-.12-.12-.18-.27-.18-.45v-1.74c0-.2.06-.35.18-.47.12-.11.29-.17.52-.17.12,0,.28,0,.47.01.19,0,.39.02.6.03.21.01.4.03.56.04l.49-.24h.32v2.05c0,.13.04.23.11.3.07.07.16.1.27.1h.08c.14,0,.24-.03.3-.1.06-.07.09-.17.09-.3v-1.86c0-.14-.01-.28-.06-.4-.04-.12-.13-.22-.26-.29s-.31-.11-.55-.11h-3.05c-.23,0-.42.04-.54.11s-.21.17-.26.29c-.05.12-.07.25-.07.4v2.78c0,.14.02.27.07.39.04.12.13.22.26.3s.31.11.54.11h3.52l-.24.56s-.06.03-.13.05c-.07.02-.17.03-.29.03h-2.92Zm1.2-1.96h.24c.26,0,.45-.06.55-.18.11-.12.16-.3.16-.53v-.85h-.96c-.1,0-.16.02-.2.05-.04.03-.05.1-.05.19v1.07c0,.09.02.15.06.19.04.04.1.06.18.06Z" style="fill:#5a6172;"/><path d="m79.25,9.47c-.36,0-.63-.02-.8-.05-.17-.03-.26-.07-.26-.11l.32-.7c.12.02.43.04.92.06.49.02,1.16.03,2.01.03h.15c.23,0,.39-.04.49-.12.1-.08.14-.22.14-.42v-.16c0-.19-.04-.32-.12-.4-.08-.08-.25-.12-.52-.12h-1.86c-.54,0-.93-.1-1.18-.3-.25-.2-.37-.53-.37-.98v-.13c0-.23.04-.45.13-.65.09-.2.24-.36.45-.48.21-.12.51-.18.88-.18h2.18c.36,0,.66.02.88.06s.34.08.34.12l-.16.67c-.14-.02-.45-.03-.94-.05-.49-.02-1.15-.03-1.98-.03h-.09c-.25,0-.41.04-.5.14s-.13.22-.14.37v.14c0,.18.05.31.15.4.1.09.26.13.49.13h1.78c.34,0,.63.03.87.1s.42.2.55.38.19.45.19.81v.13c0,.4-.1.72-.31.97-.21.25-.56.37-1.07.37h-2.66Z" style="fill:#5a6172;"/><path d="m85.81,9.47v-3.94h-2.09v-.77h5.23v.77h-2.09v3.94h-1.06Z" style="fill:#5a6172;"/><path d="m89.55,9.47v-4.7h4.98v.77h-3.92v1.1h2.99v.79h-2.99v1.27h3.95l.32.68s-.07.04-.22.06-.39.03-.74.03h-4.37Z" style="fill:#5a6172;"/><path d="m100.59,9.55c-.21,0-.42-.03-.63-.1s-.44-.23-.7-.49l-.58-.58c-.24-.24-.49-.42-.77-.53-.28-.11-.63-.17-1.05-.17h-.25v1.78h-1.06v-4.06l-.08-.65h3.54c.34,0,.61.05.8.14.2.09.34.21.43.36.09.15.15.3.18.47.03.17.04.32.04.47v.15c0,.12-.02.25-.05.39s-.09.29-.18.42-.22.26-.39.35-.39.15-.66.17c.07.04.16.09.26.17.11.08.22.16.33.25.12.09.22.17.32.25.1.07.17.13.22.16.19.11.36.19.51.23.15.04.27.07.37.07.1,0,.15,0,.17,0l-.16.65s-.13.03-.24.05c-.11.02-.24.03-.39.03Zm-2.78-2.59c.2,0,.38,0,.54-.01.16,0,.3-.02.43-.03.23-.03.4-.09.49-.2.09-.1.14-.24.14-.4v-.18c0-.17-.05-.31-.14-.43-.09-.12-.25-.18-.49-.18h-2.18v1.39c.23.02.45.03.65.03s.38,0,.55,0Z" style="fill:#5a6172;"/><path d="m104.36,9.47c-.36,0-.63-.02-.8-.05-.17-.03-.26-.07-.26-.11l.32-.7c.12.02.43.04.92.06s1.16.03,2.01.03h.15c.23,0,.39-.04.49-.12.1-.08.14-.22.14-.42v-.16c0-.19-.04-.32-.12-.4s-.25-.12-.52-.12h-1.86c-.54,0-.93-.1-1.18-.3s-.37-.53-.37-.98v-.13c0-.23.04-.45.13-.65.09-.2.24-.36.45-.48s.51-.18.88-.18h2.18c.36,0,.66.02.88.06.22.04.34.08.34.12l-.16.67c-.14-.02-.45-.03-.94-.05-.49-.02-1.15-.03-1.98-.03h-.09c-.24,0-.41.04-.5.14-.08.1-.13.22-.13.37v.14c0,.18.05.31.15.4s.26.13.49.13h1.78c.34,0,.63.03.87.1s.42.2.55.38c.13.18.19.45.19.81v.13c0,.4-.1.72-.31.97-.21.25-.56.37-1.07.37h-2.66Z" style="fill:#5a6172;"/><path d="m109.31,9.47v-4.7h1.06v1.95h3.14v-1.95h1.06v4.7h-1.06v-1.98h-3.14v1.98h-1.06Z" style="fill:#5a6172;"/><path d="m115.64,9.47v-4.7h1.06v4.7h-1.06Z" style="fill:#5a6172;"/><path d="m117.86,9.47v-4.06l-.08-.64h1.15l2.72,2.85.31.43h.09v-3.28h1.05v4.7h-1.02l-2.78-2.9-.31-.38h-.08v3.27h-1.06Z" style="fill:#5a6172;"/><path d="m125.95,9.47v-1.95l-2.33-2.75h1.28l1.18,1.5.37.5h.08l.37-.5,1.18-1.5h1.28l-.31.48-2.05,2.3v1.92h-1.05Z" style="fill:#5a6172;"/><path d="m132.83,9.47c-.38,0-.67-.05-.89-.16-.21-.11-.36-.27-.45-.48-.09-.21-.13-.48-.13-.79v-1.78c0-.51.11-.89.34-1.13s.6-.36,1.12-.36h2.41c.37,0,.65.02.84.06s.29.08.29.12l-.16.66c-.09-.02-.36-.03-.8-.05s-1.09-.03-1.94-.03h-.41c-.43,0-.64.19-.64.57v2.04c0,.18.05.32.14.42.09.1.26.15.5.15h.33c.88,0,1.57,0,2.06-.03.49-.02.79-.04.91-.06l.33.53s-.04.07-.13.12-.25.1-.48.14-.57.06-1.02.06h-2.22Z" style="fill:#5a6172;"/><path d="m138.67,9.47c-.37,0-.67-.05-.88-.16-.21-.11-.36-.27-.45-.48-.09-.21-.13-.48-.13-.79v-1.85c0-.31.04-.57.13-.78.09-.21.23-.37.45-.48.21-.11.51-.16.89-.16h2.34c.37,0,.67.05.88.16.21.11.36.27.45.48.09.21.13.47.13.78v1.85c0,.47-.1.83-.31,1.07-.21.24-.59.36-1.14.36h-2.34Zm.23-.77h1.88c.2,0,.35-.05.46-.15.11-.1.16-.24.16-.42v-2.04c0-.15-.06-.29-.17-.4-.11-.11-.26-.16-.46-.16h-1.88c-.19,0-.35.05-.46.15-.12.1-.18.24-.18.41v2.04c0,.18.06.32.17.42.12.1.27.15.47.15Z" style="fill:#5a6172;"/><path d="m143.46,9.47l.08-.64v-4.06h1.05v3.94h3.31l.32.68s-.07.04-.22.06c-.14.02-.39.03-.74.03h-3.81Z" style="fill:#5a6172;"/><path d="m150.14,9.47c-.37,0-.67-.05-.88-.16-.21-.11-.36-.27-.45-.48-.09-.21-.13-.48-.13-.79v-1.85c0-.31.04-.57.13-.78.08-.21.24-.37.45-.48s.51-.16.89-.16h2.34c.37,0,.67.05.88.16s.36.27.45.48c.09.21.13.47.13.78v1.85c0,.47-.1.83-.31,1.07-.21.24-.59.36-1.14.36h-2.34Zm.23-.77h1.88c.2,0,.35-.05.46-.15.11-.1.16-.24.16-.42v-2.04c0-.15-.05-.29-.17-.4-.11-.11-.26-.16-.46-.16h-1.88c-.19,0-.35.05-.46.15-.12.1-.18.24-.18.41v2.04c0,.18.06.32.17.42.11.1.27.15.47.15Z" style="fill:#5a6172;"/><path d="m160.04,9.55c-.21,0-.42-.03-.63-.1s-.44-.23-.7-.49l-.58-.58c-.24-.24-.49-.42-.77-.53-.28-.11-.63-.17-1.05-.17h-.25v1.78h-1.06v-4.06l-.08-.65h3.54c.34,0,.61.05.8.14.2.09.34.21.43.36.09.15.15.3.18.47.03.17.04.32.04.47v.15c0,.12-.02.25-.05.39s-.09.29-.18.42-.22.26-.39.35-.39.15-.66.17c.07.04.16.09.26.17.11.08.22.16.33.25.12.09.22.17.32.25.1.07.17.13.22.16.19.11.36.19.51.23.15.04.27.07.37.07s.15,0,.17,0l-.16.65s-.13.03-.24.05c-.11.02-.24.03-.39.03Zm-2.78-2.59c.2,0,.38,0,.54-.01.16,0,.3-.02.43-.03.23-.03.4-.09.49-.2.09-.1.14-.24.14-.4v-.18c0-.17-.05-.31-.14-.43-.09-.12-.25-.18-.49-.18h-2.18v1.39c.23.02.45.03.65.03s.38,0,.55,0Z" style="fill:#5a6172;"/><path d="m162.25,9.47c-.36,0-.63-.02-.8-.05-.17-.03-.26-.07-.26-.11l.32-.7c.12.02.43.04.92.06s1.16.03,2.01.03h.15c.23,0,.39-.04.49-.12.1-.08.14-.22.14-.42v-.16c0-.19-.04-.32-.12-.4-.08-.08-.25-.12-.52-.12h-1.86c-.54,0-.93-.1-1.18-.3-.25-.2-.37-.53-.37-.98v-.13c0-.23.04-.45.13-.65s.24-.36.45-.48c.21-.12.51-.18.88-.18h2.18c.36,0,.66.02.88.06s.34.08.34.12l-.16.67c-.14-.02-.45-.03-.94-.05-.49-.02-1.15-.03-1.98-.03h-.09c-.25,0-.41.04-.5.14s-.13.22-.14.37v.14c0,.18.05.31.15.4.1.09.26.13.49.13h1.78c.34,0,.63.03.87.1.24.07.42.2.55.38s.19.45.19.81v.13c0,.4-.1.72-.31.97-.21.25-.56.37-1.07.37h-2.66Z" style="fill:#5a6172;"/><path d="m21.69,6.49c-.06-.03-.11-.06-.17-.08.09-.17.15-.36.18-.54.1-.6-.07-1.21-.45-1.59-.16-.16-.41-.35-.69-.35-.13,0-.26.04-.36.12-.17.12-.26.29-.33.41-.25.44-.56.84-.92,1.18-.11.1-.23.2-.35.29l-.09.07c-.24.19-.5.38-.71.63-.1.12-.17.24-.23.36-.26-.25-.55-.5-.86-.76-.31-.26-.55-.49-.58-.78-.02-.22.11-.51.38-.55.15,0,.32.13.38.29.13.34.48.85.87.85.2,0,.36-.13.44-.34.04-.11.01-.22-.06-.3-.1-.11-.2-.25-.24-.33.17-.33.17-.69,0-1-.11-.2-.29-.37-.5-.5l.11-.31c.1-.07.17-.2.17-.33,0-.23-.18-.41-.41-.41-.07-.12-.2-.19-.35-.19-.04,0-.08,0-.11.02-.07-.11-.2-.18-.34-.18s-.27.07-.34.18c-.04-.01-.07-.02-.11-.02-.15,0-.28.08-.35.19-.23,0-.41.19-.41.41,0,.14.07.26.17.33l.14.38c-.21.17-.37.39-.49.65-.04-.05-.11-.08-.17-.09q-.38-.06-.43-.83c0-.16-.14-.28-.3-.28s-.29.12-.3.28q-.04.77-.43.83c-.15.02-.26.15-.26.3s.11.27.26.3c.36.05.38.06.42.69-.11-.08-.21-.15-.31-.23-.3-.24-.55-.52-.84-.84-.1-.11-.4-.46-.82-.46-.08,0-.17.01-.25.04-.47.16-.77.71-.85,1.19-.07.4,0,.83.18,1.19-.04.02-.08.04-.11.06-.3.2-.42.57-.34,1.02.09.48.35.92.75,1.29,0,0,0,0,0,.01-.11.34.18.7.71,1.22.5.48,1.49.99,2.84,1.6.87.4,1.54,1.08,1.55,1.08.06.06.13.08.21.08.01,0,.03,0,.04,0,.09-.01.18-.07.22-.15,0,0,.1-.16.46-.4.41-.26.92-.64,1.25-1.21.06.06.15.11.23.11.04,0,.09-.01.13-.03,1.21-.57,2.05-1.4,2.2-1.61.08-.11.31-.42.15-.68.15-.16.29-.33.41-.5.26-.4.39-.93.3-1.31-.06-.25-.19-.38-.29-.45Zm-2.79,3.45c.03-.24.02-.48-.02-.7.05.04.11.06.17.06.16,0,.29-.12.3-.28,0-.17.03-.49.06-.54.02-.01.1-.03.22-.05.15-.02.25-.15.25-.3s-.11-.27-.26-.3c-.12-.02-.2-.03-.21-.04-.04-.06-.06-.38-.07-.55,0-.16-.14-.28-.3-.28s-.29.12-.3.28c0,.17-.03.49-.06.54-.02.01-.1.03-.22.05-.05,0-.1.03-.14.06-.12-.18-.24-.34-.37-.48.04-.02.07-.04.09-.05.12-.09.44-.32.67-.38.08-.02.16-.03.24-.03.34,0,.66.17.81.42.19.31.28.96-.08,1.75,0,0-.33.68-.87,1.19.03-.12.05-.24.07-.37Zm-2.84-.02c-.23-.13-.5-.3-.74-.49-.06-.05-.28-.29-.22-.61.02-.08.1-.17.21-.17.02,0,.03,0,.05,0,0,.16.11.3.27.32.01,0,.02,0,.03,0,.15,0,.27-.1.3-.25.02-.11.02-.21.01-.32.09.16.16.34.2.54.1.48-.01.8-.11.97Zm-2.73-2.48c-.3.3-.46.72-.43,1.17,0,.05,0,.1.02.15-.03-.07-.05-.13-.07-.2-.17-.66-.01-1.18.43-1.47.14-.09.31-.14.51-.14.17,0,.35.04.51.09-.38.02-.71.15-.96.4Zm1.59-2.68c-.03.16-.03.32-.02.48.03.37.16.74.38,1.08-.23-.15-.45-.27-.65-.39,0,0-.21-.12-.25-.15.05-.05.08-.12.09-.2q.04-.77.43-.83s.02,0,.03,0Zm3.73,3.69s.04,0,.04.01c.02.03.03.1.04.19-.03-.07-.05-.14-.08-.2Z" style="fill:#fff;"/><path d="m19.14,5.86c.39-.36.72-.79.98-1.25.06-.11.14-.24.24-.32.23-.16.51.04.67.2.34.34.45.87.37,1.33-.09.51-.44.93-.85,1.24-.06.05-.12.08-.19.12,0,0,.36-.19.58-.34.21-.14.36-.22.58-.09.28.17.21.85-.1,1.33-.32.5-.87.96-1.11,1.03,0,0,.18-.04.31-.12.17-.1.26-.21.36-.12.12.1-.03.29-.12.41-.08.12-.87.92-2.07,1.49-.01,0-.03-.01-.02-.02.7-.54,1.14-1.38,1.2-1.5.4-.88.32-1.63.07-2.03-.28-.45-.87-.66-1.38-.53-.39.1-.86.51-.85.48.05-.13.13-.24.21-.34.21-.26.48-.45.75-.65.13-.1.26-.2.37-.31Zm-.09,1.41c-.04.74-.08.8-.53.87.46.07.49.12.53.87.04-.74.08-.8.53-.87-.46-.07-.49-.12-.53-.87Zm-4.89-3.89c-.05.95-.1,1.02-.68,1.11.58.09.63.16.68,1.11.05-.95.1-1.02.68-1.11-.58-.09-.63-.16-.68-1.11Zm4.44,6.54c-.1.97-.79,1.57-1.45,2-.47.3-.56.51-.56.51,0,0-.7-.72-1.64-1.15-1.13-.51-2.26-1.06-2.75-1.54-.5-.48-.68-.75-.63-.91.01-.05.09-.1.22-.02.15.1.44.24.53.24-.69-.34-1.34-.87-1.49-1.67-.05-.25-.03-.56.21-.72.21-.14.42.03.48.07.1.07.39.3.75.44-.19-.07-.71-.53-.79-.62-.32-.36-.47-.87-.38-1.34.06-.35.29-.83.65-.95.3-.1.56.12.75.33.28.31.55.62.88.88.31.25.66.46,1,.66.65.38,1.62.9,2.14,1.71.46.72.94,2.02.03,3.39,0,0-.17-.29-.92-.72-.61-.35-1.45-.57-1.91-.94-.6-.48-.68-1.39-.15-1.92.32-.32.78-.38,1.2-.27.57.15,1.02.69.92,1.29,0,0,.01-.18-.17-.29-.32-.21-.63.14-.68.38-.09.43.17.79.32.91.38.29.8.53,1.01.63,0,0,.53-.46.32-1.42s-.99-1.57-1.49-1.86c-.5-.29-1.27-.57-1.86-.19-.56.36-.76,1.01-.56,1.8,0,0,0,.02,0,.02.15.54.54.98.98,1.31.51.38,1.12.58,1.68.85.49.24,1.01.51,1.35.93,0,0,.4-.43.43-.48.11-.16.21-.33.28-.51.14-.33.21-.68.21-1.04,0-.22-.02-.44-.05-.65-.12-.69-.43-1.35-.92-1.85-.25-.25-.52-.48-.76-.75-.31-.35-.52-.77-.56-1.24-.06-.73.36-1.47,1.03-1.61.75-.16,1.87.52,1.37,1.35-.1.17.32.62.32.62-.13.37-.57-.07-.75-.52-.12-.3-.44-.54-.77-.47-.38.07-.61.51-.57.87.04.43.37.72.68.98.39.33.78.66,1.12,1.03.6.66,1.06,1.51.97,2.44Zm-1.52-5.49c-.02.06-.03.12-.02.17.01.07.05.12.09.18.04.05.05.07.09.12.01.02.03.03.04.05,0,0,0,.02,0,.03,0,.02.02.04.03.06-.01-.04,0-.08,0-.12,0,0,0-.01,0-.02,0-.02.01-.05.03-.07,0,0,0,0,0,0,0,0,0,0,0,0,0,0,0,0,.01,0l-.29-.39Zm-4.68,2.11c.03-.56.06-.6.4-.66-.35-.05-.37-.09-.4-.66-.03.56-.06.6-.4.66.35.05.37.09.4.66Zm4.96-3.62c0-.06-.05-.11-.11-.11s-.11.05-.11.11c0,.03.01.05.03.07l-.15.17s-.08.01-.08-.03l-.02-.3c.05,0,.1-.05.1-.11,0-.06-.05-.11-.11-.11s-.11.05-.11.11c0,.04.02.07.05.09l-.15.26s-.08.02-.09-.02l-.1-.41s.05-.05.05-.1c0-.06-.05-.11-.11-.11s-.11.05-.11.11c0,.04.02.08.05.1l-.1.41s-.06.06-.09.02l-.15-.26s.05-.05.05-.09c0-.06-.05-.11-.11-.11s-.11.05-.11.11c0,.06.04.1.1.11l-.02.3s-.05.06-.08.03l-.15-.17s.03-.05.03-.07c0-.06-.05-.11-.11-.11s-.11.05-.11.11.05.11.11.11l.2.54v.02c.11-.05.22-.09.33-.12.09-.02.19-.03.29-.03.2,0,.41.05.59.12l.19-.53c.06,0,.11-.05.11-.11Z" style="fill:#8dbaff;"/></g></g></svg>