<?xml version="1.0" encoding="utf-8"?><svg version="1.1" xmlns="http://www.w3.org/2000/svg" xmlns:xlink="http://www.w3.org/1999/xlink" width="100" height="100" viewBox="0 0 100 100" xml:space="preserve"><path fill="#ffffff" d="M97.9,92.64L68.88,63.62c5.7-6.73,9.14-15.41,9.14-24.9c0-21.27-17.31-38.58-38.58-38.58c-21.28,0-38.58,17.31-38.58,38.58c0,21.28,17.31,38.58,38.58,38.58c8.75,0,16.83-2.93,23.31-7.87l29.17,29.17c0.83,0.83,1.91,1.24,2.99,1.24c1.08,0,2.16-0.41,2.99-1.24C99.55,96.97,99.55,94.29,97.9,92.64z M9.31,38.73C9.31,22.11,22.83,8.6,39.44,8.6s30.13,13.52,30.13,30.13c0,16.62-13.52,30.13-30.13,30.13S9.31,55.34,9.31,38.73z"/></svg>
