<?xml version="1.0" encoding="utf-8"?><svg version="1.1" xmlns="http://www.w3.org/2000/svg" xmlns:xlink="http://www.w3.org/1999/xlink" width="100" height="100" viewBox="0 0 100 100" xml:space="preserve"><g><path fill="#ffffff" d="M50.61,89.85c0,2.62-2.12,4.74-4.74,4.74H35.9c-2.62,0-4.74-2.12-4.74-4.74v-2.19c0-2.62,2.12-4.74,4.74-4.74h9.97c2.62,0,4.74,2.12,4.74,4.74V89.85z"/><path fill="#ffffff" d="M7.21,71.42H6.37c-2.62,0-4.74,2.12-4.74,4.74v6.55c0,2.62,1.22,4.74,3.31,4.74h0.52c2.26,0,1.74,2.12,1.74,4.74v3.07c0,2.62,2.12,4.74,4.74,4.74h7.24c2.62,0,4.74-2.12,4.74-4.74v-7.81V76.16c0-2.62-2.12-4.74-4.74-4.74L7.21,71.42L7.21,71.42z"/><path fill="#ffffff" d="M66.08,31.53c-2.23,0-4.16,1.56-4.63,3.74L58.8,47.48c-0.47,2.18-2.4,3.74-4.63,3.74H24.49c-2.62,0-4.74,2.12-4.74,4.74v3.59c0,2.62,2.12,4.74,4.74,4.74h0.97c2.62,0,4.74,2.12,4.74,4.74v2.36c0,2.62,2.12,4.74,4.74,4.74h36.74c2.22,0,4.15-1.55,4.63-3.73l7.68-35.11c0.31-1.4-0.04-2.86-0.94-3.98c-0.9-1.12-2.26-1.77-3.7-1.77L66.08,31.53L66.08,31.53z"/><path fill="#ffffff" d="M95.3,21.24c-0.43,2.23-2.38,3.85-4.66,3.85H70.04c-1.41,0-2.76-0.63-3.65-1.72c-0.9-1.09-1.27-2.53-1.01-3.91l2.98-15.61C68.79,1.62,70.74,0,73.02,0h20.61c1.41,0,2.75,0.63,3.65,1.72c0.9,1.09,1.27,2.52,1,3.91L95.3,21.24z"/></g></svg>
