<?xml version="1.0" encoding="utf-8"?><svg version="1.1" xmlns="http://www.w3.org/2000/svg" xmlns:xlink="http://www.w3.org/1999/xlink" width="100" height="100" viewBox="0 0 100 100" xml:space="preserve"><path fill="#e60000" d="M89.74,62.13c-0.05-0.38-0.17-0.73-0.37-1.03l-4.84-11.87c-0.08-0.19-0.19-0.36-0.31-0.52L82.48,8.27c-0.05-1.26-1.09-2.25-2.35-2.25H19.86c-1.26,0-2.29,0.99-2.35,2.25l-1.73,40.28c-0.19,0.21-0.36,0.44-0.47,0.72l-4.72,11.9c-0.18,0.29-0.3,0.62-0.34,0.98c-0.07,0.31-0.08,0.63-0.03,0.94v28.55c0,1.3,1.05,2.35,2.35,2.35h74.85c1.3,0,2.35-1.05,2.35-2.35V63.08C89.83,62.77,89.82,62.45,89.74,62.13z M31.44,31.08c-0.3,0-0.59,0.02-0.88,0.06l0.36-10.86H69.2l0.54,19.92H38.81c0.11-0.51,0.18-1.03,0.18-1.57C38.99,34.46,35.61,31.08,31.44,31.08z M19.1,52.48h9.34v3.88h6.02v-3.88h46.32l3.1,7.59H16.09L19.1,52.48z M22.12,10.72h55.77l1.57,36.62h-45v-1.79c0.41-0.18,0.8-0.41,1.17-0.66h36.54c0.63,0,1.24-0.26,1.68-0.71c0.44-0.45,0.68-1.07,0.66-1.7l-0.67-24.62c-0.03-1.27-1.08-2.29-2.35-2.29H28.65c-1.27,0-2.31,1.01-2.35,2.27l-0.52,15.8c-1.17,1.33-1.88,3.07-1.88,4.98c0,1.87,0.69,3.58,1.82,4.9c0.11,0.24,0.25,0.46,0.44,0.65c0.26,0.27,0.57,0.46,0.92,0.58c0.43,0.31,0.88,0.58,1.37,0.8v1.79h-7.89L22.12,10.72z M85.07,89.28H14.93V65.02h70.15V89.28z"/><path fill="#e60000" d="M73.54,84.61h-15.2c-1.3,0-2.35-1.05-2.35-2.35V71.28c0-1.3,1.05-2.35,2.35-2.35h15.2c1.3,0,2.35,1.05,2.35,2.35v10.99C75.89,83.56,74.84,84.61,73.54,84.61z M60.69,79.91h10.5v-6.29h-10.5V79.91z"/></svg>
