<?xml version="1.0" encoding="utf-8"?><svg version="1.1" xmlns="http://www.w3.org/2000/svg" xmlns:xlink="http://www.w3.org/1999/xlink" width="100" height="100" viewBox="0 0 100 100" xml:space="preserve"><path fill="#ffffff" d="M52.32,55.16l-2.84,1.46l-12.14-5.06l6.09,8.17l-2.96,1.52l-10.44-14l2.96-1.52L45,50.85l-6.09-8.17l2.96-1.52L52.32,55.16z M55.92,38.01l-5.93,3.04l1.95,2.61l5.93-3.04l2.19,2.94l-5.93,3.04l1.93,2.59l5.93-3.04l2.18,2.92l-9.48,4.87l-10.44-14l9.48-4.87L55.92,38.01z M79.02,38.22c0.96,1.28,0.67,2.88-0.63,3.55l-9.48,4.87c-1.3,0.67-3.15,0.17-4.11-1.12l-8.7-11.67l2.96-1.52l7.85,10.53l2.68-1.38l-6.13-8.21l2.96-1.52l6.11,8.19l2.66-1.36l-7.83-10.5l2.96-1.52L79.02,38.22z"/><path fill="#ffffff" d="M99.78,46.55c0-1.98-0.6-3.88-1.72-5.49l-0.74-1.07l0.03,0.03L78.2,12.09c-0.71-1.02-1.59-1.95-2.6-2.74c-1.39-1.1-3-1.95-4.8-2.52c-1.69-0.54-3.44-0.81-5.2-0.81c-2.37,0.01-4.5,0.48-6.33,1.41l-0.82,0.42l0.02-0.02L11,31.55c-1.48,0.63-2.75,1.32-3.9,2.09c-2.11,1.42-3.76,3.14-4.91,5.1c-0.64,1.1-1.13,2.29-1.46,3.54c-0.34,1.29-0.51,2.68-0.51,4.12c0,0.24,0.01,0.48,0.01,0.73c0.03,0.9,0.22,1.83,0.57,2.84c0.4,1.13,0.95,2.24,1.78,3.6c0.57,0.92,1.15,1.76,1.66,2.49l0.26,0.37l19.84,28.41v-0.02l0.27,0.41c1.8,2.73,3.92,4.87,6.3,6.35c1.26,0.78,2.59,1.38,3.97,1.79c4.11,1.2,8.53,0.65,12.97-1.57l47.12-23.58c0.64-0.32,1.13-0.88,1.35-1.56c0.23-0.69,0.18-1.42-0.15-2.07c-0.32-0.65-0.88-1.13-1.56-1.36c-0.68-0.23-1.42-0.18-2.06,0.15L45.44,86.96c-2.15,1.07-4.23,1.62-6.19,1.62c-0.97,0-1.93-0.14-2.84-0.41c-1.38-0.41-2.65-1.09-3.88-2.08c-1.25-1.01-2.4-2.32-3.43-3.9l-0.02-0.04L8.79,53.12c-0.71-1.03-1.52-2.19-2.12-3.27c-0.34-0.62-0.59-1.18-0.76-1.66c-0.16-0.46-0.26-0.91-0.28-1.26c-0.01-0.18-0.01-0.35-0.01-0.52c0-1.3,0.19-2.45,0.58-3.53c0.52-1.42,1.38-2.65,2.62-3.75c1.14-1.01,2.62-1.89,4.39-2.63l0.08-0.04l48.41-24.2c1.02-0.52,2.41-0.82,3.84-0.82c0.02,0,0.05,0,0.07,0c1.59,0,3.24,0.35,4.65,0.98c0.73,0.33,1.4,0.73,1.98,1.19c0.6,0.47,1.1,1,1.5,1.58l19.87,28.96c0.5,0.72,0.76,1.55,0.76,2.42c0,0.35-0.04,0.7-0.13,1.03c-0.3,1.18-1.09,2.18-2.18,2.73L44.61,74.48c-0.93,0.47-1.92,0.71-2.95,0.71c-1.04,0-2.07-0.25-3-0.73c-0.96-0.49-1.76-1.19-2.38-2.08L18.91,47.38c-0.85-1.22-2.54-1.53-3.76-0.68c-1.22,0.85-1.53,2.54-0.68,3.76l17.37,25.01c1.12,1.61,2.62,2.92,4.34,3.81c1.69,0.87,3.58,1.32,5.47,1.32c1.87,0,3.74-0.45,5.41-1.3l0.11-0.06l47.56-24.23c2.37-1.28,4.1-3.5,4.76-6.12C99.69,48.13,99.78,47.34,99.78,46.55z"/></svg>
