<?xml version="1.0" encoding="utf-8"?><svg version="1.1" xmlns="http://www.w3.org/2000/svg" xmlns:xlink="http://www.w3.org/1999/xlink" width="100" height="100" viewBox="0 0 100 100" xml:space="preserve"><path fill="#e60000" d="M36.05,92.93L28.3,79.88l-14.81-3.36l1.39-15.13L4.88,49.98l10.01-11.44l-1.4-15.1l14.81-3.32l7.75-13.04L50,13.06l13.95-5.99l7.75,13.04l14.81,3.36l-1.39,15.09l10.01,11.4l-10.01,11.4l1.39,15.09L71.7,79.84l-7.75,13.05L50,86.89L36.05,92.93z M18.55,72.84l12.76,2.9l6.68,11.23L50,81.78l12.01,5.16l6.68-11.23l12.76-2.9l-1.2-13l8.62-9.82l-8.62-9.82l1.2-13l-12.76-2.9l-6.68-11.24L50,18.18l-12.01-5.16l-6.68,11.24l-12.75,2.86l1.2,13l-8.62,9.86l8.62,9.82L18.55,72.84z"/><rect fill="#e60000" x="46.18" y="61.43" width="7.63" height="7.63"/><rect fill="#e60000" x="46.18" y="30.89" width="7.63" height="22.9"/></svg>
