<?xml version="1.0" encoding="utf-8"?><svg version="1.1" xmlns="http://www.w3.org/2000/svg" xmlns:xlink="http://www.w3.org/1999/xlink" width="100" height="100" viewBox="0 0 100 100" xml:space="preserve"><g><rect fill="#e60000" x="58.31" y="67.96" class="st0" width="23.41" height="2.68"/><path fill="#e60000" d="M43.07,42.11l0.37-6.33H16.61V23.67h2.73v8.58h24.31l0.43-7.3v-1.25h28.4v-0.03h0.47v0.03h5.85v-0.03h5.85v-9.51H4.9v9.51h5.85v41.37H4.9v8.54h32.77v-2.93h-3.5V42.11H43.07z M28.31,42.11v20H16.61v-20H28.31z M7.83,20.74v-3.66h73.89v3.66H7.83z"/><path fill="#e60000" d="M95.08,65.06c-0.03-0.25-0.11-0.48-0.24-0.67l-3.16-7.74c-0.05-0.12-0.12-0.24-0.2-0.34l-1.13-26.4c-0.04-0.82-0.71-1.47-1.53-1.47H49.48c-0.82,0-1.5,0.65-1.53,1.47l-1.13,26.28c-0.13,0.14-0.24,0.29-0.31,0.47l-3.08,7.76c-0.12,0.19-0.2,0.41-0.22,0.64c-0.01,0.06-0.02,0.12-0.02,0.18v0.43v18.63c0,0.85,0.69,1.53,1.53,1.53h48.84c0.85,0,1.53-0.69,1.53-1.53V65.68v-0.43C95.1,65.18,95.09,65.12,95.08,65.06z M48.98,58.76h7.3v2.53h3.93v-2.53h29.02l2.02,4.95H47.02L48.98,58.76z M92.03,82.78H46.26V66.94h45.77V82.78z M50.95,31.51h36.39l1.03,23.9H60.21v-1.17c1.74-0.76,2.96-2.49,2.96-4.51c0-2.72-2.21-4.93-4.93-4.93c-2.72,0-4.93,2.21-4.93,4.93c0,2.02,1.22,3.75,2.96,4.51v1.17h-6.36L50.95,31.51z"/></g></svg>