<?xml version="1.0" encoding="utf-8"?><svg version="1.1" xmlns="http://www.w3.org/2000/svg" xmlns:xlink="http://www.w3.org/1999/xlink" width="100" height="100" viewBox="0 0 100 100" xml:space="preserve"><path fill="#e60000" d="M98.03,22.83V11.37H1.97v11.46h7.05v55.52H1.97v10.28h96.06V78.35h-7.05V22.83H98.03z M33.7,85.1H5.5v-3.23h28.2V85.1z M74.22,26.59v-1.24h4.72v1.24h-1.56v7.63h-1.62v-7.63H74.22z M73.18,25.35v8.87h-1.52l-1.9-5.87v5.87h-1.49v-8.87h1.56l1.87,5.79v-5.79H73.18z M66.55,29.05v1.25h-2.18v2.68h2.7v1.24h-4.33v-8.87h4.22v1.24h-2.59v2.46H66.55z M58.5,32.29h-1.31l-1.18-4.29v6.21h-1.43v-8.87h1.77l1.49,5.27l1.49-5.27h1.77v8.87h-1.42v-6.23L58.5,32.29z M52.85,29.05v1.25h-2.18v2.68h2.7v1.24h-4.33v-8.87h4.22v1.24h-2.59v2.46H52.85z M44.71,32.9c0.06,0.05,0.16,0.08,0.32,0.08h0.53c0.15,0,0.25-0.03,0.31-0.08c0.06-0.05,0.08-0.15,0.08-0.3v-1.9c0-0.15-0.03-0.25-0.08-0.3c-0.06-0.05-0.16-0.08-0.31-0.08h-1.14c-0.97,0-1.45-0.47-1.45-1.41v-2.18c0-0.93,0.51-1.39,1.52-1.39h1.55c1.01,0,1.52,0.46,1.52,1.39v1.24h-1.63v-1.01c0-0.15-0.03-0.25-0.08-0.3c-0.06-0.05-0.16-0.08-0.31-0.08h-0.53c-0.16,0-0.27,0.03-0.32,0.08c-0.06,0.05-0.08,0.15-0.08,0.3v1.78c0,0.15,0.03,0.25,0.08,0.3c0.06,0.05,0.16,0.08,0.32,0.08h1.11c0.98,0,1.48,0.46,1.48,1.38v2.32c0,0.93-0.51,1.39-1.53,1.39h-1.52c-1.02,0-1.53-0.46-1.53-1.39V31.6h1.62v1C44.63,32.75,44.66,32.85,44.71,32.9z M38.46,32.9c0.06,0.05,0.16,0.08,0.31,0.08h0.75c0.16,0,0.27-0.03,0.32-0.08c0.06-0.05,0.08-0.15,0.08-0.3v-7.25h1.62v7.48c0,0.93-0.51,1.39-1.53,1.39h-1.71c-1.02,0-1.53-0.46-1.53-1.39v-7.48h1.62v7.25C38.38,32.75,38.4,32.85,38.46,32.9z M32.53,32.29h-1.31l-1.18-4.29v6.21h-1.43v-8.87h1.77l1.49,5.27l1.49-5.27h1.77v8.87h-1.42v-6.23L32.53,32.29z M27.54,34.22h-1.63l-0.34-1.84h-1.94l-0.31,1.84h-1.62l1.78-8.87h2.18L27.54,34.22z M81.58,38.98V22.83h2.35v18.51H16.07V22.83h2.35v16.16H81.58z M83.93,50.73v24.09h-14.1V50.73H83.93z M49.45,50.73h5.42L37.22,68.38v-5.42L49.45,50.73z M37.22,60.73v-10h10L37.22,60.73z M30.17,50.73v24.09h-14.1V50.73H30.17z M62.78,85.1H37.22V73.04l22.3-22.3h3.26V85.1z M94.5,81.87v3.23H66.3v-3.23H94.5z M5.5,19.3V14.9H94.5v4.41H5.5z"/><polygon fill="#e60000" points="24.58,26.91 23.85,31.15 25.35,31.15"/></svg>
