<?xml version="1.0" encoding="utf-8"?><svg version="1.1" xmlns="http://www.w3.org/2000/svg" xmlns:xlink="http://www.w3.org/1999/xlink" x="0px" y="0px" width="100px" height="100px" viewBox="0 0 100 100"><path fill="#e60000" d="M86.9,96.6H54.3V68h-8.5v28.6H13.1c-4.4,0-8-3.6-8-8V40.1c0-2.5,1.1-4.8,3.1-6.3L45.1,5.1c2.9-2.3,6.9-2.3,9.8,0l36.9,28.7c2,1.5,3.1,3.8,3.1,6.3v48.5C94.9,93,91.3,96.6,86.9,96.6z M61.1,89.8h25.8c0.7,0,1.2-0.5,1.2-1.2V40.1c0-0.4-0.2-0.7-0.5-0.9L50.7,10.5c-0.4-0.3-1-0.3-1.5,0L12.4,39.2c-0.3,0.2-0.5,0.6-0.5,1v48.5c0,0.7,0.5,1.2,1.2,1.2h25.8v-24c0-2.5,2.1-4.6,4.6-4.6h13c2.5,0,4.6,2.1,4.6,4.6V89.8z"/></svg>