<?xml version="1.0" encoding="utf-8"?><svg version="1.1" xmlns="http://www.w3.org/2000/svg" xmlns:xlink="http://www.w3.org/1999/xlink" width="200" height="100" viewBox="0 0 200 100" xml:space="preserve"><path fill="#e60000" d="M13.71,73.19c-7.34,0-13.31,5.97-13.31,13.3c0,7.34,5.97,13.31,13.31,13.31s13.31-5.97,13.31-13.31C27.02,79.15,21.05,73.19,13.71,73.19z"/><path fill="#e60000" d="M0.4,37.09v16.64c25.19,0.47,45.59,20.88,46.06,46.06h16.64C62.64,65.43,34.77,37.57,0.4,37.09z"/><path fill="#e60000" d="M0.4,0.2v16.64c45.53,0.48,82.47,37.42,82.95,82.95H100C99.52,45.1,55.11,0.69,0.4,0.2z"/><rect fill="#e60000" x="102.8" y="11.34" width="15.46" height="15.46"/><rect fill="#e60000" x="130.41" y="11.34" width="69.59" height="15.46"/><rect fill="#e60000" x="102.8" y="42.27" width="15.46" height="15.46"/><rect fill="#e60000" x="130.41" y="42.27" width="69.59" height="15.46"/><rect fill="#e60000" x="102.8" y="73.2" width="15.46" height="15.46"/><rect fill="#e60000" x="130.41" y="73.2" width="69.59" height="15.46"/></svg>
