<?xml version="1.0" encoding="utf-8"?><svg version="1.1" xmlns="http://www.w3.org/2000/svg" xmlns:xlink="http://www.w3.org/1999/xlink" width="100" height="100" viewBox="0 0 100 100" xml:space="preserve"><g><path fill="#ffffff" d="M33.95,94.99c-1.35,0-2.73-0.3-4.04-0.93c-3.56-1.7-5.44-5.29-4.79-9.16c0.63-3.77,3.4-14.68,5.07-21.11c-1.26,0.54-2.71,1.13-4.24,1.71c-3.91,1.46-7.89,0.15-10.14-3.34c-2.32-3.61-1.94-8.13,0.93-11c2.53-2.54,12.66-10.53,17.15-14.06c-2.91-3.66-3.75-9.05-2.15-14.14c-2.88-1.33-4.92-4.16-5.27-7.64c-0.26-2.64,0.72-5.41,2.63-7.42c1.85-1.94,4.36-2.98,6.9-2.87c3.07,0.15,5.75,1.7,7.31,4.06c2.08-0.84,4.3-1.28,6.54-1.31c0.03,0,0.05,0,0.08,0h0.13c0.03,0,0.05,0,0.08,0c2.24,0.03,4.46,0.47,6.54,1.31c1.56-2.37,4.24-3.92,7.31-4.06c2.55-0.11,5.06,0.92,6.91,2.87c1.91,2.01,2.89,4.79,2.63,7.42c-0.35,3.48-2.38,6.31-5.27,7.64c1.6,5.09,0.76,10.48-2.15,14.14c4.49,3.52,14.62,11.52,17.16,14.06c2.87,2.87,3.25,7.39,0.93,11c-2.25,3.5-6.23,4.81-10.14,3.34c-1.53-0.58-2.98-1.17-4.24-1.71c1.67,6.43,4.44,17.34,5.07,21.11c0.65,3.87-1.23,7.46-4.79,9.16c-3.66,1.75-7.82,0.99-10.36-1.88c-1.48-1.68-6.89-8.26-9.72-11.71c-2.83,3.45-8.24,10.03-9.72,11.71C38.65,94.02,36.35,94.99,33.95,94.99z M49.9,74.45h0.2c0.72,0,1.39,0.32,1.84,0.87c0.09,0.11,9.42,11.51,11.35,13.7c1.29,1.46,3.31,1.42,4.74,0.73c0.79-0.37,2.57-1.52,2.14-4.07c-0.86-5.14-6.19-25.35-6.25-25.55c-0.24-0.91,0.07-1.87,0.8-2.46c0.73-0.59,1.73-0.7,2.57-0.28c0.04,0.02,3.89,1.94,8.43,3.64c2.55,0.96,3.97-0.7,4.46-1.46c0.9-1.4,1.19-3.57-0.29-5.05c-2.41-2.41-13.39-11.09-18.86-15.34c-0.59-0.46-0.93-1.16-0.92-1.91c0.01-0.75,0.37-1.44,0.97-1.89c3.41-2.52,4.21-8.21,1.84-12.95c-0.35-0.71-0.33-1.54,0.05-2.23c0.39-0.69,1.09-1.14,1.88-1.21c2.12-0.18,3.69-1.85,3.93-4.16c0.13-1.28-0.37-2.64-1.34-3.67c-0.52-0.55-1.64-1.49-3.22-1.39c-1.99,0.1-3.63,1.34-4.07,3.1c-0.18,0.72-0.7,1.32-1.39,1.61c-0.69,0.29-1.47,0.24-2.12-0.14c-2.02-1.18-4.31-1.8-6.63-1.81c-2.32,0.01-4.61,0.64-6.63,1.81c-0.65,0.38-1.43,0.43-2.12,0.14c-0.69-0.29-1.2-0.89-1.39-1.61c-0.45-1.76-2.09-3-4.07-3.1c-1.58-0.09-2.7,0.84-3.22,1.39c-0.97,1.02-1.47,2.39-1.34,3.67c0.23,2.31,1.81,3.98,3.93,4.16c0.79,0.07,1.49,0.52,1.88,1.21c0.39,0.69,0.41,1.53,0.05,2.23c-2.37,4.74-1.56,10.43,1.84,12.95c0.6,0.44,0.96,1.14,0.97,1.89c0.01,0.75-0.33,1.45-0.92,1.91c-5.47,4.25-16.45,12.94-18.86,15.34c-1.48,1.48-1.19,3.66-0.29,5.05c0.49,0.76,1.9,2.42,4.46,1.46c4.54-1.7,8.39-3.62,8.42-3.64c0.84-0.42,1.84-0.31,2.57,0.28c0.73,0.59,1.04,1.55,0.8,2.46c-0.05,0.2-5.38,20.41-6.25,25.55c-0.43,2.55,1.35,3.69,2.14,4.07c1.43,0.68,3.45,0.72,4.74-0.73c1.93-2.18,11.25-13.58,11.35-13.7C48.51,74.77,49.18,74.45,49.9,74.45z"/><ellipse fill="#ffffff" cx="50" cy="28.85" rx="2.98" ry="1.49"/><g><circle fill="#ffffff" cx="42.76" cy="24.38" r="2.68"/><circle fill="#ffffff" cx="57.24" cy="24.38" r="2.68"/></g></g></svg>