<?xml version="1.0" encoding="UTF-8"?><svg id="brand_room" xmlns="http://www.w3.org/2000/svg" viewBox="0 0 176 15"><g id="imas"><g id="idolmaster"><path d="m55.58,6.54c-.06-.13-.19-.23-.33-.29.02-.11,0-.23-.07-.33-.12-.19-.33-.25-.43-.28-.12-.04-.26-.04-.35-.04-.09,0-.17,0-.25.02-.31.05-.57.16-.81.33-.21.16-.46.42-.63.65,0,.01,0,.02-.01.04-.27-.19-.45-.39-.57-.51h0s-.09-.1-.16-.18c-.28-.3-.48-.52-.96-.52h0s-.1,0-.14.02c.06-.09.1-.19.12-.28,0-.02.02-.1.02-.12,0-.42-.42-.8-1.09-.97,0-.04-.03-.09-.05-.12-.07-.09-.17-.14-.31-.17-.06-.01-.14-.02-.21-.02-.07,0-.25,0-.39.06-.04.01-.07.03-.1.05-.03-.02-.06-.04-.1-.05-.14-.06-.32-.06-.39-.06s-.15,0-.21.02c-.14.02-.24.08-.31.17-.03.04-.06.11-.07.17-.04.01-.08.03-.11.04-.36.14-.69.41-.82.68-.04,0-.09-.01-.13-.01-.09,0-.17.02-.25.05-.14.06-.24.16-.29.28-.03.08-.02.25.01.33.01.03.03.06.05.09-.16.1-.3.25-.49.44l-.1.11c-.13.13-.31.32-.56.5,0,0,0-.01,0-.02-.17-.23-.42-.49-.63-.65-.23-.17-.49-.28-.81-.33-.08-.01-.17-.02-.25-.02-.09,0-.23,0-.35.04-.1.03-.31.09-.43.28-.07.1-.09.22-.07.33-.14.07-.27.17-.33.3-.1.22-.06.46.12.63.06.06.13.1.21.14-.15.06-.26.13-.32.26-.08.17-.06.43.23.6.1.06.22.1.37.14-.07.2,0,.42.21.56.16.12.41.15.64.15.08,0,.19,0,.32-.02.01.08.04.15.1.22.07.09.23.19.52.19.17,0,.37-.03.61-.11.33-.12.6-.27.81-.42-.05.06-.09.12-.14.18,0,0-.09.11-.25.18-.1.05-.18.18-.18.29,0,.03,0,.06.01.08-.12.06-.21.14-.26.23-.02.04-.05.15-.06.2,0,.09.02.17.07.24-.3-.11-.43-.22-.46-.27,0-.01,0-.03,0-.04,0-.13-.11-.27-.24-.31-.03,0-.08-.02-.11-.02-.06,0-.15.03-.2.06-.24.16-.39.35-.45.56-.02.07-.03.14-.03.21-.01.69.85,1.27,2.09,1.41.18.02.35.03.52.03.53,0,1.03-.09,1.42-.27.52-.23.7-.53.76-.75.02-.07.03-.13.03-.2,0-.38-.28-.67-.47-.85,0,0-.12-.1-.15-.16l.29-.68c.23.12.49.18.7.19.12,0,.26-.03.36-.06.02,0,.05-.02.07-.03.03,0,.06,0,.08-.02.09-.03.18-.07.26-.1l.31.68c-.08.06-.14.16-.14.26s.06.21.15.27c.03.02.09.04.14.05,0,.06,0,.11.03.17.02.05.04.09.08.13-.19-.05-.28-.12-.3-.14-.06-.09-.2-.16-.31-.16,0,0-.02,0-.02,0-.14.01-.29.14-.31.28l-.02.14c0,.07,0,.13.02.2.06.22.23.52.75.75.39.17.88.27,1.41.27.17,0,.35,0,.52-.03,1.24-.14,2.11-.71,2.12-1.4,0-.07,0-.14-.03-.21-.13-.5-.73-.85-1.69-.99-.21-.03-.34-.16-.39-.2.15.08.33.15.53.2.22.07.42.1.59.1.3,0,.45-.1.52-.19.06-.07.09-.14.1-.23.14.02.27.03.37.03h0c.18,0,.43-.03.59-.15.2-.14.29-.36.22-.56.15-.03.28-.08.38-.14.29-.17.32-.43.24-.6-.05-.12-.15-.19-.29-.25.09-.04.17-.09.23-.15.18-.17.22-.41.12-.63Zm-8.65,1.13s.04-.09.03-.09c0,0,.01,0,.02.02-.02.02-.03.05-.05.07Zm.81-1.19c-.05-.13-.09-.27-.15-.39.03,0,.06,0,.09,0,0,0,.01,0,.02,0,.08.04.16.07.26.08-.06.08-.13.18-.21.3Zm1.32,1.3s-.05.02-.08.03c-.03,0-.06,0-.09,0-.07,0-.13-.01-.19-.03.08-.21.17-.43.23-.59.04.13.11.31.2.58-.02,0-.05.01-.08.02Zm1-1.43l-.2-.32c.17-.05.32-.1.46-.17-.1.14-.18.31-.25.48Zm2.28,4c.06,0,.12,0,.19-.01-.05.03-.12.07-.2.1.01-.03.02-.06.02-.09Z" style="fill:#fff;"/><path d="m53.81,8.02c.51.12,1.08.04,1.32-.1.11-.07.15-.14.12-.22-.05-.12-.31-.18-.89-.2-1.43-.06-2.14-.83-2.45-1.16,0,0-.1-.1-.1-.1l-.07-.07c-.28-.3-.41-.44-.73-.43-.41.02-.64.64-.84,1.18,0,0-.02.06-.04.11-.08-.12-.62-.97-.62-.97,0-.01-.01-.04-.01-.07,0-.07.05-.17.24-.22.53-.14.9-.4.94-.66,0-.02,0-.04,0-.06,0-.27-.36-.56-.89-.69-.36-.09-.61-.1-.82-.05t0,0c.09-.06.23-.09.32-.08.21.03.29.01.32-.01.03-.02.03-.05,0-.08-.02-.02-.06-.04-.12-.05-.13-.02-.34-.01-.43.03-.1.04-.17.11-.21.2h-.02c-.03-.1-.1-.16-.2-.2-.09-.04-.3-.05-.43-.03-.06.01-.11.03-.12.05-.01.01-.02.03-.02.04,0,.02,0,.03.02.03.04.03.16.04.32.02.1-.01.24.04.32.09-.27-.06-.69.02-.96.12-.34.13-.6.38-.68.56-.03.08-.07.13-.2.16-.1-.05-.22-.06-.32-.02-.1.04-.15.13-.12.2.03.05.05.1.16.16.11.05.34.08.51.07,0,.01,0,.02,0,.02.03.05.09.09.19.14.12.06.28.08.45.05,0,0,.08.05.08.05.14.07.35.08.53.02.04.04.05.09.05.12,0,.03,0,.06-.02.07,0,0-.56.85-.73,1.11-.03-.08-.06-.16-.09-.24,0,0-.06-.17-.06-.17-.18-.54-.34-1.01-.76-1.01-.33,0-.47.14-.8.49h0s-.1.11-.1.11c-.32.33-1.05,1.1-2.48,1.16-.58.03-.84.08-.9.2-.04.08,0,.16.11.22.24.14.81.22,1.32.1.08-.02.1,0,.11,0,0,0,0,0,0,0-.01.03-.13.1-.45.15-.26.04-.43.13-.47.23-.04.08,0,.16.09.22.08.06.24.09.42.09.16,0,.58-.01.98-.25,0,0,0,0,0,0,.02,0,.05-.02.13-.07.03-.02.06-.02.07-.01.02.01,0,.08-.22.22-.25.17-.34.31-.25.41.07.09.33.14.8,0,1-.37,1.29-.91,1.49-1.31.12-.23.21-.4.41-.43.17-.02.29.17.35.34-.6.86-.85,1.15-1.02,1.35-.08.1-.15.17-.23.28,0,0-.13.16-.36.27-.01,0-.02.01-.02.02,0,0,0,0,0,0,0,.01.02.02.04.02h.1c.14,0,.31.01.48.04.63.11.92.29.93.3.02.01.04.02.04.04h0s-.03.03-.07.04h-.08c-.07.03-.18.01-.24-.01,0,0,0,0,0,0l-.34-.09s-.16-.03-.16-.03c0,0-.03,0-.03,0-.55-.08-.88.03-.95.16,0,0,0,0,0,0-.01.02-.02.04-.02.06,0,.03.01.06.04.09.09.11.34.2.68.24,0,0,.01,0,.01,0h.02s.17.02.17.02c0,0,.4,0,.4,0,.08,0,.19.01.24.04l.2.11s.1.07.08.12c-.02.04-.09.08-.23.1-.02,0-.59.08-1.18-.02-.16-.03-.32-.05-.46-.09,0,0-.14-.04-.14-.04l-.13-.04c-.44-.16-.71-.36-.7-.56v-.04s0,0,0,0c0,0,0,0,0,0,0-.01,0-.02-.03-.02-.02,0-.04,0-.05,0-.18.12-.29.25-.33.4-.01.04-.02.09-.02.14,0,.51.78.99,1.82,1.1.66.07,1.32,0,1.79-.21.33-.14.53-.34.6-.56.01-.04.02-.08.02-.12,0-.19-.12-.4-.39-.63,0,0-.09-.08-.09-.08-.1-.07-.17-.13-.17-.24,0-.05.01-.1.04-.17,0,0,.34-.79.43-1.01.21.21.59.33.83.34.09,0,.2-.03.28-.04.02,0,.03-.01.03-.02,0-.01,0-.02-.02-.03h-.03s-.01-.01-.02-.01h-.06c-.09,0-.21,0-.25-.04-.02-.02-.02-.04-.01-.07.02-.04.11-.04.25-.04.12,0,.17,0,.22-.02,0,0,.02,0,.02-.02,0,0,0-.01,0-.02l-.03-.02s-.05,0-.14,0h-.05s-.05,0-.05,0c-.1,0-.2,0-.22-.06,0,0,0-.01,0-.02,0-.02.01-.03.02-.03.04-.03.12-.03.19-.03h.05c.15,0,.18-.02.21-.04,0,0,0-.01,0-.01h0s0-.03-.01-.03c0,0-.02,0-.03,0h-.03s-.07,0-.07,0c0,0-.02,0-.02,0-.08,0-.18,0-.24-.03-.03-.02-.05-.04-.05-.05h0s.01-.04.08-.06c0,0,.09-.02.09-.02.07,0,.1-.01.11-.03,0,0,0,0,0,0,0,0,0-.02,0-.02-.01-.01-.04-.02-.15-.03,0,0,0,0-.01,0h0c-.21,0-.39-.06-.57-.17.39-.94.41-1.09.41-1.1.05-.09.11-.11.21-.11h0c.1,0,.15.03.21.11,0,.04.02.16.36,1.08-.11.07-.25.12-.38.15-.01,0-.02.01-.03.02,0,0,0,0,0,0,0,0,0,.01,0,.02.01.01.02.02.02.04v.02s-.09.05-.16.06c0,0-.06.01-.06.01,0,0-.01,0-.01,0h-.01s-.02.02-.02.03h0s0,.02,0,.02h0s.12.03.2.02h.02s.06,0,.06,0c.07,0,.12,0,.14.03,0,0,0,.02,0,.03,0,.02,0,.04-.02.05-.06.06-.16.06-.26.06h-.05s-.1,0-.1,0c-.02,0-.03,0-.04.02,0,.01,0,.02.02.03.02.01.05.02.14.02h.06s.04,0,.04,0c.07,0,.13,0,.17,0,.04.01.07.03.07.06,0,.02,0,.04-.03.06-.06.04-.15.03-.26.03-.11,0-.14,0-.16,0-.02,0-.03.01-.03.02,0,.01,0,.02.01.03.02.01.06.02.2.02.05,0,.08,0,.1,0,.03,0,.05.02.07.04.01.01.04.02.06.01.19-.07.39-.15.49-.25.04.11.4,1.01.4,1.01.03.07.04.13.04.17,0,.08-.04.13-.1.18,0,0,0,.01,0,.02,0,0,0,.01.01.02.01,0,.04.01.06,0,.22-.08.47-.15.76-.19.62-.09,1.17,0,1.19,0,.04,0,.06.01.07.02,0,0,0,0,0,0,0,0-.01.02-.03.03,0,0-.15.04-.15.04,0,0-.14.05-.29.03-.21-.02-.38-.01-.61.02-.32.04-.56.13-.66.23-.05.05-.07.11-.05.16.06.17.51.25,1.01.19.21-.03.51-.11.63-.21.01,0,.01-.02,0-.03,0-.01-.03-.02-.05-.01l-.66.07c-.08.01-.15,0-.16-.04l-.04-.1s0-.02.01-.04c.02-.02.06-.04.11-.04,0,0,.71-.09,1.3-.11.21-.01.33,0,.43.07.09.06.02.17,0,.21,0,0,0,.01,0,.01,0,.02-.24.47-1.48.61-1.13.12-1.7-.1-1.84-.32,0-.01-.03-.02-.05-.02-.02,0-.03.01-.04.02l-.02.11s0,.08.01.12c.06.22.26.41.58.56.47.21,1.12.29,1.78.21,1.06-.12,1.85-.6,1.85-1.1,0-.05,0-.09-.02-.14-.1-.37-.62-.65-1.44-.77-.38-.06-.6-.33-.6-.34-.08-.11-.14-.19-.21-.28-.17-.2-.42-.51-1.06-1.48.05-.08.15-.22.3-.21.2.02.27.19.38.43.18.42.43.99,1.47,1.3.47.14.72.09.8,0,.09-.1,0-.24-.24-.41-.21-.14-.23-.21-.21-.22,0,0,.03,0,.07.01l.12.07c.38.23.8.25.97.25.19,0,.35-.04.43-.09.1-.06.13-.15.1-.22-.04-.1-.21-.18-.47-.23-.32-.06-.44-.13-.45-.15,0,0,0,0,0,0,0,0,.03-.01.11,0m-4.93-2.81l.03.02s-.01,0-.01,0c0,0,0,.01.02.02,0,0,0,0,0,.01,0,0-.02,0-.03,0-.02,0-.03-.02-.04-.03-.01-.01-.03-.02-.06-.01-.04.01-.09.02-.13.02-.02,0-.04.01-.04.03,0,0,0,0,0,.01,0,0,0,0,0,.01,0,0-.01,0-.02,0-.01,0-.02,0-.02-.02,0,0,0-.01,0-.01,0,0,0,0,0,0,0-.01-.02-.02-.04-.03l-.11-.02s-.04,0-.05,0c-.02.01-.04.02-.06.03-.01,0-.03,0-.03,0,0,0,0,0,0-.01.01,0,.02-.01.02-.01,0,0,.01-.01.01-.02h0s0-.02-.02-.02c0,0-.05-.03-.05-.03,0,0,0-.01,0-.02,0,0,0-.01.01-.02.01,0,.03,0,.05,0,0,0,.12.08.28.09.12,0,.24-.03.37-.09.01,0,.04,0,.05,0,0,0,0,0,0,.02,0,0-.01.01-.01.02-.01,0-.08.04-.08.04,0,0-.02,0-.02.02,0,0,0,0,0,0,0,0,0,0,0,.01m1.59.02s0,0,0,.01c0,0-.02.01-.03,0-.02,0-.04-.02-.06-.03-.01,0-.03,0-.05,0l-.1.02s-.04.02-.04.03v.02s-.01.01-.02.01c0,0,0,0-.02,0,0,0,0,0,0-.01h0s-.02-.04-.04-.04c-.04,0-.08,0-.12-.02-.02,0-.04,0-.05.01,0,.01-.02.02-.04.03,0,0-.02,0-.03,0,0,0,0,0,0-.01,0,0,.02-.02.02-.02,0,0-.01,0-.01,0l.02-.02s0,0,0-.01c0,0,0,0,0,0,0,0,0-.01-.02-.02,0,0-.08-.04-.09-.04,0,0,0,0,0-.01,0,0,0-.01,0-.02.01,0,.03,0,.04,0,.12.06.23.09.35.09h0c.16,0,.27-.08.27-.08.01,0,.03,0,.05,0,0,0,0,0,0,.01,0,0,0,.01,0,.02-.01,0-.05.02-.05.02-.01,0-.01.02-.01.02,0,.01,0,.01.04.04m-.9.27s.05-.02.07-.03c.01,0,.02-.01.02-.02,0,0,0-.01,0-.03,0,0,.01,0,.02,0,0,0,.01,0,.02,0,0,0,.01,0,.02.01,0,0,0,0,0,0,0,.03-.05.07-.13.1-.13.04-.33.04-.5-.09,0,0,0-.01,0-.02,0,0,0,0,.01-.01,0,0,.01,0,.02,0,.01,0,.03,0,.03.01.14.11.31.11.42.08m-.4,3.37s0,.02-.02.02c-.01,0-.02,0-.04,0,.04,0,.05,0,.06-.02m-.02-2.03s0,0,0,0h0s0,0,0,0Z" style="fill:#f34e6c;"/><path d="m44.82,6.78c-.15-.2-.38-.44-.57-.59-.22-.17-.45-.24-.67-.27-.15-.02-.35-.02-.48.02-.09.03-.2.06-.26.15-.08.13.01.24.19.32.02,0,.01.01,0,.02-.23.03-.51.14-.57.27-.05.11-.02.21.06.29.07.07.19.12.34.14.22.03.52.03.87-.06.02,0,.04,0,.06-.01.13-.03.9-.24,1.03-.26Z" style="fill:#f34e6c;"/><path d="m52.96,6.78c.15-.2.38-.44.57-.59.22-.17.45-.24.67-.27.16-.02.35-.02.48.02.09.03.2.06.26.15.08.13-.01.24-.19.32-.02,0-.01.01,0,.02.23.03.51.14.57.27.05.11.02.21-.06.29-.07.07-.19.12-.34.14-.22.03-.52.03-.87-.06-.02,0-.04,0-.06-.01-.13-.03-.9-.24-1.03-.26Z" style="fill:#f34e6c;"/><path d="m61.91,5.1h-5.23c-.17,0-.3.13-.3.3v.77c0,.17.13.3.3.3h1.78v3.64c0,.17.14.3.31.3h1.06c.17,0,.3-.13.3-.3v-3.64h1.79c.17,0,.3-.13.3-.3v-.77c0-.17-.13-.3-.3-.3Z" style="fill:#fff;"/><path d="m67.76,5.11h-1.06c-.17,0-.3.13-.3.3v1.65h-2.54v-1.65c0-.17-.13-.3-.3-.3h-1.06c-.17,0-.3.13-.3.3v4.7c0,.17.13.3.3.3h1.06c.17,0,.3-.13.3-.3v-1.68h2.54v1.68c0,.17.13.3.3.3h1.06c.17,0,.3-.13.3-.3v-4.7c0-.17-.13-.3-.3-.3Z" style="fill:#fff;"/><path d="m74.11,9.22c-.05-.11-.16-.17-.27-.17h-3.65v-.67h2.69c.17,0,.3-.13.3-.3v-.79c0-.17-.13-.3-.3-.3h-2.69v-.5h3.62c.17,0,.3-.13.3-.3v-.77c0-.17-.13-.3-.3-.3h-4.98c-.17,0-.3.13-.3.3v4.7c0,.17.13.3.3.3h4.37c.37,0,.63-.01.78-.03.15-.02.48-.06.48-.36,0-.04,0-.09-.03-.13l-.32-.68Z" style="fill:#fff;"/><rect x="76.02" y="5.11" width="1.66" height="5.3" rx=".3" ry=".3" style="fill:#fff;"/><path d="m83.29,5.3c-.27-.13-.64-.19-1.12-.19h-3.71c-.09,0-.17.04-.23.1-.06.06-.08.15-.07.24l.08.6v4.06c0,.17.13.3.3.3h3.63c.49,0,.86-.06,1.13-.19.3-.14.51-.35.63-.63.1-.25.15-.55.15-.91v-1.85c0-.36-.05-.66-.16-.91-.12-.28-.33-.49-.63-.63Zm-3.4,1.18h2.21c.17,0,.24.04.26.06.05.05.07.12.07.2v2.04c0,.16-.03.27-.32.27h-2.21v-2.57Z" style="fill:#fff;"/><path d="m89.44,5.31c-.26-.13-.59-.2-1.01-.2h-2.34c-.43,0-.77.06-1.02.2-.28.14-.48.36-.59.63-.1.25-.15.55-.15.89v1.85c0,.35.05.66.15.91.12.28.32.49.6.63.26.13.59.19,1.01.19h2.34c.65,0,1.1-.15,1.37-.47.26-.3.38-.72.38-1.26v-1.85c0-.35-.05-.65-.15-.9-.12-.28-.31-.49-.59-.63Zm-.91,1.43v2.04c0,.12-.04.17-.07.2-.05.05-.14.07-.26.07h-1.88c-.12,0-.21-.03-.27-.08-.03-.03-.07-.07-.07-.19v-2.04c0-.1.04-.15.07-.18.06-.05.15-.08.27-.08h1.88c.17,0,.23.06.25.08.05.05.08.11.08.18Z" style="fill:#fff;"/><path d="m95.6,9.22c-.05-.1-.16-.17-.27-.17h-3.01v-3.64c0-.17-.13-.3-.3-.3h-1.06c-.17,0-.3.13-.3.3v4.03s-.08.64-.08.64c-.01.09.02.17.07.24.06.06.14.1.23.1h3.81c.37,0,.63-.01.78-.03.15-.02.48-.06.48-.36,0-.04,0-.09-.03-.13l-.32-.68Z" style="fill:#fff;"/><path d="m102.15,5.11h-1.08c-.11,0-.21.06-.26.15l-1.61,2.75-1.55-2.75c-.05-.09-.15-.15-.26-.15h-1.22c-.09,0-.17.04-.23.1-.06.06-.08.15-.07.24l.08.6v4.06c0,.17.13.3.3.3h1.06c.17,0,.3-.13.3-.3v-1.85l.85,1.52c.05.1.15.15.26.15h.97c.11,0,.21-.06.26-.15l.85-1.52v1.85c0,.17.13.3.3.3h1.06c.17,0,.3-.13.3-.3v-4.7c0-.17-.13-.3-.3-.3Z" style="fill:#fff;"/><path d="m108.04,4.95h-3.28c-.42,0-.77.08-1.04.24-.28.16-.48.39-.61.67-.12.26-.18.57-.18.9v2.82c0,.29.06.56.19.81.13.26.34.46.62.61.27.15.61.22,1.03.22h2.92c.15,0,.27-.01.37-.04.13-.03.2-.07.26-.13.03-.03.05-.06.07-.1l.24-.56c.04-.09.03-.2-.03-.28-.06-.08-.15-.13-.25-.13h-3.52c-.22,0-.34-.04-.39-.07-.09-.05-.12-.1-.13-.14-.03-.09-.05-.19-.05-.29v-2.78c0-.11.02-.2.05-.29.01-.03.04-.09.13-.14.06-.03.17-.07.39-.07h3.05c.24,0,.35.04.39.07.09.05.12.11.13.14.03.08.04.17.04.29v1.86c0,.06,0,.09,0,.1-.03,0-.16.01-.16.01l-.08-.11v-2.05c0-.17-.13-.3-.3-.3h-.32s-.09.01-.13.03l-.42.2s-.89-.06-1.09-.06c-.2,0-.36-.01-.49-.01-.31,0-.55.09-.73.26-.18.17-.27.41-.27.68v1.74c0,.26.09.49.27.66.18.18.42.27.74.27h.62c.32,0,.58-.04.78-.12.16-.06.29-.15.4-.25.02.03.05.05.08.08.2.18.49.27.85.27h.14c.42,0,.76-.11,1.02-.31.28-.22.42-.55.42-.98v-2.06c0-.5-.15-.9-.45-1.2-.3-.3-.72-.45-1.26-.45Zm-1.42,2.74v.55c0,.15-.03.26-.09.33-.05.05-.17.08-.33.08l-.19.05v-1.01h.61Z" style="fill:#fff;"/><path d="m114.81,7.17c-.27-.08-.59-.12-.96-.12h-1.78c-.22,0-.29-.05-.29-.06-.04-.03-.05-.11-.05-.17v-.13c0-.11.04-.16.06-.18,0,0,.06-.05.24-.05,0,0,.11,0,.11,0,.82,0,1.48,0,1.96.03.48.02.79.03.92.05.01,0,.02,0,.04,0,.14,0,.26-.09.29-.23l.17-.74c0-.32-.37-.38-.59-.42-.24-.04-.55-.06-.93-.06h-2.18c-.43,0-.77.07-1.03.22-.27.15-.46.36-.58.62-.1.23-.16.49-.16.77v.13c0,.55.16.95.48,1.21.3.25.75.37,1.37.37h1.86c.22,0,.29.03.3.03h0s.03.06.03.19v.16c0,.12-.03.18-.04.19,0,0-.06.05-.29.05h-.15c-.85,0-1.52,0-2-.03-.47-.02-.76-.04-.88-.06-.02,0-.03,0-.05,0-.12,0-.22.07-.27.17l-.32.7s-.03.08-.03.13c0,.31.35.38.5.41.19.04.47.05.85.05h2.66c.6,0,1.03-.16,1.3-.48.25-.3.38-.69.38-1.16v-.13c0-.42-.08-.75-.25-.98-.17-.24-.41-.41-.72-.5Z" style="fill:#fff;"/><path d="m121.14,5.1h-5.23c-.17,0-.3.13-.3.3v.77c0,.17.13.3.3.3h1.78v3.64c0,.17.14.3.31.3h1.06c.17,0,.3-.13.3-.3v-3.64h1.79c.17,0,.3-.13.3-.3v-.77c0-.17-.13-.3-.3-.3Z" style="fill:#fff;"/><path d="m127.02,9.22c-.05-.11-.16-.17-.27-.17h-3.65v-.67h2.69c.17,0,.3-.13.3-.3v-.79c0-.17-.13-.3-.3-.3h-2.69v-.5h3.62c.17,0,.3-.13.3-.3v-.77c0-.17-.13-.3-.3-.3h-4.98c-.17,0-.3.13-.3.3v4.7c0,.17.13.3.3.3h4.37c.37,0,.63-.01.78-.03.15-.02.48-.06.48-.36,0-.04,0-.09-.03-.13l-.32-.68Z" style="fill:#fff;"/><path d="m133.81,9.28c-.06-.07-.14-.12-.23-.12h-.15c-.05-.01-.14-.02-.3-.07-.12-.04-.27-.1-.44-.2-.05-.03-.11-.07-.19-.14,0,0-.36-.28-.38-.3.03-.01.06-.03.09-.05.21-.12.37-.27.49-.45.11-.17.19-.35.23-.52.04-.16.06-.32.06-.46v-.15c0-.16-.01-.34-.04-.52-.03-.2-.11-.4-.22-.58-.12-.19-.31-.35-.56-.47-.24-.11-.54-.16-.93-.16h-3.54c-.09,0-.17.04-.22.1-.06.06-.08.15-.07.24l.08.61v4.06c0,.17.13.3.3.3h1.06c.17,0,.3-.13.3-.3v-1.48c.36,0,.66.05.89.15.24.1.47.25.67.46l.58.58c.3.3.57.48.82.57.23.08.48.11.72.11.17,0,.32-.01.44-.03.13-.02.23-.04.29-.06.1-.03.17-.11.2-.21l.16-.65c.02-.09,0-.18-.06-.26Zm-4.7-2.81h1.88c.15,0,.23.03.25.06.05.06.07.15.07.25v.18c0,.12-.04.17-.06.2-.02.02-.08.07-.29.1-.13.01-.27.02-.42.03s-.33.01-.53.01c-.17,0-.35,0-.54,0-.11,0-.23,0-.36-.01v-.81Z" style="fill:#fff;"/><path d="m58.76,10.12v-3.94h-2.09v-.77h5.23v.77h-2.09v3.94h-1.06Z" style="fill:#5a6172;"/><path d="m62.51,10.12v-4.7h1.06v1.95h3.14v-1.95h1.06v4.7h-1.06v-1.98h-3.14v1.98h-1.06Z" style="fill:#5a6172;"/><path d="m68.84,10.12v-4.7h4.98v.77h-3.92v1.1h2.99v.79h-2.99v1.27h3.95l.32.68s-.07.04-.22.06-.39.03-.74.03h-4.37Z" style="fill:#5a6172;"/><path d="m76.32,10.12v-4.7h1.06v4.7h-1.06Z" style="fill:#5a6172;"/><path d="m78.54,10.12v-4.06l-.08-.64h3.71c.43,0,.76.05,1,.16.23.11.39.27.48.48.09.21.14.47.14.79v1.85c0,.32-.04.59-.13.8-.09.21-.25.37-.48.48-.23.11-.57.16-1,.16h-3.63Zm1.06-.77h2.51c.41,0,.62-.19.62-.57v-2.04c0-.15-.05-.29-.14-.4s-.25-.16-.49-.16h-2.51v3.17Z" style="fill:#5a6172;"/><path d="m86.09,10.12c-.37,0-.67-.05-.88-.16-.21-.11-.36-.27-.45-.48-.09-.21-.13-.48-.13-.79v-1.85c0-.31.04-.57.13-.78.09-.21.23-.37.45-.48.21-.11.51-.16.89-.16h2.34c.37,0,.67.05.88.16.21.11.36.27.45.48.09.21.13.47.13.78v1.85c0,.47-.1.83-.31,1.07s-.59.36-1.14.36h-2.34Zm.23-.77h1.88c.2,0,.35-.05.46-.15.11-.1.16-.24.16-.42v-2.04c0-.15-.06-.29-.17-.4-.11-.11-.26-.16-.46-.16h-1.88c-.19,0-.35.05-.46.15-.12.1-.18.24-.18.41v2.04c0,.18.06.32.17.42s.27.15.47.15Z" style="fill:#5a6172;"/><path d="m90.88,10.12l.08-.64v-4.06h1.06v3.94h3.31l.32.68s-.07.04-.22.06-.39.03-.74.03h-3.81Z" style="fill:#5a6172;"/><path d="m96.25,10.12v-4.06l-.08-.64h1.22l1.81,3.2,1.87-3.2h1.08v4.7h-1.06v-2.98h-.09l-.31.7-1.01,1.81h-.97l-1.01-1.81-.32-.7h-.08v2.98h-1.06Z" style="fill:#5a6172;"/><path d="m104.76,10.91c-.37,0-.66-.06-.89-.18-.22-.12-.39-.29-.49-.49s-.16-.43-.16-.67v-2.82c0-.29.05-.55.16-.77s.27-.41.49-.54.52-.2.89-.2h3.28c.46,0,.81.12,1.05.36.24.24.36.57.36.98v2.06c0,.33-.1.58-.31.74-.21.17-.48.25-.83.25h-.14c-.29,0-.51-.06-.66-.2s-.22-.31-.22-.52c-.04.14-.1.26-.18.38-.09.11-.21.2-.38.27-.17.07-.39.1-.67.1h-.62c-.23,0-.4-.06-.52-.18-.12-.12-.18-.27-.18-.45v-1.74c0-.2.06-.35.18-.47.12-.11.29-.17.52-.17.12,0,.28,0,.47.01.19,0,.39.02.6.03.21.01.4.03.56.04l.49-.24h.32v2.05c0,.13.04.23.11.3.07.07.16.1.27.1h.08c.14,0,.24-.03.3-.1.06-.07.09-.17.09-.3v-1.86c0-.14-.01-.28-.06-.4-.05-.12-.13-.22-.26-.29-.13-.07-.31-.11-.55-.11h-3.05c-.23,0-.42.04-.54.11s-.21.17-.26.29c-.05.12-.07.25-.07.4v2.78c0,.14.02.27.07.39.04.12.13.22.26.3s.31.11.54.11h3.52l-.24.56s-.06.03-.13.05-.17.03-.29.03h-2.92Zm1.2-1.96h.24c.26,0,.45-.06.56-.18.11-.12.16-.3.16-.53v-.85h-.96c-.1,0-.16.02-.2.05-.04.03-.05.1-.05.19v1.07c0,.09.02.15.06.19.04.04.1.06.18.06Z" style="fill:#5a6172;"/><path d="m111.43,10.12c-.36,0-.63-.02-.8-.05-.17-.03-.26-.07-.26-.11l.32-.7c.12.02.43.04.92.06.49.02,1.16.03,2.01.03h.15c.23,0,.39-.04.49-.12.1-.08.14-.22.14-.42v-.16c0-.19-.04-.32-.12-.4s-.25-.12-.52-.12h-1.86c-.54,0-.93-.1-1.18-.3-.25-.2-.37-.53-.37-.98v-.13c0-.23.04-.45.13-.65.09-.2.24-.36.45-.48s.51-.18.88-.18h2.18c.36,0,.66.02.88.06s.34.08.34.12l-.16.67c-.14-.02-.45-.03-.94-.05-.49-.02-1.15-.03-1.98-.03h-.09c-.25,0-.41.04-.5.14s-.13.22-.14.37v.14c0,.18.05.31.15.4s.26.13.49.13h1.78c.34,0,.63.03.87.1.24.07.42.2.55.38s.19.45.19.81v.13c0,.4-.1.72-.31.97-.21.25-.56.37-1.07.37h-2.66Z" style="fill:#5a6172;"/><path d="m117.99,10.12v-3.94h-2.09v-.77h5.23v.77h-2.09v3.94h-1.06Z" style="fill:#5a6172;"/><path d="m121.74,10.12v-4.7h4.98v.77h-3.92v1.1h2.99v.79h-2.99v1.27h3.95l.32.68s-.07.04-.22.06-.39.03-.74.03h-4.37Z" style="fill:#5a6172;"/><path d="m132.78,10.2c-.21,0-.42-.03-.63-.1-.21-.07-.44-.23-.7-.49l-.58-.58c-.23-.24-.49-.42-.77-.53-.28-.11-.63-.17-1.05-.17h-.25v1.78h-1.06v-4.06l-.08-.65h3.54c.34,0,.61.05.8.14.19.09.34.21.43.36.09.15.15.3.18.47.03.17.04.32.04.47v.15c0,.12-.02.25-.05.39-.03.14-.09.29-.18.42-.09.14-.22.26-.39.35s-.39.15-.66.17c.07.04.16.09.26.17.11.08.22.16.33.25.11.09.22.17.32.25s.17.13.22.16c.19.11.36.19.51.23.15.04.27.07.37.07s.15,0,.17,0l-.16.65s-.13.03-.24.05c-.11.02-.24.03-.39.03Zm-2.78-2.59c.2,0,.38,0,.54-.01.16,0,.3-.02.43-.03.23-.03.4-.09.49-.2s.14-.24.14-.4v-.18c0-.17-.05-.31-.14-.43-.09-.12-.25-.18-.49-.18h-2.18v1.39c.23.02.45.03.65.03s.38,0,.55,0Z" style="fill:#5a6172;"/></g></g></svg>