<?xml version="1.0" encoding="UTF-8"?>
<svg id="l" xmlns="http://www.w3.org/2000/svg" version="1.1" xmlns:xlink="http://www.w3.org/1999/xlink" viewBox="0 0 454 58">
  <!-- Generator: Adobe Illustrator 29.1.0, SVG Export Plug-In . SVG Version: 2.1.0 Build 142)  -->
  <defs>
    <style>
      .st0 {
        fill: url(#_名称未設定グラデーション_386);
      }
    </style>
    <linearGradient id="_名称未設定グラデーション_386" data-name="名称未設定グラデーション 386" x1=".03" y1="29" x2="453.97" y2="29" gradientUnits="userSpaceOnUse">
      <stop offset="0" stop-color="#c8ffff"/>
      <stop offset="1" stop-color="#bfc5ff"/>
    </linearGradient>
  </defs>
  <path class="st0" d="M.03,1.18h14.21v43.15h16.46v12.48H.03V1.18Z"/>
  <path class="st0" d="M41.15,1.18h14.21v55.63h-14.21V1.18Z"/>
  <path class="st0" d="M61.98,1.18h14.58l11.28,39.02L99.19,1.18h14.66l-18.64,55.63h-14.66L61.98,1.18Z"/>
  <path class="st0" d="M121.97,1.18h31.5v12.48h-17.29v8.65h16.77v12.48h-16.77v9.55h17.29v12.48h-31.5V1.18Z"/>
  <path class="st0" d="M206.85,1.18c10.3,0,14.13,1.58,17.14,4.06,4.36,3.61,6.54,9.1,6.54,14.74s-2.33,11.58-5.86,14.58c-3.83,3.23-7.59,4.81-16.24,4.81h-5.56v17.44h-14.21V1.18h18.19ZM202.87,26.89h5.19c1.35,0,3.61,0,5.49-.83,1.88-.83,3.38-2.56,3.38-5.86s-1.58-4.89-3.53-5.71c-1.96-.83-4.29-.83-5.86-.83h-4.66v13.23Z"/>
  <path class="st0" d="M238.35,56.82V1.18h14.21v20.9h18.19V1.18h14.21v55.63h-14.21v-22.25h-18.19v22.25h-14.21Z"/>
  <path class="st0" d="M294.51,29.6c0-18.19,13.98-29.47,29.32-29.47,17.14,0,29.4,13.38,29.4,28.87s-12.18,28.87-29.47,28.87-29.25-13.91-29.25-28.19v-.08ZM308.72,28.92c0,8.5,5.79,16.46,15.34,16.46,10.07,0,14.96-9.17,14.96-16.31s-4.89-16.46-15.11-16.46-15.19,8.42-15.19,16.24v.08Z"/>
  <path class="st0" d="M367.21,13.66h-10.98V1.18h36.09v12.48h-10.9v43.15h-14.21V13.66Z"/>
  <path class="st0" d="M395.25,29.6c0-18.19,13.98-29.47,29.32-29.47,17.14,0,29.4,13.38,29.4,28.87s-12.18,28.87-29.47,28.87-29.25-13.91-29.25-28.19v-.08ZM409.46,28.92c0,8.5,5.79,16.46,15.34,16.46,10.07,0,14.96-9.17,14.96-16.31s-4.89-16.46-15.11-16.46-15.19,8.42-15.19,16.24v.08Z"/>
</svg>