<?xml version="1.0" encoding="UTF-8"?>
<svg id="_2024_rn" data-name="2024_rn" xmlns="http://www.w3.org/2000/svg" viewBox="0 0 50 50">
  <path d="M40.54,25.73c-1.25,3.69-3.32,6.87-6.16,9.54-2.9,2.73-6.3,4.59-10.13,5.65-.82.23-1.66.37-2.5.52-.3.06-.41.17-.41.49.02,1.15,0,2.29.01,3.44,0,.51-.15.9-.63,1.11h-.42c-.23-.18-.47-.34-.68-.54-2.25-2.24-4.49-4.48-6.73-6.73-.62-.62-.63-1.02-.01-1.63,2.27-2.27,4.54-4.55,6.81-6.82.05-.05.1-.1.15-.15.27-.26.57-.4.95-.25.39.15.55.46.55.85,0,1.1,0,2.21,0,3.31,0,.17,0,.33,0,.57.77-.07,1.5-.11,2.23-.22,3.56-.5,6.7-1.97,9.44-4.27,2.19-1.85,3.9-4.1,5.12-6.71,1.03-2.2,1.56-4.53,1.84-6.93.07-.59.42-.94.9-.91.48.03.76.4.8,1,.17,2.96-.19,5.86-1.14,8.66Z" style="fill: #ffc000; fill-rule: evenodd; stroke-width: 0px;"/>
  <path d="M25.61,17.63v-6.67c0-.83-.67-1.5-1.5-1.5h0c-.83,0-1.5.67-1.5,1.5v7.17s0,1.5,0,1.5c0,.83.67,1.5,1.5,1.5h8.04c.83,0,1.5-.67,1.5-1.5h0c0-.83-.67-1.5-1.5-1.5h-6.04c-.28,0-.5-.22-.5-.5Z" style="fill: #ffc000; stroke-width: 0px;"/>
  <path d="M15.4,32.24l1.87-1.88c.09-.09.07-.24-.03-.31-3.58-2.35-5.92-6.46-5.75-11.09.24-6.55,5.65-11.97,12.2-12.23,7.24-.28,13.22,5.52,13.22,12.7,0,1.18.82-.28,1.1-2.69.1-.85.48-1.55,1.04-2.02.06-.05.09-.14.06-.21-2.27-6.87-9.14-11.64-16.96-10.66-7.24.91-12.99,6.93-13.61,14.2-.5,5.86,2.22,11.12,6.59,14.21.08.06.2.05.27-.02Z" style="fill: #ffc000; stroke-width: 0px;"/>
</svg>