<?xml version="1.0" encoding="UTF-8"?>
<svg id="_2024_rn" data-name="2024_rn" xmlns="http://www.w3.org/2000/svg" viewBox="0 0 50 50">
  <path d="M29.53,23.5c-.78-6.61-6.61-11.66-13.53-11.18-6.36.45-11.51,5.76-11.78,12.13-.3,7.26,5.5,13.25,12.7,13.25,6.51,0,11.87-4.9,12.61-11.21h5.93v7.01c0,.11.09.2.2.2h2.6c.11,0,.2-.09.2-.2v-7.01h4.34v7.01c0,.11.09.2.2.2h2.6c.11,0,.2-.09.2-.2v-8.51c0-.83-.67-1.5-1.5-1.5h-14.77ZM16.91,34.71c-5.35,0-9.71-4.36-9.71-9.71s4.36-9.71,9.71-9.71,9.71,4.36,9.71,9.71-4.36,9.71-9.71,9.71Z" style="fill: #ffc000; stroke-width: 0px;"/>
</svg>