<?xml version="1.0" encoding="UTF-8"?>
<svg id="l" xmlns="http://www.w3.org/2000/svg" version="1.1" viewBox="0 0 50 71">
  <!-- Generator: Adobe Illustrator 29.1.0, SVG Export Plug-In . SVG Version: 2.1.0 Build 142)  -->
  <defs>
    <style>
      .st0 {
        fill: #3f3221;
      }

      .st1 {
        fill: #ffc549;
      }

      .st2 {
        fill: #fff;
      }

      .st3 {
        fill: #4ead9d;
      }
    </style>
  </defs>
  <path class="st0" d="M25,70.61c-2.42,0-4.75-.98-6.4-2.69l-14.93-15.43c-2.11-2.18-3.28-5.03-3.28-8V9.15C.39,6.61,1.51,4.2,3.48,2.54,5.13,1.15,7.24.39,9.43.39c2.35,0,4.57.88,6.27,2.48.02.02.05.05.07.07l9.23,9.28,9.23-9.28s.05-.05.07-.07c1.7-1.6,3.92-2.48,6.27-2.48,2.19,0,4.3.76,5.95,2.15,1.96,1.65,3.09,4.06,3.09,6.61v35.33c0,2.98-1.16,5.82-3.28,8l-14.93,15.43c-1.65,1.71-3.99,2.69-6.4,2.69Z"/>
  <path class="st2" d="M25,67.45c-1.57,0-3.07-.63-4.14-1.73l-14.93-15.43c-1.54-1.59-2.39-3.65-2.39-5.81V9.15c0-1.61.72-3.14,1.97-4.2,1.08-.91,2.47-1.41,3.92-1.41,1.54,0,3,.58,4.1,1.62l11.47,11.53,11.47-11.53c1.11-1.05,2.57-1.62,4.1-1.62,1.44,0,2.84.5,3.92,1.41,1.25,1.05,1.97,2.58,1.97,4.19v35.33c0,2.15-.85,4.21-2.39,5.81l-14.93,15.43c-1.06,1.1-2.57,1.73-4.14,1.73Z"/>
  <path class="st1" d="M11.36,7.46c-1.69-1.59-4.67-.52-4.67,1.69v35.33c0,1.33.53,2.61,1.5,3.61l14.93,15.43c.49.51,1.18.77,1.87.77V21.04L11.36,7.46Z"/>
  <path class="st3" d="M38.64,7.46l-13.64,13.58h0s0,43.26,0,43.26c.69,0,1.37-.26,1.87-.77l14.93-15.43c.97-1,1.5-2.28,1.5-3.61V9.15c0-2.21-2.98-3.29-4.67-1.69Z"/>
</svg>