<svg xmlns="http://www.w3.org/2000/svg" x="0px" y="0px" width="640px" height="59px" viewBox="0 0 640 59" style="enable-background:new 0 0 640 59" xml:space="preserve"><path d="M47.8 14.9c-2.8 4.8-8.5 12.5-14.3 16.8l-6.2-5.1c4.8-3 9.4-8.4 11-11.4h-31c-2.5 0-4.5.2-7.3.4V7.1c2.3.4 4.8.6 7.3.6h32.1c1.7 0 4.9-.2 6.1-.6l4.7 4.5c-.7.9-1.9 2.4-2.4 3.3zM9.3 56.7l-7-5.8c1.9-.7 4-1.7 6.2-3.4 7.6-5.4 9-11.9 9-22 0-1.9-.1-3.6-.4-5.5h8.6c.1 15.2-.2 27.8-16.4 36.7zm84.9-8.2-3.3 7.7c-8-3.4-26.8-7.7-36.4-9.2l3-7.7c10.2 1.6 28.5 6.1 36.7 9.2zm-2.5-19.3-2.9 7.7c-6.8-2.7-22.1-6.3-30.9-7.7l2.7-7.4c8.4 1.4 23.6 4.7 31.1 7.4zm4-16.8-3 7.7c-6.9-2.6-23.8-6.6-32.2-7.7l2.8-7.3c7.8 1 24.9 4.6 32.4 7.3zm15.8 34.2h19.3c.8-5.2 2.1-14 2.3-17.4H117c-1.9 0-4.2.2-6 .3v-8.1c1.5.2 4.3.4 5.9.4h15.2c1.2 0 3.7-.2 4.4-.7l5.8 2.9c-.3.8-.5 2-.6 2.6-.5 3.6-2 14.2-2.9 20h3.8c1.5 0 4.3-.1 5.8-.2v7.9c-1.2-.1-4.1-.2-5.7-.2h-31.3c-2.1 0-3.6.1-5.9.2v-8c1.7.2 3.9.3 6 .3zm54.3-21.4h32c2.8 0 5.4-.2 7-.4v9.6c-1.4-.1-4.5-.3-7-.3h-32c-3.4 0-7.4.2-9.6.3v-9.6c2.2.2 6.5.4 9.6.4zm84.9-8.2c-2 4.8-5.4 11.3-9.3 16.8 5.9 5.3 13.1 13.2 16.6 17.6l-6.8 6.1c-3.9-5.5-9.4-11.9-15-17.4-6.3 6.8-14.2 13.3-22.4 17.2l-6.1-6.6c9.6-3.7 18.8-11.2 24.4-17.6 3.9-4.6 7.6-10.7 8.9-15.1h-20.2c-2.5 0-5.8.4-7 .4V9.7c1.6.2 5.2.4 7 .4h21c2.6 0 4.9-.3 6.1-.7l.7.6c-1-2-2.2-4.1-3.3-5.8l4.7-2c1.5 2.3 3.7 6.3 4.8 8.4l-3.4 1.5 1.4 1c-.5.7-1.6 2.6-2.1 3.9zm11.7-8.6-4.7 2.1c-1.2-2.5-3.2-6.1-4.8-8.4l4.7-2c1.5 2.2 3.7 6.1 4.8 8.3zm30 16.8c3-4.9 5.1-9.8 6.6-14.6.5-1.6 1.2-4.1 1.4-5.7l8.9 3.2c-.8 1.4-1.9 4.1-2.5 5.5-1.8 4.9-4.5 11.1-8 16.7 5.2 4.4 10.2 9.2 14.3 13.6l-6.1 7c-4.2-5-8.5-9.3-13.2-13.6-5.2 6.5-12.1 13.3-22.1 19l-6.7-6.2c9.7-4.9 16.7-10.8 22.6-18.1-4.2-3.5-9.9-7.9-16-11.7l5.1-6.3c4.6 3.1 10.9 7.5 15.7 11.2zM342 39.5c10.2-6.2 17.9-15.6 21.7-23.9l4.6 8.7c-4.5 8.3-12.4 16.8-22 22.7-6 3.7-13.7 7.2-22.1 8.7l-5-8.1c9.3-1.4 17-4.6 22.8-8.1zm0-19.9-6.1 6.4c-3.1-3.4-10.5-10.1-14.9-13.3l5.6-6.1c4.2 2.9 11.9 9.3 15.4 13zm39-7.6c0-2.2-.2-5.2-.6-7.4h9.3c-.2 2.2-.5 4.9-.5 7.4v9.1c8 2.4 19.4 6.8 24.9 9.5l-3.4 8.5c-6.1-3.3-15.1-6.9-21.5-9.2v17.4c0 1.8.3 6.1.5 8.6h-9.3c.4-2.5.6-6.1.6-8.6V12zm58.3 30.7h24.6C465 36 467.1 23 467.2 19h-20.5c-2.4 0-4.6.1-6.7.2v-8.7c1.9.2 4.6.5 6.7.5h18.8c1.5 0 4.5-.4 5.5-.8l6.2 3.2c-.2.9-.5 2.3-.6 2.8-.7 5.6-2.9 19.7-4 26.5h6.4c2.1 0 4-.3 5.5-.5v8.9c-1.7-.2-4.2-.3-5.5-.3h-39.7c-1.8 0-3.9.1-5.9.3v-8.9c1.9.3 4.1.5 5.9.5zm60.5-.7H534c2 0 4.5-.1 6.5-.4V51c-2.1-.2-4.8-.4-6.5-.4h-34.2c-2.3 0-5.2.2-7.4.4v-9.4c2.3.2 5.1.4 7.4.4zm4.5-30.1h24.6c2.4 0 4.9-.2 6.6-.4v8.9c-1.7-.1-4.5-.2-6.6-.2h-24.6c-2.3 0-5 .1-7 .2v-8.9c2.2.3 5 .4 7 .4zM561.6 34l-7.3 2.8c-1-3.3-4-11.5-5.4-14.2L556 20c1.5 3.2 4.4 10.6 5.6 14zm28.8-8.2c-1.5 6.2-4 12.6-8.1 18-5.5 7.4-13 12.5-19.9 15.2l-6.2-6.6c6.5-1.8 14.8-6.5 19.8-12.8 4-5.2 6.9-13.4 7.6-21.1l8.3 2.8c-.8 1.9-1.2 3.2-1.5 4.5zm-15.7 4.4-7.1 2.6c-.7-3-3.3-10.4-4.8-13.6l7.1-2.4c1.1 2.6 4 10.6 4.8 13.4zM607 12c0-2.2-.2-5.2-.6-7.4h9.3c-.2 2.2-.5 4.9-.5 7.4v9.1c8 2.4 19.4 6.8 24.9 9.5l-3.4 8.5c-6.1-3.3-15.1-6.9-21.5-9.2v17.4c0 1.8.3 6.1.5 8.6h-9.3c.4-2.5.6-6.1.6-8.6V12z"/></svg>