<?xml version="1.0" encoding="utf-8"?>
<!-- Generator: Adobe Illustrator 25.4.1, SVG Export Plug-In . SVG Version: 6.00 Build 0)  -->
<svg version="1.1" id="groupLogo-01-c" xmlns="http://www.w3.org/2000/svg" xmlns:xlink="http://www.w3.org/1999/xlink" x="0px"
	 y="0px" viewBox="0 0 320 88" style="enable-background:new 0 0 320 88;" xml:space="preserve">
<style type="text/css">
	.st0{fill:#FFFFFF;}
	.st1{fill:#e60000;}
</style>
<path id="purposelogo" class="st0" d="M137.1,72.7h1.7v15.1h-1.7V72.7z M132,87.7h1.7v-15H132V87.7z M123.8,72.8l6.5,14.9h-1.8
	l-1.9-4.4h-7.9l-1.9,4.4h-1.7l6.5-14.9c0.2-0.4,0.6-0.7,1.1-0.8C123.2,72.1,123.6,72.4,123.8,72.8z M126,82l-3.3-7.8l-3.3,7.8H126z
	 M101.1,82.2L101.1,82.2c-0.1,3.3-2.8,5.9-6.1,5.8c-3.2,0.1-6-2.4-6.1-5.6v-0.1l0,0c0.2-3.4,3.1-6,6.5-5.8
	C98.4,76.6,100.9,79.1,101.1,82.2L101.1,82.2z M99.3,82.2c0-2.4-1.9-4.3-4.3-4.4c0,0,0,0-0.1,0c-2.3-0.1-4.2,1.8-4.3,4.1
	c0,0.1,0,0.1,0,0.2l0,0c0,2.4,1.8,4.3,4.2,4.4c0.1,0,0.1,0,0.2,0c2.3,0.1,4.3-1.8,4.3-4.1C99.3,82.4,99.3,82.3,99.3,82.2L99.3,82.2z
	 M105.5,79.5v-2.9h-1.7v11.1h1.7v-4.4c0-3.3,2-5.1,4.4-5.1h0.1v-1.8C108.1,76.4,106.2,77.6,105.5,79.5L105.5,79.5z M83.7,72.9
	c-0.7,0.8-1.1,1.8-1,2.9v0.8H81V78h1.7v9.8h1.7V78H88v-1.4h-3.5v-0.7c0-1.6,0.6-2.4,1.9-2.4c0.6,0,1.1,0.1,1.6,0.3v-1.4
	c-0.6-0.2-1.2-0.3-1.8-0.3C85.2,72,84.3,72.3,83.7,72.9L83.7,72.9z M69.2,76.4c-1.6,0-3.1,0.8-3.8,2.2v-2h-1.6v11.2h1.7v-6.4
	c-0.1-1.8,1.3-3.4,3.1-3.5c0.1,0,0.2,0,0.3,0c2,0,3.1,1.3,3.1,3.4v6.5h1.7v-6.9C73.5,78.2,71.9,76.4,69.2,76.4L69.2,76.4z M58.7,83
	c0.1,1.8-1.3,3.4-3.1,3.5c-0.1,0-0.2,0-0.3,0c-2,0-3.1-1.3-3.1-3.4v-6.6h-1.7v7c0,2.7,1.6,4.5,4.3,4.5c1.6,0,3.1-0.8,3.8-2.2v1.9
	h1.6V76.6h-1.6L58.7,83L58.7,83z M37.8,74v13.7h1.7v-6.6h8.4v-1.5h-8.4v-5.5h9.3v-1.5h-9.7C38.4,72.7,37.8,73.3,37.8,74L37.8,74z
	 M158.7,76.4c-1.6,0-3.1,0.8-3.8,2.2v-2h-1.7v11.2h1.7v-6.4c-0.1-1.8,1.3-3.4,3.1-3.5c0.1,0,0.2,0,0.3,0c2,0,3.1,1.3,3.1,3.4v6.5
	h1.7v-6.9C162.9,78.2,161.4,76.4,158.7,76.4L158.7,76.4z M185.4,82.2L185.4,82.2c-0.1,3.3-2.8,5.9-6.2,5.8l0,0
	c-3.2,0.1-6-2.4-6.1-5.6v-0.1l0,0c0.2-3.4,3.1-6,6.5-5.8C182.7,76.6,185.2,79.1,185.4,82.2L185.4,82.2z M183.6,82.2
	c0-2.4-1.9-4.3-4.3-4.4c0,0,0,0-0.1,0c-2.3,0-4.3,1.8-4.3,4.1c0,0.1,0,0.1,0,0.2l0,0c0,2.4,1.9,4.3,4.2,4.3h0.1
	c2.3,0.1,4.3-1.8,4.3-4.1C183.6,82.3,183.6,82.2,183.6,82.2L183.6,82.2z M148.1,87.7h1.7V76.6h-1.7V87.7z M149,72.1
	c-0.7,0-1.3,0.6-1.3,1.3c0,0.7,0.6,1.3,1.3,1.3s1.3-0.6,1.3-1.3S149.7,72.1,149,72.1L149,72.1z M168.3,73.2h-1.7v3.3h-1.7V78h1.7
	v6.8c-0.2,1.6,0.9,3,2.5,3.2c0.2,0,0.4,0,0.7,0c0.7,0,1.4-0.2,2-0.5V86c-0.5,0.3-1.1,0.4-1.6,0.4c-0.9,0.1-1.7-0.5-1.9-1.4
	c0-0.1,0-0.3,0-0.5V78h3.5v-1.4h-3.5V73.2z M262.1,73.2h-1.7v3.3h-1.7V78h1.7v6.8c-0.2,1.6,0.9,3,2.5,3.1c0.2,0,0.4,0,0.6,0
	c0.7,0,1.4-0.2,2-0.5V86c-0.5,0.3-1.1,0.4-1.6,0.4c-0.9,0.2-1.8-0.4-1.9-1.3c0-0.2,0-0.3,0-0.5V78h3.5v-1.4H262L262.1,73.2z
	 M282.9,79.5v-2.9h-1.7v11.1h1.7v-4.4c0-3.3,2-5.1,4.4-5.1h0.1v-1.8C285.4,76.4,283.5,77.6,282.9,79.5L282.9,79.5z M299.5,82.8h-9.4
	c0.1,2.2,2,3.9,4.2,3.8c1.4,0,2.7-0.6,3.7-1.6l0.9,1.2c-1.2,1.2-2.9,1.9-4.7,1.8c-3.2,0.1-5.8-2.3-5.9-5.5c0-0.1,0-0.2,0-0.3l0,0
	c-0.1-3.1,2.4-5.7,5.5-5.8c0.1,0,0.2,0,0.3,0c3.5,0,5.5,2.6,5.5,5.9C299.5,82.4,299.5,82.6,299.5,82.8L299.5,82.8z M297.8,81.6
	c-0.2-2-1.4-3.8-3.8-3.8c-2.1,0.1-3.8,1.7-3.9,3.8H297.8z M276.1,83c0.1,1.8-1.3,3.4-3.1,3.5c-0.1,0-0.2,0-0.3,0
	c-2,0-3.1-1.3-3.1-3.4v-6.6H268v7c0,2.7,1.6,4.5,4.3,4.5c1.6,0,3.1-0.8,3.8-2.2v1.9h1.6V76.6h-1.6L276.1,83z M254.6,83
	c0.1,1.8-1.3,3.4-3.1,3.5c-0.1,0-0.2,0-0.3,0c-2,0-3.1-1.3-3.1-3.4v-6.6h-1.7v7c0,2.7,1.6,4.5,4.3,4.5c1.6,0,3.1-0.8,3.8-2.2v1.9
	h1.6V76.6h-1.6V83H254.6z M233.8,74v13.7h1.7v-6.6h8.4v-1.5h-8.4v-5.5h9.3v-1.5h-9.7C234.4,72.7,233.8,73.3,233.8,74L233.8,74
	L233.8,74z M195.6,73.3H194v3.3h-1.7V78h1.7v6.8c-0.2,1.6,0.9,3,2.5,3.2c0.2,0,0.4,0,0.7,0c0.7,0,1.4-0.2,2-0.5V86
	c-0.5,0.3-1.1,0.4-1.6,0.4c-0.9,0.1-1.7-0.5-1.9-1.4c0-0.2,0-0.3,0-0.5V78h3.5v-1.4h-3.5L195.6,73.3z M225.3,82.3c0,0.2,0,0.4,0,0.5
	h-9.4c0.1,2.2,2,3.9,4.2,3.8c1.4,0,2.8-0.6,3.7-1.6l0.9,1.2c-1.2,1.2-2.9,1.9-4.7,1.8c-3.2,0.1-5.8-2.3-5.9-5.5c0-0.1,0-0.2,0-0.3
	l0,0c-0.1-3.1,2.4-5.7,5.5-5.8c0.1,0,0.1,0,0.2,0C223.3,76.4,225.3,79,225.3,82.3L225.3,82.3z M223.5,81.6c-0.2-2-1.4-3.8-3.8-3.8
	c-2.1,0.1-3.8,1.7-3.9,3.8H223.5z M207.4,76.4c-1.6,0-3.1,0.8-3.8,2.2V72h-1.7v15.7h1.7v-6.4c-0.1-1.8,1.3-3.4,3.1-3.5
	c0.1,0,0.2,0,0.3,0c2,0,3.1,1.3,3.1,3.4v6.5h1.7v-6.9C211.6,78.2,210.1,76.4,207.4,76.4L207.4,76.4z"/>
<g id="grouplogo">
	<path id="speechballoon" class="st1" d="M310.5,0H9.5C4.3,0,0,4.3,0,9.5v32.6c0,2.8,1.1,5.6,3.1,7.6l23,23V61.1h284.3
		c5.3,0,9.5-4.2,9.6-9.5l0,0v-42C320,4.3,315.8,0,310.5,0L310.5,0z M311.8,53.3H26.2v7.8l-18-17.9V7.8h303.5L311.8,53.3L311.8,53.3z
		"/>
	<path id="bandainamco" class="st0" d="M244.7,21.1v22.1h-5.4V26.9c0,0-4.6,6.5-6.1,8.7c-0.9,1.4-2.8,1.8-4.2,0.8
		c-0.3-0.2-0.6-0.5-0.8-0.8l-6.1-8.7v16.2h-5.4v-22c0-1.1,0.5-2.2,1.4-2.8c1.5-1,3.6-0.7,4.6,0.8l7.8,11.2l7.8-11.2
		c1.1-1.5,3.1-1.9,4.6-0.8C244.1,18.9,244.7,20,244.7,21.1z M182,34.2l-10.6-15.1c-1.1-1.5-3.1-1.9-4.7-0.8l0,0
		c-0.9,0.6-1.4,1.7-1.4,2.8v22.1h5.4V26.9L181.2,42c1.1,1.5,3.1,1.9,4.7,0.8l0,0l0,0c0.9-0.7,1.4-1.7,1.4-2.8V17.9H182V34.2z
		 M262.9,22c2.5,0,4.9,1.1,6.6,2.9l3-4.2c-2.7-2.2-6.1-3.3-9.6-3.2c-7.8,0-14.4,5.2-14.4,13.1s6.7,13.1,14.4,13.1
		c3.5,0.1,6.9-1.1,9.6-3.2l-3-4.2c-1.7,1.8-4.1,2.9-6.6,2.9c-4.6,0.1-8.3-3.6-8.3-8.1c0-0.1,0-0.3,0-0.4c-0.2-4.6,3.4-8.4,7.9-8.6
		C262.6,22,262.8,22,262.9,22z M301.7,30.6c0,7.9-6.5,13.1-14,13.1s-14-5.2-14-13.1s6.5-13.1,14-13.1S301.7,22.6,301.7,30.6
		L301.7,30.6z M295.7,30.6c0-4.7-3.3-8.6-8.1-8.6s-8.1,3.8-8.1,8.6s3.3,8.6,8.1,8.6S295.7,35.3,295.7,30.6L295.7,30.6z M205.7,20.2
		l9.3,23h-5.7l-2.3-5.8h-10.3l-2.3,5.8h-5.7l9.3-23c0.7-2.1,2.9-3.3,5-2.6C204.4,18,205.3,19,205.7,20.2L205.7,20.2z M205.4,33.1
		l-3.5-8.8l-3.5,8.8H205.4z M43.7,36.3c0.1,3.7-2.9,6.8-6.6,6.8c-0.1,0-0.3,0-0.4,0H22.9c-1.1,0-2.1-0.9-2.1-2c0-0.1,0-0.1,0-0.2
		V20.1c0-1.1,0.8-2.1,2-2.1c0.1,0,0.1,0,0.2,0h12.2c4.2,0,7.1,2.8,7.1,6.3c0,2.8-1.9,5.3-4.6,6C41,30.3,43.7,33,43.7,36.3z
		 M26.1,28.1h7c1.6,0.2,3-1,3.2-2.6c0-0.1,0-0.1,0-0.2l0,0c0-1.6-1.4-2.9-3-2.9c-0.1,0-0.1,0-0.2,0h-7L26.1,28.1z M37.8,35.5
		c0-1.8-1.5-3.1-3.2-3.1c-0.1,0-0.1,0-0.2,0h-8.2v6.2h8.2c1.7,0.2,3.3-1.1,3.4-2.9C37.8,35.7,37.8,35.6,37.8,35.5z M88.9,34.2
		L78.4,19.1c-1.1-1.5-3.1-1.9-4.7-0.8l0,0c-0.9,0.6-1.4,1.7-1.4,2.8v22.1h5.3V26.9L88.2,42c1.1,1.5,3.1,1.9,4.7,0.8l0,0l0,0
		c0.9-0.7,1.4-1.7,1.4-2.8V17.9H89L88.9,34.2L88.9,34.2z M149.2,43.2h5.6V17.9h-5.6V43.2z M121.8,30.4c0,8.3-6.1,12.7-13.1,12.7
		h-7.1c-1.1,0-2.1-0.9-2.1-2c0-0.1,0-0.1,0-0.2V20.1c0-1.1,0.8-2.1,2-2.1c0.1,0,0.1,0,0.2,0h7.2C115.7,17.9,121.8,21.9,121.8,30.4z
		 M115.9,30.4c0-6-4.5-8-8.3-8h-2.8v16.2h2.7C112,38.6,115.9,36.3,115.9,30.4z M61.2,20.2c2.3,5.7,9.3,23,9.3,23h-5.7l-2.3-5.8H52.2
		L50,43.2h-5.7c0,0,7-17.2,9.3-23c0.7-2.1,2.9-3.3,5-2.6C59.8,18,60.8,18.9,61.2,20.2L61.2,20.2z M60.8,33.1l-3.5-8.8l-3.5,8.8H60.8
		z M138.1,20.2l9.3,23h-5.7l-2.3-5.8h-10.3l-2.3,5.8h-5.7l9.3-23c0.7-2.1,2.9-3.3,5-2.6C136.7,17.9,137.7,18.9,138.1,20.2z
		 M137.7,33.1l-3.5-8.8l-3.5,8.8H137.7z"/>
</g>
</svg>
