<?xml version="1.0" encoding="UTF-8"?><svg id="category" xmlns="http://www.w3.org/2000/svg" xmlns:xlink="http://www.w3.org/1999/xlink" viewBox="0 0 40 40"><defs><style>.cls-1{fill:#fff;}.cls-2{fill:url(#_名称未設定グラデーション_13);}</style><linearGradient id="_名称未設定グラデーション_13" x1="20" y1="34.11" x2="20" y2="5.89" gradientUnits="userSpaceOnUse"><stop offset="0" stop-color="#ffb3d6"/><stop offset="1" stop-color="#ff66ac"/></linearGradient></defs><g id="imas"><g id="c-live_event"><path class="cls-1" d="m34.79,22.46v-2.86c0-8.11-6.64-14.71-14.8-14.71s-14.79,6.6-14.79,14.71v2.86c-1.68,1.04-2.73,2.88-2.73,4.86,0,3.15,2.58,5.72,5.75,5.72.1,0,.19-.03.28-.06.48,1.24,1.68,2.12,3.09,2.12,1.83,0,3.32-1.48,3.32-3.3v-8.96c0-1.82-1.49-3.3-3.32-3.3-.93,0-1.77.39-2.37,1v-.94c0-5.91,4.84-10.71,10.78-10.71s10.79,4.8,10.79,10.71v.93c-.6-.61-1.44-.99-2.37-.99-1.83,0-3.32,1.48-3.32,3.3v8.96c0,1.82,1.49,3.3,3.32,3.3,1.41,0,2.61-.88,3.09-2.12.09.03.18.06.28.06,3.17,0,5.75-2.57,5.75-5.72,0-1.98-1.06-3.82-2.74-4.86Z"/><path class="cls-2" d="m11.58,20.54c-1.28,0-2.32,1.03-2.32,2.3v8.96c0,1.27,1.04,2.3,2.32,2.3s2.32-1.03,2.32-2.3v-8.96c0-1.27-1.04-2.3-2.32-2.3Zm16.83,0c-1.28,0-2.32,1.03-2.32,2.3v8.96c0,1.27,1.04,2.3,2.32,2.3s2.32-1.03,2.32-2.3v-8.96c0-1.27-1.04-2.3-2.32-2.3Zm5.38,2.52v-3.45c0-7.56-6.19-13.71-13.8-13.71s-13.8,6.15-13.8,13.71v3.46c-1.61.76-2.73,2.38-2.73,4.26,0,2.6,2.14,4.72,4.75,4.72v-9.44s0,0,0,0v-3c0-6.46,5.29-11.71,11.78-11.71s11.78,5.25,11.78,11.71v5.18h0v7.26c2.61,0,4.75-2.12,4.75-4.72,0-1.88-1.13-3.51-2.74-4.27Z"/></g></g></svg>