<?xml version="1.0" encoding="UTF-8"?>
<svg id="_2024_rn" data-name="2024_rn" xmlns="http://www.w3.org/2000/svg" viewBox="0 0 50 50">
  <g>
    <path d="M42.43,21.01l-2.65,2.62c-1.6-1.59-3.21-3.17-4.81-4.76,1.15-1.14,1.5-1.48,2.65-2.62.22-.22.51-.33.8-.33s.58.11.8.33l3.22,3.18c.22.22.33.5.33.79s-.11.57-.33.79Z" style="fill: #ff8b00; fill-rule: evenodd; stroke-width: 0px;"/>
    <path d="M22.57,36.96c-.7.24-1.28-.32-1.07-1.06l1.95-5.63,10.2-10.09c1.6,1.59,3.21,3.17,4.81,4.76-5.07,5.01-5.13,5.08-10.2,10.09l-5.7,1.93Z" style="fill: #ff8b00; fill-rule: evenodd; stroke-width: 0px;"/>
  </g>
  <path d="M36.91,29.33v9.95c0,.39-.31.7-.7.7H10.94c-.39,0-.7-.31-.7-.7v-17.58h7.42c2.43,0,4.41-1.96,4.41-4.36v-7.31h14.13c.39,0,.7.31.7.7v3.6c.46-.25.97-.4,1.51-.4s1.04.14,1.49.39v-3.83c0-1.91-1.57-3.46-3.5-3.46h-15.96c-.92,0-1.81.36-2.46,1l-9.71,9.49c-.66.65-1.04,1.54-1.04,2.47v19.54c0,1.91,1.57,3.46,3.5,3.46h25.67c1.93,0,3.5-1.55,3.5-3.46v-12.97c0-.09-.1-.13-.16-.07l-2.81,2.78s-.03.04-.03.07ZM19.07,11.16v6.18c0,.75-.63,1.36-1.41,1.36h-6.3l7.71-7.54Z" style="fill: #ff8b00; stroke-width: 0px;"/>
</svg>