<?xml version="1.0" encoding="UTF-8"?>
<svg id="_2024_rn" data-name="2024_rn" xmlns="http://www.w3.org/2000/svg" viewBox="0 0 50 50">
  <path d="M45.64,20.62c-1.83-2.22-5.09-3.41-9.44-3.45l-13.82-.12-.96,5.18,2.92.04c.78.02,1.46.38,1.89.99.43.62.52,1.43.25,2.16-.38,1.04-1.4,1.77-2.49,1.79l-3.5.05-3.65,19.79,6.79.06,4.51-24.37,7.22.06c2.09.02,3.63.56,4.46,1.56.61.74.8,1.7.59,2.86-.52,2.79-3.12,4.53-6.79,4.53l-5.3-.05-1.02,5.49,5.58.05c7.52,0,13.09-3.9,14.21-9.93.49-2.65,0-4.97-1.43-6.7Z" style="fill: #ff8b00; fill-rule: evenodd; stroke-width: 0px;"/>
  <path d="M23.95,25.75c.48,0,.97-.36,1.14-.83.11-.29.08-.59-.08-.82-.15-.22-.41-.35-.7-.36l-6.06-.09,1.56-7.54c.12-.49.41-.96.83-1.32.4-.34.89-.55,1.36-.58l4.98-.23c.48-.02.94-.37,1.11-.83.1-.29.08-.58-.08-.81-.15-.22-.39-.35-.67-.37l-4.9-.23c-.46-.04-.86-.24-1.13-.57-.28-.35-.4-.81-.33-1.32l.83-6.02c.04-.26-.03-.5-.19-.68-.16-.18-.39-.29-.66-.29-.06,0-.11,0-.17.01-.48.08-.91.47-1.02.93l-1.41,5.94c-.12.51-.42.98-.85,1.34-.41.34-.91.55-1.4.57l-2.93.08.62-3.57c.05-.26-.02-.51-.18-.71-.16-.19-.4-.3-.67-.3-.05,0-.11,0-.17.01-.49.08-.93.5-1.03.97l-.73,3.64-5.9.16c-.48.01-.96.36-1.13.83-.11.29-.08.59.08.82.15.22.4.35.69.36l5.79.16-1.73,8.58c-.05.22-.19.44-.38.6-.18.16-.4.25-.61.27l-3.92.14c-.48.02-.95.37-1.12.83-.11.29-.08.59.08.82.15.22.4.35.68.36l3.87.14c.2.02.38.11.49.25.13.16.18.38.15.6l-.99,6.3c-.04.26.03.51.19.69.16.19.4.29.66.29.05,0,.11,0,.17-.01.49-.08.92-.48,1.02-.95l1.36-6.26c.05-.23.2-.45.39-.62.19-.16.42-.25.63-.26l4-.06-.99,5.9c-.04.26.02.51.18.7.16.19.4.29.67.29.05,0,.11,0,.17-.01.49-.08.93-.49,1.02-.96l1.23-5.95,6.16-.09ZM17.15,16.16l-1.26,7.45-3.94-.06c-.21-.01-.39-.1-.52-.25-.13-.16-.19-.38-.16-.6l1.48-8.5,2.88.08c.47.02.89.22,1.17.56.29.35.41.83.34,1.32Z" style="fill: #ff8b00; fill-rule: evenodd; stroke-width: 0px;"/>
</svg>