<?xml version="1.0" encoding="UTF-8"?>
<svg id="_2024_rn" data-name="2024_rn" xmlns="http://www.w3.org/2000/svg" viewBox="0 0 50 50">
  <path d="M25,2.12c-8.56,0-15.52,6.96-15.52,15.51,0,8.1,8.9,22.79,12.72,28.73.61.95,1.65,1.52,2.79,1.53h.01c1.13,0,2.17-.56,2.78-1.51,3.83-5.86,12.73-20.4,12.73-28.75s-6.96-15.51-15.52-15.51ZM25.28,44.74c-.06.1-.16.15-.27.15h-.01c-.11,0-.2-.05-.26-.15-7.67-11.91-12.25-22.04-12.25-27.1,0-6.9,5.61-12.51,12.52-12.51s12.52,5.61,12.52,12.51c0,5.23-4.58,15.36-12.24,27.11Z" style="fill: #ff8b00; stroke-width: 0px;"/>
  <circle cx="25" cy="16.51" r="4.55" style="fill: #ff8b00; stroke-width: 0px;"/>
</svg>