<?xml version="1.0" encoding="UTF-8"?>
<svg id="l" xmlns="http://www.w3.org/2000/svg" version="1.1" xmlns:xlink="http://www.w3.org/1999/xlink" viewBox="0 0 135 135">
  <!-- Generator: Adobe Illustrator 29.1.0, SVG Export Plug-In . SVG Version: 2.1.0 Build 142)  -->
  <defs>
    <style>
      .st0 {
        fill: url(#_名称未設定グラデーション_319);
      }

      .st1 {
        fill: url(#_名称未設定グラデーション_263);
      }

      .st2 {
        fill: #4d4f5e;
      }
    </style>
    <linearGradient id="_名称未設定グラデーション_319" data-name="名称未設定グラデーション 319" x1=".22" y1="67.5" x2="134.78" y2="67.5" gradientUnits="userSpaceOnUse">
      <stop offset="0" stop-color="#d9f5ff"/>
      <stop offset="1" stop-color="#fff"/>
    </linearGradient>
    <linearGradient id="_名称未設定グラデーション_263" data-name="名称未設定グラデーション 263" x1="41.72" y1="74.21" x2="105.74" y2="74.21" gradientUnits="userSpaceOnUse">
      <stop offset="0" stop-color="#93afff"/>
      <stop offset="1" stop-color="#46d7ff"/>
    </linearGradient>
  </defs>
  <circle class="st0" cx="67.5" cy="67.5" r="67.28"/>
  <g>
    <path class="st2" d="M68.38,24.74c2.72,1.56,3.49,2.55,3.91,3.66.6,1.61.35,3.39-.5,4.87s-2.36,2.7-3.75,2.96c-1.5.27-2.73.12-5.01-1.18l-1.47-.84-2.63,4.6-3.75-2.15,8.4-14.67,4.8,2.75ZM63.44,30.92l1.37.78c.36.2.95.54,1.57.61.62.07,1.28-.16,1.78-1.04.5-.87.32-1.53-.07-2.04-.39-.51-1-.86-1.42-1.1l-1.23-.7-2,3.49Z"/>
    <path class="st2" d="M77.28,29.84l3.75,2.15-6.52,11.38,4.34,2.49-1.88,3.29-8.09-4.63,8.4-14.67Z"/>
    <path class="st2" d="M82.33,52.21l-4.06-2.33,14.21-11.34,3.23,1.85-2.77,17.89-4.1-2.35.52-2.52-5.13-2.94-1.89,1.73ZM91.37,43.83l-4.52,4.21,3.23,1.85,1.28-6.06Z"/>
    <path class="st2" d="M99.74,55.1l.97-11.84,4.06,2.33-1.19,7.14,5.57-4.63,4.02,2.3-9.69,6.85-3.05,5.33-3.75-2.15,3.05-5.33Z"/>
  </g>
  <polygon class="st1" points="41.72 39.05 41.72 58.07 71.11 74.21 41.72 90.35 41.72 109.37 105.74 74.21 41.72 39.05"/>
</svg>