<?xml version="1.0" encoding="UTF-8"?>
<svg id="category" xmlns="http://www.w3.org/2000/svg" xmlns:xlink="http://www.w3.org/1999/xlink" viewBox="0 0 40 40">
  <defs>
    <style>
      .cls-1 {
        fill: url(#_名称未設定グラデーション_57);
      }

      .cls-1, .cls-2 {
        fill-rule: evenodd;
      }

      .cls-2 {
        fill: #fff;
      }
    </style>
    <linearGradient id="_名称未設定グラデーション_57" data-name="名称未設定グラデーション 57" x1="20" y1="34.59" x2="20" y2="5.41" gradientUnits="userSpaceOnUse">
      <stop offset="0" stop-color="#ffe527"/>
      <stop offset="1" stop-color="#fa0"/>
    </linearGradient>
  </defs>
  <g id="million">
    <g id="c-goods">
      <g>
        <path class="cls-2" d="m36.14,20.41l-5.68-3.67c.15.02.3.03.45.03,1.39,0,2.67-.71,3.42-1.89,1.2-1.89.64-4.42-1.23-5.63-.65-.42-1.41-.64-2.18-.64-.98,0-1.89.35-2.62.97.45-1.68-.18-3.54-1.7-4.52-.65-.42-1.41-.65-2.18-.65-1.39,0-2.67.71-3.42,1.89-.85,1.35-.8,3.02-.03,4.31l-5.71-3.68c-.16-.11-.35-.16-.54-.16-.07,0-.14,0-.22.02-.26.06-.49.22-.63.44l-2.22,3.52c-.29.46-.16,1.08.3,1.37l.99.64h-1.82c-.55,0-1,.45-1,1v1.7h-1.67c-.55,0-1,.45-1,1v2.11c0,.55.45,1,1,1h1.67v1.7c0,.05.02.09.03.14h-.01c-.55,0-1,.45-1,1v9.23c0,2.17,1.75,3.93,3.9,3.93h7.27c.35,0,.65-.19.83-.47.18.28.47.47.83.47h7.27c2.15,0,3.9-1.76,3.9-3.93v-5.92c.08.02.16.03.24.03.07,0,.14,0,.22-.02.26-.06.49-.22.63-.44l2.22-3.52c.29-.46.16-1.08-.3-1.37Z"/>
        <path class="cls-2" d="m8.77,11.15v-.91h.89c.55,0,1-.45,1-1v-1.5c0-.55-.45-1-1-1h-.89v-.91c0-.55-.45-1-1-1h-1.48c-.55,0-1,.45-1,1v.91h-.89c-.55,0-1,.45-1,1v1.5c0,.55.45,1,1,1h.89v.91c0,.55.45,1,1,1h1.48c.55,0,1-.45,1-1Z"/>
      </g>
      <path class="cls-1" d="m21.84,6.84c.91-1.44,2.79-1.86,4.21-.94,1.41.91,1.83,2.8.95,4.23h0s-1.66,2.63-1.66,2.63l-2.6-1.68h0c-1.4-.93-1.8-2.82-.9-4.24Zm7.46,8.47h0c1.42.89,3.28.47,4.18-.96.91-1.44.49-3.34-.93-4.26-1.41-.91-3.28-.5-4.19.91h0s-1.66,2.63-1.66,2.63l2.6,1.68Zm-4.83-1.25l-9.75-6.29-2.22,3.52,9.75,6.29,2.22-3.52Zm11.14,7.19l-9.75-6.29-2.22,3.52,6.12,3.95h-7.79v12.16h7.27c1.6,0,2.9-1.31,2.9-2.93v-7.69l1.24.8,2.22-3.52Zm-25.46,10.41c0,1.62,1.3,2.93,2.9,2.93h7.27v-12.16h-10.17v9.23Zm3.07-17.89h-2.09v2.11h2.09v-2.11Zm0,5.4h-2.09v2.11h2.09v-2.11Zm2.67-.59v-2.11h-2.09v2.11h2.09Zm-5.34-2.11h-2.09v2.11h2.09v-2.11ZM6.29,7.33h1.48v-1.5h-1.48v1.5Zm0,3.82h1.48v-1.5h-1.48v1.5Zm3.37-3.41h-1.48v1.5h1.48v-1.5Zm-5.26,1.5h1.48v-1.5h-1.48v1.5Z"/>
    </g>
  </g>
</svg>