<?xml version="1.0" encoding="UTF-8"?>
<svg id="category" xmlns="http://www.w3.org/2000/svg" xmlns:xlink="http://www.w3.org/1999/xlink" viewBox="0 0 40 40">
  <defs>
    <style>
      .cls-1 {
        fill: #fff;
      }

      .cls-2 {
        fill: url(#_名称未設定グラデーション_57);
      }
    </style>
    <linearGradient id="_名称未設定グラデーション_57" data-name="名称未設定グラデーション 57" x1="19.94" y1="34.14" x2="19.94" y2="5.86" gradientUnits="userSpaceOnUse">
      <stop offset="0" stop-color="#ffe527"/>
      <stop offset="1" stop-color="#fa0"/>
    </linearGradient>
  </defs>
  <g id="million">
    <g id="c-streaming">
      <path class="cls-1" d="m35.84,20.22c-.33,0-.65.08-.95.23l-6.61,3.28c-.58.29-.97.81-1.12,1.42v-1.44c0-1.88-1.49-3.4-3.35-3.49,3.34-.89,5.81-3.93,5.81-7.54,0-4.3-3.51-7.81-7.82-7.81s-7.82,3.5-7.82,7.81c0,3.59,2.44,6.61,5.74,7.52h-9.99c.88-.28,1.68-.77,2.35-1.44,1.11-1.11,1.73-2.59,1.73-4.17,0-3.25-2.65-5.89-5.9-5.89-1.81,0-3.49.81-4.62,2.22-1.12,1.41-1.54,3.25-1.12,5.04.49,2.16,2.21,3.87,4.37,4.36.12.03.24.04.35.06-1.4.46-2.42,1.77-2.42,3.32v7.94c0,1.93,1.58,3.51,3.51,3.51h15.66c1.94,0,3.51-1.57,3.51-3.51v-1.45c.15.61.54,1.13,1.12,1.42l6.6,3.28c.3.15.62.23.95.23,1.18,0,2.15-.96,2.15-2.14v-10.6c0-1.18-.96-2.14-2.15-2.14Z"/>
      <path class="cls-2" d="m26.1,23.69v7.94c0,1.39-1.12,2.51-2.51,2.51H7.93c-1.39,0-2.51-1.12-2.51-2.51v-7.94c0-1.39,1.12-2.51,2.51-2.51h15.66c1.39,0,2.51,1.12,2.51,2.51Zm-13.34-9.11c0-2.7-2.19-4.89-4.9-4.89-3.08,0-5.5,2.84-4.77,6.05.4,1.77,1.84,3.21,3.61,3.61,3.21.73,6.05-1.68,6.05-4.76Zm8.98-8.72c-3.76,0-6.82,3.05-6.82,6.81s3.05,6.81,6.82,6.81,6.82-3.05,6.82-6.81-3.05-6.81-6.82-6.81Zm13.53,15.48l-6.61,3.28c-.39.19-.64.59-.64,1.02v4.04c0,.43.25.83.64,1.02l6.61,3.28c.76.38,1.65-.18,1.65-1.02v-10.6c0-.85-.89-1.4-1.65-1.02Z"/>
    </g>
  </g>
</svg>