<?xml version="1.0" encoding="UTF-8"?>
<svg id="category" xmlns="http://www.w3.org/2000/svg" xmlns:xlink="http://www.w3.org/1999/xlink" viewBox="0 0 40 40">
  <defs>
    <style>
      .cls-1 {
        fill: #fff;
      }

      .cls-2 {
        fill: url(#_名称未設定グラデーション_44);
      }
    </style>
    <linearGradient id="_名称未設定グラデーション_44" data-name="名称未設定グラデーション 44" x1="20" y1="34.93" x2="20" y2="5.07" gradientUnits="userSpaceOnUse">
      <stop offset="0" stop-color="#37b5f4"/>
      <stop offset="1" stop-color="#2581c7"/>
    </linearGradient>
  </defs>
  <g id="cinderella">
    <g id="c-anime">
      <path class="cls-1" d="m6.88,35.93c-2.16,0-3.93-1.75-3.93-3.91V15.42c0-2.15,1.76-3.91,3.93-3.91h7.57l-.73-.92c-.38-.47-.54-1.05-.48-1.65s.37-1.13.84-1.5c.4-.31.89-.48,1.4-.48.69,0,1.33.31,1.76.84l1.61,2.01,3.93-4.91c.43-.54,1.07-.84,1.76-.84.5,0,1,.17,1.4.49.47.37.77.91.84,1.5.07.6-.1,1.18-.48,1.65l-3.05,3.81h9.88c2.16,0,3.92,1.75,3.92,3.91v16.61c0,2.15-1.76,3.91-3.92,3.91H6.88Z"/>
      <path class="cls-2" d="m33.12,12.51h-11.97l4.35-5.44c.43-.54.34-1.31-.2-1.74-.54-.43-1.32-.34-1.75.2l-4.71,5.88-2.39-2.99c-.43-.54-1.21-.62-1.75-.2-.54.43-.63,1.2-.2,1.74l2.03,2.54H6.88c-1.62,0-2.93,1.3-2.93,2.91v16.61c0,1.61,1.31,2.91,2.93,2.91h26.23c1.62,0,2.93-1.3,2.93-2.91V15.42c0-1.61-1.31-2.91-2.93-2.91Zm-.87,10.19c.6,0,1.08.48,1.08,1.07s-.48,1.07-1.08,1.07-1.08-.48-1.08-1.07.48-1.07,1.08-1.07Zm-3.92,8.37c0,.79-.65,1.44-1.45,1.44H8.08c-.8,0-1.45-.64-1.45-1.44v-14.69c0-.79.65-1.44,1.45-1.44h18.8c.8,0,1.45.64,1.45,1.44v14.69Zm3.92-.55c-1.04,0-1.88-.84-1.88-1.87s.84-1.87,1.88-1.87,1.88.84,1.88,1.87-.84,1.87-1.88,1.87Z"/>
    </g>
  </g>
</svg>