<?xml version="1.0" encoding="UTF-8"?>
<svg id="category" xmlns="http://www.w3.org/2000/svg" xmlns:xlink="http://www.w3.org/1999/xlink" viewBox="0 0 40 40">
  <defs>
    <style>
      .cls-1 {
        fill: #fff;
      }

      .cls-2 {
        fill: url(#_名称未設定グラデーション_44);
      }
    </style>
    <linearGradient id="_名称未設定グラデーション_44" data-name="名称未設定グラデーション 44" x1="20" y1="32.65" x2="20" y2="7.35" gradientUnits="userSpaceOnUse">
      <stop offset="0" stop-color="#37b5f4"/>
      <stop offset="1" stop-color="#2581c7"/>
    </linearGradient>
  </defs>
  <g id="cinderella">
    <g id="c-book_comic">
      <path class="cls-1" d="m18.44,33.65c-.78,0-1.5-.34-1.99-.94l-.27-.33c-.1-.12-.26-.2-.43-.2H3.47c-1.4,0-2.54-1.12-2.54-2.49v-15.47c0-1.05.66-1.94,1.6-2.31v-1.65c0-.55.45-1,1-1h1.79v-1.64c0-.5.37-.93.87-.99l.66-.09c.96-.13,1.94-.19,2.91-.19,3.47,0,6.91.77,10.24,2.3,3.33-1.53,6.77-2.3,10.23-2.3.98,0,1.96.06,2.92.19l.66.09c.5.06.87.49.87.99v1.64h1.88c.55,0,1,.45,1,1v1.69c.89.39,1.51,1.26,1.51,2.27v15.47c0,1.37-1.14,2.49-2.54,2.49h-12.29c-.17,0-.33.07-.43.2l-.27.33c-.48.6-1.21.94-1.99.94h-3.12Z"/>
      <path class="cls-2" d="m36.56,12.74v-2.48h-2.88v-2.64l-.66-.09c-4.33-.57-8.82.21-13.02,2.22-4.2-2.02-8.7-2.79-13.02-2.22l-.66.09v2.64h-2.79v2.47h-.06c-.85,0-1.54.67-1.54,1.49v15.47c0,.82.69,1.49,1.54,1.49h12.29c.47,0,.92.21,1.21.57l.27.33c.29.36.74.57,1.21.57h3.12c.47,0,.92-.21,1.21-.57l.27-.33c.29-.36.74-.57,1.21-.57h12.29c.85,0,1.54-.67,1.54-1.49v-15.47c0-.81-.67-1.47-1.51-1.48Zm-31.5,0v-.98h1.25v15.98l.87-.11c1.04-.14,2.09-.19,3.15-.16l6.13,1.1c.14.05.29.1.43.15H5.06v-15.97Zm24.6,14.72c1.06-.03,2.11.02,3.15.16l.87.11v-15.98h1.34v16.95h-11.92c.14-.05.29-.11.43-.15l6.13-1.1Zm-.03-18.6c.84-.02,1.68,0,2.51.08v17.11c-3.79-.34-7.68.33-11.38,1.95V11.04s.05-.02.07-.03c.86-.4,1.73-.75,2.61-1.04,2.04-.68,4.12-1.05,6.19-1.11Zm-12.26,1.41c.6.22,1.19.47,1.78.74.02.01.05.02.07.03v16.96c-3.07-1.35-6.28-2.04-9.44-2.04-.65,0-1.29.03-1.94.09V8.93c.68-.07,1.36-.08,2.04-.08v6c0,.36.45.54.71.28l1.26-1.22c.16-.16.42-.16.59,0l1.26,1.22c.26.25.71.07.71-.28v-5.27l2.15.38c.28.09.55.2.83.3Z"/>
    </g>
  </g>
</svg>