<?xml version="1.0" encoding="UTF-8"?>
<svg id="category" xmlns="http://www.w3.org/2000/svg" xmlns:xlink="http://www.w3.org/1999/xlink" viewBox="0 0 40 40">
  <defs>
    <style>
      .cls-1 {
        fill: url(#_名称未設定グラデーション_44);
      }

      .cls-1, .cls-2 {
        fill-rule: evenodd;
      }

      .cls-2 {
        fill: #fff;
      }
    </style>
    <linearGradient id="_名称未設定グラデーション_44" data-name="名称未設定グラデーション 44" x1="20" y1="33.8" x2="20" y2="6.2" gradientUnits="userSpaceOnUse">
      <stop offset="0" stop-color="#37b5f4"/>
      <stop offset="1" stop-color="#2581c7"/>
    </linearGradient>
  </defs>
  <g id="cinderella">
    <g id="c-collaboration_cp">
      <path class="cls-2" d="m34.2,7.9c-1.75-1.74-4.08-2.7-6.56-2.7s-4.82.96-6.56,2.7c-.44.43-.87.86-1.3,1.28-.06-.15-.14-.3-.25-.41l-.58-.57c-1.74-1.74-4.08-2.7-6.57-2.7s-4.82.96-6.56,2.7c-1.75,1.74-2.71,4.06-2.71,6.54s.96,4.8,2.71,6.54l9.3,9.2s.08.07.12.1l3.78,3.53c.47.45,1.09.69,1.74.69.69,0,1.34-.28,1.82-.77.47-.48.71-1.12.7-1.79,0-.29-.06-.58-.16-.84.25.08.52.13.8.13.69,0,1.34-.27,1.82-.77.46-.48.71-1.12.7-1.79,0-.29-.06-.57-.16-.84.25.08.52.13.79.13.69,0,1.34-.27,1.82-.78.46-.49.71-1.12.7-1.79,0-.29-.06-.57-.16-.84.25.08.52.13.79.13.69,0,1.34-.28,1.82-.77.56-.58.79-1.4.65-2.18,0,0,.01,0,.02,0,.02,0,.05,0,.07,0,.26,0,.52-.1.71-.29l.75-.75c1.75-1.74,2.71-4.06,2.71-6.54s-.96-4.81-2.71-6.54Zm-10.74,5.31s-.05,0-.07,0l.03-.03s.03.03.04.04Z"/>
      <path class="cls-1" d="m35.91,14.44c0,2.21-.86,4.28-2.41,5.83l-.75.75c-.07-.09-.15-.18-.24-.27l-6.55-6.49-1.73-1.71c-.26-.26-.55-.5-.86-.5-.15,0-.28.06-.39.16l-1.21,1.2-.07.06c-1.33,1.28-2.58,1.93-3.71,1.93s-1.9-.7-2.18-1.03l4.34-4.17c.54-.53,1.09-1.06,1.63-1.6,1.56-1.55,3.64-2.41,5.86-2.41s4.3.85,5.86,2.4c1.56,1.55,2.41,3.62,2.41,5.84Zm-4.52,7.14l-1.84-1.82-5.64-5.33c-.35-.33-.9-.32-1.24.02l-.31.31-.11.08h0c-1.46,1.28-2.89,1.94-4.26,1.94-2.24,0-3.41-1.74-3.46-1.81l-.11-.17c-.23-.35-.18-.82.13-1.11l4.32-4.15-.04-.04c-.2-.19-.39-.39-.59-.58-1.56-1.55-3.64-2.4-5.86-2.4s-4.3.85-5.86,2.4c-1.56,1.55-2.41,3.62-2.41,5.83s.86,4.28,2.41,5.83l9.3,9.2h0s3.88,3.62,3.88,3.62c.28.27.66.42,1.05.42.42,0,.81-.17,1.1-.47.58-.6.56-1.56-.05-2.13l-4.83-4.49c-.15-.14-.24-.33-.24-.54,0-.21.08-.4.22-.55.14-.14.33-.22.54-.22s.38.07.52.2l4.84,4.5c.28.27.66.42,1.05.42.42,0,.81-.17,1.1-.47.58-.6.56-1.56-.05-2.13l-4.73-4.4c-.16-.15-.25-.35-.25-.56,0-.21.08-.42.23-.57.15-.15.35-.23.56-.23s.4.08.54.22l4.7,4.44c.28.27.66.42,1.05.42.42,0,.81-.17,1.1-.47.58-.6.56-1.56-.05-2.13l-4.64-4.39c-.15-.14-.23-.33-.24-.54,0-.21.08-.4.22-.55.14-.14.33-.22.54-.22s.38.07.52.21l4.65,4.39c.28.27.66.42,1.05.42.42,0,.81-.17,1.1-.47.44-.45.54-1.13.27-1.69-.04-.08-.1-.16-.17-.22Z"/>
    </g>
  </g>
</svg>