<svg version="1.1" id="icons" xmlns="http://www.w3.org/2000/svg" x="0" y="0" viewBox="0 0 50 50" style="enable-background:new 0 0 50 50" xml:space="preserve"><path d="M18 26.3h-6v-6h6v6zm10-6h-6v6h6v-6zm10 6v-6h-6v6h6zm-26 10h6v-6h-6v6zm10 0h6v-6h-6v6zm27 3.5c0 5.2-4.3 9.5-9.5 9.5S30 45.1 30 39.8s4.3-9.5 9.5-9.5 9.5 4.3 9.5 9.5zm-3 0c0-3.6-2.9-6.5-6.5-6.5S33 36.2 33 39.8s2.9 6.5 6.5 6.5 6.5-2.9 6.5-6.5zm-6.9.4-2.7-2.7-1.8 1.8 4.5 4.5 5.3-5.6-1.8-1.7-3.5 3.7zM15 11.3c1.1 0 2-.9 2-2v-6c0-1.1-.9-2-2-2s-2 .9-2 2v6c0 1.1.9 2 2 2zm20 0c1.1 0 2-.9 2-2v-6c0-1.1-.9-2-2-2s-2 .9-2 2v6c0 1.1.9 2 2 2zm-26 30v-25h32v12.6c1.4.2 2.8.7 4 1.4v-22c0-1.1-.9-2-2-2h-4.5v3c0 1.9-1.6 3.5-3.5 3.5s-3.5-1.6-3.5-3.5v-3h-13v3c0 1.9-1.6 3.5-3.5 3.5s-3.5-1.6-3.5-3.5v-3H7c-1.1 0-2 .9-2 2v35c0 1.1.9 2 2 2h23c-.7-1.2-1.2-2.6-1.4-4H9z" style="fill:#e60000"/></svg>