<svg version="1.1" id="icons" xmlns="http://www.w3.org/2000/svg" x="0" y="0" viewBox="0 0 50 50" style="enable-background:new 0 0 50 50" xml:space="preserve"><path d="M30.2 21.9c-.2.2-.3.5-.2.7l.7 4.3c.1.7-.6 1.2-1.2.9l-3.9-2c-.2-.1-.5-.1-.8 0l-3.9 2c-.6.3-1.3-.2-1.2-.9l.7-4.3c0-.3 0-.5-.2-.7l-3.1-3.1c-.5-.5-.2-1.3.5-1.4l4.3-.6c.3 0 .5-.2.6-.4l1.9-3.9c.3-.6 1.2-.6 1.5 0l1.9 3.9c.1.2.3.4.6.4l4.3.6c.7.1.9.9.5 1.4l-3 3.1zM42 2H8c-1.1 0-2 .9-2 2s.9 2 2 2h34c1.1 0 2-.9 2-2s-.9-2-2-2zm-3 41.2-12.9-8.8c-.3-.3-.7-.4-1.1-.4s-.8.1-1.1.4L11 43.2V8H7v39c0 .7.4 1.4 1.1 1.8.7.3 1.5.3 2.1-.1L25 38.4l14.9 10.2c.3.2.7.4 1.1.4.3 0 .6-.1.9-.2.7-.3 1.1-1 1.1-1.8V8h-4v35.2z" style="fill:#fff"/></svg>