<svg version="1.1" id="icons" xmlns="http://www.w3.org/2000/svg" x="0" y="0" viewBox="0 0 50 50" style="enable-background:new 0 0 50 50" xml:space="preserve"><path d="M38 40h-6v-4h6v4zM16 22c0-2.2 1.8-4 4-4s4 1.8 4 4c0 1.2-.5 2.3-1.4 3H37V9H13v16h4.4c-.9-.7-1.4-1.8-1.4-3zm6 3.4c-.6.3-1.3.6-2 .6s-1.4-.2-2-.6V30c0 1.1.9 2 2 2s2-.9 2-2v-4.6zM46 30v16c0 1.1-.9 2-2 2H6c-1.1 0-2-.9-2-2V30c0-1.1.9-2 2-2V4c0-1.1.9-2 2-2h34c1.1 0 2 .9 2 2v24c1.1 0 2 .9 2 2zm-4 2H24v-4h16V6H10v22h6v4H8v12h34V32z" style="fill:#fff"/></svg>