<svg version="1.1" id="icons" xmlns="http://www.w3.org/2000/svg" x="0" y="0" viewBox="0 0 50 50" style="enable-background:new 0 0 50 50" xml:space="preserve"><path d="M42 3H13c-1.1 0-2 .9-2 2v37.9c0 .1-.2.1-.2 0L7.3 15H9v-4H5c-.6 0-1.1.2-1.5.7-.4.4-.6 1-.5 1.6l3.8 30.1C7 45.5 8.9 47.1 11 47h29c2.2 0 4-1.8 4-4V5c0-1.1-.9-2-2-2zm-2 40H15V7h25v36zM26 18h-8v-7h8v7zm3 8h8v12h-8V26zm8-13h-8v-2h8v2zm0 5h-8v-2h8v2zm0 5H18v-2h19v2zm-11 5h-8v-2h8v2zm0 5h-8v-2h8v2zm0 5h-8v-2h8v2z" style="fill:#e60000"/></svg>