<svg version="1.1" id="icons" xmlns="http://www.w3.org/2000/svg" x="0" y="0" viewBox="0 0 50 50" style="enable-background:new 0 0 50 50" xml:space="preserve"><path d="M44.1 24.2c-1-.9-3.9-3-6.6-5 1.3-2.7 1.4-5.8.3-8.6C40.1 6.4 36.8.9 32 1c-1.7 0-3.2.6-4.4 1.7-1.7-.3-3.5-.3-5.2 0C17-2.1 8.9 4.1 12.3 10.6c-1.1 2.8-1 5.9.3 8.6-2.8 2-5.6 4.1-6.6 5-4.8 4.3 0 12.1 6 10.1-1.4 6.1-4.5 11 1.5 14.1 5.6 2.1 7.4-1.8 11.5-6.1 3.8 4 6.1 8.3 11.5 6.1 6-3 2.9-8.3 1.5-14.1 6 2 10.8-5.8 6.1-10.1zm-4.2 6.4c-.2 0-.5 0-.8-.1-2.5-.8-4.6-1.8-4.6-1.8-.9-.5-2.2.3-1.9 1.4 0 .1 3 10.2 3.4 12.7.3 2.2-2.6 2.9-3.8 1.7-1.1-1.1-6.2-6.8-6.2-6.8-.5-.6-1.6-.6-2.1 0-.1.1-5.2 5.7-6.2 6.8-1.1 1.2-4.1.6-3.8-1.7.5-2.6 3.4-12.6 3.4-12.7.3-1-1-1.8-1.9-1.4 0 0-2.1 1-4.6 1.8-2.1.8-3.8-1.7-2.3-3.2 1.1-1 5.2-4 8.3-6.2.6-.4.7-1.3.3-1.9-1.9-2.2-2.2-5.6-.7-8.1.3-.5.2-1.2-.2-1.6-.6-.6-.9-1.5-.7-2.5.5-2.2 3.7-2.5 4.6-.5.2.4.7.7 1.2.7 2.1-.6 4.7-.8 6.8-.1.6.2 1.3 0 1.6-.6C30.2 5.6 31 5 32 5c2.3-.1 3.3 2.9 1.7 4.3-.4.4-.6 1.1-.2 1.6 1.6 2.5 1.3 5.9-.7 8.1-.5.6-.3 1.5.3 1.9 3.1 2.2 7.3 5.2 8.3 6.2 1.3 1.3.3 3.4-1.5 3.5zM27 18.6c0 .3-.2.5-.5.5-.6 0-1.1-.3-1.5-.7-.4.4-.9.7-1.5.7-.3 0-.5-.2-.5-.5s.2-.5.5-.5c.6 0 1-.4 1-1V17c-.6-.1-1-.5-1-.9 0-.6.7-1 1.5-1s1.5.4 1.5 1c0 .4-.4.8-1 .9v.1c0 .6.4 1 1 1 .3 0 .5.2.5.5zm-5-5.1c0 .8-.7 1.5-1.5 1.5s-1.5-.6-1.5-1.5c0-.8.7-1.5 1.5-1.5s1.5.7 1.5 1.5zm9 0c0 .8-.7 1.5-1.5 1.5s-1.5-.6-1.5-1.5c0-.8.7-1.5 1.5-1.5s1.5.7 1.5 1.5z" style="fill:#fff"/></svg>