<svg version="1.1" id="icons" xmlns="http://www.w3.org/2000/svg" x="0" y="0" viewBox="0 0 50 50" style="enable-background:new 0 0 50 50" xml:space="preserve"><path d="M42.8 42.8h-5.2v-3.4h5.2v3.4zM32 32.4h8.1v-9.8H26.5v9.8h2.3c-.8-.5-1.3-1.4-1.3-2.4 0-1.6 1.3-2.9 2.9-2.9 1.6 0 2.9 1.3 2.9 2.9.1 1-.5 1.9-1.3 2.4zM16.9 21H9.3c-1 0-1.8.8-1.8 1.8V34h-2V20.3C4.2 19.9 3 19.1 2 18.1v17.6c0 1 .8 1.8 1.8 1.8h5.5c1 0 1.8-.8 1.8-1.8V24.6h4.1v11.2c0 1 .8 1.8 1.8 1.8h.3V36c0-1.1.6-2.1 1.5-2.7V22.8c-.1-1-.9-1.8-1.9-1.8zM1 11.9v-.2l.7-7.5C1.8 3 2.9 2 4.2 2h29.1c1.3 0 2.4 1 2.5 2.3l.7 7.5v.2c0 1.3-.3 2.5-.9 3.6h-5c1.4-.5 2.4-1.9 2.4-3.5l-.6-6.5h-6.5v6.6c0 1 .4 2 1.2 2.7.4.3.8.5 1.2.7h-6.1c-1.8 0-3.2 1.4-3.2 3.2v.5h-.2c-2.1 0-4-.9-5.3-2.4l-.7.7c-1.5 1.3-3.6 2-5.6 1.7-3.6-.6-6.2-3.7-6.2-7.4zm14.2.2c0 2 1.6 3.6 3.6 3.6s3.6-1.6 3.6-3.6V5.5h-7.1v6.6zM4.5 12c0 1.8 1.3 3.4 3.1 3.6 1 .1 2-.2 2.8-.9.8-.7 1.2-1.7 1.2-2.7V5.5H5.1L4.5 12zm25 20.7v4c0 .5.4 1 1 1 .5 0 1-.4 1-1v-4c-.3.1-.6.2-1 .2s-.7-.1-1-.2zM48 35.9v10.3c0 1-.8 1.7-1.7 1.7H20.4c-1 0-1.7-.8-1.7-1.7V35.9c0-1 .8-1.7 1.7-1.7V18.7c0-1 .8-1.7 1.7-1.7h22.4c1 0 1.7.8 1.7 1.7v15.5c1 0 1.8.8 1.8 1.7zm-3.4 1.8H32.9v-3.4h9.9V20.4H23.9v13.8H28v3.4h-5.8v6.9h22.4v-6.8z" style="fill:#fff"/></svg>