<svg version="1.1" id="icons" xmlns="http://www.w3.org/2000/svg" x="0" y="0" viewBox="0 0 50 50" style="enable-background:new 0 0 50 50" xml:space="preserve"><path d="M27 29h5v10h-5V29zm8 10h5V29h-5v10zM2 14.7v-.2l.9-9.8C3.1 3.2 4.4 2 5.9 2h38.2c1.6 0 2.8 1.2 3 2.7l.9 9.8v.2c0 4.6-3.4 8.6-7.8 9.2-2.6.3-5.2-.4-7.1-2.2-.4-.3-.8-.7-1.1-1.1-1.7 2-4.2 3.4-7 3.4s-5.4-1.3-7-3.4c-.3.4-.7.8-1.1 1.1-2 1.7-4.5 2.5-7.1 2.2-4.4-.6-7.8-4.5-7.8-9.2zm32 .3c0 1.4.6 2.8 1.7 3.8s2.5 1.4 4 1.2c2.4-.3 4.3-2.5 4.3-5.1L43.2 6H34v9zm-14 0c0 2.8 2.2 5 5 5s5-2.2 5-5V6H20v9zm-14-.2c0 2.6 1.9 4.8 4.3 5.1 1.5.2 2.9-.2 4-1.2s1.7-2.3 1.7-3.8V6H6.8L6 14.8zM43 44H24V29c0-1.1-.9-2-2-2H12c-1.1 0-2 .9-2 2v15H7V25.2c-1.5-.6-2.9-1.6-4-2.8V46c0 1.1.9 2 2 2h7c1.1 0 2-.9 2-2V31h6v15c0 1.1.9 2 2 2h23c1.1 0 2-.9 2-2V22.5c-1.1 1.2-2.5 2.2-4 2.8V44z" style="fill:#e60000"/></svg>