<svg xmlns="http://www.w3.org/2000/svg" viewBox="0 0 50 50"><path d="M32 24.4c.4-.4.4-1 0-1.4s-1-.4-1.4 0L26 27.6V18c0-.5-.4-1-1-1-.5 0-1 .4-1 1v5.6L21.4 21c-.4-.4-1-.4-1.4 0s-.4 1 0 1.4l4 4v6.2L19.4 28c-.4-.4-1-.4-1.4 0s-.4 1 0 1.4l6 6v2.5c-4.6-.4-9.1-3.4-10-9.5C12.4 18 24 8.9 25 8.9S37.6 18 36 28.4c-.8 5.2-4.1 8.1-8 9.1v2.4c0 .6-.4 1-1 1s-1-.4-1-1v-9.6l6-6ZM6.2 27.5c-1.4-10.4 6-19.9 16.4-21.3 4.7-.6 9.4.5 13.2 3.2l-2.7.3c-.5 0-1 .5-.9 1.1v1c.1.5.6 1 1.2.9l7.5-.7c.5 0 1-.5.9-1.1l-.7-7.5c0-.5-.5-1-1.1-.9h-1c-.5.1-1 .6-.9 1.2l.2 2.6c-4.7-3.4-10.4-4.8-16.2-4C9.4 3.8.5 15.4 2.2 28c.3 2.1.9 4.2 1.8 6.2.3.8 1.1 1.2 1.8 1.2s1-.2 1.4-.6c.6-.6.7-1.5.4-2.3-.7-1.6-1.2-3.3-1.4-5.1ZM47.8 22c-.3-2.1-.9-4.2-1.7-6.2-.4-1-1.5-1.5-2.5-1.2-1.1.4-1.7 1.6-1.2 2.7.7 1.7 1.2 3.4 1.4 5.2.8 6.3-1.5 12.5-6.4 16.9-1.8 1.6-4 2.8-6.3 3.6-5.9 1.9-12 1-16.9-2.4l2.7-.3c.5 0 1-.5.9-1.1v-1c-.1-.5-.6-1-1.2-.9l-7.5.7c-.5 0-1 .5-.9 1.1l.7 7.5c0 .5.5 1 1.1.9h1c.5-.1 1-.6.9-1.2l-.2-2.6c3.9 2.8 8.5 4.2 13.2 4.2s4.8-.4 7.1-1.1c3.1-1 6-2.6 8.4-4.8 5.7-5.3 8.3-12.6 7.4-20Z"/></svg>