<svg version="1.1" id="icons" xmlns="http://www.w3.org/2000/svg" x="0" y="0" viewBox="0 0 50 50" style="enable-background:new 0 0 50 50" xml:space="preserve"><path d="M25 40s12.2-14.4 13.7-21c1.9-8.4-4-17-13.7-17S9.5 10.7 11.3 19C12.8 25.6 25 40 25 40zm0-31c3.9 0 7 3.1 7 7s-3.1 7-7 7-7-3.1-7-7 3.1-7 7-7zm21.8 36.8c-.3.7-1 1.2-1.8 1.2H5c-.8 0-1.5-.5-1.8-1.2-.3-.7-.2-1.6.3-2.1l8-9c.7-.8 2-.9 2.8-.2.8.7.9 2 .2 2.8l-5 5.7h31.1l-5-5.7c-.7-.8-.7-2.1.2-2.8.8-.7 2.1-.7 2.8.2l8 9c.4.6.5 1.4.2 2.1z" style="fill:#e60000"/></svg>