<svg version="1.1" id="icons" xmlns="http://www.w3.org/2000/svg" x="0" y="0" viewBox="0 0 50 50" style="enable-background:new 0 0 50 50" xml:space="preserve"><path d="m24.1 25.6-.8-1.2C25 23 26 20.9 26 18.5c0-4.1-3.1-7.5-7-7.5s-7 3.3-7 7.5c0 4.1 3.1 7.5 7 7.5.6 0 1.1-.1 1.7-.2l.9 1.4c.3.5.8.7 1.3.7.3 0 .5-.1.8-.2.6-.5.8-1.4.4-2.1zm-2.4-3.8-.9-1.5c-.4-.7-1.4-.9-2.1-.5-.7.4-.9 1.4-.5 2.1L19 23c-2.2 0-4-2-4-4.5s1.8-4.5 4-4.5 4 2 4 4.5c0 1.3-.5 2.5-1.3 3.3zM38 32v2h-4v-2c0-1.1.9-2 2-2s2 .9 2 2zm11 2c0-6.6-5.8-12-13-12s-13 5.4-13 12 5.8 12 13 12c1.8 0 3.5-.3 5-.9l6.1 2.6-1-6.1c1.8-2.1 2.9-4.8 2.9-7.6zm-8 5.5c0 .8-.7 1.5-1.5 1.5s-1.5-.7-1.5-1.5V37h-4v2.5c0 .8-.7 1.5-1.5 1.5s-1.5-.7-1.5-1.5V32c0-2.8 2.2-5 5-5s5 2.2 5 5v7.5zm-19.3-7.8c-.1.7-.2 1.5-.2 2.3 0 .6.1 1.2.1 1.8-.8.1-1.7.2-2.6.2-1.6 0-3.2-.2-4.6-.6l-8.8 4.7.6-9.1C3 28.1 1 24 1 19.5 1 10.4 9.1 3 19 3s18 7.4 18 16.5c0 .4 0 .7-.1 1H36c-1.1 0-2.1.1-3.1.3.1-.4.1-.9.1-1.3C33 12.6 26.7 7 19 7S5 12.6 5 19.5 11.3 32 19 32c.9 0 1.8-.1 2.7-.3z"/></svg>