<svg version="1.1" id="icons" xmlns="http://www.w3.org/2000/svg" x="0" y="0" viewBox="0 0 50 50" style="enable-background:new 0 0 50 50" xml:space="preserve"><path d="M25,6c10.5,0,19,8.5,19,19s-8.5,19-19,19S6,35.5,6,25,14.5,6,25,6M25,2C12.3,2,2,12.3,2,25s10.3,23,23,23,23-10.3,23-23S37.7,2,25,2h0ZM32.6,30.3h-5.9v-3.4h5.9c.9,0,1.7-.8,1.7-1.7s-.8-1.7-1.7-1.7h-5.7s0,0,0,0l6.6-6.6c.7-.7.7-1.7,0-2.4s-1.7-.7-2.4,0l-6.1,6.1-6.1-6.1c-.7-.7-1.7-.7-2.4,0s-.7,1.7,0,2.4l6.6,6.6s0,0,0,0h-5.7c-.9,0-1.7.8-1.7,1.7s.8,1.7,1.7,1.7h5.9v3.4h-5.9c-.9,0-1.7.8-1.7,1.7s.8,1.7,1.7,1.7h5.9v3.6c0,.9.8,1.7,1.7,1.7s1.7-.8,1.7-1.7v-3.6h5.9c.9,0,1.7-.8,1.7-1.7s-.8-1.7-1.7-1.7Z" style="fill:#e60000"/></svg>