<svg version="1.1" id="icons" xmlns="http://www.w3.org/2000/svg" x="0" y="0" viewBox="0 0 50 50" style="enable-background:new 0 0 50 50" xml:space="preserve"><path d="M25 2C12.3 2 2 12.3 2 25s10.3 23 23 23 23-10.3 23-23S37.7 2 25 2zm16.7 14h-6.6c-.6-3.3-1.5-6.2-2.7-8.5 4 1.7 7.3 4.7 9.3 8.5zM23.4 6.1C23.9 6 24.5 6 25 6s1.1 0 1.6.1c1.8 1.4 3.6 4.8 4.6 9.9H18.8c1-5.1 2.8-8.6 4.6-9.9zM6 25c0-1.7.3-3.4.7-5h7.6c-.2 1.6-.2 3.3-.2 5 0 1.7.1 3.4.2 5H6.7c-.4-1.6-.7-3.3-.7-5zm2.3 9h6.6c.6 3.3 1.5 6.2 2.7 8.5-4-1.7-7.3-4.7-9.3-8.5zm6.6-18H8.3c2-3.8 5.3-6.8 9.3-8.5-1.2 2.3-2.1 5.2-2.7 8.5zm11.7 27.9c-.5.1-1.1.1-1.6.1s-1.1 0-1.6-.1c-1.8-1.4-3.6-4.8-4.6-9.9h12.4c-1 5.1-2.8 8.6-4.6 9.9zM31.8 30H18.2c-.2-1.6-.3-3.2-.3-5s.1-3.4.3-5h13.6c.2 1.6.3 3.2.3 5s-.1 3.4-.3 5zm.6 12.5c1.2-2.3 2.1-5.2 2.7-8.5h6.6c-2 3.8-5.3 6.8-9.3 8.5zM35.7 30c.2-1.6.2-3.3.2-5 0-1.7-.1-3.4-.2-5h7.6c.4 1.6.7 3.3.7 5s-.3 3.4-.7 5h-7.6z"/></svg>