<svg version="1.1" id="icons" xmlns="http://www.w3.org/2000/svg" x="0" y="0" viewBox="0 0 50 50" style="enable-background:new 0 0 50 50" xml:space="preserve"><path d="M48 24c0-9.9-10.3-18-23-18S2 14.1 2 24s10.3 18 23 18c3.5 0 6.9-.6 9.8-1.7l8.7 4.7-2.8-7.8c4.5-3.3 7.3-8 7.3-13.2zm-34.5 6c-1.2 0-2.3-.3-3.3-.8v-2.3c1 .7 2 1 3.1 1 .6 0 1-.1 1.3-.3.3-.2.4-.5.4-.9s-.1-.6-.3-.9c-.2-.2-.5-.4-1-.6-1.3-.4-2.3-1-2.9-1.6-.6-.6-.9-1.4-.9-2.3 0-1 .3-1.8 1-2.4.7-.6 1.7-.9 2.9-.9 1.3 0 2.5.2 3.5.6v2.3c-1.1-.6-2.2-.8-3.3-.8-1 0-1.5.4-1.5 1.2 0 .7.4 1.1 1.3 1.4 1.5.4 2.5 1 3 1.6.6.6.8 1.4.8 2.4.2 2.2-1.2 3.3-4.1 3.3zm15.9-.2h-2.6l-3.7-7.2v7.2h-2.6V18.2h2.6l3.7 7.2v-7.2h2.6v11.6zm6.4.2c-1.2 0-2.3-.3-3.3-.8v-2.3c1 .7 2 1 3.1 1 .6 0 1-.1 1.3-.3.3-.2.4-.5.4-.9s-.1-.6-.3-.9c-.2-.2-.5-.4-1-.6-1.3-.4-2.3-1-2.9-1.6-.6-.6-.9-1.4-.9-2.3 0-1 .3-1.8 1-2.4.7-.6 1.7-.9 2.9-.9 1.3 0 2.5.2 3.5.6v2.3c-1.1-.6-2.2-.8-3.3-.8-1 0-1.5.4-1.5 1.2 0 .7.4 1.1 1.3 1.4 1.5.4 2.5 1 3 1.6.6.6.8 1.4.8 2.4.1 2.2-1.3 3.3-4.1 3.3z" style="fill:#e60000"/></svg>