<svg xmlns="http://www.w3.org/2000/svg" viewBox="0 0 50 50" style="enable-background:new 0 0 50 50" xml:space="preserve"><path d="M25.3 44.1c0 1.3-1.1 2.3-2.4 2.3H18c-1.3 0-2.4-1-2.4-2.3V43c0-1.3 1.1-2.3 2.4-2.3h5c1.3 0 2.4 1 2.4 2.3v1.1zM3.8 35.3h-.4c-1.3 0-2.4 1-2.4 2.3v3.1C1 42 1.6 43 2.6 43h.3c1.1 0 .9 1 .9 2.3v1.5c0 1.2 1 2.2 2.3 2.2h3.6c1.3 0 2.4-1 2.4-2.3V37.6c0-1.3-1.1-2.3-2.4-2.3H3.8zM33 16.1c-1.1 0-2.1.7-2.3 1.8l-1.3 5.9c-.2 1-1.2 1.8-2.3 1.8H12.3c-1.3 0-2.4 1-2.4 2.3v1.7c0 1.3 1.1 2.3 2.4 2.3h.5c1.3 0 2.4 1 2.4 2.3v1.1c0 1.3 1.1 2.3 2.4 2.3h18.2c1.1 0 2.1-.7 2.3-1.8l3.8-16.9c.2-.7 0-1.4-.5-1.9s-1.1-.8-1.8-.8l-6.6-.1zm14.5-4.9c-.2 1.1-1.2 1.8-2.3 1.8H34.9c-.7 0-1.4-.3-1.8-.8-.4-.5-.6-1.2-.5-1.9l1.5-7.5c.2-1 1.2-1.8 2.3-1.8h10.2c.7 0 1.4.3 1.8.8s.7 1.2.6 1.9l-1.5 7.5z" style="fill:#e60000"/></svg>