<svg xmlns="http://www.w3.org/2000/svg" viewBox="0 0 50 50"><path d="M44 18H32c-2.2 0-4 1.8-4 4v22c0 2.2 1.8 4 4 4h12c2.2 0 4-1.8 4-4V22c0-2.2-1.8-4-4-4Zm1 26c0 .6-.4 1-1 1H32c-.6 0-1-.4-1-1V22c0-.6.4-1 1-1h2c0 .8.7 1.5 1.5 1.5h5c.8 0 1.5-.7 1.5-1.5h2c.6 0 1 .4 1 1v22Zm-3-1.2c0 .4-.3.8-.8.8h-6.5c-.4 0-.8-.3-.8-.8s.3-.8.8-.8h6.5c.4 0 .8.3.8.8ZM7 32h19v12H7v-1c0-1.1.9-2 2-2h10v-5H7c-2.8 0-5-2.2-5-5V11c0-2.8 2.2-5 5-5h34c2.8 0 5 2.2 5 5v5.4c-.6-.2-1.3-.4-2-.4h-2v-5c0-.6-.4-1-1-1H7c-.6 0-1 .4-1 1v20c0 .6.4 1 1 1Z" style="fill:#e60000"/></svg>