<?xml version="1.0" encoding="UTF-8"?>
<svg xmlns="http://www.w3.org/2000/svg" viewBox="0 0 54 54">
  <path fill="#444" d="m45.82,9.84c-3.55-1.64-7.3-2.79-11.16-3.45-.49.86-1.04,2.01-1.43,2.94-4.1-.61-8.27-.61-12.37,0-.44-1-.93-1.98-1.47-2.94-3.86.65-7.62,1.82-11.17,3.46C1.19,20.35-.73,30.6.23,40.7c4.13,3.07,8.77,5.41,13.69,6.91,1.11-1.5,2.09-3.09,2.93-4.76-1.6-.6-3.15-1.34-4.62-2.21.38-.29.76-.58,1.11-.88,8.67,4.1,18.72,4.1,27.39,0,.37.3.75.6,1.13.88-1.47.87-3.02,1.61-4.62,2.21.84,1.66,1.82,3.25,2.93,4.75,4.93-1.5,9.56-3.83,13.69-6.91,1.11-11.7-1.93-21.86-8.05-30.86m-27.76,24.66c-2.67,0-4.86-2.44-4.86-5.45s2.14-5.47,4.86-5.47,4.89,2.45,4.87,5.45c-.03,3.01-2.15,5.46-4.87,5.46m17.97,0c-2.67,0-4.86-2.44-4.86-5.45s2.14-5.47,4.86-5.47,4.89,2.45,4.86,5.45c-.03,3.01-2.14,5.46-4.86,5.46"/>
</svg>