<?xml version="1.0" encoding="UTF-8"?>
<svg id="l" xmlns="http://www.w3.org/2000/svg" version="1.1" viewBox="0 0 293 47">
  <!-- Generator: Adobe Illustrator 29.1.0, SVG Export Plug-In . SVG Version: 2.1.0 Build 142)  -->
  <defs>
    <style>
      .st0 {
        fill: #fff;
      }

      .st1 {
        fill: #e22d48;
      }
    </style>
  </defs>
  <g>
    <path class="st1" d="M19.77,36.85c9.35-.1,12.5-3.6,12.3-13.6V2.45h9.1v19.1c.05,9.5-.9,13.9-3.95,17.65-3.35,4.15-8.95,6.2-16.8,6.2H4.07v-8.55h15.7ZM4.12,2.65h9.1v27.2H4.12V2.65Z"/>
    <path class="st1" d="M52.22,14.4v-7.75h29.35v4.2h4.55c-3.55,8.8-4.15,10.1-6.25,14.25,5.65,8.55,8.4,13.3,12.3,21.1h-10.35c-1.8-3.75-1.8-3.8-6.75-12.25-5.15,8.75-11.05,12.45-19.85,12.5h-5.9v-7.95h3.8c10.1-.15,14.3-4.75,22.05-24.1h-22.95ZM83.08,1.7h4.55v7.65h-4.55V1.7ZM93.73,1.7v7.65h-4.5V1.7h4.5Z"/>
    <path class="st1" d="M100.62,37.2L113.67,2.4h9.55l-13.4,34.8h20.15c1.7,0,2.75-.6,2.75-1.55,0-.5-.2-1.35-.55-2.3l-4.8-12.5h9.6l4.95,13.3c.65,1.7.95,3.05.95,4.3,0,1.95-.75,3.8-1.95,4.75-1.9,1.5-4.35,1.95-10.25,1.95h-32.2v-7.95h2.15Z"/>
    <path class="st1" d="M191.68,16.25c-.25,14.75-1.5,19.65-6.15,24.25-4.7,4.25-9.95,5.5-23.6,5.6h-9.5v-8.75h8.3c18.2.2,20.7-1.3,21.5-12.95h-31.5v-8.15h40.95ZM189.37,2.9v8.1h-36.6V2.9h36.6Z"/>
    <path class="st1" d="M199.42,23.05l27.6-12.95c3.65-1.75,4.4-2.8,4.4-6.1v-1.35h9.15v1.95c.15,5-1.9,8.55-6.3,10.8l-7.65,3.85v27.25h-9.25v-22.55l-17.95,8.95v-9.85Z"/>
    <path class="st1" d="M248.62,6.1h32.05v3.6h7.1v15.45c-.05,7.05-2.1,12.45-5.9,15.8-4.7,4.1-8.8,5.15-19.85,5.25h-11.45v-8.45h11.45c12.6-.05,16.6-3.1,16.65-12.7v-10.6h-30.05V6.1ZM286.73.5v7.65h-4.65V.5h4.65ZM292.93.5v7.65h-4.65V.5h4.65Z"/>
  </g>
  <g>
    <path class="st0" d="M15.77,36.85c9.35-.1,12.5-3.6,12.3-13.6V2.45h9.1v19.1c.05,9.5-.9,13.9-3.95,17.65-3.35,4.15-8.95,6.2-16.8,6.2H.07v-8.55h15.7ZM.12,2.65h9.1v27.2H.12V2.65Z"/>
    <path class="st0" d="M48.22,14.4v-7.75h29.35v4.2h4.55c-3.55,8.8-4.15,10.1-6.25,14.25,5.65,8.55,8.4,13.3,12.3,21.1h-10.35c-1.8-3.75-1.8-3.8-6.75-12.25-5.15,8.75-11.05,12.45-19.85,12.5h-5.9v-7.95h3.8c10.1-.15,14.3-4.75,22.05-24.1h-22.95ZM79.08,1.7h4.55v7.65h-4.55V1.7ZM89.73,1.7v7.65h-4.5V1.7h4.5Z"/>
    <path class="st0" d="M96.62,37.2L109.67,2.4h9.55l-13.4,34.8h20.15c1.7,0,2.75-.6,2.75-1.55,0-.5-.2-1.35-.55-2.3l-4.8-12.5h9.6l4.95,13.3c.65,1.7.95,3.05.95,4.3,0,1.95-.75,3.8-1.95,4.75-1.9,1.5-4.35,1.95-10.25,1.95h-32.2v-7.95h2.15Z"/>
    <path class="st0" d="M187.68,16.25c-.25,14.75-1.5,19.65-6.15,24.25-4.7,4.25-9.95,5.5-23.6,5.6h-9.5v-8.75h8.3c18.2.2,20.7-1.3,21.5-12.95h-31.5v-8.15h40.95ZM185.37,2.9v8.1h-36.6V2.9h36.6Z"/>
    <path class="st0" d="M195.42,23.05l27.6-12.95c3.65-1.75,4.4-2.8,4.4-6.1v-1.35h9.15v1.95c.15,5-1.9,8.55-6.3,10.8l-7.65,3.85v27.25h-9.25v-22.55l-17.95,8.95v-9.85Z"/>
    <path class="st0" d="M244.62,6.1h32.05v3.6h7.1v15.45c-.05,7.05-2.1,12.45-5.9,15.8-4.7,4.1-8.8,5.15-19.85,5.25h-11.45v-8.45h11.45c12.6-.05,16.6-3.1,16.65-12.7v-10.6h-30.05V6.1ZM282.73.5v7.65h-4.65V.5h4.65ZM288.93.5v7.65h-4.65V.5h4.65Z"/>
  </g>
</svg>