<?xml version="1.0" encoding="UTF-8"?>
<svg id="_レイヤー_1" data-name="レイヤー_1" xmlns="http://www.w3.org/2000/svg" version="1.1" xmlns:xlink="http://www.w3.org/1999/xlink" viewBox="0 0 295 80">
  <!-- Generator: Adobe Illustrator 29.1.0, SVG Export Plug-In . SVG Version: 2.1.0 Build 142)  -->
  <defs>
    <style>
      .st0 {
        fill: url(#_名称未設定グラデーション_677);
      }
    </style>
    <linearGradient id="_名称未設定グラデーション_677" data-name="名称未設定グラデーション 677" x1=".47" y1="40" x2="294.53" y2="40" gradientUnits="userSpaceOnUse">
      <stop offset="0" stop-color="#ff9ca8"/>
      <stop offset="1" stop-color="#ff5e77"/>
    </linearGradient>
  </defs>
  <path class="st0" d="M46.99,48.42l-.42-46.91h18.82v76.98h-17.07l-29.45-46.39.42,46.39H.47V1.51h16.97l29.55,46.91Z"/>
  <path class="st0" d="M82.07,1.51h43.6v17.26h-23.93v11.96h23.21v17.26h-23.21v13.2h23.93v17.26h-43.6V1.48h0v.03Z"/>
  <path class="st0" d="M134.28,1.51h19.96l10.5,50.03L176.09,1.51h15.08l11.35,50.23L213.02,1.51h19.86l-20.38,76.98h-17.26l-11.77-49.84-11.54,49.84h-17.78S134.28,1.51,134.28,1.51Z"/>
  <path class="st0" d="M259.45,53c0,8.94,5.53,10.5,8,10.5,4.68,0,7.48-3.84,7.48-7.38,0-4.06-3.22-5.3-15.08-10.31-5.4-2.18-18.82-7.61-18.82-22.04C241.02,8.27,255.06.04,267.97.04c10.6,0,25.59,5.4,25.91,23.93h-19.44c-.42-2.6-1.04-7.48-7.09-7.48-3.45,0-6.76,2.41-6.76,6.05s2.08,4.49,15.93,10.73c14.37,6.44,18.01,13.1,18.01,22.04,0,12.29-6.44,24.64-26.85,24.64s-28.28-11.87-27.76-26.95h19.57-.03Z"/>
</svg>