<?xml version="1.0" encoding="UTF-8"?>
<svg id="_レイヤー_1" data-name="レイヤー_1" xmlns="http://www.w3.org/2000/svg" version="1.1" viewBox="0 0 114 22">
  <!-- Generator: Adobe Illustrator 29.1.0, SVG Export Plug-In . SVG Version: 2.1.0 Build 142)  -->
  <path d="M23.02,15.98v4.48s-22.84-.05-22.84-.05v-4.48s22.84.05,22.84.05ZM2.29.57l18.99.05v4.36s-19-.05-19-.05V.57Z"/>
  <path d="M30.72,16.57l12.04.03.02-7.09c-.02-1.37-.33-1.7-1.59-1.71l-8.43-.02V3.56s10.01.02,10.01.02c1.55,0,2.42.32,3.3,1.09,1.05,1.14,1.26,1.86,1.23,4.36l-.02,7.58h5.05s0,3.85,0,3.85l-21.6-.05v-3.84Z"/>
  <path d="M82,8.37v4.38s-21.12-.05-21.12-.05v-4.38s21.12.05,21.12.05Z"/>
  <path d="M92.76,4.32V.07s18.64.04,18.64.04c-1.4,4.48-2.57,7.42-4.2,10.5,2.85,4,4.72,7.15,6.62,11.07h-5.59c-1.13-2.72-1.92-4.24-3.44-6.7-2.46,4.43-5.87,6.63-10.61,6.93h-3.25s.01-4.36.01-4.36h1.62c3.92.04,5.93-.94,7.84-3.79,1.27-1.78,3.26-5.89,4.56-9.42l-12.22-.03Z"/>
</svg>