<?xml version="1.0" encoding="UTF-8"?>
<svg id="_レイヤー_1" data-name="レイヤー_1" xmlns="http://www.w3.org/2000/svg" width="371" height="57" version="1.1" viewBox="0 0 371 57">
  <!-- Generator: Adobe Illustrator 29.6.1, SVG Export Plug-In . SVG Version: 2.1.1 Build 9)  -->
  <defs>
    <style>
      .st0 {
        fill: #4d4f5e;
      }

      .st1 {
        fill: #6a91ff;
      }
    </style>
  </defs>
  <path class="st1" d="M40.5,7h0c-9.2-9.2-24.1-9.2-33.3,0h0C-2,16.2-2,31.1,7.2,40.3l16.6,16.6,16.6-16.6c9.2-9.2,9.2-24.1,0-33.3ZM23.9,31.6c-4.9,0-8.9-4-8.9-8.9s4-8.9,8.9-8.9,8.9,4,8.9,8.9-4,8.9-8.9,8.9Z"/>
  <g>
    <path class="st0" d="M76.5,16.3h8.4v5.3h-3.5v18.4h-4.9v-23.6ZM79.7,37.9v-18.1h3.5v-1.6h-5v19.7h1.5Z"/>
    <path class="st0" d="M93.2,18.1c.8,2.6,2.2,7.7,2.8,10.6h-4.7c-.5-2.9-1.6-6.8-2.8-10.6h4.7ZM98.8,35.4c3.4,0,5.1-.8,6.1-2.4.8-1.4,1-2.7,1.1-6.9v-7.9h4.6v7.6c.2,10-3.4,14-12.1,13.9h-8.4v-4.3h8.7ZM100.9,18.1c1,2.5,2.2,6.9,2.9,10.6h-4.6c-.9-4.3-1.8-7.4-3-10.6h4.7Z"/>
    <path class="st0" d="M115.6,17.9h21.2v5.7c0,4.3-2.4,6.7-7,6.8h-1.9c-.1,4-.5,5.3-1.8,7-1.4,1.6-3.4,2.5-5.7,2.5h-4.8v-4.2h3.3c3.5,0,4.3-.9,4.3-4.5v-4.9h6.3c2,0,2.8-.8,2.8-2.8v-1.1h-16.8v-4.4Z"/>
    <path class="st0" d="M141.7,18.4h22.2v5.6c0,6.7-3,9.6-10.6,10.8.8,1.5,1.3,2.5,2.4,4.8h-5.1c-2-4.1-4.3-8.1-7.1-12.6h5.1l1.3,2.1c.2.4.4.6,1,1.7,6.3-.6,8.4-2.3,8.5-6.8v-1.6h-17.7v-4.2Z"/>
    <path class="st0" d="M170,22.3v-4.3h18.8c-1.4,4.5-2.6,7.5-4.2,10.6,2.9,4,4.8,7.2,6.7,11.2h-5.6c-1.1-2.7-2-4.3-3.5-6.7-2.5,4.5-5.9,6.7-10.7,7h-3.3v-4.4h1.6c4,0,6-1,7.9-3.8,1.3-1.8,3.3-6,4.6-9.5h-12.3Z"/>
    <path class="st0" d="M203.3,40.9h-8.4v-5.3h3.5v-18.4h4.9v23.6ZM200.1,19.3v18.1h-3.5v1.6h5v-19.7h-1.5Z"/>
    <path class="st0" d="M220,22.6c.2-1.5.3-2.1.5-5h4.3c-.2,2-.2,2.6-.5,5h1.9c2.2,0,3.2.4,3.9,1.5.7,1.1.9,2.9.9,7.7s-.2,4-.8,5.3c-.6,1.3-2.1,2.3-3.6,2.6-.9.2-1,.2-3.8.2v-4.3c.4,0,.6,0,.8,0,2.1,0,2.7-.9,2.7-3.7s-.1-3.8-.3-4.1c-.2-.4-.6-.5-1.2-.6q-.2,0-1.4,0c-1.1,5.1-2.2,9-3.4,12.7h-4.8c2.1-5.1,2.9-7.8,3.9-12.7h-3.9v-4.5h4.6ZM232.5,16.6v4.1h-2.5v-4.1h2.5ZM235.6,21.5c1.7,3,2,5,2,11.3v1.8h-4.5c0-1.5.1-2.2.1-3.5,0-4.8-.1-5.4-2.1-9.6h4.4ZM235.8,16.6v4.1h-2.5v-4.1h2.5Z"/>
    <path class="st0" d="M240.8,35.9c1.7-.7,2.5-1.7,2.5-3.1v-4.2h-2.2v-3.5h6v8.7c0,1,.1,1.3.7,1.8v-4.3c.8-1.2,1-2.3,1-5.6v-3.5h-1v-3.1h2.7v-2.4h3.5v2.4h2.2v3.1h-4v1.4h3.9c0,2,0,2.3,0,3.8h2.4v-.3l1.3-1.7h-3v-3h7.4v2.5l-1.8,2.5h2.3v3.2h-2.7v1.4c0,2.8-.6,3.5-3.1,3.5h-2v-3.2h1.5v-1.6h-2.5c-.1,1.7-.3,2.4-.5,3-.3,1-1.7,1.8-3.1,1.8h-1v-3.2h.6c.9.1,1-.3,1-5.5h-.9c-.3,5.5-1.1,7.4-4,9,.7.4,1,.5,2.6.5h14.3v3.6h-14.1c-3.4,0-4.4-.4-5.9-2.2-1,1.4-2.2,2.2-4,2.8v-4.6ZM241.6,17.2c2.2.6,3.4.9,5.6,1.6v4.1c-2.9-1-3.8-1.3-5.6-1.8v-3.9ZM257.7,16.8h3.7l-.7,1.8h3.7v2.9h-8.1l1.5-4.8Z"/>
    <path class="st0" d="M272.6,22.7l.5-.9c.8-1.6.9-1.7,1.5-2.3.9-.8,2.1-1.2,3.6-1.2s2.6.4,3.7,1.8c.7.9.9,1.4,2.2,4l7.6,15.5h-5.5l-6.4-14.2c-1-2.1-1.1-2.3-1.8-2.3s-.7,0-2,2.7l-3.3,7.6h-5.3l5.3-10.7ZM286.9,17.6v4h-2.4v-4h2.4ZM290.1,17.6v4h-2.4v-4h2.4Z"/>
    <path class="st0" d="M298,21.8v-4h16v3.8l-6.1,3.7c1.2-.2,1.7-.2,2.3-.2,3.8,0,6.8,2.9,6.8,6.6s-1,4.7-2.6,6.2c-1.8,1.6-4.4,2.4-8.1,2.4-5.5,0-8.4-1.7-8.4-4.9s2.3-4.7,5.4-4.7,5.3,1.8,5.3,4.2,0,.7,0,1.1c1.7-.2,2.5-.5,3.1-1.3.5-.7.9-1.7.9-2.7,0-2.3-1.6-3.5-4.5-3.5s-4.9.5-7.7,1.7c-2.1.9-3.1,1.5-4.7,2.7v-4.5c.2-.2.8-.5.9-.5.9-.5,1.7-1,2.6-1.5.6-.3,1.5-.9,2.5-1.5,2.8-1.6,3.1-1.8,5.8-3.3l-9.2.2ZM304.6,36.5c-.2-1.4-.7-1.9-1.7-1.9s-.9.2-.9.7c0,.7.9,1.3,2,1.3h.5Z"/>
    <path class="st0" d="M322.1,23.5v-4.2h5.7v-2.4h4.4v2.4h4.5v4.1h-4.5v1.4c.7,0,1.2,0,1.5,0,6,0,9.7,3,9.7,7.6s-.9,4.3-2.5,5.6c-1.7,1.3-4.2,2.1-6.5,2.1s-.5,0-.8,0v-4.3c2.2,0,3-.2,3.8-.9.7-.7,1.2-1.6,1.2-2.7s-.2-1.2-.4-1.6c-.9-1.1-2.8-1.9-4.6-1.9s-.8,0-1.4.1v6.1c0,1.8-.2,2.9-.6,3.6-.5.9-1.6,1.4-3.2,1.4-4.6,0-7.5-2.7-7.5-6.8s1.1-4.4,3.1-6.1c1-.8,1.7-1.2,4.1-2v-1.7h-5.8ZM327.8,29.8c-.9.3-1.3.5-1.7,1-.5.7-.9,1.6-.9,2.4,0,1.2.9,2.3,1.9,2.3s.7-.3.7-1.6v-4.2ZM341.4,18.4c1.2,2.6,1.5,3.2,2,5.3h-4.4c-.7-2.4-.8-2.8-1.9-5.3h4.3Z"/>
    <path class="st0" d="M357.3,18.4v-1.9h4.4v1.9h8.9v3.8h-18.1v8.3c0,5.3-1.7,8-5.5,9v-4.6c1-.9,1.4-1.8,1.4-4v-12.6h8.9ZM353,29.7h5.3v-6.8h4.6v1.4h7.3v3.5h-7.3v1.9h7.3v6.8c0,2.6-.9,3.4-3.7,3.4h-13.5v-10.2ZM365.7,36.3v-3.2h-8.6v3.2h8.6Z"/>
  </g>
</svg>