<?xml version="1.0" encoding="utf-8"?><svg version="1.1" xmlns="http://www.w3.org/2000/svg" xmlns:xlink="http://www.w3.org/1999/xlink" width="70" height="100" viewBox="0 0 70 100" xml:space="preserve"><path fill="#888888" d="M66.15,63.14c-4.78,0-9.41-0.78-13.73-2.18c-1.36-0.47-2.88-0.12-3.93,0.93l-6.11,7.66C31.38,64.31,21.08,54.39,15.59,43l7.58-6.46c1.05-1.09,1.36-2.61,0.93-3.97c-1.44-4.32-2.18-8.94-2.18-13.73c0-2.1-1.75-3.85-3.85-3.85H4.63C2.53,15,0,15.93,0,18.85C0,54.98,30.06,85,66.15,85c2.76,0,3.85-2.45,3.85-4.59V66.99C70,64.89,68.25,63.14,66.15,63.14z"/></svg>
