<?xml version="1.0" encoding="UTF-8"?>
<svg id="_レイヤー_1" data-name="レイヤー_1" xmlns="http://www.w3.org/2000/svg" width="152" height="43" version="1.1" viewBox="0 0 152 43">
  <!-- Generator: Adobe Illustrator 29.1.0, SVG Export Plug-In . SVG Version: 2.1.0 Build 142)  -->
  <defs>
    <style>
      .st0 {
        fill: #4d4f5e;
      }
    </style>
  </defs>
  <path class="st0" d="M16.02,27.22c3.66-.46,4.94-2.34,5.02-7.34h-4.46v-3.42h4.62v-3.48h3.5v3.48h7.98v7.58c.04,4.44-1.62,6.12-6.12,6.24h-1.9v-3.42h1.44c2.66-.04,3.04-.48,3.04-3.44v-3.54h-4.6c-.24,3.92-.86,6.12-2.2,7.68-1.62,1.9-3.56,2.84-6.32,3.06v-3.4Z"/>
  <path class="st0" d="M53.76,19.94v3.4h-16.38v-3.4h16.38Z"/>
  <path class="st0" d="M62.68,13.08v5.36l1.68.46c1.1.32,2.2.62,3.3.92.84.22,1.74.5,4.1,1.22v3.78c-2.14-.84-5-1.74-9.08-2.88v8.52h-3.7V13.08h3.7ZM69.48,12.98v3.04h-1.88v-3.04h1.88ZM71.98,12.98v3.04h-1.86v-3.04h1.86Z"/>
  <path class="st0" d="M75.6,17.2c2.68-.74,6.08-2.82,7.58-4.6h3.1c2.06,2.18,5.34,4.08,7.7,4.5v3.56c-1.32-.28-2.02-.5-3.26-1.06v.96h-4.12v1.78h5.84v2.82h-5.84v2.18h6.76v2.96h-17.28v-2.96h7v-2.18h-5.86v-2.82h5.86v-1.78h-4.4v-1.08c-1.28.58-1.92.8-3.08,1.1v-3.38ZM87.5,17.78c-.96-.78-1.36-1.16-2.58-2.4-.98.92-1.46,1.32-2.88,2.4h5.46Z"/>
  <path class="st0" d="M96.72,22.24v-2.64h7.44v-.62h-6.54v-2.34h6.54v-.72h-7.04v-2.48h7.04v-1.22h3.62v1.22h6.78v2.48h-6.78v.72h6.4v2.34h-6.4v.62h7.36v2.64h-7.62c.82.96.96,1.1,1.76,1.86l1-1.3h4.18l-2.6,2.9c1.7.82,2.08.96,3.26,1.2v3.46c-2.04-.36-4-1.1-5.5-2.08l-.02,1.82c-3.14.32-7.9.6-11.36.68v-3.08c1.26-.06,1.46-.06,2.82-.14v-1.8c-1.88.94-2.7,1.26-4.34,1.76v-3.18c2.08-.58,3.3-1.16,4.42-2.1h-4.42ZM104.56,27.46l2-.12c.66-.04.74-.04,1.56-.1-1.42-1.1-2.26-1.98-3.56-3.66v3.88Z"/>
  <path class="st0" d="M123.52,22.1c-.1,2.38-.42,3.82-1.1,4.9-.96,1.52-2.46,2.48-4.5,2.86v-3.4c1.86-.66,2.38-1.62,2.42-4.36h3.18ZM135.54,17.66v3.02h-6.66v6.4c.06,2.46-.94,3.5-3.4,3.54h-2.32v-3.3h2.26v-6.64h-7.02v-3.02h17.14ZM119.6,12.84h14.82v2.8h-14.82v-2.8ZM133.76,21.96c.18,2.7.76,3.84,2.22,4.42v3.54c-3.38-.42-5.28-3.26-5.32-7.96h3.1Z"/>
</svg>