<?xml version="1.0" encoding="UTF-8"?>
<svg id="_レイヤー_1" data-name="レイヤー_1" xmlns="http://www.w3.org/2000/svg" width="152" height="43" version="1.1" viewBox="0 0 152 43">
  <!-- Generator: Adobe Illustrator 29.1.0, SVG Export Plug-In . SVG Version: 2.1.0 Build 142)  -->
  <defs>
    <style>
      .st0 {
        fill: #4d4f5e;
      }
    </style>
  </defs>
  <path class="st0" d="M40.37,16.59v-3.4h3.42v3.4h4.96v-3.4h3.56v3.4h3.46v3.24h-3.46v2.34c.1,5.24-2.82,8.2-7.94,8.06h-4.24v-3.22h4.52c2.9.04,4.14-1.42,4.1-4.82v-2.36h-4.96v4.26h-3.42v-4.26h-3.32v-3.24h3.32Z"/>
  <path class="st0" d="M63.43,21.07v2.42c0,2.02-.34,3.46-1.02,4.44-1,1.42-2.36,2.18-4.06,2.26v-3.44c1.22-.2,1.78-1.14,1.82-3.1v-2.58h3.26ZM59.01,16.37h6.52v-3.12h3.52v3.12h1.46c.48.84,1.28,1.26,2.3,1.26s1.78-.42,2.36-1.26h.72v3.14h-6.84v11h-3.52v-11h-6.52v-3.14ZM75.19,14.77c0,1.3-1.06,2.36-2.36,2.36s-2.36-1.06-2.36-2.38,1.06-2.34,2.4-2.34c1.26,0,2.32,1.08,2.32,2.36ZM74.21,21.07v2.66c0,1.66.62,2.56,2.12,2.98v3.48c-3.66-.38-5.32-2.32-5.34-6.2v-2.92h3.22ZM71.91,14.77c0,.5.42.92.92.92s.92-.42.92-.94-.42-.92-.94-.92c-.48,0-.9.42-.9.94Z"/>
  <path class="st0" d="M96.65,20.03v3.4h-16.38v-3.4h16.38Z"/>
  <path class="st0" d="M105.65,12.87v5.34c4.66,1.12,6.36,1.6,9.3,2.62v3.7c-2.68-.98-5.2-1.72-9.3-2.72v8.78h-3.66V12.87h3.66Z"/>
</svg>