<?xml version="1.0" encoding="UTF-8"?>
<svg id="_レイヤー_1" xmlns="http://www.w3.org/2000/svg" width="152" height="43" version="1.1" xmlns:xlink="http://www.w3.org/1999/xlink" viewBox="0 0 152 43">
  <!-- Generator: Adobe Illustrator 29.1.0, SVG Export Plug-In . SVG Version: 2.1.0 Build 142)  -->
  <defs>
    <style>
      .st0 {
        fill: #fff;
      }

      .st1 {
        fill: url(#_名称未設定グラデーション_194);
      }
    </style>
    <linearGradient id="_名称未設定グラデーション_194" data-name="名称未設定グラデーション 194" x1="0" y1="21.5" x2="152" y2="21.5" gradientUnits="userSpaceOnUse">
      <stop offset="0" stop-color="#4ac3ff"/>
      <stop offset=".49" stop-color="#80a1ff"/>
      <stop offset="1" stop-color="#6a91ff"/>
    </linearGradient>
  </defs>
  <path class="st1" d="M131.99,43H.28S0,20,0,20C0,8.95,8.95,0,20,0h132s-.01,23-.01,23c0,11.04-8.95,20-20,20Z"/>
  <path class="st0" d="M40.37,16.59v-3.4h3.42v3.4h4.96v-3.4h3.56v3.4h3.46v3.24h-3.46v2.34c.1,5.24-2.82,8.2-7.94,8.06h-4.24v-3.22h4.52c2.9.04,4.14-1.42,4.1-4.82v-2.36h-4.96v4.26h-3.42v-4.26h-3.32v-3.24s3.32,0,3.32,0Z"/>
  <path class="st0" d="M63.43,21.07v2.42c0,2.02-.34,3.46-1.02,4.44-1,1.42-2.36,2.18-4.06,2.26v-3.44c1.22-.2,1.78-1.14,1.82-3.1v-2.58h3.26ZM59.01,16.37h6.52v-3.12h3.52v3.12h1.46c.48.84,1.28,1.26,2.3,1.26s1.78-.42,2.36-1.26h.72v3.14h-6.84v11h-3.52v-11h-6.52s0-3.14,0-3.14ZM75.19,14.77c0,1.3-1.06,2.36-2.36,2.36s-2.36-1.06-2.36-2.38,1.06-2.34,2.4-2.34c1.26,0,2.32,1.08,2.32,2.36ZM74.21,21.07v2.66c0,1.66.62,2.56,2.12,2.98v3.48c-3.66-.38-5.32-2.32-5.34-6.2v-2.92s3.22,0,3.22,0ZM71.91,14.77c0,.5.42.92.92.92s.92-.42.92-.94-.42-.92-.94-.92c-.48,0-.9.42-.9.94Z"/>
  <path class="st0" d="M96.65,20.03v3.4h-16.38v-3.4h16.38Z"/>
  <path class="st0" d="M105.65,12.87v5.34c4.66,1.12,6.36,1.6,9.3,2.62v3.7c-2.68-.98-5.2-1.72-9.3-2.72v8.78h-3.66V12.87h3.66Z"/>
</svg>