<svg xmlns="http://www.w3.org/2000/svg" viewBox="0 0 192 192" style="enable-background:new 0 0 192 192" xml:space="preserve"><path style="fill:#fff" d="M0 0h192v192H0z"/><path d="M170.8 51.6H21.2c-5 0-9.1 4.1-9.1 9.1v61.6c0 2.7 1.1 5.3 3 7.2l22 22v-11.1h133.7c5 0 9.1-4.1 9.1-9.1V60.7c0-5.1-4.1-9.1-9.1-9.1zM172 133H37.1v7.4L20 123.3V59h152v74z" style="fill:#e60000"/><path d="M107.9 102.2v21.1h-5.1v-15.5s-4.4 6.2-5.8 8.3c-1.2 1.6-3.6 1.6-4.7 0-1.5-2.1-5.8-8.3-5.8-8.3v15.5h-5.1v-21.1c0-1.1.5-2.1 1.4-2.7 1.4-1 3.4-.6 4.4.8 1.9 2.7 7.5 10.7 7.5 10.7s5.6-8 7.5-10.7c1-1.4 3-1.8 4.4-.8.8.6 1.3 1.6 1.3 2.7zm-60 12.5s-7.6-10.8-10.1-14.4c-1-1.4-3-1.8-4.5-.8-.9.6-1.4 1.6-1.4 2.7v21.2H37v-15.5s7.6 10.8 10.1 14.4c1 1.4 3 1.8 4.5.8.9-.6 1.4-1.6 1.4-2.7V99.2h-5.1v15.5zm77.4-11.7c2.5 0 4.7 1.1 6.3 2.8l2.9-4c-2.4-2-5.7-3.1-9.2-3.1-7.4 0-13.8 5-13.8 12.6s6.4 12.6 13.8 12.6c3.5 0 6.8-1.1 9.2-3.1l-2.9-4c-1.6 1.7-3.8 2.8-6.3 2.8-4.7 0-8-3.7-8-8.2 0-4.7 3.3-8.4 8-8.4zm37.1 8.2c0 7.6-6.2 12.6-13.4 12.6s-13.4-5-13.4-12.6 6.2-12.6 13.4-12.6c7.2.1 13.4 5 13.4 12.6zm-5.7 0c0-4.5-3.1-8.2-7.7-8.2s-7.7 3.7-7.7 8.2c0 4.5 3.1 8.2 7.7 8.2s7.7-3.7 7.7-8.2zm-86.1-9.9c2.2 5.5 8.9 22 8.9 22H74l-2.2-5.5H62l-2.2 5.5h-5.4s6.7-16.5 8.9-22c.7-1.7 2.1-2.6 3.6-2.6 1.6 0 3 .8 3.7 2.6zm-.3 12.4-3.3-8.4-3.3 8.4h6.6zM53.9 86.3c0 3.4-2.5 6.5-6.7 6.5H34c-1.2 0-2.1-.9-2.1-2.1v-20c0-1.2.9-2.1 2.1-2.1h11.7c4 0 6.8 2.7 6.8 6 0 2.7-1.9 5-4.4 5.7 3.3.3 5.8 2.8 5.8 6zm-16.8-7.8h6.7c1.9 0 3.1-1.2 3.1-2.7 0-1.5-1.2-2.7-3.1-2.7h-6.7v5.4zm11.2 7.1c0-1.6-1.3-3-3.3-3h-7.9v5.9H45c2 0 3.3-1.3 3.3-2.9zm38.1-8.3S94 88.1 96.5 91.7c1 1.4 3 1.8 4.5.8.9-.6 1.4-1.6 1.4-2.7V68.6h-5.1v15.6s-7.6-10.8-10.1-14.4c-1-1.4-3-1.8-4.5-.8-.9.6-1.4 1.6-1.4 2.7v21.2h5.1V77.3zm73.7-8.6h-5.3v24.2h5.3V68.7zm-44 24.2h-6.8c-1.2 0-2.1-.9-2.1-2.1v-20c0-1.2.9-2.1 2.1-2.1h6.9c6.6 0 12.4 3.8 12.4 12 0 7.9-5.9 12.2-12.5 12.2zm-1.2-4.4c4.3 0 8-2.2 8-7.8 0-5.8-4.3-7.6-7.9-7.6h-2.7v15.5h2.6zM70.6 70.9c2.2 5.5 8.9 22 8.9 22H74l-2.2-5.5H62l-2.2 5.5h-5.4s6.7-16.5 8.9-22c.7-1.7 2.1-2.6 3.6-2.6 1.6-.1 3 .8 3.7 2.6zm-.3 12.3L67 74.8l-3.3 8.4h6.6zm57.7 9.7s6.7-16.5 8.9-22c.7-1.7 2.1-2.6 3.6-2.6s2.9.9 3.6 2.6c2.2 5.5 8.9 22 8.9 22h-5.5l-2.2-5.5h-9.9l-2.2 5.5H128zm9.2-9.7h6.6l-3.3-8.4-3.3 8.4z"/></svg>