<?xml version="1.0" encoding="UTF-8"?>
<svg id="l" xmlns="http://www.w3.org/2000/svg" version="1.1" xmlns:xlink="http://www.w3.org/1999/xlink" viewBox="0 0 199 62">
  <!-- Generator: Adobe Illustrator 29.1.0, SVG Export Plug-In . SVG Version: 2.1.0 Build 142)  -->
  <defs>
    <style>
      .st0 {
        fill: url(#_名称未設定グラデーション_131);
      }
    </style>
    <linearGradient id="_名称未設定グラデーション_131" data-name="名称未設定グラデーション 131" x1=".32" y1="31" x2="198.68" y2="31" gradientUnits="userSpaceOnUse">
      <stop offset="0" stop-color="#ff8ad5"/>
      <stop offset="1" stop-color="#ff4ebf"/>
    </linearGradient>
  </defs>
  <path class="st0" d="M.47,1.11l15.12.04-.14,59.2-15.12-.04L.47,1.11Z"/>
  <path class="st0" d="M30.31,1.18l19.6.05c6.64.02,18.48.04,26.13,11.1,4.07,5.61,5.41,11.93,5.4,18.41-.04,16.16-8.07,29.74-30.55,29.69l-20.72-.05.14-59.2ZM45.32,47.14l6.48.02c11.28.03,14.5-7.81,14.52-16.21,0-3.36-.7-7.6-2.85-10.97-1.75-2.64-4.79-5.45-11.51-5.47l-6.56-.02-.08,32.64Z"/>
  <path class="st0" d="M91.03,31.56c.05-19.36,14.96-31.32,31.28-31.29,18.24.04,31.25,14.32,31.21,30.8-.04,16.48-13.03,30.69-31.43,30.65-18.64-.04-31.08-14.88-31.05-30.08v-.08ZM106.15,30.88c-.02,9.04,6.12,17.54,16.28,17.56,10.72.03,15.94-9.72,15.96-17.32.02-7.68-5.16-17.53-16.04-17.56-10.48-.03-16.18,8.92-16.2,17.24v.08Z"/>
  <path class="st0" d="M166.15,1.51l15.12.04-.11,45.92,17.52.04-.03,13.28-32.64-.08.14-59.2Z"/>
</svg>