<?xml version="1.0" encoding="UTF-8"?>
<svg id="l" xmlns="http://www.w3.org/2000/svg" version="1.1" viewBox="0 0 104 22">
  <!-- Generator: Adobe Illustrator 29.1.0, SVG Export Plug-In . SVG Version: 2.1.0 Build 142)  -->
  <defs>
    <style>
      .st0 {
        fill: #231815;
      }
    </style>
  </defs>
  <path class="st0" d="M.3.95l19.61.05v5.28c.05,3.98-2.24,6.21-6.53,6.3h-1.73c-.1,3.64-.44,4.89-1.67,6.42-1.28,1.51-3.1,2.3-5.24,2.27H.27s0-3.9,0-3.9h3.05c3.22.04,4.01-.77,4.02-4.14v-4.54s5.84.01,5.84.01c1.87-.07,2.57-.76,2.6-2.59v-1.06s-15.5-.04-15.5-.04V.95Z"/>
  <path class="st0" d="M28.86,10.16l13.26-6.18c1.75-.84,2.12-1.34,2.12-2.92V.41s4.39.01,4.39.01v.94c.06,2.4-.92,4.1-3.04,5.18l-3.68,1.84-.03,13.08h-4.44s.03-10.84.03-10.84l-8.63,4.28v-4.73Z"/>
  <path class="st0" d="M62.65.67l-.02,6.43,2.01.56c1.32.39,2.64.75,3.96,1.11,1.01.27,2.09.61,4.92,1.48v4.54c-2.58-1.01-6.01-2.1-10.9-3.48l-.02,10.22h-4.44s.05-20.87.05-20.87h4.44ZM70.81.57v3.65s-2.27,0-2.27,0V.56s2.27,0,2.27,0ZM73.81.57v3.65s-2.24,0-2.24,0V.57s2.24,0,2.24,0Z"/>
  <path class="st0" d="M89.1.73l-.03,10.44c.08,6.1-2.52,9.81-7.32,10.42v-4.56c2.34-.69,3.09-1.98,3.24-5.49l.03-10.82h4.08ZM91.74.74h4.15s-.04,15.83-.04,15.83c3.34-.16,3.77-.76,3.83-5.44v-5.62s4.04,0,4.04,0v6.19c-.02,4.03-.51,5.83-1.98,7.22-1.54,1.41-3.29,1.94-6.44,1.95h-3.62s.05-20.15.05-20.15Z"/>
</svg>