<?xml version="1.0" encoding="UTF-8"?>
<svg id="_2024_rn" data-name="2024_rn" xmlns="http://www.w3.org/2000/svg" xmlns:xlink="http://www.w3.org/1999/xlink" viewBox="0 0 40 40">
  <defs>
    <linearGradient id="_名称未設定グラデーション_21" data-name="名称未設定グラデーション 21" x1="20" y1="32.5" x2="20" y2="9.27" gradientUnits="userSpaceOnUse">
      <stop offset="0" stop-color="#ffa73d"/>
      <stop offset="1" stop-color="#ff8b00"/>
    </linearGradient>
  </defs>
  <g id="c-game">
    <path d="M31.86,33.5c-3.16,0-5.57-4.55-6.47-6.51-.23-.52-.79-.85-1.42-.85h-7.95c-.63,0-1.19.33-1.43.85-.89,1.96-3.3,6.51-6.47,6.51-2.02,0-3.69-1.78-4.98-5.3C-.42,18.43,4.56,11.69,8.07,9.25c.94-.65,1.97-.98,3.07-.98.55,0,1.1.08,1.7.24,1.41.38,2.37.69,3.13.94,1.56.5,2.14.69,4.03.69s2.47-.19,4.03-.69c.77-.25,1.72-.55,3.13-.94.6-.16,1.15-.24,1.7-.24,1.1,0,2.13.33,3.07.98,3.51,2.44,8.5,9.18,4.92,18.95-1.29,3.52-2.96,5.3-4.98,5.3h0Z" style="fill: #fff; stroke-width: 0px;"/>
    <path d="M31.36,10.07c-1.36-.95-2.72-.93-3.93-.6-4.33,1.18-4.41,1.66-7.42,1.66s-3.1-.49-7.42-1.66c-1.21-.33-2.57-.35-3.93.6-2.34,1.63-8.24,7.71-4.55,17.78,3.12,8.52,7.36,3.64,9.6-1.28.4-.87,1.32-1.43,2.34-1.43h7.95c1.02,0,1.94.56,2.34,1.43,2.24,4.92,6.48,9.79,9.6,1.28,3.69-10.07-2.21-16.16-4.55-17.78ZM15,19.4h-3.13v2.91h-2.32v-2.91h-3.13v-2.16h3.13v-2.91h2.32v2.91h3.13v2.16ZM25.79,19.77c-.86,0-1.55-.65-1.55-1.44s.69-1.44,1.55-1.44,1.55.65,1.55,1.44-.69,1.44-1.55,1.44ZM28.92,22.67c-.86,0-1.55-.65-1.55-1.44s.69-1.44,1.55-1.44,1.55.65,1.55,1.44-.69,1.44-1.55,1.44ZM28.92,16.86c-.86,0-1.55-.65-1.55-1.44s.69-1.44,1.55-1.44,1.55.65,1.55,1.44-.69,1.44-1.55,1.44ZM32.04,19.77c-.86,0-1.55-.65-1.55-1.44s.69-1.44,1.55-1.44,1.55.65,1.55,1.44-.69,1.44-1.55,1.44Z" style="fill: url(#_名称未設定グラデーション_21); stroke-width: 0px;"/>
  </g>
</svg>