<?xml version="1.0" encoding="UTF-8"?>
<svg id="_2024_rn" data-name="2024_rn" xmlns="http://www.w3.org/2000/svg" xmlns:xlink="http://www.w3.org/1999/xlink" viewBox="0 0 40 40">
  <defs>
    <linearGradient id="_名称未設定グラデーション_21" data-name="名称未設定グラデーション 21" x1="20" y1="34.59" x2="20" y2="5.41" gradientUnits="userSpaceOnUse">
      <stop offset="0" stop-color="#ffa73d"/>
      <stop offset="1" stop-color="#ff8b00"/>
    </linearGradient>
  </defs>
  <g id="c-goods">
    <g>
      <path d="M36.14,20.41l-5.68-3.67c.15.02.3.03.45.03,1.39,0,2.67-.71,3.42-1.89,1.2-1.89.64-4.42-1.23-5.63-.65-.42-1.41-.64-2.18-.64-.98,0-1.89.35-2.62.97.45-1.68-.18-3.54-1.7-4.52-.65-.42-1.41-.65-2.18-.65-1.39,0-2.67.71-3.42,1.89-.85,1.35-.8,3.02-.03,4.31l-5.71-3.68c-.16-.11-.35-.16-.54-.16-.07,0-.14,0-.22.02-.26.06-.49.22-.63.44l-2.22,3.52c-.29.46-.16,1.08.3,1.37l.99.64h-1.82c-.55,0-1,.45-1,1v1.7h-1.67c-.55,0-1,.45-1,1v2.11c0,.55.45,1,1,1h1.67v1.7c0,.05.02.09.03.14h-.01c-.55,0-1,.45-1,1v9.23c0,2.17,1.75,3.93,3.9,3.93h7.27c.35,0,.65-.19.83-.47.18.28.47.47.83.47h7.27c2.15,0,3.9-1.76,3.9-3.93v-5.92c.08.02.16.03.24.03.07,0,.14,0,.22-.02.26-.06.49-.22.63-.44l2.22-3.52c.29-.46.16-1.08-.3-1.37Z" style="fill: #fff; fill-rule: evenodd; stroke-width: 0px;"/>
      <path d="M8.77,11.15v-.91h.89c.55,0,1-.45,1-1v-1.5c0-.55-.45-1-1-1h-.89v-.91c0-.55-.45-1-1-1h-1.48c-.55,0-1,.45-1,1v.91h-.89c-.55,0-1,.45-1,1v1.5c0,.55.45,1,1,1h.89v.91c0,.55.45,1,1,1h1.48c.55,0,1-.45,1-1Z" style="fill: #fff; fill-rule: evenodd; stroke-width: 0px;"/>
    </g>
    <path d="M21.84,6.84c.91-1.44,2.79-1.86,4.21-.94,1.41.91,1.83,2.8.95,4.23h0s-1.66,2.63-1.66,2.63l-2.6-1.68h0c-1.4-.93-1.8-2.82-.9-4.24ZM29.3,15.31h0c1.42.89,3.28.47,4.18-.96.91-1.44.49-3.34-.93-4.26-1.41-.91-3.28-.5-4.19.91h0s-1.66,2.63-1.66,2.63l2.6,1.68ZM24.46,14.06l-9.75-6.29-2.22,3.52,9.75,6.29,2.22-3.52ZM35.6,21.25l-9.75-6.29-2.22,3.52,6.12,3.95h-7.79v12.16h7.27c1.6,0,2.9-1.31,2.9-2.93v-7.69l1.24.8,2.22-3.52ZM10.14,31.66c0,1.62,1.3,2.93,2.9,2.93h7.27v-12.16h-10.17v9.23ZM13.21,13.77h-2.09v2.11h2.09v-2.11ZM13.21,19.17h-2.09v2.11h2.09v-2.11ZM15.88,18.58v-2.11h-2.09v2.11h2.09ZM10.54,16.47h-2.09v2.11h2.09v-2.11ZM6.29,7.33h1.48v-1.5h-1.48v1.5ZM6.29,11.15h1.48v-1.5h-1.48v1.5ZM9.66,7.74h-1.48v1.5h1.48v-1.5ZM4.4,9.24h1.48v-1.5h-1.48v1.5Z" style="fill: url(#_名称未設定グラデーション_21); fill-rule: evenodd; stroke-width: 0px;"/>
  </g>
</svg>