<?xml version="1.0" encoding="UTF-8"?>
<svg id="_2024_rn" data-name="2024_rn" xmlns="http://www.w3.org/2000/svg" xmlns:xlink="http://www.w3.org/1999/xlink" viewBox="0 0 40 40">
  <defs>
    <linearGradient id="_名称未設定グラデーション_21" data-name="名称未設定グラデーション 21" x1="20" y1="34.02" x2="20" y2="5.98" gradientUnits="userSpaceOnUse">
      <stop offset="0" stop-color="#ffa73d"/>
      <stop offset="1" stop-color="#ff8b00"/>
    </linearGradient>
  </defs>
  <g id="c-music">
    <path d="M32.59,7.41c-1.57-1.56-3.65-2.42-5.86-2.42-1.83,0-3.63.61-5.07,1.72-.23.18-.37.44-.39.73-.01.18.04.36.13.52-.14-.07-.29-.13-.46-.13-.02,0-.04,0-.06,0-.29.02-.55.16-.73.39-1.59,2.05-2.07,4.65-1.49,7.03-.08-.04-.17-.08-.26-.09-.06-.01-.13-.02-.19-.02-.29,0-.57.12-.76.35l-8.34,9.69c-.74.86-.81,2.09-.26,3.03-.03.02-.06.03-.09.06l-3.49,3.48c-.19.19-.29.44-.29.71s.11.52.29.71l1.56,1.56c.2.19.45.29.71.29s.51-.1.71-.29l3.49-3.48s.04-.07.07-.1c.39.22.82.34,1.28.34h0c.62,0,1.23-.22,1.7-.63l9.7-8.32c.27-.23.4-.6.33-.95-.02-.09-.05-.18-.09-.26.64.16,1.3.24,1.97.24,1.83,0,3.63-.61,5.07-1.72.23-.18.37-.44.39-.73.01-.18-.04-.36-.13-.51.14.07.29.12.46.12.02,0,.04,0,.06,0,.29-.02.55-.16.73-.39,2.54-3.29,2.24-7.98-.7-10.92Z" style="fill: #fff; stroke-width: 0px;"/>
    <path d="M32.5,17.72l-10.23-10.22c2.86-2.21,6.99-2.01,9.62.62,2.63,2.62,2.83,6.74.62,9.6ZM21.55,18.43c2.63,2.62,6.75,2.82,9.62.62l-10.23-10.22c-2.21,2.86-2.01,6.98.62,9.6ZM18.2,16.14l-8.34,9.69c-.55.64-.51,1.6.08,2.19l2,1.99c.6.6,1.56.63,2.2.08l9.7-8.33c-1.27-.43-2.47-1.14-3.49-2.15-1.01-1.01-1.73-2.21-2.15-3.48ZM5.99,32.45l1.56,1.56,3.49-3.48-1.56-1.56-3.49,3.48Z" style="fill: url(#_名称未設定グラデーション_21); stroke-width: 0px;"/>
  </g>
</svg>