<?xml version="1.0" encoding="UTF-8"?>
<svg id="_2024_rn" data-name="2024_rn" xmlns="http://www.w3.org/2000/svg" xmlns:xlink="http://www.w3.org/1999/xlink" viewBox="0 0 40 40">
  <defs>
    <linearGradient id="_名称未設定グラデーション_21" data-name="名称未設定グラデーション 21" x1="20.48" y1="34.9" x2="20.48" y2="5.9" gradientUnits="userSpaceOnUse">
      <stop offset="0" stop-color="#ffa73d"/>
      <stop offset="1" stop-color="#ff8b00"/>
    </linearGradient>
  </defs>
  <path d="M35.08,5.4c-.24,0-.48.03-.71.07-.16-.33-.5-.57-.89-.57H9.7c-1.48,0-2.68,1.19-2.68,2.65v21.31H2.97c-.55,0-1,.45-1,1v2.87c0,1.75,1.44,3.18,3.22,3.18h21.13c.53,0,.96-.41.99-.94.07,0,.14.02.21.02h2.05c1.48,0,2.68-1.19,2.68-2.65,0,0,0-13.23,0-19.9h5.74c.55,0,1-.45,1-1v-2.08s0-.06,0-.09c0-2.13-1.76-3.87-3.92-3.87Z" style="fill: #fff; stroke-width: 0px;"/>
  <g id="c-news">
    <path d="M35.08,6.4c-1.61,0-2.92,1.28-2.92,2.86h0v2.18h5.84v-2.18h0c0-1.58-1.31-2.86-2.92-2.86ZM23.39,31.66v-1.81s-20.43,0-20.43,0v2.86c0,1.2.99,2.18,2.22,2.18h21.13c-1.37-.12-2.92-1.55-2.92-3.24ZM33.48,5.99v-.09H9.7c-.93,0-1.68.74-1.68,1.65v21.39h16.58v2.18c0,1.58,1.3,2.86,2.92,2.86h2.05c.93,0,1.68-.74,1.68-1.65V8.77h0c0-1.35.95-2.47,2.23-2.77ZM19.61,25.31h-7.19c-.75,0-1.37-.6-1.37-1.34s.61-1.34,1.37-1.34h7.19c.75,0,1.37.6,1.37,1.34s-.61,1.34-1.37,1.34ZM26.12,19.42h-13.71c-.75,0-1.37-.6-1.37-1.34s.61-1.34,1.37-1.34h13.71c.75,0,1.37.6,1.37,1.34s-.61,1.34-1.37,1.34ZM26.12,13.53h-13.71c-.75,0-1.37-.6-1.37-1.34s.61-1.34,1.37-1.34h13.71c.75,0,1.37.6,1.37,1.34s-.61,1.34-1.37,1.34Z" style="fill: url(#_名称未設定グラデーション_21); stroke-width: 0px;"/>
  </g>
</svg>