<?xml version="1.0" encoding="UTF-8"?>
<svg id="_2024_rn" data-name="2024_rn" xmlns="http://www.w3.org/2000/svg" xmlns:xlink="http://www.w3.org/1999/xlink" viewBox="0 0 40 40">
  <defs>
    <linearGradient id="_名称未設定グラデーション_21" data-name="名称未設定グラデーション 21" x1="20" y1="34.61" x2="20" y2="5.39" gradientUnits="userSpaceOnUse">
      <stop offset="0" stop-color="#ffa73d"/>
      <stop offset="1" stop-color="#ff8b00"/>
    </linearGradient>
  </defs>
  <g id="c-radio">
    <path d="M7.73,35.61c-1.88,0-3.42-1.53-3.42-3.41v-15.05c0-1.88,1.53-3.41,3.42-3.41h14.62l-12.69-5.49c-.49-.21-.88-.61-1.07-1.11-.2-.5-.19-1.05.03-1.54.32-.74,1.04-1.21,1.85-1.21.28,0,.54.05.8.17l21.26,9.2c1.77.13,3.17,1.6,3.17,3.4v15.05c0,1.88-1.53,3.41-3.41,3.41H7.73Z" style="fill: #fff; stroke-width: 0px;"/>
    <path d="M32.27,14.74h0S10.86,5.47,10.86,5.47c-.51-.22-1.11.01-1.34.53-.22.51.01,1.11.53,1.33l17.13,7.41H7.73c-1.33,0-2.41,1.08-2.41,2.41v15.05c0,1.33,1.08,2.41,2.41,2.41h24.53c1.33,0,2.41-1.08,2.41-2.41v-15.05c0-1.33-1.08-2.41-2.41-2.41ZM14.58,19.05c1.8,0,3.4.8,4.46,2.06h-8.93c1.06-1.26,2.66-2.06,4.46-2.06ZM14.58,30.31c-1.8,0-3.4-.8-4.46-2.06h8.93c-1.06,1.26-2.66,2.06-4.46,2.06ZM20.21,25.9h-11.26c-.09-.39-.14-.8-.14-1.23s.05-.83.14-1.23h11.26c.09.39.14.8.14,1.23s-.05.83-.14,1.23ZM30.28,24.68h-5.3c-.5,0-.91-.4-.91-.89s.41-.89.91-.89h5.3c.5,0,.91.4.91.89s-.41.89-.91.89ZM31.19,19.93c0,.49-.41.89-.91.89h-5.3c-.5,0-.91-.4-.91-.89h0c0-.49.41-.89.91-.89h5.3c.5,0,.91.4.91.89h0Z" style="fill: url(#_名称未設定グラデーション_21); stroke-width: 0px;"/>
  </g>
</svg>