<?xml version="1.0" encoding="utf-8"?>
<!-- Generator: Adobe Illustrator 28.1.0, SVG Export Plug-In . SVG Version: 6.00 Build 0)  -->
<svg version="1.1" id="レイヤー_1" xmlns="http://www.w3.org/2000/svg" xmlns:xlink="http://www.w3.org/1999/xlink" x="0px"
	 y="0px" viewBox="0 0 100 100" style="enable-background:new 0 0 100 100;" xml:space="preserve">
<style type="text/css">
	.st0{fill:#FFFFFF;}
</style>
<path class="st0" d="M90.49,22.17c0,1.93-1.57,3.5-3.5,3.5h-19.2L59.5,63.58c-0.35,1.61-1.77,2.75-3.42,2.75H20.64
	c-1.93,0-3.5-1.57-3.5-3.5s1.57-3.5,3.5-3.5h32.62l0.41-1.89H18.52c-1.63,0-3.05-1.13-3.41-2.73L9.6,30.43
	c-0.24-1.04,0.01-2.13,0.68-2.96s1.67-1.32,2.73-1.32h47.5l1.03-4.73c0.35-1.61,1.77-2.75,3.42-2.75h22.02
	C88.92,18.67,90.49,20.23,90.49,22.17z M24.88,69.47c-3.28,0-5.93,2.66-5.93,5.93s2.66,5.93,5.93,5.93c3.28,0,5.93-2.66,5.93-5.93
	S28.15,69.47,24.88,69.47z M52.97,69.47c-3.28,0-5.93,2.66-5.93,5.93s2.66,5.93,5.93,5.93c3.28,0,5.93-2.66,5.93-5.93
	S56.25,69.47,52.97,69.47z"/>
</svg>
