<?xml version="1.0" encoding="UTF-8"?>
<svg id="_レイヤー_1" data-name=" レイヤー 1" xmlns="http://www.w3.org/2000/svg" version="1.1" viewBox="0 0 820 60">
  <defs>
    <style>
      .cls-1 {
        fill: #000;
        stroke-width: 0px;
      }
    </style>
  </defs>
  <text/>
  <path class="cls-1" d="M17.5,38.3h12.4v6.4H10.1V13.9h7.4v24.4ZM36.9,44.7h7.6V13.9h-7.6v30.8ZM67.4,32.3l-7.5-18.4h-8.7l16.2,32.7,16.2-32.7h-8.7l-7.5,18.4ZM95.2,13.9h-4.9v30.8h20.5v-6.1h-13.3v-7.1h12.5v-6h-12.5v-5.5h13.3v-6.1h-15.5ZM157.3,29.8c-.7-.8-1.5-1.4-2.5-2-.9-.5-2-1-3-1.4-1.4-.5-2.7-1-3.7-1.4-1-.4-1.8-.9-2.3-1.5-.5-.5-.8-1.1-.8-1.8s.3-1.2.8-1.7c.6-.5,1.4-.7,2.4-.7s1.5.2,2.2.5c.7.3,1.3.7,1.9,1.3s1.1,1.2,1.5,1.9l5.7-3.2c-.5-1.1-1.3-2.1-2.3-3.1-1-1-2.3-1.9-3.8-2.6-1.5-.7-3.3-1-5.3-1s-3.8.3-5.4,1c-1.6.7-2.9,1.7-3.9,3-1,1.3-1.4,2.9-1.4,4.7s.3,2.8.8,3.9c.6,1.1,1.3,2,2.1,2.7s1.8,1.4,2.7,1.8c1,.5,1.8.8,2.5,1.1,1.5.6,2.7,1.1,3.6,1.5.9.4,1.6.9,2,1.4.4.5.6,1.1.6,1.9s-.4,1.7-1.1,2.2c-.7.5-1.6.8-2.7.8s-2-.2-2.9-.7c-.9-.4-1.8-1.1-2.6-1.9-.8-.8-1.5-1.8-2.1-2.9l-5.2,3.7c.7,1.5,1.7,2.8,2.9,4,1.3,1.2,2.8,2.2,4.5,2.9,1.7.7,3.6,1.1,5.6,1.1s2.8-.2,4.2-.6,2.6-1,3.7-1.9c1.1-.8,1.9-1.8,2.6-3.1.6-1.2.9-2.6.9-4.2s-.2-2.4-.6-3.4c-.4-1-1-1.9-1.7-2.6ZM165,20.5h8.4v24.2h7.4v-24.2h8.5v-6.6h-24.4v6.6ZM213.3,33l8,11.6h-8.7l-6.6-10.7h-2.2v10.7h-7.4V13.9h11.2c2.6,0,4.8.4,6.6,1.3s3.1,2,4,3.5,1.4,3.3,1.4,5.3-.5,3.7-1.4,5.2-2.2,2.7-4,3.5c-.3.1-.5.2-.8.3ZM203.8,28.2h3.3c1,0,1.9-.2,2.6-.5.7-.3,1.3-.8,1.6-1.4.4-.6.6-1.3.6-2.2s-.2-1.6-.6-2.2c-.4-.6-.9-1.1-1.6-1.4-.7-.3-1.6-.5-2.6-.5h-3.3v8.1ZM233.2,13.9h-4.9v30.8h20.5v-6.1h-13.3v-7.1h12.5v-6h-12.5v-5.5h13.3v-6.1h-15.5ZM271.2,11.9l16.2,32.7h-8.4l-2.9-5.9h-9.8l-2.9,5.9h-8.4l16.2-32.7ZM271.2,25.2l-3.4,7.9h6.8l-3.4-7.9ZM310.5,31.1l-13.1-18.8-5,32.3h7.8l1.8-15.7,8.4,12.8,8.4-12.8,1.8,15.7h7.8l-5-32.3-13.2,18.8ZM341.9,13.9h-4.9v30.8h20.5v-6.1h-13.3v-7.1h12.5v-6h-12.5v-5.5h13.3v-6.1h-15.5ZM384,33l8,11.6h-8.7l-6.6-10.7h-2.2v10.7h-7.4V13.9h11.2c2.6,0,4.8.4,6.6,1.3s3.1,2,4,3.5,1.4,3.3,1.4,5.3-.5,3.7-1.4,5.2-2.2,2.7-4,3.5c-.3.1-.5.2-.8.3ZM374.4,28.2h3.3c1,0,1.9-.2,2.6-.5.7-.3,1.3-.8,1.6-1.4.4-.6.6-1.3.6-2.2s-.2-1.6-.6-2.2c-.4-.6-.9-1.1-1.6-1.4-.7-.3-1.6-.5-2.6-.5h-3.3v8.1ZM415.7,44.7h7.6V13.9h-7.6v30.8ZM458.8,21.1c1.3,2.3,2,5,2,8.2s-.7,5.9-2,8.2c-1.3,2.3-3.3,4.1-5.7,5.3-2.5,1.3-5.4,1.9-8.8,1.9h-11V13.9h11c3.4,0,6.3.6,8.8,1.9,2.5,1.3,4.4,3,5.7,5.3ZM453.1,29.3c0-1.7-.2-3.1-.7-4.2s-1.2-2-2-2.7-1.8-1.2-2.9-1.5c-1.1-.3-2.2-.4-3.4-.4h-3.1v17.6h3.1c1.2,0,2.3-.1,3.4-.4,1.1-.3,2.1-.8,2.9-1.5.8-.7,1.5-1.6,2-2.7.5-1.1.7-2.5.7-4.2ZM499.2,22.8c.8,2,1.2,4.1,1.2,6.5s-.4,4.6-1.2,6.6c-.8,2-2,3.7-3.4,5.2-1.5,1.5-3.2,2.6-5.3,3.4-2,.8-4.2,1.2-6.6,1.2s-4.7-.4-6.7-1.2c-2-.8-3.8-1.9-5.3-3.4s-2.6-3.2-3.4-5.2c-.8-2-1.2-4.2-1.2-6.6s.4-4.5,1.3-6.5c.8-2,2-3.7,3.5-5.1,1.5-1.4,3.3-2.5,5.3-3.3,2-.8,4.2-1.2,6.6-1.2s4.6.4,6.6,1.2c2,.8,3.8,1.9,5.3,3.3,1.5,1.4,2.7,3.1,3.5,5.1ZM492.6,29.3c0-1.8-.4-3.4-1.1-4.8-.7-1.4-1.7-2.5-3-3.3-1.3-.8-2.8-1.2-4.6-1.2s-3.3.4-4.6,1.2c-1.3.8-2.3,1.9-3,3.3-.7,1.4-1.1,3-1.1,4.8s.4,3.4,1.1,4.8c.7,1.4,1.7,2.5,3,3.3,1.3.8,2.8,1.2,4.6,1.2s3.2-.4,4.6-1.2,2.3-1.9,3-3.3c.7-1.4,1.1-3,1.1-4.8ZM516.1,13.9h-7.4v30.8h19.8v-6.4h-12.4V13.9ZM573.5,18.5c.9,1.5,1.4,3.3,1.4,5.4s-.5,3.8-1.4,5.3c-.9,1.5-2.3,2.7-4,3.5-1.8.8-4,1.2-6.6,1.2h-3.3v10.7h-7.4V13.9h10.7c2.6,0,4.8.4,6.6,1.2,1.8.8,3.1,2,4,3.5ZM567.7,23.9c0-1.3-.4-2.3-1.3-2.9s-2-1-3.5-1h-3.3v7.9h3.3c1.5,0,2.7-.3,3.5-1s1.3-1.6,1.3-2.9ZM600.1,33l8,11.6h-8.7l-6.6-10.7h-2.2v10.7h-7.4V13.9h11.2c2.6,0,4.8.4,6.6,1.3s3.1,2,4,3.5,1.4,3.3,1.4,5.3-.5,3.7-1.4,5.2-2.2,2.7-4,3.5c-.3.1-.5.2-.8.3ZM590.6,28.2h3.3c1,0,1.9-.2,2.6-.5.7-.3,1.3-.8,1.6-1.4.4-.6.6-1.3.6-2.2s-.2-1.6-.6-2.2c-.4-.6-.9-1.1-1.6-1.4-.7-.3-1.6-.5-2.6-.5h-3.3v8.1ZM645.3,35.8c-.8,2-2,3.7-3.4,5.2-1.5,1.5-3.2,2.6-5.3,3.4-2,.8-4.2,1.2-6.6,1.2s-4.7-.4-6.7-1.2c-2-.8-3.8-1.9-5.3-3.4s-2.6-3.2-3.4-5.2c-.8-2-1.2-4.2-1.2-6.6s.4-4.5,1.3-6.5c.8-2,2-3.7,3.5-5.1,1.5-1.4,3.3-2.5,5.3-3.3,2-.8,4.2-1.2,6.6-1.2s4.6.4,6.6,1.2c2,.8,3.8,1.9,5.3,3.3,1.5,1.4,2.7,3.1,3.5,5.1.8,2,1.2,4.1,1.2,6.5s-.4,4.6-1.2,6.6ZM638.6,29.3c0-1.8-.4-3.4-1.1-4.8-.7-1.4-1.7-2.5-3-3.3-1.3-.8-2.8-1.2-4.6-1.2s-3.3.4-4.6,1.2c-1.3.8-2.3,1.9-3,3.3-.7,1.4-1.1,3-1.1,4.8s.4,3.4,1.1,4.8c.7,1.4,1.7,2.5,3,3.3,1.3.8,2.8,1.2,4.6,1.2s3.2-.4,4.6-1.2,2.3-1.9,3-3.3c.7-1.4,1.1-3,1.1-4.8ZM654.7,45.4c0,1.3-.3,2.2-.9,2.8-.6.5-1.3.8-1.9.8s-1.3-.1-1.9-.4c-.6-.3-1.2-.6-1.6-1l-4,5.2c.6.4,1.3.8,2.2,1.2.9.4,1.8.7,2.9.9,1.1.3,2.2.4,3.3.4s2.6-.2,3.9-.5c1.2-.3,2.3-.8,3.3-1.4.9-.6,1.7-1.5,2.2-2.5.5-1,.8-2.3.8-3.8V13.9h-8v31.5ZM677.7,13.9h-4.9v30.8h20.5v-6.1h-13.3v-7.1h12.5v-6h-12.5v-5.5h13.3v-6.1h-15.5ZM718,13.2c-2.5,0-4.7.4-6.8,1.1-2.1.8-3.9,1.9-5.4,3.3s-2.7,3.1-3.5,5.1c-.8,2-1.2,4.2-1.2,6.6s.4,4.6,1.2,6.6c.8,2,2,3.7,3.5,5.1,1.5,1.4,3.3,2.5,5.4,3.3,2.1.8,4.4,1.1,6.8,1.1s4.1-.3,5.6-.8c1.5-.6,2.8-1.3,4-2.3v-8c-.7.7-1.5,1.4-2.3,2-.9.6-1.9,1.1-3,1.5-1.1.4-2.4.6-3.9.6s-3.2-.4-4.6-1.1c-1.4-.7-2.5-1.7-3.4-3.1-.9-1.4-1.3-3-1.3-4.9s.4-3.5,1.3-4.9c.9-1.3,2-2.4,3.4-3.1,1.4-.7,2.9-1.1,4.6-1.1s2.8.2,3.9.5c1.1.4,2.1.9,3,1.5.9.6,1.7,1.3,2.3,2v-8c-1.2-1-2.6-1.7-4-2.3-1.5-.6-3.3-.8-5.6-.8ZM732.8,20.5h8.4v24.2h7.4v-24.2h8.5v-6.6h-24.4v6.6ZM768.4,38.2c-1.2,0-2.2.4-3,1.1s-1.2,1.6-1.2,2.7.4,2,1.2,2.7,1.8,1.1,3,1.1,2.2-.4,3-1.1c.8-.7,1.2-1.6,1.2-2.7s-.4-2-1.2-2.7c-.8-.7-1.8-1.1-3-1.1ZM771.1,34.5l1.4-20.6h-8.2l1.5,20.6h5.4ZM789.7,34.5l1.4-20.6h-8.2l1.5,20.6h5.4ZM787,38.2c-1.2,0-2.2.4-3,1.1s-1.2,1.6-1.2,2.7.4,2,1.2,2.7,1.8,1.1,3,1.1,2.2-.4,3-1.1c.8-.7,1.2-1.6,1.2-2.7s-.4-2-1.2-2.7c-.8-.7-1.8-1.1-3-1.1ZM808.3,34.5l1.4-20.6h-8.2l1.5,20.6h5.4ZM808.6,39.2c-.8-.7-1.8-1.1-3-1.1s-2.2.4-3,1.1-1.2,1.6-1.2,2.7.4,2,1.2,2.7,1.8,1.1,3,1.1,2.2-.4,3-1.1c.8-.7,1.2-1.6,1.2-2.7s-.4-2-1.2-2.7Z"/>
</svg>