<?xml version="1.0" encoding="UTF-8"?><svg id="_レイヤー_2" xmlns="http://www.w3.org/2000/svg" viewBox="0 0 483.65 105.08"><g id="_レイヤー_1-2"><path d="m0,2.38h9.13v29.97h15.17v7.83H0V2.38Zm32.85,0h9.29v37.8h-9.29V2.38Zm37.44,22.57l9.23-22.57h10.69l-19.93,40.18L50.42,2.38h10.64l9.23,22.57Zm34.25,15.23v-7.51h19.06v7.51h-19.06Zm0-30.29V2.38h19.06v7.51h-19.06Zm0,14.09v-7.34h17.98v7.34h-17.98Zm-6.05-21.6h8.75v37.8h-8.75V2.38Zm61.53,24.52c.76,1.37,1.6,2.56,2.54,3.56.97,1.01,2.02,1.78,3.13,2.32,1.15.54,2.36.81,3.62.81,1.33,0,2.43-.32,3.29-.97.86-.68,1.3-1.6,1.3-2.75,0-.97-.25-1.75-.76-2.32-.5-.61-1.31-1.19-2.43-1.73-1.12-.54-2.59-1.15-4.43-1.84-.9-.32-1.94-.77-3.13-1.35-1.15-.58-2.25-1.31-3.29-2.21-1.04-.94-1.91-2.05-2.59-3.35-.68-1.33-1.03-2.93-1.03-4.81,0-2.23.58-4.16,1.73-5.78,1.19-1.62,2.77-2.84,4.75-3.67,2.02-.86,4.25-1.3,6.7-1.3s4.7.41,6.53,1.24c1.87.83,3.42,1.87,4.64,3.13,1.22,1.26,2.16,2.54,2.81,3.83l-6.97,3.89c-.54-.9-1.17-1.67-1.89-2.32-.68-.68-1.46-1.21-2.32-1.57-.83-.4-1.73-.59-2.7-.59-1.3,0-2.29.29-2.97.86-.68.54-1.03,1.22-1.03,2.05s.32,1.62.97,2.27c.68.65,1.64,1.24,2.86,1.78,1.26.54,2.77,1.12,4.54,1.73,1.33.5,2.57,1.1,3.73,1.78,1.15.65,2.16,1.44,3.02,2.38.9.94,1.6,2.02,2.11,3.24s.76,2.63.76,4.21c0,1.91-.4,3.62-1.19,5.13-.76,1.48-1.8,2.72-3.13,3.73-1.3,1.01-2.79,1.76-4.48,2.27-1.66.54-3.37.81-5.13.81-2.45,0-4.73-.43-6.86-1.3-2.09-.9-3.91-2.11-5.45-3.62-1.55-1.51-2.75-3.17-3.62-4.97l6.37-4.59Zm30.13-16.36V2.38h29.92v8.15h-10.42v29.65h-9.13V10.53h-10.37Zm47.76,12.53h9.5l11.83,17.12h-10.69l-10.64-17.12Zm-9.4-20.68h9.13v37.8h-9.13V2.38Zm5.72,7.72V2.38h8.05c3.24,0,5.94.52,8.1,1.57,2.16,1.04,3.8,2.5,4.91,4.37,1.12,1.84,1.67,3.98,1.67,6.43s-.56,4.55-1.67,6.43c-1.12,1.84-2.75,3.28-4.91,4.32-2.16,1.04-4.86,1.57-8.1,1.57h-8.05v-7.07h7.4c1.22,0,2.27-.18,3.13-.54.9-.4,1.58-.95,2.05-1.67.47-.76.7-1.66.7-2.7s-.23-1.93-.7-2.65c-.47-.76-1.15-1.33-2.05-1.73-.86-.4-1.91-.59-3.13-.59h-7.4Zm39.61,30.08v-7.51h19.06v7.51h-19.06Zm0-30.29V2.38h19.06v7.51h-19.06Zm0,14.09v-7.34h17.98v7.34h-17.98Zm-6.05-21.6h8.75v37.8h-8.75V2.38Zm42.8,30.51l.65-6.97h18.74l.59,6.97h-19.98Zm9.88-16.63l-5.29,12.2.43,2-4.7,9.72h-10.31L320.48,0l19.93,40.18h-10.37l-4.54-9.34.32-2.32-5.35-12.26Zm37.93,4.64l-2.27,19.28h-9.61L352.63.49l16.09,23.06L384.87.49l6.1,39.69h-9.61l-2.27-19.28-10.37,15.77-10.31-15.77Zm48.74,19.28v-7.51h19.06v7.51h-19.06Zm0-30.29V2.38h19.06v7.51h-19.06Zm0,14.09v-7.34h17.98v7.34h-17.98Zm-6.05-21.6h8.75v37.8h-8.75V2.38Zm46.25,20.68h9.5l11.83,17.12h-10.69l-10.64-17.12Zm-9.4-20.68h9.13v37.8h-9.13V2.38Zm5.72,7.72V2.38h8.05c3.24,0,5.94.52,8.1,1.57,2.16,1.04,3.8,2.5,4.91,4.37,1.12,1.84,1.67,3.98,1.67,6.43s-.56,4.55-1.67,6.43c-1.12,1.84-2.75,3.28-4.91,4.32s-4.86,1.57-8.1,1.57h-8.05v-7.07h7.4c1.22,0,2.27-.18,3.13-.54.9-.4,1.58-.95,2.05-1.67.47-.76.7-1.66.7-2.7s-.23-1.93-.7-2.65c-.47-.76-1.15-1.33-2.05-1.73-.86-.4-1.91-.59-3.13-.59h-7.4ZM0,54.38h9.29v37.8H0v-37.8Zm21.62,0h9.4v37.8h-9.4v-37.8Zm13.5,37.8h-7.45v-8.1h7.13c1.44,0,2.83-.18,4.16-.54,1.37-.36,2.56-.95,3.56-1.78,1.04-.83,1.87-1.93,2.48-3.29.61-1.4.92-3.13.92-5.18s-.31-3.76-.92-5.13c-.61-1.4-1.44-2.52-2.48-3.35-1.01-.83-2.2-1.42-3.56-1.78-1.33-.36-2.72-.54-4.16-.54h-7.13v-8.1h7.45c4.14,0,7.72.77,10.75,2.32,3.02,1.55,5.36,3.73,7.02,6.53,1.66,2.81,2.48,6.16,2.48,10.04s-.83,7.2-2.48,10.04c-1.66,2.81-4,4.99-7.02,6.53-3.02,1.55-6.61,2.32-10.75,2.32Zm37.93-18.9c0,2.23.43,4.21,1.3,5.94.9,1.69,2.14,3.02,3.73,4,1.62.97,3.51,1.46,5.67,1.46s3.98-.49,5.56-1.46c1.62-.97,2.86-2.3,3.73-4,.9-1.73,1.35-3.71,1.35-5.94s-.43-4.19-1.3-5.89c-.86-1.73-2.09-3.08-3.67-4.05-1.58-.97-3.47-1.46-5.67-1.46s-4.05.49-5.67,1.46c-1.58.97-2.83,2.32-3.73,4.05-.86,1.69-1.3,3.65-1.3,5.89Zm-9.67,0c0-2.92.5-5.58,1.51-7.99,1.04-2.41,2.48-4.5,4.32-6.26,1.84-1.76,4-3.11,6.48-4.05,2.48-.97,5.17-1.46,8.05-1.46s5.6.49,8.05,1.46c2.48.94,4.64,2.29,6.48,4.05s3.26,3.85,4.27,6.26c1.01,2.41,1.51,5.08,1.51,7.99s-.5,5.6-1.51,8.05c-.97,2.45-2.38,4.57-4.21,6.37-1.8,1.8-3.94,3.2-6.43,4.21-2.48.97-5.2,1.46-8.15,1.46s-5.72-.49-8.21-1.46c-2.48-1.01-4.64-2.41-6.48-4.21-1.8-1.8-3.2-3.92-4.21-6.37-.97-2.45-1.46-5.13-1.46-8.05Zm50.83-18.9h9.13v29.97h15.17v7.83h-24.3v-37.8Zm53.36,0h9.13v37.8h-9.13v-37.8Zm5.72,7.51v-7.51h7.4c3.2,0,5.89.5,8.05,1.51,2.2.97,3.85,2.38,4.97,4.21,1.12,1.84,1.67,4.05,1.67,6.64s-.56,4.72-1.67,6.59c-1.12,1.84-2.77,3.26-4.97,4.27-2.16.97-4.84,1.46-8.05,1.46h-7.4v-7.51h7.4c1.84,0,3.28-.41,4.32-1.24,1.04-.83,1.57-2.02,1.57-3.56s-.52-2.79-1.57-3.62c-1.04-.83-2.48-1.24-4.32-1.24h-7.4Zm41.64,13.18h9.5l11.83,17.12h-10.69l-10.64-17.12Zm-9.4-20.68h9.13v37.8h-9.13v-37.8Zm5.72,7.72v-7.72h8.05c3.24,0,5.94.52,8.1,1.57s3.8,2.5,4.91,4.37c1.12,1.84,1.67,3.98,1.67,6.43s-.56,4.55-1.67,6.43c-1.12,1.84-2.75,3.28-4.91,4.32-2.16,1.04-4.86,1.57-8.1,1.57h-8.05v-7.07h7.4c1.22,0,2.27-.18,3.13-.54.9-.4,1.58-.95,2.05-1.67.47-.76.7-1.66.7-2.7s-.23-1.93-.7-2.65c-.47-.76-1.15-1.33-2.05-1.73-.86-.4-1.91-.59-3.13-.59h-7.4Zm41.06,11.18c0,2.23.43,4.21,1.3,5.94.9,1.69,2.14,3.02,3.73,4,1.62.97,3.51,1.46,5.67,1.46s3.98-.49,5.56-1.46c1.62-.97,2.86-2.3,3.73-4,.9-1.73,1.35-3.71,1.35-5.94s-.43-4.19-1.3-5.89c-.86-1.73-2.09-3.08-3.67-4.05-1.58-.97-3.47-1.46-5.67-1.46s-4.05.49-5.67,1.46c-1.58.97-2.83,2.32-3.73,4.05-.86,1.69-1.3,3.65-1.3,5.89Zm-9.67,0c0-2.92.5-5.58,1.51-7.99,1.04-2.41,2.48-4.5,4.32-6.26,1.84-1.76,4-3.11,6.48-4.05,2.48-.97,5.17-1.46,8.05-1.46s5.6.49,8.05,1.46c2.48.94,4.64,2.29,6.48,4.05s3.26,3.85,4.27,6.26c1.01,2.41,1.51,5.08,1.51,7.99s-.5,5.6-1.51,8.05c-.97,2.45-2.38,4.57-4.21,6.37-1.8,1.8-3.94,3.2-6.43,4.21-2.48.97-5.2,1.46-8.15,1.46s-5.72-.49-8.21-1.46c-2.48-1.01-4.64-2.41-6.48-4.21-1.8-1.8-3.2-3.92-4.21-6.37-.97-2.45-1.46-5.13-1.46-8.05Zm42.95,22.36c.54.47,1.21.88,2,1.24.79.36,1.58.54,2.38.54s1.62-.34,2.38-1.03c.76-.65,1.13-1.76,1.13-3.35v-38.66h9.83v40.72c0,1.8-.32,3.33-.97,4.59-.65,1.3-1.55,2.32-2.7,3.08-1.15.79-2.48,1.37-4,1.73-1.51.4-3.1.59-4.75.59-1.4,0-2.75-.16-4.05-.49-1.3-.32-2.47-.72-3.51-1.19-1.04-.43-1.94-.9-2.7-1.4l4.97-6.37Zm36.08-3.46v-7.51h19.06v7.51h-19.06Zm0-30.29v-7.51h19.06v7.51h-19.06Zm0,14.09v-7.34h17.98v7.34h-17.98Zm-6.05-21.6h8.75v37.8h-8.75v-37.8Zm44.63,18.9c0,2.3.52,4.3,1.57,5.99,1.04,1.66,2.41,2.92,4.1,3.78,1.73.86,3.62,1.3,5.67,1.3,1.8,0,3.38-.23,4.75-.7,1.37-.47,2.59-1.08,3.67-1.84,1.08-.76,2.03-1.57,2.86-2.43v9.83c-1.51,1.19-3.17,2.12-4.97,2.81-1.8.68-4.09,1.03-6.86,1.03-3.02,0-5.81-.47-8.37-1.4-2.56-.94-4.75-2.29-6.59-4.05s-3.26-3.85-4.27-6.26c-1.01-2.41-1.51-5.09-1.51-8.05s.5-5.63,1.51-8.05,2.43-4.5,4.27-6.26,4.03-3.11,6.59-4.05c2.56-.94,5.35-1.4,8.37-1.4,2.77,0,5.06.34,6.86,1.03,1.8.68,3.46,1.62,4.97,2.81v9.83c-.83-.86-1.78-1.67-2.86-2.43-1.08-.79-2.3-1.4-3.67-1.84-1.37-.47-2.95-.7-4.75-.7-2.05,0-3.94.43-5.67,1.3-1.69.86-3.06,2.12-4.1,3.78-1.04,1.66-1.57,3.65-1.57,5.99Zm28.99-10.75v-8.15h29.92v8.15h-10.42v29.65h-9.13v-29.65h-10.37Zm38.58-8.15h10.1l-1.73,25.33h-6.59l-1.78-25.33Zm0,34.45c0-1.37.47-2.48,1.4-3.35.97-.86,2.2-1.3,3.67-1.3s2.68.43,3.62,1.3c.97.86,1.46,1.98,1.46,3.35s-.49,2.48-1.46,3.35c-.94.86-2.14,1.3-3.62,1.3s-2.7-.43-3.67-1.3c-.94-.86-1.4-1.98-1.4-3.35Zm22.83-34.45h10.1l-1.73,25.33h-6.59l-1.78-25.33Zm0,34.45c0-1.37.47-2.48,1.4-3.35.97-.86,2.2-1.3,3.67-1.3s2.68.43,3.62,1.3c.97.86,1.46,1.98,1.46,3.35s-.49,2.48-1.46,3.35c-.94.86-2.14,1.3-3.62,1.3s-2.7-.43-3.67-1.3c-.94-.86-1.4-1.98-1.4-3.35Zm22.83-34.45h10.1l-1.73,25.33h-6.59l-1.78-25.33Zm0,34.45c0-1.37.47-2.48,1.4-3.35.97-.86,2.2-1.3,3.67-1.3s2.68.43,3.62,1.3c.97.86,1.46,1.98,1.46,3.35s-.49,2.48-1.46,3.35c-.94.86-2.14,1.3-3.62,1.3s-2.7-.43-3.67-1.3c-.94-.86-1.4-1.98-1.4-3.35Z"/></g></svg>