<?xml version="1.0" encoding="UTF-8"?>
<svg id="l" xmlns="http://www.w3.org/2000/svg" version="1.1" xmlns:xlink="http://www.w3.org/1999/xlink" viewBox="0 0 301 63">
  <!-- Generator: Adobe Illustrator 29.1.0, SVG Export Plug-In . SVG Version: 2.1.0 Build 142)  -->
  <defs>
    <style>
      .st0 {
        fill: url(#_名称未設定グラデーション_381);
      }
    </style>
    <linearGradient id="_名称未設定グラデーション_381" data-name="名称未設定グラデーション 381" x1=".01" y1="31.5" x2="300.99" y2="31.5" gradientUnits="userSpaceOnUse">
      <stop offset="0" stop-color="#c3abff"/>
      <stop offset="1" stop-color="#a27ae2"/>
    </linearGradient>
  </defs>
  <path class="st0" d="M15.07,41.17c-.02,6.88,4.22,8.09,6.14,8.1,3.6,0,5.77-2.95,5.77-5.67,0-3.12-2.47-4.09-11.58-7.95-4.16-1.69-14.47-5.88-14.44-17C1,6.74,11.81.44,21.73.47c8.16.02,19.67,4.21,19.88,18.45l-14.96-.04c-.32-2-.79-5.76-5.43-5.77-2.64,0-5.21,1.83-5.21,4.63,0,2.72,1.59,3.44,12.22,8.27,11.03,4.99,13.82,10.11,13.8,16.99-.02,9.44-5.01,18.95-20.69,18.91C5.82,61.87-.4,52.74.03,41.14l15.04.04Z"/>
  <path class="st0" d="M50.7,31.9c.05-19.36,14.96-31.32,31.28-31.29,18.24.04,31.25,14.32,31.21,30.8-.04,16.48-13.03,30.69-31.43,30.65-18.64-.04-31.08-14.88-31.05-30.08v-.08ZM65.82,31.21c-.02,9.04,6.12,17.54,16.28,17.56,10.72.03,15.94-9.72,15.96-17.32.02-7.68-5.16-17.53-16.04-17.56-10.48-.03-16.18,8.92-16.2,17.24v.08Z"/>
  <path class="st0" d="M161.08,38l-.23-36.08,14.48.03-.14,59.2-13.12-.03-22.55-35.73.23,35.68-14.48-.03.14-59.2,13.04.03,22.63,36.14Z"/>
  <path class="st0" d="M231.84,21.93c-.8-1.44-1.83-2.8-3.11-4.01-2.48-2.17-5.75-3.69-9.91-3.7-7.44-.02-16.17,5.48-16.2,17.16-.03,12.4,8.76,17.78,16.2,17.8,3.76,0,6.88-.94,9.29-2.62,2.4-1.59,4.09-3.99,4.9-6.87l-17.68-.04.03-12.08,35.12.08c.31,4.24-.19,11.2-2.76,16.95-5.79,13.03-19.08,17.87-28.84,17.85-17.92-.04-31.41-14.08-31.37-31.12.04-17.68,14.31-30.45,31.75-30.4,14.16.03,26.3,9.58,29.55,21.03l-16.96-.04Z"/>
  <path class="st0" d="M274.03,41.8c-.02,6.88,4.22,8.09,6.14,8.1,3.6,0,5.77-2.95,5.77-5.67,0-3.12-2.47-4.09-11.58-7.95-4.16-1.69-14.47-5.88-14.44-17,.03-11.92,10.84-18.21,20.76-18.19,8.16.02,19.67,4.21,19.88,18.45l-14.96-.04c-.32-2-.79-5.76-5.43-5.77-2.64,0-5.2,1.83-5.21,4.63,0,2.72,1.59,3.44,12.22,8.27,11.03,4.99,13.82,10.11,13.8,16.99-.02,9.44-5.01,18.95-20.69,18.91-15.52-.04-21.74-9.17-21.31-20.77l15.04.04Z"/>
</svg>