<?xml version="1.0" encoding="UTF-8"?>
<svg id="l" xmlns="http://www.w3.org/2000/svg" version="1.1" viewBox="0 0 51 22">
  <!-- Generator: Adobe Illustrator 29.1.0, SVG Export Plug-In . SVG Version: 2.1.0 Build 142)  -->
  <defs>
    <style>
      .st0 {
        fill: #231815;
      }
    </style>
  </defs>
  <path class="st0" d="M.34,15.82v-3.31s8.94.02,8.94.02v-.96s-2.52,0-2.52,0l.02-9.96h2.5S9.81.05,9.81.05h4.08s-.6,1.57-.6,1.57h2.83s-.02,8.09-.02,8.09c0,1.34-.53,1.87-1.88,1.87h-.86s0,.96,0,.96l8.91.02v3.31s-6.22-.01-6.22-.01c1.73,1.25,3.81,1.95,6.21,2.08v3.74c-4.02-.42-7.13-1.84-8.9-4.1v4.37s-4.09,0-4.09,0v-3.84c-2.56,2.01-5.54,3.15-8.93,3.41v-3.72c2.67-.26,4-.69,5.89-1.95H.34ZM5.97,10.07c-1.42.5-1.68.6-5,1.55v-3.86c1.67-.38,2.1-.5,5-1.38v3.7ZM1,.58l4.99,1.02v3.67S.99,4.18.99,4.18V.58ZM12.65,8.63v-.96s-2.47,0-2.47,0v.96s2.47,0,2.47,0ZM12.65,5.46v-1.08s-2.47,0-2.47,0v1.08s2.47,0,2.47,0ZM21.95,11.84c-2.66-.7-3.53-.99-5.04-1.64v-3.72c1.9.68,3.01,1.02,5.05,1.6v3.77ZM21.98.68v3.5s-5.05,1-5.05,1V1.7s5.05-1.02,5.05-1.02Z"/>
  <path class="st0" d="M35.38,3.67V.45s3.82,0,3.82,0v3.22s1.79,0,1.79,0V.46s3.94,0,3.94,0v3.22s5.73.01,5.73.01l-.03,14.21c.02,2.88-.87,3.74-3.78,3.69l-17.11-.04.04-17.91h5.59ZM35.35,17.92v-3.67s-1.62,0-1.62,0v3.67s1.62,0,1.62,0ZM35.37,10.84v-3.58s-1.62,0-1.62,0v3.58s1.62,0,1.62,0ZM40.97,17.94v-3.67s-1.79,0-1.79,0v3.67s1.79,0,1.79,0ZM40.98,10.85v-3.58s-1.79,0-1.79,0v3.58s1.79,0,1.79,0ZM46.61,17.95v-3.67s-1.7,0-1.7,0v3.67s1.7,0,1.7,0ZM46.62,10.87v-3.58s-1.7,0-1.7,0v3.58s1.7,0,1.7,0Z"/>
</svg>