<?xml version="1.0" encoding="utf-8"?>
<!-- Generator: Adobe Illustrator 27.0.1, SVG Export Plug-In . SVG Version: 6.00 Build 0)  -->
<svg version="1.1" xmlns="http://www.w3.org/2000/svg" xmlns:xlink="http://www.w3.org/1999/xlink" x="0px" y="0px"
	 viewBox="0 0 40 40" style="enable-background:new 0 0 40 40;" xml:space="preserve">
<style type="text/css">
	.st0{fill:#11BE93;}
	.st1{fill:#F34E6C;}
	.st2{fill:#2581C7;}
	.st3{fill:#FFC20B;}
	.st4{fill:#8DBAFF;}
	.st5{fill:#FFFFFF;}
	.st6{fill:url(#SVGID_1_);}
	.st7{fill:url(#SVGID_00000001663206679675565530000016763783578173844385_);}
	.st8{fill:url(#SVGID_00000025403399736397408680000001606873164001574283_);}
	.st9{fill:url(#SVGID_00000001656083504937368900000008623196146040032691_);}
	.st10{fill-rule:evenodd;clip-rule:evenodd;fill:#FFFFFF;}
	.st11{fill-rule:evenodd;clip-rule:evenodd;fill:url(#SVGID_00000148627937494197127440000014758918260851945883_);}
	.st12{fill-rule:evenodd;clip-rule:evenodd;fill:url(#SVGID_00000127037951130441319990000005322647421531555259_);}
	.st13{fill:url(#SVGID_00000159432903727435066660000013040703612359613833_);}
	.st14{fill:url(#SVGID_00000058561952766195579710000006347644227936001191_);}
	.st15{fill:url(#SVGID_00000082348159440865054940000014077150215676833925_);}
	.st16{fill:url(#SVGID_00000114061074623682750930000006221858116741270913_);}
	.st17{fill:url(#SVGID_00000088103893448326350680000011744992961803937436_);}
	.st18{fill:url(#SVGID_00000007395976308048618100000017180319733338664066_);}
	.st19{fill:url(#SVGID_00000075872337400360193350000000553374715908699270_);}
	.st20{fill:url(#SVGID_00000077295664191179571670000011184641368842145926_);}
	.st21{fill:url(#SVGID_00000125605210516210787080000004608247240263071660_);}
	.st22{fill:url(#SVGID_00000129889480665138254670000000523004034160216752_);}
	.st23{fill:url(#SVGID_00000173118993514318866140000011909352779990263468_);}
	.st24{fill:url(#SVGID_00000038402851567714418670000003581776615702716591_);}
	.st25{fill:url(#SVGID_00000019650682617153427950000007467454857990830216_);}
	.st26{fill:url(#SVGID_00000177442828617741010370000008657339874957074080_);}
	.st27{fill:url(#SVGID_00000119094203325890511540000012840880117544290226_);}
	.st28{opacity:0.2;fill:#3A2D87;}
	.st29{fill:url(#SVGID_00000150085409526734917000000002381132492268014761_);}
	.st30{fill:url(#SVGID_00000078024482737047918280000009679324491981079205_);}
	.st31{fill:url(#SVGID_00000124865637404832259300000017514780306502163373_);}
	.st32{fill:url(#SVGID_00000096022052726146563040000000578458502408056994_);}
	.st33{opacity:0.1;fill:url(#SVGID_00000176763835446624423090000011764260668649460913_);}
	.st34{fill:url(#SVGID_00000169525334551050016840000017630707029580911762_);}
	.st35{fill:url(#SVGID_00000034092229076758106330000002776345969274181760_);}
	.st36{fill:url(#SVGID_00000079450345611056339690000000263979684842967486_);}
	.st37{fill:url(#SVGID_00000149369430954225613830000015526905209179731607_);}
	.st38{fill:url(#SVGID_00000083047765363231904750000016746775118214346667_);}
	.st39{fill:url(#SVGID_00000047777539820679186590000016687692275288631736_);}
	.st40{fill:url(#SVGID_00000137112098042432611610000014324545448844141208_);}
	.st41{fill:url(#SVGID_00000147204437023800720490000001890107709240136626_);}
	.st42{fill:url(#SVGID_00000171682323706811033700000011180121338877403066_);}
	.st43{opacity:0.1;fill:url(#SVGID_00000148635847144016126780000016403218562947245709_);}
	.st44{fill:#FF74B8;}
	.st45{fill:#5A6172;}
	.st46{fill-rule:evenodd;clip-rule:evenodd;fill:#FF74B8;}
	.st47{fill:url(#メニュー_00000047776863441113592200000000382501560176630701_);}
	.st48{display:none;}
</style>
<g id="brand">
</g>
<g id="category">
	<path class="st5" d="M6.88,35.93c-2.16,0-3.93-1.75-3.93-3.91V15.42c0-2.15,1.76-3.91,3.93-3.91h7.57l-0.73-0.92
		c-0.38-0.47-0.54-1.05-0.48-1.65s0.37-1.13,0.84-1.5c0.4-0.31,0.89-0.48,1.4-0.48c0.69,0,1.33,0.31,1.76,0.84l1.61,2.01l3.93-4.91
		c0.43-0.54,1.07-0.84,1.76-0.84c0.5,0,1,0.17,1.4,0.49c0.47,0.37,0.77,0.91,0.84,1.5c0.07,0.6-0.1,1.18-0.48,1.65l-3.05,3.81h9.88
		c2.16,0,3.92,1.75,3.92,3.91v16.61c0,2.15-1.76,3.91-3.92,3.91H6.88z"/>
	<linearGradient id="SVGID_1_" gradientUnits="userSpaceOnUse" x1="20" y1="34.9347" x2="20" y2="5.0653">
		<stop  offset="0" style="stop-color:#8DA5E2"/>
		<stop  offset="1" style="stop-color:#556686"/>
	</linearGradient>
	<path class="st6" d="M33.12,12.51H21.15l4.35-5.44c0.43-0.54,0.34-1.31-0.2-1.74c-0.54-0.43-1.32-0.34-1.75,0.2l-4.71,5.88
		l-2.39-2.99c-0.43-0.54-1.21-0.62-1.75-0.2c-0.54,0.43-0.63,1.2-0.2,1.74l2.03,2.54H6.88c-1.62,0-2.93,1.3-2.93,2.91v16.61
		c0,1.61,1.31,2.91,2.93,2.91h26.23c1.62,0,2.93-1.3,2.93-2.91V15.42C36.04,13.81,34.73,12.51,33.12,12.51z M32.25,22.7
		c0.6,0,1.08,0.48,1.08,1.07c0,0.59-0.48,1.07-1.08,1.07c-0.6,0-1.08-0.48-1.08-1.07C31.17,23.18,31.65,22.7,32.25,22.7z
		 M28.33,31.07c0,0.79-0.65,1.44-1.45,1.44H8.08c-0.8,0-1.45-0.64-1.45-1.44V16.38c0-0.79,0.65-1.44,1.45-1.44h18.8
		c0.8,0,1.45,0.64,1.45,1.44V31.07z M32.25,30.52c-1.04,0-1.88-0.84-1.88-1.87c0-1.03,0.84-1.87,1.88-1.87s1.88,0.84,1.88,1.87
		C34.13,29.68,33.29,30.52,32.25,30.52z"/>
</g>
<g id="menu">
</g>
<g id="いいね">
</g>
<g id="header">
</g>
<g id="schedule">
	<g id="myschedule">
	</g>
</g>
<g id="news">
</g>
<g id="guide" class="st48">
</g>
</svg>
