<?xml version="1.0" encoding="utf-8"?>
<!-- Generator: Adobe Illustrator 27.0.1, SVG Export Plug-In . SVG Version: 6.00 Build 0)  -->
<svg version="1.1" xmlns="http://www.w3.org/2000/svg" xmlns:xlink="http://www.w3.org/1999/xlink" x="0px" y="0px"
	 viewBox="0 0 40 40" style="enable-background:new 0 0 40 40;" xml:space="preserve">
<style type="text/css">
	.st0{fill:#11BE93;}
	.st1{fill:#F34E6C;}
	.st2{fill:#2581C7;}
	.st3{fill:#FFC20B;}
	.st4{fill:#8DBAFF;}
	.st5{fill:#FFFFFF;}
	.st6{fill:url(#SVGID_1_);}
	.st7{fill:url(#SVGID_00000018228038291794551050000017348351667584461186_);}
	.st8{fill:url(#SVGID_00000040556626104634170380000009222180201729412254_);}
	.st9{fill:url(#SVGID_00000096766769651055306870000006499310208721814414_);}
	.st10{fill-rule:evenodd;clip-rule:evenodd;fill:#FFFFFF;}
	.st11{fill-rule:evenodd;clip-rule:evenodd;fill:url(#SVGID_00000061435174771614919300000001995283711073033917_);}
	.st12{fill-rule:evenodd;clip-rule:evenodd;fill:url(#SVGID_00000171709262318434372470000013810732871729869727_);}
	.st13{fill:url(#SVGID_00000118376821871182749400000017437376790329757347_);}
	.st14{fill:url(#SVGID_00000061461270904628401620000002762706562163562428_);}
	.st15{fill:url(#SVGID_00000075151852992230636630000000036465301792031421_);}
	.st16{fill:url(#SVGID_00000146482974887488653740000011732027032421566612_);}
	.st17{fill:url(#SVGID_00000165948294313932120650000003281987708893325956_);}
	.st18{fill:url(#SVGID_00000147906654822887986450000002690834131151078582_);}
	.st19{fill:url(#SVGID_00000077308878712845304160000014257854663663170749_);}
	.st20{fill:url(#SVGID_00000180340655062566053510000017745729157337013417_);}
	.st21{fill:url(#SVGID_00000147194043315543081140000017805260257886574749_);}
	.st22{fill:url(#SVGID_00000020366172439885491430000009324021106973075886_);}
	.st23{fill:url(#SVGID_00000042714387295285442100000005328976684663768491_);}
	.st24{fill:url(#SVGID_00000003827611104201857760000001893817430667049625_);}
	.st25{fill:url(#SVGID_00000046333631448601588510000002972280085599542405_);}
	.st26{fill:url(#SVGID_00000072265157562420315010000004417889859384239537_);}
	.st27{fill:url(#SVGID_00000087403317460845445610000001818935879438155956_);}
	.st28{opacity:0.2;fill:#3A2D87;}
	.st29{fill:url(#SVGID_00000138541241068122294630000003514104800833379463_);}
	.st30{fill:url(#SVGID_00000088851485763818895160000013882519977407829131_);}
	.st31{fill:url(#SVGID_00000028320862832286719050000011967787461108858021_);}
	.st32{fill:url(#SVGID_00000066491431059463142310000007558410909529137300_);}
	.st33{opacity:0.1;fill:url(#SVGID_00000165943980580329915140000012538291903624137655_);}
	.st34{fill:url(#SVGID_00000093137078303352674930000000075779563482522299_);}
	.st35{fill:url(#SVGID_00000111181199664272902830000014580007253025001625_);}
	.st36{fill:url(#SVGID_00000111183629839794576400000001951390943811474853_);}
	.st37{fill:url(#SVGID_00000148651083525940079060000008627642021058142884_);}
	.st38{fill:url(#SVGID_00000022527312132034160550000009835933494026698414_);}
	.st39{fill:url(#SVGID_00000088838217694128310900000010353053526526917258_);}
	.st40{fill:url(#SVGID_00000152239937944398259260000008049068372878377862_);}
	.st41{fill:url(#SVGID_00000132801829089259758350000000696651616477535156_);}
	.st42{fill:url(#SVGID_00000052826367005125262360000004547396260577857413_);}
	.st43{opacity:0.1;fill:url(#SVGID_00000156550955110290836830000005549459128559594684_);}
	.st44{fill:#FF74B8;}
	.st45{fill:#5A6172;}
	.st46{fill-rule:evenodd;clip-rule:evenodd;fill:#FF74B8;}
	.st47{fill:url(#メニュー_00000018916211164298290040000008125156010326197136_);}
	.st48{display:none;}
</style>
<g id="brand">
</g>
<g id="category">
	<path class="st5" d="M18.44,33.65c-0.78,0-1.5-0.34-1.99-0.94l-0.27-0.33c-0.1-0.12-0.26-0.2-0.43-0.2H3.47
		c-1.4,0-2.54-1.12-2.54-2.49V14.22c0-1.05,0.66-1.94,1.6-2.31v-1.65c0-0.55,0.45-1,1-1h1.79V7.62c0-0.5,0.37-0.93,0.87-0.99
		l0.66-0.09c0.96-0.13,1.94-0.19,2.91-0.19c3.47,0,6.91,0.77,10.24,2.3c3.33-1.53,6.77-2.3,10.23-2.3c0.98,0,1.96,0.06,2.92,0.19
		l0.66,0.09c0.5,0.06,0.87,0.49,0.87,0.99v1.64h1.88c0.55,0,1,0.45,1,1v1.69c0.89,0.39,1.51,1.26,1.51,2.27v15.47
		c0,1.37-1.14,2.49-2.54,2.49H24.25c-0.17,0-0.33,0.07-0.43,0.2l-0.27,0.33c-0.48,0.6-1.21,0.94-1.99,0.94H18.44z"/>
	<linearGradient id="SVGID_1_" gradientUnits="userSpaceOnUse" x1="20" y1="32.6456" x2="20" y2="7.3544">
		<stop  offset="0" style="stop-color:#8DA5E2"/>
		<stop  offset="1" style="stop-color:#556686"/>
	</linearGradient>
	<path class="st6" d="M36.56,12.74v-2.48h-2.88V7.62l-0.66-0.09C28.69,6.97,24.2,7.74,20,9.76c-4.2-2.02-8.7-2.79-13.02-2.22
		L6.32,7.62v2.64H3.53v2.47H3.47c-0.85,0-1.54,0.67-1.54,1.49v15.47c0,0.82,0.69,1.49,1.54,1.49h12.29c0.47,0,0.92,0.21,1.21,0.57
		l0.27,0.33c0.29,0.36,0.74,0.57,1.21,0.57h3.12c0.47,0,0.92-0.21,1.21-0.57l0.27-0.33c0.29-0.36,0.74-0.57,1.21-0.57h12.29
		c0.85,0,1.54-0.67,1.54-1.49V14.22C38.07,13.41,37.4,12.75,36.56,12.74z M5.06,12.73v-0.98h1.25v0.98v14.99l0.87-0.11
		c1.04-0.14,2.09-0.19,3.15-0.16l6.13,1.1c0.14,0.05,0.29,0.1,0.43,0.15H5.06V12.73z M29.66,27.46c1.06-0.03,2.11,0.02,3.15,0.16
		l0.87,0.11V12.73v-0.98h1.34v0.98V28.7H23.1c0.14-0.05,0.29-0.11,0.43-0.15L29.66,27.46z M29.64,8.86
		c0.84-0.02,1.68-0.01,2.51,0.08v2.07v1.73v13.31c-3.79-0.34-7.68,0.33-11.38,1.95V12.73v-1.7c0.02-0.01,0.05-0.02,0.07-0.03
		c0.86-0.4,1.73-0.75,2.61-1.04C25.49,9.29,27.57,8.92,29.64,8.86z M17.38,10.26c0.6,0.22,1.19,0.47,1.78,0.74
		c0.02,0.01,0.05,0.02,0.07,0.03v0.71v0.98V28c-3.07-1.35-6.28-2.04-9.44-2.04c-0.65,0-1.29,0.03-1.94,0.09V12.73v-0.98v-0.74v-0.74
		V8.93c0.68-0.07,1.36-0.08,2.04-0.08v1.41v0.74v0.74v0.98v2.12c0,0.36,0.45,0.54,0.71,0.28l1.26-1.22c0.16-0.16,0.42-0.16,0.59,0
		l1.26,1.22c0.26,0.25,0.71,0.07,0.71-0.28v-2.12v-0.98v-0.74v-0.74V9.58l2.15,0.38C16.83,10.06,17.11,10.16,17.38,10.26z"/>
</g>
<g id="menu">
</g>
<g id="いいね">
</g>
<g id="header">
</g>
<g id="schedule">
	<g id="myschedule">
	</g>
</g>
<g id="news">
</g>
<g id="guide" class="st48">
</g>
</svg>
