<?xml version="1.0" encoding="utf-8"?>
<!-- Generator: Adobe Illustrator 27.0.1, SVG Export Plug-In . SVG Version: 6.00 Build 0)  -->
<svg version="1.1" xmlns="http://www.w3.org/2000/svg" xmlns:xlink="http://www.w3.org/1999/xlink" x="0px" y="0px"
	 viewBox="0 0 40 40" style="enable-background:new 0 0 40 40;" xml:space="preserve">
<style type="text/css">
	.st0{fill:#11BE93;}
	.st1{fill:#F34E6C;}
	.st2{fill:#2581C7;}
	.st3{fill:#FFC20B;}
	.st4{fill:#8DBAFF;}
	.st5{fill:#FFFFFF;}
	.st6{fill:url(#SVGID_1_);}
	.st7{fill:url(#SVGID_00000095323411202571261480000000997874047588772252_);}
	.st8{fill:url(#SVGID_00000141433716520594045810000015503163415194925953_);}
	.st9{fill:url(#SVGID_00000145057575080969758060000002932429874083588764_);}
	.st10{fill-rule:evenodd;clip-rule:evenodd;fill:#FFFFFF;}
	.st11{fill-rule:evenodd;clip-rule:evenodd;fill:url(#SVGID_00000170266365294900279750000003425974766491694480_);}
	.st12{fill-rule:evenodd;clip-rule:evenodd;fill:url(#SVGID_00000093871446406819612810000009316437194531888774_);}
	.st13{fill:url(#SVGID_00000116920955187965560790000005873431826681926787_);}
	.st14{fill:url(#SVGID_00000031889931980586264240000011921233455013662614_);}
	.st15{fill:url(#SVGID_00000091723178341185212440000000371642119529530260_);}
	.st16{fill:url(#SVGID_00000062171389613437115100000002642938704612669576_);}
	.st17{fill:url(#SVGID_00000164492506781417726970000011672614003225544866_);}
	.st18{fill:url(#SVGID_00000019664191239738734440000011951381827688909753_);}
	.st19{fill:url(#SVGID_00000081626277679674988530000013539474025838149272_);}
	.st20{fill:url(#SVGID_00000083059186168020226430000009681890654486594724_);}
	.st21{fill:url(#SVGID_00000043446149629834783020000014422704873929773440_);}
	.st22{fill:url(#SVGID_00000124135913168314721010000000747433830371227800_);}
	.st23{fill:url(#SVGID_00000106829538749923550640000005901788542529042835_);}
	.st24{fill:url(#SVGID_00000067208599512330392810000004243258392516646541_);}
	.st25{fill:url(#SVGID_00000022536315062812484140000010106302090008415617_);}
	.st26{fill:url(#SVGID_00000161633419798592167530000004255480597215332998_);}
	.st27{fill:url(#SVGID_00000050621759678375683860000014431699320780185224_);}
	.st28{opacity:0.2;fill:#3A2D87;}
	.st29{fill:url(#SVGID_00000033371297162263982580000005181993930670103741_);}
	.st30{fill:url(#SVGID_00000154404394349576662930000004881697593955420592_);}
	.st31{fill:url(#SVGID_00000060008918964933710230000002405207898193925560_);}
	.st32{fill:url(#SVGID_00000155847895708125532170000009245189166497550267_);}
	.st33{opacity:0.1;fill:url(#SVGID_00000151508117079975998690000009059712886084861830_);}
	.st34{fill:url(#SVGID_00000074419422321440180310000018289851275284382852_);}
	.st35{fill:url(#SVGID_00000003065783066984007290000013512522207165577908_);}
	.st36{fill:url(#SVGID_00000147177703678757381290000003361005657124933781_);}
	.st37{fill:url(#SVGID_00000014616005153740673950000007575267134906780339_);}
	.st38{fill:url(#SVGID_00000121250672718073308170000009758613644540836009_);}
	.st39{fill:url(#SVGID_00000060716804684057351940000012537365716924038561_);}
	.st40{fill:url(#SVGID_00000160170164612648101100000009667724343693204365_);}
	.st41{fill:url(#SVGID_00000145775505577840849330000005846808859419611799_);}
	.st42{fill:url(#SVGID_00000052822701556271944480000012095691245083973511_);}
	.st43{opacity:0.1;fill:url(#SVGID_00000067932558218627939110000007403032861365177522_);}
	.st44{fill:#FF74B8;}
	.st45{fill:#5A6172;}
	.st46{fill-rule:evenodd;clip-rule:evenodd;fill:#FF74B8;}
	.st47{fill:url(#メニュー_00000069399929627126822410000004753631437406193298_);}
	.st48{display:none;}
</style>
<g id="brand">
</g>
<g id="category">
	<path class="st10" d="M34.2,7.9c-1.75-1.74-4.08-2.7-6.56-2.7c-2.49,0-4.82,0.96-6.56,2.7c-0.44,0.43-0.87,0.86-1.3,1.28
		c-0.06-0.15-0.14-0.3-0.25-0.41l-0.58-0.57c-1.74-1.74-4.08-2.7-6.57-2.7c-2.49,0-4.82,0.96-6.56,2.7
		c-1.75,1.74-2.71,4.06-2.71,6.54c0,2.48,0.96,4.8,2.71,6.54l9.3,9.2c0.04,0.04,0.08,0.07,0.12,0.1L19,34.1
		c0.47,0.45,1.09,0.69,1.74,0.69c0.69,0,1.34-0.28,1.82-0.77c0.47-0.48,0.71-1.12,0.7-1.79c-0.01-0.29-0.06-0.58-0.16-0.84
		c0.25,0.08,0.52,0.13,0.8,0.13c0.69,0,1.34-0.27,1.82-0.77c0.46-0.48,0.71-1.12,0.7-1.79c-0.01-0.29-0.06-0.57-0.16-0.84
		c0.25,0.08,0.52,0.13,0.79,0.13c0.69,0,1.34-0.27,1.82-0.78c0.46-0.49,0.71-1.12,0.7-1.79c-0.01-0.29-0.06-0.57-0.16-0.84
		c0.25,0.08,0.52,0.13,0.79,0.13c0.69,0,1.34-0.28,1.82-0.77c0.56-0.58,0.79-1.4,0.65-2.18c0.01,0,0.01,0.01,0.02,0.01
		c0.02,0,0.05,0,0.07,0c0.26,0,0.52-0.1,0.71-0.29l0.75-0.75c1.75-1.74,2.71-4.06,2.71-6.54C36.91,11.96,35.94,9.64,34.2,7.9z
		 M23.46,13.21c-0.02,0-0.05-0.01-0.07-0.01l0.03-0.03C23.42,13.17,23.45,13.2,23.46,13.21z"/>
	<linearGradient id="SVGID_1_" gradientUnits="userSpaceOnUse" x1="20" y1="33.7985" x2="20" y2="6.2014">
		<stop  offset="0" style="stop-color:#8DA5E2"/>
		<stop  offset="1" style="stop-color:#556686"/>
	</linearGradient>
	<path style="fill-rule:evenodd;clip-rule:evenodd;fill:url(#SVGID_1_);" d="M35.91,14.44c0,2.21-0.86,4.28-2.41,5.83l-0.75,0.75
		c-0.07-0.09-0.15-0.18-0.24-0.27l-6.55-6.49l-1.73-1.71c-0.26-0.26-0.55-0.5-0.86-0.5c-0.15,0-0.28,0.06-0.39,0.16l-1.21,1.2
		l-0.07,0.06c-1.33,1.28-2.58,1.93-3.71,1.93c-1.17,0-1.9-0.7-2.18-1.03l4.34-4.17c0.54-0.53,1.09-1.06,1.63-1.6
		c1.56-1.55,3.64-2.41,5.86-2.41c2.22,0,4.3,0.85,5.86,2.4C35.05,10.16,35.91,12.23,35.91,14.44z M31.39,21.58l-1.84-1.82
		l-5.64-5.33c-0.35-0.33-0.9-0.32-1.24,0.02l-0.31,0.31l-0.11,0.08l-0.01,0c-1.46,1.28-2.89,1.94-4.26,1.94
		c-2.24,0-3.41-1.74-3.46-1.81l-0.11-0.17c-0.23-0.35-0.18-0.82,0.13-1.11l4.32-4.15l-0.04-0.04c-0.2-0.19-0.39-0.39-0.59-0.58
		c-1.56-1.55-3.64-2.4-5.86-2.4c-2.22,0-4.3,0.85-5.86,2.4c-1.56,1.55-2.41,3.62-2.41,5.83c0,2.21,0.86,4.28,2.41,5.83l9.3,9.2
		l0.01-0.01l3.88,3.62c0.28,0.27,0.66,0.42,1.05,0.42c0.42,0,0.81-0.17,1.1-0.47c0.58-0.6,0.56-1.56-0.05-2.13l-4.83-4.49
		c-0.15-0.14-0.24-0.33-0.24-0.54c0-0.21,0.08-0.4,0.22-0.55c0.14-0.14,0.33-0.22,0.54-0.22c0.19,0,0.38,0.07,0.52,0.2l4.84,4.5
		c0.28,0.27,0.66,0.42,1.05,0.42c0.42,0,0.81-0.17,1.1-0.47c0.58-0.6,0.56-1.56-0.05-2.13l-4.73-4.4c-0.16-0.15-0.25-0.35-0.25-0.56
		c0-0.21,0.08-0.42,0.23-0.57c0.15-0.15,0.35-0.23,0.56-0.23c0.2,0,0.4,0.08,0.54,0.22l4.7,4.44c0.28,0.27,0.66,0.42,1.05,0.42
		c0.42,0,0.81-0.17,1.1-0.47c0.58-0.6,0.56-1.56-0.05-2.13l-4.64-4.39c-0.15-0.14-0.23-0.33-0.24-0.54c0-0.21,0.08-0.4,0.22-0.55
		c0.14-0.14,0.33-0.22,0.54-0.22c0.2,0,0.38,0.07,0.52,0.21l4.65,4.39c0.28,0.27,0.66,0.42,1.05,0.42c0.42,0,0.81-0.17,1.1-0.47
		c0.44-0.45,0.54-1.13,0.27-1.69C31.51,21.72,31.45,21.65,31.39,21.58z"/>
</g>
<g id="menu">
</g>
<g id="いいね">
</g>
<g id="header">
</g>
<g id="schedule">
	<g id="myschedule">
	</g>
</g>
<g id="news">
</g>
<g id="guide" class="st48">
</g>
</svg>
