<?xml version="1.0" encoding="utf-8"?>
<!-- Generator: Adobe Illustrator 27.0.1, SVG Export Plug-In . SVG Version: 6.00 Build 0)  -->
<svg version="1.1" xmlns="http://www.w3.org/2000/svg" xmlns:xlink="http://www.w3.org/1999/xlink" x="0px" y="0px"
	 viewBox="0 0 40 40" style="enable-background:new 0 0 40 40;" xml:space="preserve">
<style type="text/css">
	.st0{fill:#11BE93;}
	.st1{fill:#F34E6C;}
	.st2{fill:#2581C7;}
	.st3{fill:#FFC20B;}
	.st4{fill:#8DBAFF;}
	.st5{fill:#FFFFFF;}
	.st6{fill:url(#SVGID_1_);}
	.st7{fill:url(#SVGID_00000039107717078427877280000013301967489218273695_);}
	.st8{fill:url(#SVGID_00000055688472636214354130000015134271559606306688_);}
	.st9{fill:url(#SVGID_00000058578152213426699500000003727864333488317092_);}
	.st10{fill-rule:evenodd;clip-rule:evenodd;fill:#FFFFFF;}
	.st11{fill-rule:evenodd;clip-rule:evenodd;fill:url(#SVGID_00000088123891837391339660000000103142857486567313_);}
	.st12{fill-rule:evenodd;clip-rule:evenodd;fill:url(#SVGID_00000067935800372066819200000007042021335879304099_);}
	.st13{fill:url(#SVGID_00000087398859134838314660000013382885844350286259_);}
	.st14{fill:url(#SVGID_00000101067153956164798790000005992364229430726017_);}
	.st15{fill:url(#SVGID_00000142138451913896954280000006293492095253902497_);}
	.st16{fill:url(#SVGID_00000146478019750619210150000017111058492582309284_);}
	.st17{fill:url(#SVGID_00000011025307312054873600000010153322161398525071_);}
	.st18{fill:url(#SVGID_00000098209189886449304780000014367053187795502237_);}
	.st19{fill:url(#SVGID_00000141445426858304036120000005534633949710309281_);}
	.st20{fill:url(#SVGID_00000181083210383261722440000012998232203146355389_);}
	.st21{fill:url(#SVGID_00000013176707494388453520000007000084122830461373_);}
	.st22{fill:url(#SVGID_00000077305480410488085450000003237686594655300798_);}
	.st23{fill:url(#SVGID_00000124844397134155297020000012543776755557475498_);}
	.st24{fill:url(#SVGID_00000157267104967025845440000008708049015050824355_);}
	.st25{fill:url(#SVGID_00000107569216729935668600000010464432953507823797_);}
	.st26{fill:url(#SVGID_00000032611705952303196120000002892341802442590869_);}
	.st27{fill:url(#SVGID_00000110468019682827894690000009917410130124470191_);}
	.st28{opacity:0.2;fill:#3A2D87;}
	.st29{fill:url(#SVGID_00000041288025769429337980000003197920901951574921_);}
	.st30{fill:url(#SVGID_00000029018946908030439590000005009449969249589664_);}
	.st31{fill:url(#SVGID_00000076562810837633652000000000441933036413369749_);}
	.st32{fill:url(#SVGID_00000127038389219202736250000003128121906627236507_);}
	.st33{opacity:0.1;fill:url(#SVGID_00000060004425267576666240000001409018926630246574_);}
	.st34{fill:url(#SVGID_00000178887590904713769240000002582607117476182456_);}
	.st35{fill:url(#SVGID_00000043439472489597046890000011846258327211795840_);}
	.st36{fill:url(#SVGID_00000103246771420063514460000008188574557470693304_);}
	.st37{fill:url(#SVGID_00000137816313574739756650000002320978897573499579_);}
	.st38{fill:url(#SVGID_00000005249656735606101720000007466478089396659612_);}
	.st39{fill:url(#SVGID_00000039131360839220572740000010224231059637316753_);}
	.st40{fill:url(#SVGID_00000072240288275619207330000005298835070288506774_);}
	.st41{fill:url(#SVGID_00000091734846444465275900000002200108721707825056_);}
	.st42{fill:url(#SVGID_00000178912291366810797980000015941532897574984125_);}
	.st43{opacity:0.1;fill:url(#SVGID_00000122682937909935024080000017971616649348093333_);}
	.st44{fill:#FF74B8;}
	.st45{fill:#5A6172;}
	.st46{fill-rule:evenodd;clip-rule:evenodd;fill:#FF74B8;}
	.st47{fill:url(#メニュー_00000129195936025425567140000004802498872695955866_);}
	.st48{display:none;}
</style>
<g id="brand">
</g>
<g id="category">
	<path class="st5" d="M31.86,33.5c-3.16,0-5.57-4.55-6.47-6.51c-0.23-0.52-0.79-0.85-1.42-0.85h-7.95c-0.63,0-1.19,0.33-1.43,0.85
		c-0.89,1.96-3.3,6.51-6.47,6.51c-2.02,0-3.69-1.78-4.98-5.3c-3.58-9.77,1.41-16.5,4.92-18.95c0.94-0.65,1.97-0.98,3.07-0.98
		c0.55,0,1.1,0.08,1.7,0.24c1.41,0.38,2.37,0.69,3.13,0.94c1.56,0.5,2.14,0.69,4.03,0.69c1.89,0,2.47-0.19,4.03-0.69
		c0.77-0.25,1.72-0.55,3.13-0.94c0.6-0.16,1.15-0.24,1.7-0.24c1.1,0,2.13,0.33,3.07,0.98c3.51,2.44,8.5,9.18,4.92,18.95
		C35.56,31.71,33.88,33.5,31.86,33.5C31.86,33.5,31.86,33.5,31.86,33.5z"/>
	<linearGradient id="SVGID_1_" gradientUnits="userSpaceOnUse" x1="20" y1="32.4968" x2="20" y2="9.2662">
		<stop  offset="0" style="stop-color:#8DA5E2"/>
		<stop  offset="1" style="stop-color:#556686"/>
	</linearGradient>
	<path class="st6" d="M31.36,10.07c-1.36-0.95-2.72-0.93-3.93-0.6c-4.33,1.18-4.41,1.66-7.42,1.66c-3.01,0-3.1-0.49-7.42-1.66
		c-1.21-0.33-2.57-0.35-3.93,0.6C6.31,11.7,0.4,17.78,4.09,27.85c3.12,8.52,7.36,3.64,9.6-1.28c0.4-0.87,1.32-1.43,2.34-1.43H20
		h3.97c1.02,0,1.94,0.56,2.34,1.43c2.24,4.92,6.48,9.79,9.6,1.28C39.6,17.78,33.7,11.7,31.36,10.07z M15,19.4h-3.13v2.91H9.54V19.4
		H6.41v-2.16h3.13v-2.91h2.32v2.91H15V19.4z M25.79,19.77c-0.86,0-1.55-0.65-1.55-1.44c0-0.8,0.69-1.44,1.55-1.44
		c0.86,0,1.55,0.65,1.55,1.44C27.34,19.12,26.65,19.77,25.79,19.77z M28.92,22.67c-0.86,0-1.55-0.65-1.55-1.44
		c0-0.8,0.69-1.44,1.55-1.44c0.86,0,1.55,0.65,1.55,1.44C30.47,22.02,29.77,22.67,28.92,22.67z M28.92,16.86
		c-0.86,0-1.55-0.65-1.55-1.44c0-0.8,0.69-1.44,1.55-1.44c0.86,0,1.55,0.65,1.55,1.44C30.47,16.22,29.77,16.86,28.92,16.86z
		 M32.04,19.77c-0.86,0-1.55-0.65-1.55-1.44c0-0.8,0.69-1.44,1.55-1.44c0.86,0,1.55,0.65,1.55,1.44
		C33.59,19.12,32.89,19.77,32.04,19.77z"/>
</g>
<g id="menu">
</g>
<g id="いいね">
</g>
<g id="header">
</g>
<g id="schedule">
	<g id="myschedule">
	</g>
</g>
<g id="news">
</g>
<g id="guide" class="st48">
</g>
</svg>
