<?xml version="1.0" encoding="utf-8"?>
<!-- Generator: Adobe Illustrator 27.0.1, SVG Export Plug-In . SVG Version: 6.00 Build 0)  -->
<svg version="1.1" xmlns="http://www.w3.org/2000/svg" xmlns:xlink="http://www.w3.org/1999/xlink" x="0px" y="0px"
	 viewBox="0 0 40 40" style="enable-background:new 0 0 40 40;" xml:space="preserve">
<style type="text/css">
	.st0{fill:#11BE93;}
	.st1{fill:#F34E6C;}
	.st2{fill:#2581C7;}
	.st3{fill:#FFC20B;}
	.st4{fill:#8DBAFF;}
	.st5{fill:#FFFFFF;}
	.st6{fill:url(#SVGID_1_);}
	.st7{fill:url(#SVGID_00000075157179739020273280000000756396223639631764_);}
	.st8{fill:url(#SVGID_00000043437277932553756640000006008304661947527574_);}
	.st9{fill:url(#SVGID_00000029750572062726386080000006343673582780205452_);}
	.st10{fill-rule:evenodd;clip-rule:evenodd;fill:#FFFFFF;}
	.st11{fill-rule:evenodd;clip-rule:evenodd;fill:url(#SVGID_00000116222902024224779970000017869484598305870515_);}
	.st12{fill-rule:evenodd;clip-rule:evenodd;fill:url(#SVGID_00000155109214052724629070000004650314277378841996_);}
	.st13{fill:url(#SVGID_00000142894850418470162410000003656853888570962617_);}
	.st14{fill:url(#SVGID_00000159436866862269404370000017302768815425941427_);}
	.st15{fill:url(#SVGID_00000019653306251396921890000017097634906124356774_);}
	.st16{fill:url(#SVGID_00000009550031342139963070000004182071710086989246_);}
	.st17{fill:url(#SVGID_00000000908454283586816190000014427052058154747323_);}
	.st18{fill:url(#SVGID_00000041269760880036234890000015676939998625883559_);}
	.st19{fill:url(#SVGID_00000123403851968021552710000016759758569601697713_);}
	.st20{fill:url(#SVGID_00000050653772401145311070000000041188077477631161_);}
	.st21{fill:url(#SVGID_00000084516381405951657990000009680442744108812709_);}
	.st22{fill:url(#SVGID_00000122680106425576826490000010690770222875023528_);}
	.st23{fill:url(#SVGID_00000023991342245810400680000017630619311447587222_);}
	.st24{fill:url(#SVGID_00000137104323572809984220000013088268804660509349_);}
	.st25{fill:url(#SVGID_00000029733119407588838090000016382690149495516822_);}
	.st26{fill:url(#SVGID_00000017489456679758509980000000328339986234500258_);}
	.st27{fill:url(#SVGID_00000132772064923412382670000015433711451197686441_);}
	.st28{opacity:0.2;fill:#3A2D87;}
	.st29{fill:url(#SVGID_00000103970563696497447470000002800043608172380089_);}
	.st30{fill:url(#SVGID_00000139252739848229095080000017921667156822246288_);}
	.st31{fill:url(#SVGID_00000013910707354626900240000006301623398743801249_);}
	.st32{fill:url(#SVGID_00000034082350534697286530000001224543679556368821_);}
	.st33{opacity:0.1;fill:url(#SVGID_00000100378284006304805330000000619776403497440419_);}
	.st34{fill:url(#SVGID_00000050637376849863892140000003655685947439783351_);}
	.st35{fill:url(#SVGID_00000000183521395906866880000005327681916794783646_);}
	.st36{fill:url(#SVGID_00000088115791811256635650000014314806864530404750_);}
	.st37{fill:url(#SVGID_00000050642761388095243940000006914388856204689844_);}
	.st38{fill:url(#SVGID_00000178205585007313985360000001408342689170839709_);}
	.st39{fill:url(#SVGID_00000145771772347985570430000001726677029972434053_);}
	.st40{fill:url(#SVGID_00000175287619178405311140000000441773496440610960_);}
	.st41{fill:url(#SVGID_00000085939732440989261120000011473790835136988068_);}
	.st42{fill:url(#SVGID_00000149353304008039140700000013835980045399554994_);}
	.st43{opacity:0.1;fill:url(#SVGID_00000093173450350136176090000002277367647153142718_);}
	.st44{fill:#FF74B8;}
	.st45{fill:#5A6172;}
	.st46{fill-rule:evenodd;clip-rule:evenodd;fill:#FF74B8;}
	.st47{fill:url(#メニュー_00000070813551507071870850000009530191964020939440_);}
	.st48{display:none;}
</style>
<g id="brand">
</g>
<g id="category">
	<g>
		<path class="st10" d="M36.14,20.41l-5.68-3.67c0.15,0.02,0.3,0.03,0.45,0.03c1.39,0,2.67-0.71,3.42-1.89
			c1.2-1.89,0.64-4.42-1.23-5.63c-0.65-0.42-1.41-0.64-2.18-0.64c-0.98,0-1.89,0.35-2.62,0.97c0.45-1.68-0.18-3.54-1.7-4.52
			c-0.65-0.42-1.41-0.65-2.18-0.65c-1.39,0-2.67,0.71-3.42,1.89c-0.85,1.35-0.8,3.02-0.03,4.31l-5.71-3.68
			c-0.16-0.11-0.35-0.16-0.54-0.16c-0.07,0-0.14,0.01-0.22,0.02c-0.26,0.06-0.49,0.22-0.63,0.44l-2.22,3.52
			c-0.29,0.46-0.16,1.08,0.3,1.37l0.99,0.64h-1.82c-0.55,0-1,0.45-1,1v1.7H8.45c-0.55,0-1,0.45-1,1v2.11c0,0.55,0.45,1,1,1h1.67v1.7
			c0,0.05,0.02,0.09,0.03,0.14h-0.01c-0.55,0-1,0.45-1,1v9.23c0,2.17,1.75,3.93,3.9,3.93h7.27c0.35,0,0.65-0.19,0.83-0.47
			c0.18,0.28,0.47,0.47,0.83,0.47h7.27c2.15,0,3.9-1.76,3.9-3.93v-5.92c0.08,0.02,0.16,0.03,0.24,0.03c0.07,0,0.14-0.01,0.22-0.02
			c0.26-0.06,0.49-0.22,0.63-0.44l2.22-3.52C36.74,21.32,36.6,20.71,36.14,20.41z"/>
		<path class="st10" d="M8.77,11.15v-0.91h0.89c0.55,0,1-0.45,1-1v-1.5c0-0.55-0.45-1-1-1H8.77V5.83c0-0.55-0.45-1-1-1H6.29
			c-0.55,0-1,0.45-1,1v0.91H4.4c-0.55,0-1,0.45-1,1v1.5c0,0.55,0.45,1,1,1h0.89v0.91c0,0.55,0.45,1,1,1h1.48
			C8.32,12.15,8.77,11.7,8.77,11.15z"/>
	</g>
	<linearGradient id="SVGID_1_" gradientUnits="userSpaceOnUse" x1="20" y1="34.5884" x2="20" y2="5.4116">
		<stop  offset="0" style="stop-color:#8DA5E2"/>
		<stop  offset="1" style="stop-color:#556686"/>
	</linearGradient>
	<path style="fill-rule:evenodd;clip-rule:evenodd;fill:url(#SVGID_1_);" d="M21.84,6.84c0.91-1.44,2.79-1.86,4.21-0.94
		c1.41,0.91,1.83,2.8,0.95,4.23l0,0l-1.66,2.63l-2.6-1.68l0,0C21.35,10.15,20.94,8.26,21.84,6.84z M29.3,15.31L29.3,15.31
		c1.42,0.89,3.28,0.47,4.18-0.96c0.91-1.44,0.49-3.34-0.93-4.26c-1.41-0.91-3.28-0.5-4.19,0.91l0,0l-1.66,2.63L29.3,15.31z
		 M24.46,14.06l-9.75-6.29l-2.22,3.52l9.75,6.29L24.46,14.06z M35.6,21.25l-9.75-6.29l-2.22,3.52l6.12,3.95h-7.79v12.16h7.27
		c1.6,0,2.9-1.31,2.9-2.93v-7.69l1.24,0.8L35.6,21.25z M10.14,31.66c0,1.62,1.3,2.93,2.9,2.93h7.27V22.43H10.14V31.66z M13.21,13.77
		h-2.09v2.11h2.09V13.77z M13.21,19.17h-2.09v2.11h2.09V19.17z M15.88,18.58v-2.11h-2.09v2.11H15.88z M10.54,16.47H8.45v2.11h2.09
		V16.47z M6.29,7.33h1.48v-1.5H6.29V7.33z M6.29,11.15h1.48v-1.5H6.29V11.15z M9.66,7.74H8.18v1.5h1.48V7.74z M4.4,9.24h1.48v-1.5
		H4.4V9.24z"/>
</g>
<g id="menu">
</g>
<g id="いいね">
</g>
<g id="header">
</g>
<g id="schedule">
	<g id="myschedule">
	</g>
</g>
<g id="news">
</g>
<g id="guide" class="st48">
</g>
</svg>
