<?xml version="1.0" encoding="utf-8"?>
<!-- Generator: Adobe Illustrator 27.0.1, SVG Export Plug-In . SVG Version: 6.00 Build 0)  -->
<svg version="1.1" xmlns="http://www.w3.org/2000/svg" xmlns:xlink="http://www.w3.org/1999/xlink" x="0px" y="0px"
	 viewBox="0 0 40 40" style="enable-background:new 0 0 40 40;" xml:space="preserve">
<style type="text/css">
	.st0{fill:#11BE93;}
	.st1{fill:#F34E6C;}
	.st2{fill:#2581C7;}
	.st3{fill:#FFC20B;}
	.st4{fill:#8DBAFF;}
	.st5{fill:#FFFFFF;}
	.st6{fill:url(#SVGID_1_);}
	.st7{fill:url(#SVGID_00000129197370559327893720000001472309391140963259_);}
	.st8{fill:url(#SVGID_00000089560925024802139590000004155790366343491255_);}
	.st9{fill:url(#SVGID_00000109741900011835101730000015257521935900246164_);}
	.st10{fill-rule:evenodd;clip-rule:evenodd;fill:#FFFFFF;}
	.st11{fill-rule:evenodd;clip-rule:evenodd;fill:url(#SVGID_00000044855943655473446750000009538929621429605254_);}
	.st12{fill-rule:evenodd;clip-rule:evenodd;fill:url(#SVGID_00000163782711337474998640000017172030706111321226_);}
	.st13{fill:url(#SVGID_00000033326659784215281410000006259937825385518002_);}
	.st14{fill:url(#SVGID_00000011026883012012012060000011092508434560461983_);}
	.st15{fill:url(#SVGID_00000036955985189767999910000015073209503582027917_);}
	.st16{fill:url(#SVGID_00000064337899099429024130000005691016233724264611_);}
	.st17{fill:url(#SVGID_00000098905000078966904840000013148177155400155049_);}
	.st18{fill:url(#SVGID_00000168829641303528936990000009125444513676015539_);}
	.st19{fill:url(#SVGID_00000013194730177122241210000014206070599032664475_);}
	.st20{fill:url(#SVGID_00000031173710484175625250000014362153772219389624_);}
	.st21{fill:url(#SVGID_00000044151958991084023780000009798244680171252642_);}
	.st22{fill:url(#SVGID_00000007394316736541782670000013988769941889973393_);}
	.st23{fill:url(#SVGID_00000108272830548746727820000005133741512126512811_);}
	.st24{fill:url(#SVGID_00000183947459041306809660000016531947968844502926_);}
	.st25{fill:url(#SVGID_00000057855166762789439850000001718379604843200702_);}
	.st26{fill:url(#SVGID_00000154404074928313093680000005218102419980513685_);}
	.st27{fill:url(#SVGID_00000097470153896882560420000012328555921717434757_);}
	.st28{opacity:0.2;fill:#3A2D87;}
	.st29{fill:url(#SVGID_00000147942416509829357660000012206676923500155032_);}
	.st30{fill:url(#SVGID_00000062893041633687251690000005301104544853555872_);}
	.st31{fill:url(#SVGID_00000023249407462842017490000010873334381879717788_);}
	.st32{fill:url(#SVGID_00000060711695485823597990000006761773536623219645_);}
	.st33{opacity:0.1;fill:url(#SVGID_00000120542502149820037500000002666470832290390963_);}
	.st34{fill:url(#SVGID_00000084512114198591590240000005261709755848088985_);}
	.st35{fill:url(#SVGID_00000041989290891617736850000003576293408081684642_);}
	.st36{fill:url(#SVGID_00000057116796750144419670000012711482179067786136_);}
	.st37{fill:url(#SVGID_00000152238864241067388500000001776490744590872207_);}
	.st38{fill:url(#SVGID_00000065056576905278663810000000507671061839838614_);}
	.st39{fill:url(#SVGID_00000155106278228678501710000007360353522272978093_);}
	.st40{fill:url(#SVGID_00000146496962988059245080000007105230804163687568_);}
	.st41{fill:url(#SVGID_00000159428668893574208040000015583773181098118827_);}
	.st42{fill:url(#SVGID_00000093143345319961135040000007799292440518608045_);}
	.st43{opacity:0.1;fill:url(#SVGID_00000099655901117978492460000015343065670162521018_);}
	.st44{fill:#FF74B8;}
	.st45{fill:#5A6172;}
	.st46{fill-rule:evenodd;clip-rule:evenodd;fill:#FF74B8;}
	.st47{fill:url(#メニュー_00000049187468896370395220000018265773676122208686_);}
	.st48{display:none;}
</style>
<g id="brand">
</g>
<g id="category">
	<path class="st5" d="M32.59,7.41c-1.57-1.56-3.65-2.42-5.86-2.42c-1.83,0-3.63,0.61-5.07,1.72c-0.23,0.18-0.37,0.44-0.39,0.73
		c-0.01,0.18,0.04,0.36,0.13,0.52c-0.14-0.07-0.29-0.13-0.46-0.13c-0.02,0-0.04,0-0.06,0c-0.29,0.02-0.55,0.16-0.73,0.39
		c-1.59,2.05-2.07,4.65-1.49,7.03c-0.08-0.04-0.17-0.08-0.26-0.09c-0.06-0.01-0.13-0.02-0.19-0.02c-0.29,0-0.57,0.12-0.76,0.35
		l-8.34,9.69c-0.74,0.86-0.81,2.09-0.26,3.03c-0.03,0.02-0.06,0.03-0.09,0.06l-3.49,3.48c-0.19,0.19-0.29,0.44-0.29,0.71
		s0.11,0.52,0.29,0.71l1.56,1.56c0.2,0.19,0.45,0.29,0.71,0.29s0.51-0.1,0.71-0.29l3.49-3.48c0.03-0.03,0.04-0.07,0.07-0.1
		c0.39,0.22,0.82,0.34,1.28,0.34c0,0,0,0,0,0c0.62,0,1.23-0.22,1.7-0.63l9.7-8.32c0.27-0.23,0.4-0.6,0.33-0.95
		c-0.02-0.09-0.05-0.18-0.09-0.26c0.64,0.16,1.3,0.24,1.97,0.24c1.83,0,3.63-0.61,5.07-1.72c0.23-0.18,0.37-0.44,0.39-0.73
		c0.01-0.18-0.04-0.36-0.13-0.51c0.14,0.07,0.29,0.12,0.46,0.12c0.02,0,0.04,0,0.06,0c0.29-0.02,0.55-0.16,0.73-0.39
		C35.83,15.04,35.53,10.35,32.59,7.41z"/>
	<linearGradient id="SVGID_1_" gradientUnits="userSpaceOnUse" x1="20" y1="34.0167" x2="20" y2="5.9833">
		<stop  offset="0" style="stop-color:#8DA5E2"/>
		<stop  offset="1" style="stop-color:#556686"/>
	</linearGradient>
	<path class="st6" d="M32.5,17.72L22.26,7.5c2.86-2.21,6.99-2.01,9.62,0.62C34.51,10.74,34.71,14.86,32.5,17.72z M21.55,18.43
		c2.63,2.62,6.75,2.82,9.62,0.62L20.93,8.83C18.72,11.69,18.92,15.81,21.55,18.43z M18.2,16.14l-8.34,9.69
		c-0.55,0.64-0.51,1.6,0.08,2.19l2,1.99c0.6,0.6,1.56,0.63,2.2,0.08l9.7-8.33c-1.27-0.43-2.47-1.14-3.49-2.15
		C19.34,18.61,18.63,17.41,18.2,16.14z M5.99,32.45l1.56,1.56l3.49-3.48l-1.56-1.56L5.99,32.45z"/>
</g>
<g id="menu">
</g>
<g id="いいね">
</g>
<g id="header">
</g>
<g id="schedule">
	<g id="myschedule">
	</g>
</g>
<g id="news">
</g>
<g id="guide" class="st48">
</g>
</svg>
