<?xml version="1.0" encoding="utf-8"?>
<!-- Generator: Adobe Illustrator 27.0.1, SVG Export Plug-In . SVG Version: 6.00 Build 0)  -->
<svg version="1.1" xmlns="http://www.w3.org/2000/svg" xmlns:xlink="http://www.w3.org/1999/xlink" x="0px" y="0px"
	 viewBox="0 0 40 40" style="enable-background:new 0 0 40 40;" xml:space="preserve">
<style type="text/css">
	.st0{fill:#11BE93;}
	.st1{fill:#F34E6C;}
	.st2{fill:#2581C7;}
	.st3{fill:#FFC20B;}
	.st4{fill:#8DBAFF;}
	.st5{fill:#FFFFFF;}
	.st6{fill:url(#SVGID_1_);}
	.st7{fill:url(#SVGID_00000035514779523712044500000016952984268717086605_);}
	.st8{fill:url(#SVGID_00000090264149188967983470000011538209447931000753_);}
	.st9{fill:url(#SVGID_00000111167115398481903750000004370380443184903337_);}
	.st10{fill-rule:evenodd;clip-rule:evenodd;fill:#FFFFFF;}
	.st11{fill-rule:evenodd;clip-rule:evenodd;fill:url(#SVGID_00000130619535206785583060000000228225069462848145_);}
	.st12{fill-rule:evenodd;clip-rule:evenodd;fill:url(#SVGID_00000065775419042956823020000004323225909826047932_);}
	.st13{fill:url(#SVGID_00000126318654322151866750000000869759695722142897_);}
	.st14{fill:url(#SVGID_00000023283022444452297040000013888711414126133653_);}
	.st15{fill:url(#SVGID_00000155863181494869401860000006331724563319044761_);}
	.st16{fill:url(#SVGID_00000168104632114005099640000010702931910811249553_);}
	.st17{fill:url(#SVGID_00000044137801703107496350000007279598867905139643_);}
	.st18{fill:url(#SVGID_00000116926637443416734250000010118418761524322466_);}
	.st19{fill:url(#SVGID_00000049901053946921650720000013656212106963927201_);}
	.st20{fill:url(#SVGID_00000178914140164916022100000015564245551389276838_);}
	.st21{fill:url(#SVGID_00000086689155359259570290000013238252999826901692_);}
	.st22{fill:url(#SVGID_00000167387986925575521170000001080745258756625827_);}
	.st23{fill:url(#SVGID_00000047043017142565290090000005827590326710787510_);}
	.st24{fill:url(#SVGID_00000146474022482629997270000000190556914601002677_);}
	.st25{fill:url(#SVGID_00000088132887078085444550000011180257535296775558_);}
	.st26{fill:url(#SVGID_00000169549348440119226660000004219059981671629464_);}
	.st27{fill:url(#SVGID_00000075867503230715464250000013710622494926555836_);}
	.st28{opacity:0.2;fill:#3A2D87;}
	.st29{fill:url(#SVGID_00000108292707173340092550000015524723796958744252_);}
	.st30{fill:url(#SVGID_00000022518853655031642690000000135628204658234793_);}
	.st31{fill:url(#SVGID_00000040575987820826933120000012660987126228834199_);}
	.st32{fill:url(#SVGID_00000122684655770764668630000007102943139811166861_);}
	.st33{opacity:0.1;fill:url(#SVGID_00000162314986469284757760000012608476692160493203_);}
	.st34{fill:url(#SVGID_00000116915894482605096810000001072325965103421602_);}
	.st35{fill:url(#SVGID_00000169540980757559418140000015410156315717936778_);}
	.st36{fill:url(#SVGID_00000161634112575511959690000017272314680418637498_);}
	.st37{fill:url(#SVGID_00000181075221490646601530000008069098663930665638_);}
	.st38{fill:url(#SVGID_00000006679716841596767360000005930815358415382697_);}
	.st39{fill:url(#SVGID_00000086654155432746296470000017047569325244679301_);}
	.st40{fill:url(#SVGID_00000062164953053565389710000004333168054177847200_);}
	.st41{fill:url(#SVGID_00000126317615631794081290000018369785620961438593_);}
	.st42{fill:url(#SVGID_00000114059026612005197350000002846065066964461963_);}
	.st43{opacity:0.1;fill:url(#SVGID_00000117655999622699176380000007771208775616413090_);}
	.st44{fill:#FF74B8;}
	.st45{fill:#5A6172;}
	.st46{fill-rule:evenodd;clip-rule:evenodd;fill:#FF74B8;}
	.st47{fill:url(#メニュー_00000171716202783149973060000005308848632749122193_);}
	.st48{display:none;}
</style>
<g id="brand">
</g>
<g id="category">
	<g>
		<path class="st5" d="M34.32,10.87c-0.14-0.41-0.52-0.67-0.94-0.67c-0.05,0-0.11,0-0.16,0.01l-4.95,0.82
			c-0.34,0.06-0.63,0.29-0.76,0.61c-0.13,0.32-0.09,0.69,0.12,0.97l0.51,0.7l-2.22,1.04c-0.44,0.21-0.67,0.7-0.54,1.17
			c0.12,0.44,0.52,0.73,0.96,0.73c0.04,0,0.07,0,0.1,0l5.7-0.59c0.35-0.04,0.65-0.25,0.8-0.57s0.12-0.69-0.08-0.98l-0.72-1.06
			l1.72-0.97C34.29,11.83,34.49,11.33,34.32,10.87z"/>
		<path class="st5" d="M23.73,17.79c0.62-0.7,0.98-1.61,0.98-2.56c0-1.11-0.47-2.09-1.22-2.79l5.72-4.39
			c0.28-0.21,0.42-0.56,0.38-0.91c-0.04-0.35-0.26-0.65-0.58-0.8l-1.87-0.86l1.49-2.64c0.24-0.42,0.14-0.96-0.24-1.26
			c-0.18-0.15-0.41-0.23-0.63-0.23c-0.23,0-0.47,0.08-0.66,0.24l-5.09,4.42c-0.26,0.23-0.39,0.57-0.33,0.92
			c0.06,0.34,0.28,0.63,0.6,0.76l1.43,0.59l-2.06,3.11c-0.02,0.03-0.02,0.06-0.04,0.08c-0.22-0.04-0.45-0.07-0.69-0.07
			c-1,0-1.91,0.4-2.58,1.05c-0.06-0.22-0.19-0.42-0.39-0.56l-5.73-4.04c-0.17-0.12-0.37-0.18-0.58-0.18c-0.14,0-0.28,0.03-0.41,0.09
			c-0.32,0.15-0.54,0.45-0.58,0.8l-0.18,1.67L6.91,9.17c-0.1-0.03-0.19-0.04-0.29-0.04c-0.38,0-0.75,0.22-0.91,0.59
			c-0.21,0.46-0.04,1,0.38,1.26l6.29,3.89c0.16,0.1,0.34,0.15,0.53,0.15c0.16,0,0.31-0.04,0.46-0.11c0.31-0.16,0.52-0.47,0.54-0.82
			L14,12.78l3.1,0.89c0.09,0.03,0.18,0.04,0.28,0.04c0.03,0,0.06-0.01,0.09-0.01c-0.2,0.47-0.32,0.98-0.32,1.53
			c0,0.95,0.36,1.86,0.99,2.56l-7.07,19.51c-0.11,0.31-0.07,0.65,0.12,0.92c0.19,0.27,0.49,0.43,0.82,0.43h2.65
			c0.42,0,0.8-0.26,0.94-0.66l1.03-2.84l7.52-3.02l2.12,5.85c0.14,0.4,0.52,0.66,0.94,0.66h2.65c0.33,0,0.63-0.16,0.82-0.43
			c0.19-0.27,0.23-0.61,0.12-0.92L23.73,17.79z"/>
	</g>
	<linearGradient id="SVGID_1_" gradientUnits="userSpaceOnUse" x1="19.9999" y1="37.6464" x2="19.9999" y2="2.3536">
		<stop  offset="0" style="stop-color:#8DA5E2"/>
		<stop  offset="1" style="stop-color:#556686"/>
	</linearGradient>
	<path class="st6" d="M22.49,11.95l2.73-4.12l-2.55-1.06l5.09-4.42l-2.02,3.59l2.85,1.31L22.49,11.95z M13.1,11.48l4.28,1.23
		l-5.73-4.04l-0.31,2.87l-4.72-1.43l6.3,3.89L13.1,11.48z M33.38,11.2l-4.95,0.82l1.23,1.68l-3.32,1.55l5.7-0.59l-1.32-1.96
		L33.38,11.2z M22.56,17.5l7.3,20.13H27.2l-2.47-6.82l-8.9,3.57l-1.18,3.26H12l7.3-20.14c-0.7-0.51-1.15-1.34-1.15-2.28
		c0-1.56,1.25-2.82,2.78-2.82c1.53,0,2.78,1.27,2.78,2.82C23.71,16.16,23.25,16.99,22.56,17.5z M19.25,24.96l2.81-1.52l-1.13-3.11
		L19.25,24.96z M20.47,29.53l-2.64-0.68l-0.74,2.03L20.47,29.53z M21.46,26.92l2.05,0.53l-0.49-1.37L21.46,26.92z"/>
</g>
<g id="menu">
</g>
<g id="いいね">
</g>
<g id="header">
</g>
<g id="schedule">
	<g id="myschedule">
	</g>
</g>
<g id="news">
</g>
<g id="guide" class="st48">
</g>
</svg>
