<?xml version="1.0" encoding="utf-8"?>
<!-- Generator: Adobe Illustrator 27.0.1, SVG Export Plug-In . SVG Version: 6.00 Build 0)  -->
<svg version="1.1" xmlns="http://www.w3.org/2000/svg" xmlns:xlink="http://www.w3.org/1999/xlink" x="0px" y="0px"
	 viewBox="0 0 40 40" style="enable-background:new 0 0 40 40;" xml:space="preserve">
<style type="text/css">
	.st0{fill:#11BE93;}
	.st1{fill:#F34E6C;}
	.st2{fill:#2581C7;}
	.st3{fill:#FFC20B;}
	.st4{fill:#8DBAFF;}
	.st5{fill:#FFFFFF;}
	.st6{fill:url(#SVGID_1_);}
	.st7{fill:url(#SVGID_00000080914799102672884230000015836503946997117062_);}
	.st8{fill:url(#SVGID_00000037673559865537440610000006589014498999046829_);}
	.st9{fill:url(#SVGID_00000090981899321167824050000006626274197719266973_);}
	.st10{fill-rule:evenodd;clip-rule:evenodd;fill:#FFFFFF;}
	.st11{fill-rule:evenodd;clip-rule:evenodd;fill:url(#SVGID_00000000905491118097085920000002554218599379748773_);}
	.st12{fill-rule:evenodd;clip-rule:evenodd;fill:url(#SVGID_00000134945039387297101760000017287336785441435819_);}
	.st13{fill:url(#SVGID_00000081636832730942447170000001651039097448694425_);}
	.st14{fill:url(#SVGID_00000157281972590410299310000004484702485170619839_);}
	.st15{fill:url(#SVGID_00000118396687273023183090000005948890309546404789_);}
	.st16{fill:url(#SVGID_00000054246385744692031590000001108126230518042263_);}
	.st17{fill:url(#SVGID_00000168822072695063665040000015462586132105907606_);}
	.st18{fill:url(#SVGID_00000161598890068908299250000003818172939945142675_);}
	.st19{fill:url(#SVGID_00000000944949725309690840000008176380758370990775_);}
	.st20{fill:url(#SVGID_00000161590541183339256880000003522199802154117531_);}
	.st21{fill:url(#SVGID_00000059284474028448449900000002535249727454224829_);}
	.st22{fill:url(#SVGID_00000137842507034076198780000003640021413103209118_);}
	.st23{fill:url(#SVGID_00000066487562889451488200000009258069804081246355_);}
	.st24{fill:url(#SVGID_00000111183664381884289280000008873756057103550857_);}
	.st25{fill:url(#SVGID_00000069383196340971133740000010430260818059581325_);}
	.st26{fill:url(#SVGID_00000134949749756061218190000017085443437254496423_);}
	.st27{fill:url(#SVGID_00000025402510627118197990000009061212730781151899_);}
	.st28{opacity:0.2;fill:#3A2D87;}
	.st29{fill:url(#SVGID_00000088854954102115651390000002779162519181904307_);}
	.st30{fill:url(#SVGID_00000057852267310578983940000016410815363642154902_);}
	.st31{fill:url(#SVGID_00000135662375662823212700000000888678480261907625_);}
	.st32{fill:url(#SVGID_00000175296425796491684030000015619088051931669181_);}
	.st33{opacity:0.1;fill:url(#SVGID_00000086693332197238304760000004419164479852825270_);}
	.st34{fill:url(#SVGID_00000042707846110021787110000009501421582581009315_);}
	.st35{fill:url(#SVGID_00000045584795626495550830000009824066302866807680_);}
	.st36{fill:url(#SVGID_00000155838026848016059420000013888704730663524495_);}
	.st37{fill:url(#SVGID_00000118383702816561358070000009804208225461126546_);}
	.st38{fill:url(#SVGID_00000163057746126687449830000012289646264846224317_);}
	.st39{fill:url(#SVGID_00000121979224927921263970000004194209894568114325_);}
	.st40{fill:url(#SVGID_00000090262668084562781810000002842655868747813016_);}
	.st41{fill:url(#SVGID_00000176751638528725849030000002701208686603685772_);}
	.st42{fill:url(#SVGID_00000065774436049391477460000000399929540271060413_);}
	.st43{opacity:0.1;fill:url(#SVGID_00000094620587503047770790000004218124050682623631_);}
	.st44{fill:#FF74B8;}
	.st45{fill:#5A6172;}
	.st46{fill-rule:evenodd;clip-rule:evenodd;fill:#FF74B8;}
	.st47{fill:url(#メニュー_00000003106414979621380310000017615744482498951590_);}
	.st48{display:none;}
</style>
<g id="brand">
</g>
<g id="category">
	<path class="st5" d="M6.91,34.87c-2.14,0-3.88-1.68-3.88-3.75V15.34l-0.35-2.73c-0.13-1.03,0.15-2.04,0.8-2.87
		C4.16,8.88,5.14,8.33,6.25,8.2l25.94-3.04c0.16-0.02,0.33-0.03,0.5-0.03c0.04,0,0.16,0.01,0.2,0.01c0.09,0,0.21,0.01,0.32,0.03
		c0.14,0.02,0.28,0.04,0.42,0.07c0.11,0.02,0.22,0.05,0.33,0.09c0.13,0.04,0.26,0.09,0.39,0.15c0.09,0.04,0.19,0.08,0.29,0.14
		c0.13,0.07,0.25,0.14,0.37,0.22c0.11,0.07,0.19,0.13,0.26,0.19c0.1,0.08,0.21,0.18,0.31,0.28c0.1,0.1,0.16,0.16,0.22,0.22
		c0.11,0.12,0.19,0.24,0.28,0.37c0.07,0.1,0.12,0.17,0.16,0.24c0.08,0.14,0.15,0.29,0.21,0.44c0.05,0.11,0.08,0.18,0.11,0.25
		c0.09,0.26,0.15,0.52,0.18,0.77l0.38,2.93c0.03,0.26-0.04,0.53-0.2,0.74c-0.17,0.21-0.41,0.35-0.67,0.38l-9.92,1.16h10.03
		c0.55,0,1,0.45,1,1v16.31c0,2.07-1.74,3.75-3.88,3.75H6.91z"/>
	<linearGradient id="SVGID_1_" gradientUnits="userSpaceOnUse" x1="19.9999" y1="33.8702" x2="19.9999" y2="6.1301">
		<stop  offset="0" style="stop-color:#8DA5E2"/>
		<stop  offset="1" style="stop-color:#556686"/>
	</linearGradient>
	<path class="st6" d="M9.19,14.81l26.93-3.16l-0.38-2.93c-0.03-0.2-0.07-0.38-0.13-0.56c-0.02-0.06-0.05-0.12-0.08-0.17
		c-0.05-0.12-0.1-0.23-0.16-0.34c-0.04-0.06-0.08-0.12-0.13-0.18c-0.06-0.09-0.13-0.18-0.2-0.27C35,7.14,34.94,7.08,34.88,7.03
		c-0.08-0.08-0.15-0.15-0.24-0.22c-0.06-0.05-0.13-0.09-0.2-0.14c-0.09-0.06-0.18-0.12-0.27-0.17c-0.07-0.04-0.15-0.07-0.23-0.11
		c-0.1-0.04-0.2-0.08-0.3-0.11c-0.08-0.03-0.16-0.05-0.25-0.07c-0.11-0.02-0.21-0.04-0.32-0.06c-0.09-0.01-0.17-0.02-0.26-0.02
		c-0.04,0-0.09-0.01-0.13-0.01c-0.13,0-0.25,0.01-0.38,0.02L6.37,9.19c-1.69,0.2-2.9,1.67-2.69,3.29l0.36,2.8v15.84
		c0,1.52,1.29,2.75,2.88,2.75h26.55c1.59,0,2.88-1.23,2.88-2.75V14.81H9.19z M11.56,12.68l1.73-2.45l2.9-0.34l-1.73,2.45
		L11.56,12.68z M17.37,12l1.73-2.45L22,9.21l-1.73,2.45L17.37,12z M23.19,11.32l1.73-2.45l2.9-0.34l-1.73,2.45L23.19,11.32z
		 M31.9,10.3L29,10.64l1.73-2.45l2.9-0.34L31.9,10.3z M7.52,10.91l2.9-0.34l-1.73,2.45l-2.9,0.34L7.52,10.91z M15.93,28.91v-9.13
		l9.83,4.57L15.93,28.91z"/>
</g>
<g id="menu">
</g>
<g id="いいね">
</g>
<g id="header">
</g>
<g id="schedule">
	<g id="myschedule">
	</g>
</g>
<g id="news">
</g>
<g id="guide" class="st48">
</g>
</svg>
