<?xml version="1.0" encoding="utf-8"?>
<!-- Generator: Adobe Illustrator 27.0.1, SVG Export Plug-In . SVG Version: 6.00 Build 0)  -->
<svg version="1.1" xmlns="http://www.w3.org/2000/svg" xmlns:xlink="http://www.w3.org/1999/xlink" x="0px" y="0px"
	 viewBox="0 0 40 40" style="enable-background:new 0 0 40 40;" xml:space="preserve">
<style type="text/css">
	.st0{fill:#11BE93;}
	.st1{fill:#F34E6C;}
	.st2{fill:#2581C7;}
	.st3{fill:#FFC20B;}
	.st4{fill:#8DBAFF;}
	.st5{fill:#FFFFFF;}
	.st6{fill:url(#SVGID_1_);}
	.st7{fill:url(#SVGID_00000152973465558150559250000007067513798089879704_);}
	.st8{fill:url(#SVGID_00000157995383883543399820000006801244274673628568_);}
	.st9{fill:url(#SVGID_00000168111460882683823290000014421107407612284580_);}
	.st10{fill-rule:evenodd;clip-rule:evenodd;fill:#FFFFFF;}
	.st11{fill-rule:evenodd;clip-rule:evenodd;fill:url(#SVGID_00000031907699694276520580000016669227149380205696_);}
	.st12{fill-rule:evenodd;clip-rule:evenodd;fill:url(#SVGID_00000138532695728201625570000017958119471112235928_);}
	.st13{fill:url(#SVGID_00000154407104810690794610000002608350020121132952_);}
	.st14{fill:url(#SVGID_00000165216431689484098130000007045766233872486821_);}
	.st15{fill:url(#SVGID_00000164493662967736992960000005496356078099795614_);}
	.st16{fill:url(#SVGID_00000040550535411829574400000015387950926148072381_);}
	.st17{fill:url(#SVGID_00000058562044447113605280000017994217943084777881_);}
	.st18{fill:url(#SVGID_00000137099762059666868450000006501794678292157579_);}
	.st19{fill:url(#SVGID_00000044162542945410477050000018202514836336881024_);}
	.st20{fill:url(#SVGID_00000101816083008668590970000001357597986173166777_);}
	.st21{fill:url(#SVGID_00000170991095075839448390000017563074602410709658_);}
	.st22{fill:url(#SVGID_00000049214550209994091070000013748416793468760506_);}
	.st23{fill:url(#SVGID_00000100358413211771902030000015235449632397824153_);}
	.st24{fill:url(#SVGID_00000040560293589416381020000015310436730286523796_);}
	.st25{fill:url(#SVGID_00000148651503438022902220000017944699942243823034_);}
	.st26{fill:url(#SVGID_00000003084264436663666620000007638751892527097252_);}
	.st27{fill:url(#SVGID_00000114776052034318749550000016304653530938617733_);}
	.st28{opacity:0.2;fill:#3A2D87;}
	.st29{fill:url(#SVGID_00000041281708471614003610000004823859201289729447_);}
	.st30{fill:url(#SVGID_00000114795740192334330140000017685022756849065600_);}
	.st31{fill:url(#SVGID_00000143612082562109898110000015200492521438592919_);}
	.st32{fill:url(#SVGID_00000168092430111426722580000007250605242105385625_);}
	.st33{opacity:0.1;fill:url(#SVGID_00000165225970540132002630000012749758416971169199_);}
	.st34{fill:url(#SVGID_00000116208151699919069640000008590206515332061826_);}
	.st35{fill:url(#SVGID_00000051362452564348898190000003967046833716699067_);}
	.st36{fill:url(#SVGID_00000034082185041181956420000006507892802570368908_);}
	.st37{fill:url(#SVGID_00000058550457560889443590000017793565016939260333_);}
	.st38{fill:url(#SVGID_00000173857113741891425700000010076820061874137781_);}
	.st39{fill:url(#SVGID_00000162317753365055293310000016883312348345272198_);}
	.st40{fill:url(#SVGID_00000065067560376347192520000008573384834197690242_);}
	.st41{fill:url(#SVGID_00000168801356869967232020000010102990119187704978_);}
	.st42{fill:url(#SVGID_00000090294089735030541690000003220130662138314392_);}
	.st43{opacity:0.1;fill:url(#SVGID_00000080169865366465264200000002990338848530981525_);}
	.st44{fill:#FF74B8;}
	.st45{fill:#5A6172;}
	.st46{fill-rule:evenodd;clip-rule:evenodd;fill:#FF74B8;}
	.st47{fill:url(#メニュー_00000080899660310639364080000013410965633680037784_);}
	.st48{display:none;}
</style>
<g id="brand">
</g>
<g id="category">
	<path class="st5" d="M34.79,22.46V19.6c0-8.11-6.64-14.71-14.8-14.71S5.2,11.49,5.2,19.6v2.86c-1.68,1.04-2.73,2.88-2.73,4.86
		c0,3.15,2.58,5.72,5.75,5.72c0.1,0,0.19-0.03,0.28-0.06c0.48,1.24,1.68,2.12,3.09,2.12c1.83,0,3.32-1.48,3.32-3.3v-8.96
		c0-1.82-1.49-3.3-3.32-3.3c-0.93,0-1.77,0.39-2.37,1V19.6C9.21,13.7,14.05,8.89,20,8.89c5.95,0,10.79,4.8,10.79,10.71v0.93
		c-0.6-0.61-1.44-0.99-2.37-0.99c-1.83,0-3.32,1.48-3.32,3.3v8.96c0,1.82,1.49,3.3,3.32,3.3c1.41,0,2.61-0.88,3.09-2.12
		c0.09,0.03,0.18,0.06,0.28,0.06c3.17,0,5.75-2.57,5.75-5.72C37.53,25.34,36.47,23.5,34.79,22.46z"/>
	<linearGradient id="SVGID_1_" gradientUnits="userSpaceOnUse" x1="20" y1="34.1061" x2="20" y2="5.8939">
		<stop  offset="0" style="stop-color:#8DA5E2"/>
		<stop  offset="1" style="stop-color:#556686"/>
	</linearGradient>
	<path class="st6" d="M11.58,20.54c-1.28,0-2.32,1.03-2.32,2.3v8.96c0,1.27,1.04,2.3,2.32,2.3s2.32-1.03,2.32-2.3v-8.96
		C13.9,21.57,12.87,20.54,11.58,20.54z M28.42,20.54c-1.28,0-2.32,1.03-2.32,2.3v8.96c0,1.27,1.04,2.3,2.32,2.3
		c1.28,0,2.32-1.03,2.32-2.3v-8.96C30.73,21.57,29.7,20.54,28.42,20.54z M33.79,23.06V19.6c0-7.56-6.19-13.71-13.8-13.71
		c-7.61,0-13.8,6.15-13.8,13.71v3.46c-1.61,0.76-2.73,2.38-2.73,4.26c0,2.6,2.14,4.72,4.75,4.72l0-9.44c0,0,0,0-0.01,0v-3
		C8.21,13.15,13.5,7.89,20,7.89c6.5,0,11.78,5.25,11.78,11.71v5.18h0v7.26c2.61,0,4.75-2.12,4.75-4.72
		C36.53,25.44,35.4,23.81,33.79,23.06z"/>
</g>
<g id="menu">
</g>
<g id="いいね">
</g>
<g id="header">
</g>
<g id="schedule">
	<g id="myschedule">
	</g>
</g>
<g id="news">
</g>
<g id="guide" class="st48">
</g>
</svg>
