<?xml version="1.0" encoding="utf-8"?>
<!-- Generator: Adobe Illustrator 27.0.1, SVG Export Plug-In . SVG Version: 6.00 Build 0)  -->
<svg version="1.1" xmlns="http://www.w3.org/2000/svg" xmlns:xlink="http://www.w3.org/1999/xlink" x="0px" y="0px"
	 viewBox="0 0 40 40" style="enable-background:new 0 0 40 40;" xml:space="preserve">
<style type="text/css">
	.st0{fill:#11BE93;}
	.st1{fill:#F34E6C;}
	.st2{fill:#2581C7;}
	.st3{fill:#FFC20B;}
	.st4{fill:#8DBAFF;}
	.st5{fill:#FFFFFF;}
	.st6{fill:url(#SVGID_1_);}
	.st7{fill:url(#SVGID_00000039133215048443593280000014923325399553284283_);}
	.st8{fill:url(#SVGID_00000023247070347068458920000003124972349915794063_);}
	.st9{fill:url(#SVGID_00000119797406302382316550000007485676786698220934_);}
	.st10{fill-rule:evenodd;clip-rule:evenodd;fill:#FFFFFF;}
	.st11{fill-rule:evenodd;clip-rule:evenodd;fill:url(#SVGID_00000096740656853652846630000006994334338671487889_);}
	.st12{fill-rule:evenodd;clip-rule:evenodd;fill:url(#SVGID_00000029763454181951428410000000434119780996432044_);}
	.st13{fill:url(#SVGID_00000130626244860224212950000001113252070884200600_);}
	.st14{fill:url(#SVGID_00000146494703802856418430000010880595121434594976_);}
	.st15{fill:url(#SVGID_00000067232268690552646170000011765389383485986194_);}
	.st16{fill:url(#SVGID_00000063627990707536438320000003402814275825726127_);}
	.st17{fill:url(#SVGID_00000118367794641043551500000002210702391052891052_);}
	.st18{fill:url(#SVGID_00000003065387693592773520000011462635655291155107_);}
	.st19{fill:url(#SVGID_00000070117736892398614090000005693572777412867993_);}
	.st20{fill:url(#SVGID_00000076599507626320837600000001658523292122093452_);}
	.st21{fill:url(#SVGID_00000127760132820711737710000010427069076128352186_);}
	.st22{fill:url(#SVGID_00000041259199363706031410000004002073741760152487_);}
	.st23{fill:url(#SVGID_00000028287630128775680320000011577062231162416541_);}
	.st24{fill:url(#SVGID_00000078033077567172700020000000686332045440661423_);}
	.st25{fill:url(#SVGID_00000094617849663939581840000013898263414771909788_);}
	.st26{fill:url(#SVGID_00000152960272532848328420000003164798232658766726_);}
	.st27{fill:url(#SVGID_00000048478045257519055240000013403275540391086214_);}
	.st28{opacity:0.2;fill:#3A2D87;}
	.st29{fill:url(#SVGID_00000031197759441233990630000018076320304796627602_);}
	.st30{fill:url(#SVGID_00000119836653677466183210000001853841387495225269_);}
	.st31{fill:url(#SVGID_00000013892428930903121100000018347608309678641035_);}
	.st32{fill:url(#SVGID_00000109003296342496628610000007679499388302224795_);}
	.st33{opacity:0.1;fill:url(#SVGID_00000041282243942224667190000015500261209970329512_);}
	.st34{fill:url(#SVGID_00000157297872306163265090000018204078181261944492_);}
	.st35{fill:url(#SVGID_00000155133067543089165640000012961682547027863434_);}
	.st36{fill:url(#SVGID_00000052097799194536721530000001545411572879525809_);}
	.st37{fill:url(#SVGID_00000004519275345621511900000002394383126589705396_);}
	.st38{fill:url(#SVGID_00000183959245761138796120000008243052871236657819_);}
	.st39{fill:url(#SVGID_00000050645266672238424510000005412692907902351540_);}
	.st40{fill:url(#SVGID_00000112596488328478437790000016813375013944476852_);}
	.st41{fill:url(#SVGID_00000050648629605041666430000001614370614511820695_);}
	.st42{fill:url(#SVGID_00000116954502355442766290000009627801264840364941_);}
	.st43{opacity:0.1;fill:url(#SVGID_00000016039294188656617920000017403558477793005230_);}
	.st44{fill:#FF74B8;}
	.st45{fill:#5A6172;}
	.st46{fill-rule:evenodd;clip-rule:evenodd;fill:#FF74B8;}
	.st47{fill:url(#メニュー_00000140705590040395515400000011923510286424347827_);}
	.st48{display:none;}
</style>
<g id="brand">
</g>
<g id="category">
	<path class="st5" d="M35.08,5.4c-0.24,0-0.48,0.03-0.71,0.07c-0.16-0.33-0.5-0.57-0.89-0.57H9.7c-1.48,0-2.68,1.19-2.68,2.65v21.31
		H2.97c-0.55,0-1,0.45-1,1v2.87c0,1.75,1.44,3.18,3.22,3.18h21.13c0.53,0,0.96-0.41,0.99-0.94c0.07,0,0.14,0.02,0.21,0.02h2.05
		c1.48,0,2.68-1.19,2.68-2.65c0,0,0-13.23,0-19.9h5.74c0.55,0,1-0.45,1-1V9.36c0-0.03,0-0.06,0-0.09C39,7.13,37.24,5.4,35.08,5.4z"
		/>
	<g>
		<g>
			<linearGradient id="SVGID_1_" gradientUnits="userSpaceOnUse" x1="20.4822" y1="34.8979" x2="20.4822" y2="5.9025">
				<stop  offset="0" style="stop-color:#8DA5E2"/>
				<stop  offset="1" style="stop-color:#556686"/>
			</linearGradient>
			<path class="st6" d="M35.08,6.4c-1.61,0-2.92,1.28-2.92,2.86h0v2.18h5.84V9.26h0C38,7.68,36.69,6.4,35.08,6.4z M23.39,31.66
				l0-1.81H2.97v2.86c0,1.2,0.99,2.18,2.22,2.18h21.13C24.95,34.78,23.39,33.34,23.39,31.66z M33.48,5.99V5.9H9.7
				c-0.93,0-1.68,0.74-1.68,1.65v21.39H24.6l0,2.18c0,1.58,1.31,2.86,2.92,2.86h2.05c0.93,0,1.68-0.74,1.68-1.65V8.77h0
				C31.25,7.42,32.2,6.3,33.48,5.99z M19.61,25.31h-7.19c-0.75,0-1.37-0.6-1.37-1.34c0-0.74,0.61-1.34,1.37-1.34h7.19
				c0.75,0,1.37,0.6,1.37,1.34C20.97,24.71,20.36,25.31,19.61,25.31z M26.12,19.42H12.41c-0.75,0-1.37-0.6-1.37-1.34
				c0-0.74,0.61-1.34,1.37-1.34h13.71c0.75,0,1.37,0.6,1.37,1.34C27.49,18.82,26.88,19.42,26.12,19.42z M26.12,13.53H12.41
				c-0.75,0-1.37-0.6-1.37-1.34c0-0.74,0.61-1.34,1.37-1.34h13.71c0.75,0,1.37,0.6,1.37,1.34C27.49,12.93,26.88,13.53,26.12,13.53z"
				/>
		</g>
	</g>
</g>
<g id="menu">
</g>
<g id="いいね">
</g>
<g id="header">
</g>
<g id="schedule">
	<g id="myschedule">
	</g>
</g>
<g id="news">
</g>
<g id="guide" class="st48">
</g>
</svg>
