<?xml version="1.0" encoding="utf-8"?>
<!-- Generator: Adobe Illustrator 27.0.1, SVG Export Plug-In . SVG Version: 6.00 Build 0)  -->
<svg version="1.1" xmlns="http://www.w3.org/2000/svg" xmlns:xlink="http://www.w3.org/1999/xlink" x="0px" y="0px"
	 viewBox="0 0 40 40" style="enable-background:new 0 0 40 40;" xml:space="preserve">
<style type="text/css">
	.st0{fill:#11BE93;}
	.st1{fill:#F34E6C;}
	.st2{fill:#2581C7;}
	.st3{fill:#FFC20B;}
	.st4{fill:#8DBAFF;}
	.st5{fill:#FFFFFF;}
	.st6{fill:url(#SVGID_1_);}
	.st7{fill:url(#SVGID_00000008141085684824087590000009372907857837413040_);}
	.st8{fill:url(#SVGID_00000066481897793588568580000001706947836535743672_);}
	.st9{fill:url(#SVGID_00000090996297153770727030000005340629644265413804_);}
	.st10{fill-rule:evenodd;clip-rule:evenodd;fill:#FFFFFF;}
	.st11{fill-rule:evenodd;clip-rule:evenodd;fill:url(#SVGID_00000122687122332103508600000002317432015153312651_);}
	.st12{fill-rule:evenodd;clip-rule:evenodd;fill:url(#SVGID_00000094603911235292691700000010186675064741272244_);}
	.st13{fill:url(#SVGID_00000101784207598593420170000009499795167372911527_);}
	.st14{fill:url(#SVGID_00000133499276593781839770000013337050785679826352_);}
	.st15{fill:url(#SVGID_00000103244938145217455780000015451281340124427967_);}
	.st16{fill:url(#SVGID_00000164507030130804158180000015196917196208219573_);}
	.st17{fill:url(#SVGID_00000054958716296435090500000015936767993789490875_);}
	.st18{fill:url(#SVGID_00000063623420309881907080000005089100727811542936_);}
	.st19{fill:url(#SVGID_00000092435732149128869700000003561790153209043357_);}
	.st20{fill:url(#SVGID_00000097493326735041709110000018066320888671404726_);}
	.st21{fill:url(#SVGID_00000078026713402007724490000011875771580164861590_);}
	.st22{fill:url(#SVGID_00000060014213620093369790000012389656617619211938_);}
	.st23{fill:url(#SVGID_00000172412280469022798260000008752195953801394063_);}
	.st24{fill:url(#SVGID_00000125580271009843354500000000134189669136065198_);}
	.st25{fill:url(#SVGID_00000056404943326382511610000018340684740052106936_);}
	.st26{fill:url(#SVGID_00000073703779352232353670000005039488349977371278_);}
	.st27{fill:url(#SVGID_00000075164445051203395710000010458167963862629808_);}
	.st28{opacity:0.2;fill:#3A2D87;}
	.st29{fill:url(#SVGID_00000073698023426099498170000009464721164455225279_);}
	.st30{fill:url(#SVGID_00000045578113697734181560000014419945261441769394_);}
	.st31{fill:url(#SVGID_00000098188668097661426350000003981747187053485725_);}
	.st32{fill:url(#SVGID_00000155856532079844896840000011057838261767040178_);}
	.st33{opacity:0.1;fill:url(#SVGID_00000029039433628929129380000005777167856896625283_);}
	.st34{fill:url(#SVGID_00000060737356189029866390000018212620022592623516_);}
	.st35{fill:url(#SVGID_00000116942639112311011520000002229623349750746766_);}
	.st36{fill:url(#SVGID_00000163034636643782216220000013108376026412815551_);}
	.st37{fill:url(#SVGID_00000155858670588094537090000016331597087668511635_);}
	.st38{fill:url(#SVGID_00000014626841786229512500000008502523673279404168_);}
	.st39{fill:url(#SVGID_00000052079901944397340080000015921541813083034265_);}
	.st40{fill:url(#SVGID_00000077325858346367743820000006015843467536863396_);}
	.st41{fill:url(#SVGID_00000089559179995281090860000013578349496423671964_);}
	.st42{fill:url(#SVGID_00000031182248817720889680000010311011394635517592_);}
	.st43{opacity:0.1;fill:url(#SVGID_00000143619368797183220470000004552127224600566684_);}
	.st44{fill:#FF74B8;}
	.st45{fill:#5A6172;}
	.st46{fill-rule:evenodd;clip-rule:evenodd;fill:#FF74B8;}
	.st47{fill:url(#メニュー_00000089551413197753774180000001128381441009347479_);}
	.st48{display:none;}
</style>
<g id="brand">
</g>
<g id="category">
	<path class="st5" d="M7.73,35.61c-1.88,0-3.42-1.53-3.42-3.41V17.15c0-1.88,1.53-3.41,3.42-3.41h14.62L9.66,8.25
		C9.16,8.03,8.78,7.64,8.58,7.14c-0.2-0.5-0.19-1.05,0.03-1.54c0.32-0.74,1.04-1.21,1.85-1.21c0.28,0,0.54,0.05,0.8,0.17l21.26,9.2
		c1.77,0.13,3.17,1.6,3.17,3.4V32.2c0,1.88-1.53,3.41-3.41,3.41H7.73z"/>
	<linearGradient id="SVGID_1_" gradientUnits="userSpaceOnUse" x1="20" y1="34.6132" x2="20" y2="5.3868">
		<stop  offset="0" style="stop-color:#8DA5E2"/>
		<stop  offset="1" style="stop-color:#556686"/>
	</linearGradient>
	<path class="st6" d="M32.27,14.74L32.27,14.74l-21.4-9.27C10.35,5.25,9.75,5.48,9.53,6C9.3,6.51,9.54,7.11,10.05,7.33l17.13,7.41
		H7.73c-1.33,0-2.41,1.08-2.41,2.41V32.2c0,1.33,1.08,2.41,2.41,2.41h24.53c1.33,0,2.41-1.08,2.41-2.41V17.15
		C34.68,15.82,33.6,14.74,32.27,14.74z M14.58,19.05c1.8,0,3.4,0.8,4.46,2.06h-8.93C11.18,19.85,12.78,19.05,14.58,19.05z
		 M14.58,30.31c-1.8,0-3.4-0.8-4.46-2.06h8.93C17.99,29.51,16.38,30.31,14.58,30.31z M20.21,25.9H8.95
		c-0.09-0.39-0.14-0.8-0.14-1.23c0-0.42,0.05-0.83,0.14-1.23h11.26c0.09,0.39,0.14,0.8,0.14,1.23C20.35,25.1,20.3,25.51,20.21,25.9z
		 M30.28,24.68h-5.3c-0.5,0-0.91-0.4-0.91-0.89c0-0.49,0.41-0.89,0.91-0.89h5.3c0.5,0,0.91,0.4,0.91,0.89
		C31.19,24.28,30.78,24.68,30.28,24.68z M31.19,19.93c0,0.49-0.41,0.89-0.91,0.89h-5.3c-0.5,0-0.91-0.4-0.91-0.89v0
		c0-0.49,0.41-0.89,0.91-0.89h5.3C30.78,19.05,31.19,19.44,31.19,19.93L31.19,19.93z"/>
</g>
<g id="menu">
</g>
<g id="いいね">
</g>
<g id="header">
</g>
<g id="schedule">
	<g id="myschedule">
	</g>
</g>
<g id="news">
</g>
<g id="guide" class="st48">
</g>
</svg>
