<?xml version="1.0" encoding="utf-8"?>
<!-- Generator: Adobe Illustrator 27.0.1, SVG Export Plug-In . SVG Version: 6.00 Build 0)  -->
<svg version="1.1" xmlns="http://www.w3.org/2000/svg" xmlns:xlink="http://www.w3.org/1999/xlink" x="0px" y="0px"
	 viewBox="0 0 40 40" style="enable-background:new 0 0 40 40;" xml:space="preserve">
<style type="text/css">
	.st0{fill:#11BE93;}
	.st1{fill:#F34E6C;}
	.st2{fill:#2581C7;}
	.st3{fill:#FFC20B;}
	.st4{fill:#8DBAFF;}
	.st5{fill:#FFFFFF;}
	.st6{fill:url(#SVGID_1_);}
	.st7{fill:url(#SVGID_00000004522397157468518260000002197074937115141800_);}
	.st8{fill:url(#SVGID_00000179609896116450071080000009278151953653984681_);}
	.st9{fill:url(#SVGID_00000016033718797717885150000009285373315292241549_);}
	.st10{fill-rule:evenodd;clip-rule:evenodd;fill:#FFFFFF;}
	.st11{fill-rule:evenodd;clip-rule:evenodd;fill:url(#SVGID_00000129191559683002930740000017494455776644483763_);}
	.st12{fill-rule:evenodd;clip-rule:evenodd;fill:url(#SVGID_00000182515996515610989950000017371061282933392062_);}
	.st13{fill:url(#SVGID_00000032606458460692989950000002448667564216947120_);}
	.st14{fill:url(#SVGID_00000059284524673371721860000012516132552626961796_);}
	.st15{fill:url(#SVGID_00000007416325719804044070000013991612735443298209_);}
	.st16{fill:url(#SVGID_00000063603584388324413680000014688460825899678108_);}
	.st17{fill:url(#SVGID_00000155844567536226250000000012342776106530252931_);}
	.st18{fill:url(#SVGID_00000018948953556392828540000005137292734406162839_);}
	.st19{fill:url(#SVGID_00000061468006542635118470000004359487240240759430_);}
	.st20{fill:url(#SVGID_00000036229807048246286970000005041725138593374358_);}
	.st21{fill:url(#SVGID_00000131347478078984986380000011952526180179231164_);}
	.st22{fill:url(#SVGID_00000114777502574550819200000011422015102575166386_);}
	.st23{fill:url(#SVGID_00000043424806799560919370000017317804921715779253_);}
	.st24{fill:url(#SVGID_00000170271062859313878240000008597783973042121616_);}
	.st25{fill:url(#SVGID_00000176009864396327144660000002816863087026889637_);}
	.st26{fill:url(#SVGID_00000047054861192665845150000006617146666711548322_);}
	.st27{fill:url(#SVGID_00000068678179845516957940000012172099959594675388_);}
	.st28{opacity:0.2;fill:#3A2D87;}
	.st29{fill:url(#SVGID_00000178181661046542099380000017907201409241354154_);}
	.st30{fill:url(#SVGID_00000016044945615980615840000016663698873832370834_);}
	.st31{fill:url(#SVGID_00000094578415681144549670000005016082207015978639_);}
	.st32{fill:url(#SVGID_00000143580739200703165110000013949505638218632333_);}
	.st33{opacity:0.1;fill:url(#SVGID_00000057124538651984288970000001555140224548567210_);}
	.st34{fill:url(#SVGID_00000136406992244632093230000014898456599486539152_);}
	.st35{fill:url(#SVGID_00000124854866333949452450000012589058217271989925_);}
	.st36{fill:url(#SVGID_00000023263258206337764360000011124573072377805978_);}
	.st37{fill:url(#SVGID_00000015330029316466627100000003831974202585067688_);}
	.st38{fill:url(#SVGID_00000127021955851498758210000015176338054166741121_);}
	.st39{fill:url(#SVGID_00000164472736765880680720000007051111462060040605_);}
	.st40{fill:url(#SVGID_00000131334652243984063750000010123671127574504355_);}
	.st41{fill:url(#SVGID_00000152257989717747975550000012193606347480091285_);}
	.st42{fill:url(#SVGID_00000058551943444510124620000009877485247930839438_);}
	.st43{opacity:0.1;fill:url(#SVGID_00000098915027869873072320000009989860168824679086_);}
	.st44{fill:#FF74B8;}
	.st45{fill:#5A6172;}
	.st46{fill-rule:evenodd;clip-rule:evenodd;fill:#FF74B8;}
	.st47{fill:url(#メニュー_00000032609758159123285260000004615756222389932184_);}
	.st48{display:none;}
</style>
<g id="brand">
</g>
<g id="category">
	<g>
		<path class="st5" d="M35.84,20.22c-0.33,0-0.65,0.08-0.95,0.23l-6.61,3.28c-0.58,0.29-0.97,0.81-1.12,1.42v-1.44
			c0-1.88-1.49-3.4-3.35-3.49c3.34-0.89,5.81-3.93,5.81-7.54c0-4.3-3.51-7.81-7.82-7.81s-7.82,3.5-7.82,7.81
			c0,3.59,2.44,6.61,5.74,7.52H9.74c0.88-0.28,1.68-0.77,2.35-1.44c1.11-1.11,1.73-2.59,1.73-4.17c0-3.25-2.65-5.89-5.9-5.89
			c-1.81,0-3.49,0.81-4.62,2.22c-1.12,1.41-1.54,3.25-1.12,5.04c0.49,2.16,2.21,3.87,4.37,4.36c0.12,0.03,0.24,0.04,0.35,0.06
			c-1.4,0.46-2.42,1.77-2.42,3.32v7.94c0,1.93,1.58,3.51,3.51,3.51h15.66c1.94,0,3.51-1.57,3.51-3.51v-1.45
			c0.15,0.61,0.54,1.13,1.12,1.42l6.6,3.28c0.3,0.15,0.62,0.23,0.95,0.23c1.18,0,2.15-0.96,2.15-2.14v-10.6
			C37.98,21.18,37.02,20.22,35.84,20.22z"/>
	</g>
	<linearGradient id="SVGID_1_" gradientUnits="userSpaceOnUse" x1="19.9376" y1="34.139" x2="19.9376" y2="5.861">
		<stop  offset="0" style="stop-color:#8DA5E2"/>
		<stop  offset="1" style="stop-color:#556686"/>
	</linearGradient>
	<path class="st6" d="M26.1,23.69v7.94c0,1.39-1.12,2.51-2.51,2.51H7.93c-1.39,0-2.51-1.12-2.51-2.51v-7.94
		c0-1.39,1.12-2.51,2.51-2.51h15.66C24.97,21.19,26.1,22.31,26.1,23.69z M12.76,14.58c0-2.7-2.19-4.89-4.9-4.89
		c-3.08,0-5.5,2.84-4.77,6.05c0.4,1.77,1.84,3.21,3.61,3.61C9.91,20.07,12.76,17.66,12.76,14.58z M21.74,5.86
		c-3.76,0-6.82,3.05-6.82,6.81c0,3.76,3.05,6.81,6.82,6.81c3.76,0,6.82-3.05,6.82-6.81C28.56,8.91,25.5,5.86,21.74,5.86z
		 M35.27,21.34l-6.61,3.28c-0.39,0.19-0.64,0.59-0.64,1.02v4.04c0,0.43,0.25,0.83,0.64,1.02l6.61,3.28
		c0.76,0.38,1.65-0.18,1.65-1.02v-10.6C36.92,21.51,36.03,20.96,35.27,21.34z"/>
</g>
<g id="menu">
</g>
<g id="いいね">
</g>
<g id="header">
</g>
<g id="schedule">
	<g id="myschedule">
	</g>
</g>
<g id="news">
</g>
<g id="guide" class="st48">
</g>
</svg>
