<?xml version="1.0" encoding="utf-8"?>
<!-- Generator: Adobe Illustrator 27.0.1, SVG Export Plug-In . SVG Version: 6.00 Build 0)  -->
<svg version="1.1" id="_レイヤー_2" xmlns="http://www.w3.org/2000/svg" xmlns:xlink="http://www.w3.org/1999/xlink" x="0px"
	 y="0px" viewBox="0 0 160 50" style="enable-background:new 0 0 160 50;" xml:space="preserve">
<style type="text/css">
	.st0{fill-rule:evenodd;clip-rule:evenodd;fill:#0070D1;}
	.st1{fill-rule:evenodd;clip-rule:evenodd;fill:#FFFFFF;}
	.st2{fill:#FFFFFF;}
</style>
<g id="_レイヤー_1-2">
	<g>
		<path class="st0" d="M8,0h143.1c5.3,0,8.9,3.6,8.9,7.1v34c0,5.3-3.6,8.9-8.9,8.9H8c-4.4,0-8-3.6-8-8.9v-34C0,3.6,3.6,0,8,0z"/>
		<path class="st1" d="M141.7,18.6h-3.5l6.8,5.9l-6.8,5.9h3.5l6.8-5.9L141.7,18.6z"/>
	</g>
</g>
<g>
	<path class="st2" d="M22,13.2h12.8v1.4h-5c0,1.8-0.4,3.1-1.2,4.1s-2.1,1.7-3.9,2.2l-0.5-1.4c1.5-0.4,2.5-0.9,3.1-1.7
		c0.6-0.7,0.9-1.8,0.9-3.2H22V13.2z M23.8,10.6V9.2h7.8v1.4H23.8z M31.4,8.1l1.1-0.6c0.4,0.7,0.8,1.5,1.2,2.2l-1.1,0.6
		C32.3,9.6,31.9,8.9,31.4,8.1z M33.5,7.9l1.1-0.6c0.5,0.8,0.9,1.6,1.2,2.3l-1.1,0.6C34.5,9.6,34.1,8.8,33.5,7.9z"/>
	<path class="st2" d="M38,12.5c1.4,0.2,3,0.6,4.9,0.9l-0.3,1.5c-1.8-0.4-3.5-0.7-4.9-0.9L38,12.5z M48.3,10.8l1.5,0.3
		c-0.6,3.2-1.7,5.5-3.5,7c-1.7,1.5-4.3,2.4-7.8,2.7l-0.2-1.5c3.2-0.3,5.5-1,7-2.3C46.8,15.7,47.8,13.7,48.3,10.8z M38.7,8.8
		c1.4,0.2,3.1,0.5,5.1,0.9l-0.3,1.5c-2-0.4-3.7-0.7-5.1-0.9L38.7,8.8z M46.2,8.3l1.1-0.6c0.4,0.7,0.8,1.5,1.2,2.2l-1.1,0.6
		C47,9.8,46.6,9,46.2,8.3z M48.3,8l1.1-0.6c0.5,0.8,0.9,1.6,1.2,2.3l-1.1,0.6C49.3,9.7,48.8,9,48.3,8z"/>
	<path class="st2" d="M55.6,8.2l1.5,0.1c0,0.4-0.1,0.8-0.2,1.3h7v0.6c0,3.4-0.8,5.9-2.4,7.6s-4.1,2.6-7.6,2.9l-0.2-1.4
		c1.8-0.2,3.2-0.5,4.3-1c1.1-0.5,2-1.1,2.7-2c-1.7-0.9-3.2-1.6-4.6-2.2l0.7-1.4c1.7,0.7,3.2,1.5,4.7,2.2c0.4-1,0.7-2.4,0.8-3.9h-5.7
		c-0.6,1.7-1.6,3.2-3,4.5l-1.1-1c0.9-0.8,1.6-1.8,2.1-2.9C55.2,10.6,55.5,9.4,55.6,8.2z"/>
	<path class="st2" d="M69.7,8.9h1.6v3c0,2-0.1,3.6-0.3,4.7c-0.2,1.1-0.6,2-1.1,2.5s-1.2,1.1-2.1,1.6l-0.9-1.4
		c0.8-0.4,1.4-0.8,1.7-1.3c0.4-0.5,0.6-1.1,0.8-2c0.1-0.9,0.2-2.3,0.2-4.1V8.9z M73.6,8.9h1.6v10c2.2-0.5,3.5-2.2,3.8-5.3l1.5,0.2
		c-0.2,2.2-0.9,3.8-2,5c-1.1,1.2-2.7,1.7-4.6,1.7h-0.3V8.9z"/>
	<path class="st2" d="M31.4,26.3l1.1-0.6c0.4,0.7,0.8,1.5,1.2,2.2l-0.4,0.2v0.3c0,3.4-0.8,5.9-2.4,7.6c-1.6,1.7-4.1,2.6-7.6,2.9
		l-0.2-1.4c1.8-0.2,3.2-0.5,4.4-1c1.1-0.5,2-1.2,2.7-2c-1.6-0.8-3.1-1.5-4.5-2.1l0.7-1.4c1.5,0.7,3,1.4,4.5,2.1
		c0.4-1,0.7-2.3,0.7-3.9h-5.5c-0.6,1.7-1.6,3.2-3,4.5l-1.1-1c0.9-0.8,1.5-1.8,2.1-2.9c0.5-1.1,0.9-2.3,1-3.5l1.5,0.1
		c0,0.4-0.1,0.8-0.2,1.3h5.8C31.9,27.1,31.6,26.6,31.4,26.3z M33.5,26l1.1-0.6c0.5,0.8,0.9,1.6,1.2,2.3l-1.1,0.6
		C34.5,27.7,34.1,27,33.5,26z"/>
	<path class="st2" d="M37.9,28.3h4.8V26h1.6v2.3h5v2.6c0,2.4-0.7,4.2-2.2,5.5c-1.5,1.3-3.6,2.1-6.4,2.2l-0.2-1.4
		c4.8-0.3,7.2-2.4,7.2-6.3v-1.2h-8.3v3.5h-1.5V28.3z"/>
	<path class="st2" d="M53.1,28.4l0.7-1.4c1.7,0.8,3.2,1.6,4.6,2.5l-0.8,1.4C56,29.9,54.5,29,53.1,28.4z M63.4,28.4l1.5,0.3
		c-1,5.8-4.8,9-11.2,9.6l-0.2-1.5c2.9-0.3,5.2-1.1,6.8-2.5C61.9,32.9,62.9,31,63.4,28.4z"/>
	<path class="st2" d="M67.8,27.3h11.5v10.8h-9.9h-1.6V27.3z M69.4,36.6h8.2v-7.9h-8.2V36.6z"/>
	<path class="st2" d="M82.4,33.4v-1.6h12.3v1.6H82.4z"/>
	<path class="st2" d="M99.4,26.7h1.7V31c2.7,0.7,5.5,1.5,8.3,2.5l-0.5,1.5c-2.6-1-5.2-1.8-7.8-2.4V39h-1.7V26.7z M104,27.6l1.3-0.7
		c0.5,0.8,1,1.7,1.5,2.7l-1.3,0.6C105,29.4,104.6,28.6,104,27.6z M106.3,27l1.3-0.7c0.5,0.9,1,1.8,1.5,2.7l-1.3,0.7
		C107.3,28.8,106.8,27.9,106.3,27z"/>
	<path class="st2" d="M113.7,34.4c-0.1,1.8-0.5,3.5-1.1,5l-1.3-1c0.3-0.9,0.5-1.9,0.7-3s0.2-2.6,0.2-4.4v-4.9h1.5v3.6h1.2V26h1.4
		v3.7h1v1.4h-3.7V32v1h2.9v4.5c0.5-1,0.8-2,0.9-2.9s0.3-2.3,0.3-3.8v-4.4h7.5v1.4h-5.9v1.9h5.5V31c-0.4,2-1.1,3.6-2,4.9
		c0.8,0.9,1.7,1.6,2.8,2.1l-0.8,1.3c-1.1-0.5-2.1-1.3-3-2.2c-0.9,0.9-2,1.7-3.3,2.2l-0.5-1.1c-0.2,0.3-0.3,0.7-0.5,1l-0.9-1.1v1.2
		h-1.5v-5H113.7z M121.1,35.8c-0.7-1-1.2-2-1.6-3.1c-0.1,1.9-0.4,3.6-1.1,5.1C119.5,37.3,120.4,36.6,121.1,35.8z M122,34.6
		c0.6-1,1.1-2.2,1.4-3.6h-4v0.6l1-0.4C120.9,32.5,121.4,33.6,122,34.6z"/>
</g>
</svg>
