<?xml version="1.0" encoding="UTF-8"?><svg id="_レイヤー_2" xmlns="http://www.w3.org/2000/svg" viewBox="0 0 30 26.8"><g id="_いいね"><path d="M15,26.8c-.19,0-.37-.05-.54-.14-.59-.33-14.46-8.25-14.46-18.28C0,3.76,3.74,0,8.33,0,11.01,0,13.45,1.27,15,3.35,17.24,.36,21.29-.86,24.87,.64c3.12,1.3,5.13,4.34,5.13,7.73,0,10.03-13.87,17.95-14.46,18.28-.17,.09-.36,.14-.54,.14ZM8.33,2.23c-3.37,0-6.11,2.76-6.11,6.14,0,7.7,10.28,14.47,12.78,16.01,2.5-1.54,12.78-8.31,12.78-16.01,0-2.49-1.48-4.71-3.76-5.67-3.11-1.3-6.7,.18-7.99,3.31-.17,.42-.58,.69-1.03,.69s-.85-.27-1.03-.69c-.95-2.3-3.17-3.78-5.64-3.78Z" style="fill:#ff74b8;"/></g></svg>