<?xml version="1.0" encoding="utf-8"?>
<!-- Generator: Adobe Illustrator 27.0.1, SVG Export Plug-In . SVG Version: 6.00 Build 0)  -->
<svg version="1.1" xmlns="http://www.w3.org/2000/svg" xmlns:xlink="http://www.w3.org/1999/xlink" x="0px" y="0px" viewBox="0 0 30 30" style="enable-background:new 0 0 30 30;" xml:space="preserve">
<style type="text/css">.st44{fill:#FF74B8;}</style>
<path class="st44" d="M13.76,15.75l4.03-3.62v-1.16l-1.28-1.18H13.4l-1.19,1.1v1.06H9.66v-1.79l2.62-2.43h5.35l2.71,2.52v2.58 l-4.07,3.66v2.04h-2.51V15.75z M13.51,21.48v-1.1l0.85-0.79h1.3l0.85,0.79v1.1l-0.85,0.79h-1.3L13.51,21.48z"/>
<path class="st44" d="M15,28.27C7.69,28.27,1.74,22.31,1.74,15C1.74,7.69,7.69,1.73,15,1.73S28.26,7.69,28.26,15 C28.26,22.31,22.31,28.27,15,28.27z M15,3.54C8.68,3.54,3.53,8.68,3.53,15c0,6.32,5.14,11.46,11.47,11.46S26.47,21.32,26.47,15 C26.47,8.68,21.32,3.54,15,3.54z"/>
</svg>
