<svg enable-background="new 0 0 140 140" viewBox="0 0 140 140" xmlns="http://www.w3.org/2000/svg"><path d="m43.5 68.4v-23c0-14.6 11.9-26.5 26.5-26.5 14.7 0 26.5 11.9 26.5 26.5v23" fill="none" stroke="#fe9ccd" stroke-miterlimit="10" stroke-width="10.11"/><path d="m109.7 62.7h-79.4c-6.1 0-10.9 4.9-10.9 10.9v55.4c0 6.1 4.9 10.9 11 10.9h79.4c6.1 0 10.9-4.9 10.9-10.9v-55.3c0-6.1-4.9-11-11-11zm-36.2 36.5 1.1 17.9c.1.9-.7 1.6-1.5 1.6h-6c-.9 0-1.6-.8-1.5-1.6l1.1-17.9c-2.7-1.3-4.5-4-4.5-7.2 0-4.4 3.6-8 8-8s8 3.6 8 8c-.2 3.2-2 5.9-4.7 7.2z" fill="#fe9ccd"/></svg>