<?xml version="1.0" encoding="utf-8"?>
<!-- Generator: Adobe Illustrator 27.0.1, SVG Export Plug-In . SVG Version: 6.00 Build 0)  -->
<svg version="1.1" id="_レイヤー_2" xmlns="http://www.w3.org/2000/svg" xmlns:xlink="http://www.w3.org/1999/xlink" x="0px"
	 y="0px" viewBox="0 0 160 50" style="enable-background:new 0 0 160 50;" xml:space="preserve">
<style type="text/css">
	.st0{fill-rule:evenodd;clip-rule:evenodd;fill:#107C10;}
	.st1{fill-rule:evenodd;clip-rule:evenodd;fill:#FFFFFF;}
	.st2{enable-background:new    ;}
	.st3{fill:#FFFFFF;}
</style>
<g id="_レイヤー_1-2">
	<g>
		<path class="st0" d="M8,0h143.1c5.3,0,8.9,3.6,8.9,7.1v34c0,5.3-3.6,8.9-8.9,8.9H8c-4.4,0-8-3.6-8-8.9v-34C0,3.6,3.6,0,8,0z"/>
		<path class="st1" d="M141.7,18.6h-3.5l6.8,5.9l-6.8,5.9h3.5l6.8-5.9L141.7,18.6z"/>
	</g>
</g>
<g class="st2">
	<path class="st3" d="M24.9,8.3l2.9,5.1h0l2.9-5.1h2.2L29,14.7l4,6.7h-2.3l-2.9-5.3h0l-2.9,5.3h-2.2l4-6.7l-3.9-6.5H24.9z"/>
	<path class="st3" d="M35.1,7.9h1.8v5.4h0c0.7-1,1.6-1.4,2.8-1.4c1.2,0,2.1,0.4,2.8,1.2c0.7,0.8,1,2,1,3.6c0,1.6-0.3,2.8-1,3.6
		c-0.7,0.8-1.6,1.3-2.7,1.3c-1.2,0-2.2-0.5-2.9-1.5h0l0,1.3h-1.7V7.9z M41.8,16.7c0-1.1-0.2-2-0.6-2.6c-0.4-0.6-1-0.9-1.8-0.9
		c-0.7,0-1.3,0.3-1.7,0.9c-0.5,0.6-0.7,1.4-0.7,2.4v0.2c0,1,0.2,1.9,0.7,2.4c0.5,0.6,1,0.9,1.7,0.9c0.7,0,1.3-0.3,1.8-0.9
		C41.6,18.7,41.8,17.8,41.8,16.7z"/>
	<path class="st3" d="M46.4,13.2c0.8-0.9,1.9-1.3,3.3-1.3c1.4,0,2.4,0.4,3.3,1.3c0.8,0.9,1.2,2.1,1.2,3.5c0,1.5-0.4,2.7-1.2,3.5
		c-0.8,0.9-1.9,1.3-3.3,1.3c-1.4,0-2.4-0.4-3.3-1.3c-0.8-0.9-1.2-2.1-1.2-3.5C45.2,15.2,45.6,14.1,46.4,13.2z M47.8,19.2
		c0.5,0.6,1.1,0.9,1.9,0.9c0.8,0,1.5-0.3,1.9-0.9c0.5-0.6,0.7-1.4,0.7-2.5s-0.2-1.9-0.7-2.5c-0.5-0.6-1.1-0.9-1.9-0.9
		c-0.8,0-1.5,0.3-1.9,0.9c-0.5,0.6-0.7,1.4-0.7,2.5S47.3,18.6,47.8,19.2z"/>
	<path class="st3" d="M59.5,17.8L59.5,17.8l-2.2,3.6h-2l3.2-4.8L55.4,12h2.1l2.1,3.4h0l2.1-3.4h2l-3.1,4.6l3.1,4.8h-2.1L59.5,17.8z"
		/>
	<path class="st3" d="M71.5,8.3h8.1v1.6l-3.9,3.8v0H76c1.2,0,2.1,0.3,2.7,0.9c0.6,0.6,1,1.5,1,2.7c0,1.4-0.4,2.4-1.3,3.2
		s-2,1.1-3.5,1.1c-1.3,0-2.5-0.3-3.5-0.9l0.5-1.6c1.1,0.6,2.1,0.9,3,0.9c0.9,0,1.6-0.2,2.1-0.7c0.5-0.5,0.7-1.1,0.7-2
		c0-0.7-0.3-1.3-0.8-1.6c-0.5-0.4-1.4-0.5-2.5-0.5h-1.3v-1.5L77,9.9v0h-5.6V8.3z"/>
	<path class="st3" d="M87,21.6c-1.5,0-2.7-0.4-3.5-1.3c-0.8-0.9-1.2-2.2-1.2-4c0-2.4,0.6-4.3,1.8-5.8C85.3,9,87,8.2,89.1,8.1
		l0.4,1.6c-1.3,0.1-2.4,0.5-3.2,1.1c-0.8,0.6-1.4,1.5-1.8,2.7l0,0c0.8-0.7,1.8-1,3-1c1.4,0,2.4,0.4,3.2,1.2s1.1,1.9,1.1,3.2
		c0,1.4-0.4,2.6-1.3,3.4C89.6,21.2,88.5,21.6,87,21.6z M87,20c0.9,0,1.6-0.3,2.1-0.8c0.5-0.5,0.7-1.3,0.7-2.3c0-0.9-0.2-1.6-0.7-2.2
		C88.6,14.2,87.9,14,87,14c-0.8,0-1.5,0.3-2,0.8c-0.5,0.5-0.7,1.2-0.7,2.1c0,1,0.2,1.8,0.7,2.3C85.5,19.7,86.1,20,87,20z"/>
	<path class="st3" d="M94.6,9.7c0.8-1.1,2-1.6,3.6-1.6s2.8,0.5,3.6,1.6c0.8,1.1,1.2,2.8,1.2,5.1c0,2.4-0.4,4.1-1.2,5.1
		c-0.8,1.1-2,1.6-3.6,1.6S95.4,21,94.6,20c-0.8-1.1-1.2-2.8-1.2-5.1C93.4,12.5,93.8,10.8,94.6,9.7z M96.1,18.8
		c0.5,0.8,1.2,1.2,2.2,1.2s1.7-0.4,2.2-1.2s0.7-2.1,0.7-4s-0.2-3.2-0.7-4s-1.2-1.2-2.2-1.2s-1.7,0.4-2.2,1.2c-0.5,0.8-0.7,2.1-0.7,4
		S95.6,18,96.1,18.8z"/>
</g>
<g class="st2">
	<path class="st3" d="M24.8,30l0,1.3h0c0.7-1,1.5-1.4,2.4-1.4c1.1,0,2,0.5,2.5,1.6h0c0.7-1.1,1.6-1.6,2.7-1.6c1,0,1.7,0.3,2.2,0.8
		c0.5,0.6,0.7,1.5,0.7,2.8v5.9h-1.8V34c0-1.1-0.1-1.8-0.3-2.1c-0.2-0.4-0.6-0.6-1.2-0.6c-0.5,0-0.9,0.3-1.3,0.8
		c-0.4,0.5-0.6,1.2-0.6,1.9v5.4h-1.8V34c0-1.1-0.1-1.8-0.3-2.1s-0.6-0.6-1.2-0.6c-0.5,0-0.9,0.3-1.3,0.8c-0.4,0.5-0.6,1.2-0.6,1.9
		v5.4h-1.8V30H24.8z"/>
	<path class="st3" d="M37.4,36.9c0-1,0.4-1.9,1.3-2.5c0.9-0.6,2.2-0.9,3.8-0.9h0.9v-0.1c0-0.8-0.2-1.3-0.5-1.6
		c-0.3-0.3-0.8-0.4-1.6-0.4c-1.1,0-2.2,0.3-3.1,0.8l-0.3-1.4c1-0.5,2.1-0.8,3.4-0.8c1.4,0,2.3,0.3,3,0.8s0.9,1.4,0.9,2.6v3.6
		c0,0.9,0.1,1.7,0.3,2.5h-1.7c-0.1-0.5-0.2-1-0.2-1.4h0c-0.3,0.5-0.8,0.9-1.4,1.2s-1.3,0.4-2,0.4c-0.9,0-1.5-0.2-2-0.7
		C37.6,38.4,37.4,37.7,37.4,36.9z M43.4,34.8h-0.9c-1.1,0-1.9,0.2-2.5,0.6s-0.9,0.9-0.9,1.5c0,0.4,0.1,0.8,0.4,1.1
		c0.3,0.3,0.6,0.4,1.1,0.4c0.8,0,1.4-0.3,2-0.8c0.6-0.5,0.8-1.2,0.8-1.9V34.8z"/>
	<path class="st3" d="M54,29.9v1.5c-1.3,0-2.4,0.4-3.1,1.1c-0.8,0.7-1.2,1.7-1.2,2.8v4.1h-1.8V30h1.7l0,1.8h0
		C50.8,30.5,52.3,29.9,54,29.9z"/>
	<path class="st3" d="M58.2,35.1L58.2,35.1l0,4.3h-1.8V25.9h1.8v7.9h0l4.1-3.8h2.2l-4.9,4.4l5,5h-2.2L58.2,35.1z"/>
	<path class="st3" d="M67.2,35.4c0,0.8,0.3,1.5,0.9,2s1.2,0.7,2.1,0.7c0.9,0,1.8-0.2,2.7-0.7l0.5,1.4c-1,0.5-2.2,0.7-3.3,0.7
		c-1.3,0-2.4-0.4-3.3-1.3c-0.9-0.9-1.3-2.1-1.3-3.5c0-1.5,0.4-2.7,1.2-3.6c0.8-0.9,1.9-1.3,3.2-1.3c1.3,0,2.4,0.4,3.1,1.2
		c0.7,0.8,1.1,2,1.1,3.5c0,0.2,0,0.4,0,0.8H67.2z M67.2,34h5.1c0-0.9-0.2-1.6-0.7-2.1c-0.4-0.5-1-0.7-1.8-0.7
		c-0.8,0-1.4,0.2-1.8,0.7C67.4,32.5,67.2,33.2,67.2,34z"/>
	<path class="st3" d="M79.2,30.4h3.4v1.4h-3.4v4.3c0,0.8,0.1,1.3,0.3,1.6c0.2,0.3,0.6,0.4,1.1,0.4c0.6,0,1.1-0.1,1.6-0.3l0.3,1.4
		c-0.7,0.2-1.4,0.4-2.2,0.4c-1.1,0-1.8-0.2-2.3-0.7c-0.5-0.5-0.7-1.3-0.7-2.4v-4.7h-2v-1.4h2V27h1.8V30.4z"/>
	<path class="st3" d="M87,31.4c0.7-1,1.7-1.5,2.9-1.5c1.2,0,2.1,0.4,2.8,1.2c0.7,0.8,1,2,1,3.6c0,1.6-0.3,2.8-1,3.6
		c-0.7,0.8-1.6,1.3-2.7,1.3c-1.2,0-2.1-0.4-2.8-1.3h0v5.1h-1.8V30h1.7L87,31.4L87,31.4z M91.9,34.7c0-1.1-0.2-2-0.6-2.6
		c-0.4-0.6-1-0.9-1.8-0.9c-0.7,0-1.3,0.3-1.7,0.9S87,33.6,87,34.6v0.2c0,1,0.2,1.9,0.7,2.4s1,0.9,1.7,0.9c0.7,0,1.3-0.3,1.8-0.9
		C91.7,36.7,91.9,35.8,91.9,34.7z"/>
	<path class="st3" d="M96.3,39.4V25.9h1.9v13.5H96.3z"/>
	<path class="st3" d="M101,36.9c0-1,0.4-1.9,1.3-2.5s2.2-0.9,3.8-0.9h0.9v-0.1c0-0.8-0.2-1.3-0.5-1.6c-0.3-0.3-0.8-0.4-1.6-0.4
		c-1.1,0-2.2,0.3-3.1,0.8l-0.3-1.4c1-0.5,2.1-0.8,3.4-0.8c1.4,0,2.3,0.3,3,0.8c0.6,0.5,0.9,1.4,0.9,2.6v3.6c0,0.9,0.1,1.7,0.3,2.5
		h-1.7c-0.1-0.5-0.2-1-0.2-1.4h0c-0.3,0.5-0.8,0.9-1.4,1.2c-0.6,0.3-1.3,0.4-2,0.4c-0.9,0-1.5-0.2-2-0.7
		C101.3,38.4,101,37.7,101,36.9z M107,34.8h-0.9c-1.1,0-1.9,0.2-2.5,0.6c-0.6,0.4-0.9,0.9-0.9,1.5c0,0.4,0.1,0.8,0.4,1.1
		c0.3,0.3,0.6,0.4,1.1,0.4c0.8,0,1.4-0.3,2-0.8c0.6-0.5,0.8-1.2,0.8-1.9V34.8z"/>
	<path class="st3" d="M118.2,32c-0.8-0.4-1.6-0.6-2.4-0.6c-0.9,0-1.7,0.3-2.2,0.9s-0.8,1.4-0.8,2.5c0,1.1,0.3,1.9,0.8,2.5
		c0.6,0.6,1.3,0.9,2.1,0.9c0.8,0,1.6-0.2,2.4-0.6l0.5,1.4c-1,0.4-2,0.6-3,0.6c-1.4,0-2.6-0.4-3.4-1.3s-1.3-2.1-1.3-3.5
		c0-1.5,0.4-2.7,1.3-3.6c0.8-0.9,2-1.3,3.5-1.3c1,0,2,0.2,3,0.6L118.2,32z"/>
	<path class="st3" d="M122.2,35.4c0,0.8,0.3,1.5,0.9,2s1.2,0.7,2.1,0.7c0.9,0,1.8-0.2,2.7-0.7l0.5,1.4c-1,0.5-2.2,0.7-3.3,0.7
		c-1.3,0-2.4-0.4-3.3-1.3c-0.9-0.9-1.3-2.1-1.3-3.5c0-1.5,0.4-2.7,1.2-3.6c0.8-0.9,1.9-1.3,3.2-1.3c1.3,0,2.4,0.4,3.1,1.2
		c0.7,0.8,1.1,2,1.1,3.5c0,0.2,0,0.4,0,0.8H122.2z M122.2,34h5.1c0-0.9-0.2-1.6-0.7-2.1c-0.4-0.5-1-0.7-1.8-0.7
		c-0.8,0-1.4,0.2-1.8,0.7C122.5,32.5,122.3,33.2,122.2,34z"/>
</g>
</svg>
