<?xml version="1.0" encoding="UTF-8"?>
<svg id="_レイヤー_2" data-name="レイヤー 2" xmlns="http://www.w3.org/2000/svg" viewBox="0 0 40.62 38.74">
  <defs>
    <style>
      .cls-1 {
        fill: #d8dbe7;
        stroke-width: 0px;
      }
    </style>
  </defs>
  <g id="_レイヤー_1-2" data-name="レイヤー 1">
    <path class="cls-1" d="M21.24.67c-.29-.89-1.55-.89-1.84,0l-4.35,13.39H6.21l4,2.9h6.95l4.69-14.42s-.61-1.87-.61-1.87Z"/>
    <path class="cls-1" d="M2.92,14.06H.97c-.94,0-1.33,1.2-.57,1.75l11.39,8.28-2.73,8.41,4-2.91,2.15-6.61L2.92,14.06Z"/>
    <path class="cls-1" d="M25.93,30.77l-5.62-4.08-12.28,8.94-.6,1.84c-.29.89.73,1.63,1.49,1.08l11.39-8.27,7.17,5.21s-1.55-4.72-1.55-4.72Z"/>
    <path class="cls-1" d="M28.85,24.08l7.14-5.19h-4.94l-5.62,4.08,4.73,14.46,1.54,1.12c.76.55,1.78-.19,1.49-1.08l-4.35-13.39h0Z"/>
    <path class="cls-1" d="M39.66,14.06h-14.07l-2.73-8.39-1.53,4.7,2.14,6.59h15.17l1.58-1.15c.76-.55.37-1.75-.57-1.75h0Z"/>
    <polygon class="cls-1" points="27.76 18.89 22.08 18.89 20.32 13.49 18.56 18.89 12.88 18.89 17.48 22.24 15.72 27.64 20.32 24.3 24.92 27.64 23.16 22.24 27.76 18.89"/>
  </g>
</svg>