<?xml version="1.0" encoding="UTF-8"?>
<svg id="_レイヤー_2" data-name="レイヤー 2" xmlns="http://www.w3.org/2000/svg" viewBox="0 0 28.79 28.77">
  <defs>
    <style>
      .cls-1 {
        fill: #929cb1;
        fill-rule: evenodd;
        stroke-width: 0px;
      }
    </style>
  </defs>
  <g id="serial">
    <path class="cls-1" d="M28.17,21.8h-.85c-.32,0-.73.24-.91.51,0,0-.06.11-.16.26-.04.33-.08.52-.08.52-.06.32.08.76.3.99l.6.61c.23.23.23.6,0,.83l-1.45,1.46c-.23.23-.59.23-.82,0l-.6-.61c-.23-.23-.67-.36-.98-.31,0,0-.1.02-.28.05-.26.2-.42.31-.42.31-.26.18-.48.59-.48.92v.86c0,.32-.25.58-.57.58h-2.05c-.32,0-.58-.26-.58-.58v-.86c0-.32-.21-.73-.48-.91,0,0-.08-.06-.23-.17-.32-.04-.51-.08-.51-.08-.31-.06-.75.08-.98.31l-.6.61c-.23.23-.59.24-.82,0l-.83-.82h.3c.48,0,.87-.42.87-.91v-1.29c0-.49.32-1.11.72-1.38,0,0,.11-.08.29-.21.75,1.33,2.17,2.22,3.79,2.22,2.41,0,4.36-1.97,4.36-4.4,0-1.73-.99-3.24-2.43-3.95.31-.32.81-.57,1.22-.57h1.28c.48,0,.88-.37.88-.85v-1.24l1.3,1.31c.23.23.22.6,0,.83l-.6.61c-.23.23-.36.67-.3.99,0,0,.02.11.05.29.2.26.31.43.31.43.18.27.59.5.91.5h.85c.32,0,.62.23.62.55v2.07c0,.32-.3.53-.62.53ZM24.41,15.12h-1.28c-.48,0-1.1.32-1.37.72,0,0-.09.12-.25.35-.06.49-.12.78-.12.78-.09.48.11,1.15.45,1.49l.9.91c.34.34.34.9,0,1.25l-2.18,2.2c-.34.34-.9.34-1.24,0l-.91-.91c-.34-.34-1.01-.55-1.48-.46,0,0-.16.03-.43.07-.39.3-.65.47-.65.47-.4.27-.75.89-.75,1.38v1.29c0,.49-.34.88-.82.88h-3.09c-.48,0-.82-.4-.82-.88v-1.29c0-.48-.35-1.1-.75-1.38,0,0-.15-.09-.38-.25-.49-.06-.78-.12-.78-.12-.47-.09-1.14.12-1.48.46l-.9.91c-.34.34-.9.34-1.24,0l-2.18-2.2c-.34-.34-.34-.9,0-1.25l.9-.91c.34-.34.54-1.01.45-1.49,0,0-.03-.15-.07-.43-.3-.39-.47-.64-.47-.64-.27-.4-.88-.73-1.37-.73H.88c-.48,0-.88-.4-.88-.88v-3.11c0-.49.4-.92.88-.92h1.28c.48,0,1.1-.31,1.37-.71,0,0,.09-.11.25-.33.06-.49.12-.78.12-.78.09-.48-.12-1.15-.45-1.49l-.91-.91c-.34-.34-.34-.9,0-1.25l2.18-2.2c.34-.34.9-.34,1.24,0l.91.91c.34.34,1.01.55,1.48.46,0,0,.16-.03.43-.07.39-.3.65-.47.65-.47.4-.27.76-.89.76-1.38V.91c0-.48.33-.91.81-.91h3.09c.48,0,.83.42.83.91v1.29c0,.49.35,1.11.74,1.38,0,0,.15.09.37.25.49.06.78.12.78.12.47.09,1.14-.12,1.48-.46l.91-.91c.34-.34.9-.34,1.24,0l2.18,2.2c.34.34.34.91,0,1.25l-.9.91c-.34.34-.55,1.02-.45,1.49,0,0,.03.16.07.43.3.39.46.65.46.65.27.4.88.75,1.37.75h1.28c.48,0,.82.35.82.83v3.12c0,.48-.34.9-.82.9ZM12.65,6.15c-3.63,0-6.57,2.97-6.57,6.63s2.94,6.63,6.57,6.63,6.57-2.97,6.57-6.63-2.94-6.63-6.57-6.63Z"/>
  </g>
</svg>