<svg width="43" height="44" viewBox="0 0 43 44" fill="none" xmlns="http://www.w3.org/2000/svg">
<path d="M11.7721 12.1889C18.8375 13.3729 20.9324 15.4548 22.1035 22.5203C22.2206 23.262 23.2876 23.262 23.4047 22.5203C24.5888 15.4548 26.6707 13.3599 33.7361 12.1889C34.4778 12.0718 34.4778 11.0048 33.7361 10.8877C26.6707 9.7036 24.5758 7.6217 23.4047 0.556257C23.2876 -0.185419 22.2206 -0.185419 22.1035 0.556257C20.9194 7.6217 18.8375 9.71661 11.7721 10.8877C11.0304 11.0048 11.0304 12.0718 11.7721 12.1889Z" fill="#FF74B7" style="fill:#FF74B7;fill:color(display-p3 1.0000 0.4549 0.7176);fill-opacity:1;"/>
<path d="M41.9242 37.8385L31.5928 27.5071C33.6357 24.6575 34.8458 21.1703 34.8458 17.4099C34.8458 16.8764 34.8067 16.3559 34.7677 15.8355C32.3215 16.3429 31.0203 16.9675 30.2005 18.3988C30.0704 20.1164 29.602 21.7298 28.8603 23.1872C28.6261 24.2151 28.0276 25.0739 27.2208 25.6594C24.8657 28.4439 21.3525 30.2136 17.4359 30.2136C10.3705 30.2136 4.61921 24.4623 4.61921 17.3969C4.61921 10.3314 10.3574 4.5932 17.4229 4.5932C17.9694 4.5932 18.5029 4.64525 19.0364 4.71031C19.713 3.74743 20.1033 2.35516 20.4677 0.286277C19.4788 0.104111 18.4638 1.62143e-05 17.4229 1.62143e-05C7.82013 -0.0129956 0 7.80713 0 17.4099C0 27.0126 7.82013 34.8328 17.4229 34.8328C20.5457 34.8328 23.4734 34 26.0107 32.5557L36.6154 43.1604C37.3831 43.9281 38.6192 43.9281 39.3869 43.1604L41.9242 40.6231C42.6919 39.8554 42.6919 38.6192 41.9242 37.8515V37.8385Z" fill="#FF74B7" style="fill:#FF74B7;fill:color(display-p3 1.0000 0.4549 0.7176);fill-opacity:1;"/>
</svg>
