<?xml version="1.0" encoding="UTF-8"?><svg id="_レイヤー_2" xmlns="http://www.w3.org/2000/svg" xmlns:xlink="http://www.w3.org/1999/xlink" viewBox="0 0 314.8 50.62"><defs><style>.cls-1{mask:url(#mask);}.cls-2{fill:#fff;}</style><mask id="mask" x="-.04" y="-.67" width="315" height="52" maskUnits="userSpaceOnUse"><g id="path-1-outside-1_699_2597"><rect class="cls-2" x="-.04" y="-.67" width="315" height="52"/><path d="m9.39,2.53h10.69l-7.74,44.8H1.78L9.39,2.53Zm5.12,8.83l1.47-8.83h8.26c3.37.04,6.21.64,8.51,1.79,2.35,1.15,4.05,2.82,5.12,4.99,1.11,2.18,1.49,4.8,1.15,7.87-.34,3.03-1.37,5.65-3.07,7.87-1.71,2.18-3.95,3.84-6.72,4.99-2.73,1.15-5.85,1.73-9.34,1.73h-8.96l1.6-8.9h8.26c1.32,0,2.56-.21,3.71-.64,1.15-.47,2.09-1.13,2.82-1.98.77-.85,1.26-1.9,1.47-3.14.26-1.19.17-2.22-.26-3.07-.43-.85-1.09-1.51-1.98-1.98s-1.98-.7-3.26-.7h-8.77ZM54.42,2.53h10.88l-7.68,44.8h-10.82L54.42,2.53Zm31.52,22.4c-.3,1.79-.28,3.48.06,5.06.34,1.58.98,2.97,1.92,4.16.94,1.19,2.11,2.13,3.52,2.82,1.41.68,3.03,1.02,4.86,1.02,2.99.04,5.63-.53,7.94-1.73,2.35-1.19,4.44-2.54,6.27-4.03l-1.73,11.58c-2.01,1.37-4.14,2.47-6.4,3.33-2.26.81-4.86,1.22-7.81,1.22-3.41,0-6.51-.6-9.28-1.79-2.73-1.19-4.99-2.86-6.78-4.99-1.75-2.18-3.01-4.67-3.78-7.49-.77-2.86-.92-5.91-.45-9.15.51-3.37,1.56-6.49,3.14-9.34,1.62-2.86,3.67-5.33,6.14-7.42,2.47-2.09,5.27-3.71,8.38-4.86,3.11-1.19,6.44-1.79,9.98-1.79,2.82-.04,5.25.34,7.3,1.15,2.09.81,4.03,1.94,5.82,3.39l-1.79,11.65c-1.32-1.75-2.94-3.16-4.86-4.22-1.92-1.11-4.25-1.66-6.98-1.66-1.88,0-3.67.32-5.38.96-1.71.64-3.26,1.56-4.67,2.75-1.41,1.15-2.58,2.54-3.52,4.16-.94,1.58-1.58,3.33-1.92,5.25ZM130.53,2.53h11.07l-7.68,44.8h-11.01l7.62-44.8Zm25.47,0h12.86l-21.57,21.18,14.46,23.62h-12.48l-14.46-23.74,21.19-21.06Zm49.63,0h10.69l-5.12,29.31c-.17,1.28-.13,2.52.13,3.71.3,1.15.87,2.09,1.73,2.82.85.68,2.03,1.02,3.52,1.02,1.66.04,3.07-.28,4.22-.96,1.19-.68,2.13-1.6,2.82-2.75.73-1.19,1.22-2.5,1.47-3.9l5.06-29.25h10.62l-5.06,30.08c-.56,3.46-1.75,6.42-3.58,8.9-1.84,2.47-4.18,4.37-7.04,5.7-2.82,1.28-5.99,1.92-9.54,1.92-3.29,0-6.14-.66-8.58-1.98-2.43-1.32-4.22-3.22-5.38-5.7-1.15-2.47-1.49-5.42-1.02-8.83l5.06-30.08Zm50.22,0h10.69l-7.74,44.8h-10.56l7.62-44.8Zm5.12,8.83l1.47-8.83h8.26c3.37.04,6.21.64,8.51,1.79,2.35,1.15,4.05,2.82,5.12,4.99,1.11,2.18,1.49,4.8,1.15,7.87-.34,3.03-1.36,5.65-3.07,7.87-1.71,2.18-3.95,3.84-6.72,4.99-2.73,1.15-5.85,1.73-9.34,1.73h-8.96l1.6-8.9h8.26c1.32,0,2.56-.21,3.71-.64,1.15-.47,2.09-1.13,2.82-1.98.77-.85,1.26-1.9,1.47-3.14.26-1.19.17-2.22-.26-3.07-.43-.85-1.09-1.51-1.98-1.98s-1.98-.7-3.26-.7h-8.77Zm40.16-8.83h11.78l-7.04,30.02h-7.87l3.14-30.02Zm-7.04,40.83c0-1.62.58-2.94,1.73-3.97,1.15-1.02,2.58-1.54,4.29-1.54,1.79,0,3.24.51,4.35,1.54,1.15,1.02,1.73,2.35,1.73,3.97s-.58,2.94-1.73,3.97c-1.11,1.02-2.56,1.54-4.35,1.54s-3.14-.51-4.29-1.54-1.73-2.35-1.73-3.97Z"/></g></mask></defs><g id="_レイヤー_1-2"><g class="cls-1"><path d="m9.39,2.53v-1.5h-1.27l-.21,1.25,1.48.25Zm10.69,0l1.48.26.3-1.76h-1.78v1.5Zm-7.74,44.8v1.5h1.26l.22-1.24-1.48-.26Zm-10.56,0l-1.48-.25-.3,1.75h1.78v-1.5ZM14.51,11.36l-1.48-.25-.29,1.75h1.77v-1.5Zm1.47-8.83v-1.5h-1.27l-.21,1.25,1.48.25Zm8.26,0l.02-1.5h0s0,0,0,0v1.5Zm8.51,1.79l-.67,1.34h0s.66-1.34.66-1.34Zm5.12,4.99l-1.35.66h0s0,.02,0,.02l1.34-.68Zm1.15,7.87l1.49.17h0s-1.49-.17-1.49-.17Zm-3.07,7.87l1.18.93h0s-1.19-.93-1.19-.93Zm-6.72,4.99l-.58-1.39h0s.58,1.39.58,1.39Zm-18.3,1.73l-1.48-.27-.32,1.77h1.79v-1.5Zm1.6-8.9v-1.5h-1.25l-.22,1.23,1.48.27Zm11.97-.64l.52,1.41h.02s.02-.02.02-.02l-.57-1.39Zm2.82-1.98l-1.11-1v.02s-.03.02-.03.02l1.14.97Zm1.47-3.14l-1.47-.31v.03s-.01.03-.01.03l1.48.25Zm-2.24-5.06l-.7,1.33h0l.7-1.33ZM9.39,4.03h10.69V1.03h-10.69v3Zm9.21-1.76l-7.74,44.8,2.96.51L21.56,2.78l-2.96-.51Zm-6.27,43.56H1.78v3h10.56v-3Zm-9.08,1.75L10.87,2.78l-2.96-.5L.3,47.08l2.96.5ZM15.99,11.61l1.47-8.83-2.96-.49-1.47,8.83,2.96.49Zm0-7.58h8.26V1.03h-8.26v3Zm8.24,0c3.21.04,5.81.61,7.86,1.63l1.34-2.68c-2.56-1.28-5.63-1.91-9.16-1.95l-.04,3Zm7.87,1.64c2.07,1.02,3.53,2.45,4.43,4.31l2.69-1.32c-1.22-2.5-3.19-4.39-5.81-5.68l-1.32,2.69Zm4.44,4.33c.94,1.85,1.32,4.17,1,7.03l2.98.33c.37-3.29-.03-6.22-1.31-8.72l-2.67,1.36Zm1,7.02c-.31,2.78-1.25,5.14-2.77,7.13l2.38,1.83c1.89-2.45,3-5.34,3.37-8.62l-2.98-.34Zm-2.76,7.11c-1.53,1.96-3.56,3.47-6.12,4.53l1.15,2.77c2.99-1.24,5.45-3.06,7.32-5.45l-2.36-1.85Zm-6.12,4.54c-2.52,1.06-5.43,1.61-8.76,1.61v3c3.66,0,6.98-.6,9.93-1.85l-1.17-2.76Zm-8.76,1.61h-8.96v3h8.96v-3Zm-7.48,1.77l1.6-8.9-2.95-.53-1.6,8.9,2.95.53Zm.12-7.66h8.26v-3h-8.26v3Zm8.26,0c1.49,0,2.9-.24,4.23-.73l-1.04-2.81c-.97.36-2.03.55-3.19.55v3Zm4.28-.75c1.35-.55,2.5-1.35,3.39-2.4l-2.29-1.94c-.55.65-1.28,1.18-2.24,1.57l1.13,2.78Zm3.36-2.37c.97-1.08,1.58-2.4,1.84-3.88l-2.96-.51c-.17.99-.55,1.76-1.11,2.39l2.23,2.01Zm1.82-3.83c.31-1.43.24-2.82-.38-4.06l-2.68,1.34c.24.47.34,1.13.13,2.09l2.93.63Zm-.38-4.06c-.58-1.15-1.47-2.04-2.63-2.64l-1.39,2.66c.63.33,1.06.77,1.34,1.33l2.68-1.34Zm-2.63-2.64c-1.16-.61-2.5-.88-3.96-.88v3c1.1,0,1.94.2,2.57.53l1.39-2.66Zm-3.96-.88h-8.77v3h8.77v-3Zm31.14-7.33v-1.5h-1.27l-.21,1.25,1.48.25Zm10.88,0l1.48.25.3-1.75h-1.78v1.5Zm-7.68,44.8v1.5h1.26l.21-1.25-1.48-.25Zm-10.82,0l-1.48-.25-.3,1.75h1.78v-1.5Zm7.62-43.3h10.88V1.03h-10.88v3Zm9.4-1.75l-7.68,44.8,2.96.51,7.68-44.8-2.96-.51Zm-6.2,43.55h-10.82v3h10.82v-3Zm-9.34,1.75L55.9,2.78l-2.96-.5-7.62,44.8,2.96.5Zm37.66-22.65l-1.48-.26h0s0,.02,0,.02l1.48.25Zm.06,5.06l-1.47.32h0l1.47-.32Zm1.92,4.16l-1.18.93h0l1.18-.93Zm3.52,2.82l-.65,1.35.65-1.35Zm4.86,1.02l.02-1.5h-.01s-.01,0-.01,0v1.5Zm7.94-1.73l-.68-1.34h-.01s.69,1.34.69,1.34Zm6.27-4.03l1.48.22.57-3.83-3,2.44.95,1.16Zm-1.73,11.58l.84,1.24.54-.37.1-.65-1.48-.22Zm-6.4,3.33l.51,1.41h.01s.01,0,.01,0l-.53-1.4Zm-17.09-.58l-.6,1.37h0s.59-1.37.59-1.37Zm-6.78-4.99l-1.17.94h.01s.01.03.01.03l1.15-.96Zm-3.78-7.49l-1.45.39h0s1.45-.39,1.45-.39Zm-.45-9.15l-1.48-.23h0s1.48.23,1.48.23Zm3.14-9.34l-1.3-.74h0s0,.01,0,.01l1.31.73Zm6.14-7.42l-.97-1.15h0l.97,1.15Zm8.38-4.86l.52,1.41h0s0,0,0,0l-.54-1.4Zm9.98-1.79v1.5h.02s-.02-1.5-.02-1.5Zm7.3,1.15l-.55,1.39h.01s.54-1.39.54-1.39Zm5.82,3.39l1.48.23.13-.85-.67-.54-.94,1.17Zm-1.79,11.65l-1.2.9,2.14,2.83.54-3.51-1.48-.23Zm-4.86-4.22l-.75,1.3h.01s.01.01.01.01l.73-1.31Zm-12.35-.7l-.53-1.4.53,1.4Zm-4.67,2.75l.95,1.16h.01s.01-.02.01-.02l-.97-1.14Zm-3.52,4.16l1.29.77h0s0-.02,0-.02l-1.3-.75Zm-3.4,5c-.33,1.96-.31,3.83.08,5.62l2.93-.63c-.3-1.37-.32-2.86-.05-4.49l-2.96-.49Zm.08,5.62c.39,1.79,1.12,3.39,2.21,4.77l2.36-1.85c-.79-1-1.34-2.18-1.63-3.55l-2.93.63Zm2.21,4.77c1.08,1.38,2.44,2.46,4.05,3.24l1.31-2.7c-1.21-.59-2.2-1.38-2.99-2.39l-2.36,1.85Zm4.05,3.24c1.64.8,3.5,1.17,5.52,1.17v-3c-1.65,0-3.04-.31-4.21-.87l-1.31,2.7Zm5.5,1.17c3.2.05,6.09-.57,8.65-1.9l-1.38-2.66c-2.05,1.06-4.45,1.6-7.22,1.56l-.04,3Zm8.64-1.89c2.43-1.24,4.61-2.64,6.54-4.21l-1.89-2.33c-1.74,1.42-3.74,2.71-6.01,3.86l1.36,2.67Zm4.11-5.59l-1.73,11.58,2.97.44,1.73-11.58-2.97-.44Zm-1.09,10.57c-1.91,1.3-3.93,2.35-6.08,3.16l1.06,2.81c2.37-.9,4.61-2.06,6.72-3.49l-1.69-2.48Zm-6.06,3.16c-2.07.74-4.49,1.13-7.3,1.13v3c3.08,0,5.86-.42,8.31-1.3l-1.01-2.82Zm-7.3,1.13c-3.24,0-6.12-.57-8.69-1.67l-1.19,2.76c2.98,1.29,6.28,1.91,9.87,1.91v-3Zm-8.68-1.67c-2.53-1.11-4.6-2.64-6.24-4.58l-2.3,1.93c1.95,2.32,4.4,4.12,7.33,5.4l1.2-2.75Zm-6.22-4.56c-1.61-2.01-2.78-4.32-3.5-6.94l-2.89.79c.82,3.01,2.17,5.69,4.05,8.03l2.34-1.88Zm-3.5-6.94c-.71-2.64-.86-5.49-.41-8.55l-2.97-.43c-.5,3.42-.34,6.68.48,9.76l2.9-.78Zm-.41-8.54c.49-3.2,1.48-6.15,2.97-8.84l-2.63-1.45c-1.67,3.02-2.77,6.31-3.31,9.84l2.97.45Zm2.96-8.83c1.54-2.71,3.47-5.04,5.81-7.02l-1.94-2.29c-2.61,2.21-4.77,4.82-6.48,7.83l2.61,1.48Zm5.81-7.02c2.34-1.98,4.98-3.51,7.94-4.6l-1.04-2.81c-3.27,1.21-6.22,2.92-8.83,5.13l1.94,2.29Zm7.95-4.61c2.93-1.12,6.08-1.69,9.45-1.69V0c-3.71,0-7.23.63-10.52,1.89l1.07,2.8Zm9.47-1.69c2.67-.04,4.9.33,6.72,1.05l1.11-2.79C107.52.36,104.88-.04,101.92,0l.04,3Zm6.73,1.05c1.94.75,3.75,1.8,5.42,3.16l1.89-2.33c-1.91-1.55-3.99-2.76-6.22-3.62l-1.08,2.8Zm4.88,1.77l-1.79,11.65,2.96.46,1.79-11.65-2.96-.46Zm.89,10.97c-1.45-1.92-3.23-3.46-5.33-4.63l-1.46,2.62c1.74.97,3.2,2.24,4.4,3.82l2.39-1.81Zm-5.31-4.62c-2.19-1.27-4.79-1.87-7.73-1.87v3c2.53,0,4.58.51,6.22,1.46l1.5-2.6Zm-7.73-1.87c-2.05,0-4.02.35-5.9,1.06l1.05,2.81c1.53-.57,3.15-.86,4.85-.86v-3Zm-5.9,1.06c-1.87.7-3.58,1.71-5.12,3.01l1.94,2.29c1.28-1.08,2.69-1.91,4.23-2.49l-1.05-2.81Zm-5.1,3c-1.55,1.27-2.84,2.8-3.87,4.57l2.6,1.5c.85-1.47,1.91-2.72,3.17-3.75l-1.9-2.32Zm-3.86,4.55c-1.04,1.74-1.74,3.67-2.11,5.75l2.95.53c.31-1.75.89-3.33,1.73-4.74l-2.58-1.53ZM130.53,2.53v-1.5h-1.27l-.21,1.25,1.48.25Zm11.07,0l1.48.25.3-1.75h-1.78v1.5Zm-7.68,44.8v1.5h1.26l.21-1.25-1.48-.25Zm-11.01,0l-1.48-.25-.3,1.75h1.78v-1.5ZM156,2.53v-1.5h-.62l-.44.44,1.06,1.06Zm12.86,0l1.05,1.07,2.62-2.57h-3.67v1.5Zm-21.57,21.18l-1.05-1.07-.85.84.62,1.02,1.28-.78Zm14.46,23.62v1.5h2.68l-1.4-2.28-1.28.78Zm-12.48,0l-1.28.78.44.72h.84v-1.5Zm-14.47-23.74l-1.06-1.06-.84.83.62,1.01,1.28-.78Zm-4.29-19.56h11.07V1.03h-11.07v3Zm9.59-1.75l-7.68,44.8,2.96.51,7.68-44.8-2.96-.51Zm-6.2,43.55h-11.01v3h11.01v-3Zm-9.53,1.75l7.62-44.8-2.96-.5-7.62,44.8,2.96.5Zm31.61-43.55h12.86V1.03h-12.86v3Zm11.81-2.57l-21.57,21.18,2.1,2.14,21.57-21.18-2.1-2.14Zm-21.8,23.04l14.46,23.62,2.56-1.57-14.46-23.62-2.56,1.57Zm15.74,21.33h-12.48v3h12.48v-3Zm-11.2.72l-14.46-23.74-2.56,1.56,14.46,23.74,2.56-1.56Zm-14.69-21.9l21.18-21.06-2.12-2.13-21.18,21.06,2.11,2.13ZM205.63,2.53v-1.5h-1.27l-.21,1.25,1.48.25Zm10.69,0l1.48.26.31-1.76h-1.78v1.5Zm-5.12,29.31l-1.48-.26v.03s0,.03,0,.03l1.49.2Zm.13,3.71l-1.47.31v.03s.01.03.01.03l1.45-.38Zm1.73,2.82l-.97,1.14h.02s.02.03.02.03l.94-1.17Zm3.52,1.02l.04-1.5h-.02s-.02,0-.02,0v1.5Zm4.22-.96l-.74-1.3h-.01s0,.01,0,.01l.76,1.29Zm2.82-2.75l-1.28-.78h0s0,.01,0,.01l1.29.76Zm1.47-3.9l1.48.27h0s-1.48-.27-1.48-.27Zm5.06-29.25v-1.5h-1.26l-.22,1.24,1.48.26Zm10.62,0l1.48.25.29-1.75h-1.77v1.5Zm-5.06,30.08l-1.48-.25h0s1.48.25,1.48.25Zm-3.58,8.9l-1.21-.89,1.21.89Zm-7.04,5.7l.62,1.37h0s-.63-1.37-.63-1.37Zm-18.11-.06l-.72,1.32.72-1.32Zm-5.38-5.7l1.36-.63-1.36.63Zm-1.03-8.83l-1.48-.25v.02s0,.02,0,.02l1.49.2Zm5.06-28.58h10.69V1.03h-10.69v3Zm9.21-1.76l-5.12,29.31,2.96.52,5.12-29.31-2.96-.52Zm-5.13,29.37c-.19,1.44-.15,2.85.15,4.22l2.93-.63c-.22-1.02-.26-2.08-.11-3.2l-2.97-.4Zm.16,4.29c.37,1.43,1.1,2.64,2.21,3.58l1.94-2.29c-.6-.51-1.02-1.18-1.25-2.05l-2.9.75Zm2.24,3.61c1.2.96,2.75,1.35,4.46,1.35v-3c-1.28,0-2.08-.29-2.58-.7l-1.88,2.34Zm4.42,1.35c1.88.05,3.58-.31,5.03-1.17l-1.53-2.58c-.86.51-1.97.79-3.42.75l-.08,3Zm5.01-1.16c1.41-.81,2.54-1.91,3.36-3.29l-2.58-1.53c-.55.92-1.29,1.66-2.27,2.21l1.49,2.6Zm3.35-3.28c.82-1.36,1.38-2.83,1.67-4.41l-2.95-.54c-.22,1.23-.65,2.36-1.28,3.39l2.56,1.56Zm1.67-4.43l5.06-29.25-2.96-.51-5.06,29.25,2.96.51Zm3.58-28h10.62V1.03h-10.62v3Zm9.14-1.75l-5.06,30.08,2.96.5,5.06-30.08-2.96-.5Zm-5.06,30.09c-.52,3.25-1.63,5.98-3.31,8.24l2.41,1.79c2-2.69,3.27-5.89,3.86-9.55l-2.96-.48Zm-3.31,8.24c-1.68,2.27-3.83,4.01-6.46,5.23l1.26,2.72c3.08-1.43,5.63-3.48,7.62-6.16l-2.41-1.79Zm-6.46,5.22c-2.6,1.18-5.56,1.79-8.92,1.79v3c3.73,0,7.12-.67,10.16-2.05l-1.24-2.73Zm-8.92,1.79c-3.08,0-5.68-.62-7.86-1.8l-1.43,2.64c2.69,1.46,5.8,2.17,9.29,2.17v-3Zm-7.86-1.8c-2.15-1.17-3.72-2.83-4.73-5.01l-2.72,1.27c1.29,2.77,3.31,4.91,6.02,6.38l1.43-2.64Zm-4.73-5.01c-1-2.15-1.34-4.79-.9-7.99l-2.97-.41c-.5,3.62-.15,6.87,1.15,9.67l2.72-1.27Zm-.9-7.95l5.06-30.08-2.96-.5-5.06,30.08,2.96.5ZM255.86,2.53v-1.5h-1.27l-.21,1.25,1.48.25Zm10.69,0l1.48.26.3-1.76h-1.78v1.5Zm-7.74,44.8v1.5h1.26l.22-1.24-1.48-.26Zm-10.56,0l-1.48-.25-.3,1.75h1.78v-1.5Zm12.74-35.97l-1.48-.25-.29,1.75h1.77v-1.5Zm1.47-8.83v-1.5h-1.27l-.21,1.25,1.48.25Zm8.26,0l.02-1.5h0s-.01,0-.01,0v1.5Zm8.51,1.79l-.67,1.34h0s.66-1.34.66-1.34Zm5.12,4.99l-1.35.66h0s0,.02,0,.02l1.34-.68Zm1.15,7.87l1.49.17h0s-1.49-.17-1.49-.17Zm-3.07,7.87l1.18.93h0s-1.19-.93-1.19-.93Zm-6.72,4.99l-.58-1.39h0s.58,1.39.58,1.39Zm-18.3,1.73l-1.48-.27-.32,1.77h1.79v-1.5Zm1.6-8.9v-1.5h-1.25l-.22,1.23,1.48.27Zm11.97-.64l.52,1.41h.02s.02-.02.02-.02l-.57-1.39Zm2.82-1.98l-1.11-1-.02.02v.02s1.13.97,1.13.97Zm1.47-3.14l-1.47-.31v.03s-.01.03-.01.03l1.48.25Zm-2.24-5.06l-.7,1.33h0l.7-1.33Zm-17.15-8.04h10.69V1.03h-10.69v3Zm9.21-1.76l-7.74,44.8,2.96.51,7.74-44.8-2.96-.51Zm-6.27,43.56h-10.56v3h10.56v-3Zm-9.08,1.75l7.62-44.8-2.96-.5-7.62,44.8,2.96.5Zm12.74-35.97l1.47-8.83-2.96-.49-1.47,8.83,2.96.49Zm0-7.58h8.26V1.03h-8.26v3Zm8.24,0c3.21.04,5.81.61,7.86,1.63l1.34-2.68c-2.56-1.28-5.63-1.91-9.16-1.95l-.04,3Zm7.87,1.64c2.07,1.02,3.53,2.45,4.44,4.31l2.69-1.32c-1.22-2.5-3.19-4.39-5.81-5.68l-1.32,2.69Zm4.45,4.33c.95,1.85,1.32,4.17,1,7.03l2.98.33c.36-3.29-.03-6.22-1.31-8.72l-2.67,1.36Zm1,7.02c-.31,2.78-1.25,5.14-2.77,7.13l2.38,1.83c1.89-2.45,3.01-5.34,3.37-8.62l-2.98-.34Zm-2.76,7.11c-1.53,1.96-3.56,3.47-6.11,4.53l1.15,2.77c2.99-1.24,5.45-3.06,7.33-5.45l-2.36-1.85Zm-6.12,4.54c-2.52,1.06-5.43,1.61-8.76,1.61v3c3.66,0,6.98-.6,9.93-1.85l-1.17-2.76Zm-8.76,1.61h-8.96v3h8.96v-3Zm-7.48,1.77l1.6-8.9-2.95-.53-1.6,8.9,2.95.53Zm.12-7.66h8.26v-3h-8.26v3Zm8.26,0c1.49,0,2.9-.24,4.23-.73l-1.04-2.81c-.97.36-2.03.55-3.19.55v3Zm4.28-.75c1.35-.55,2.49-1.35,3.39-2.4l-2.29-1.94c-.55.65-1.29,1.18-2.24,1.57l1.13,2.78Zm3.36-2.37c.98-1.08,1.58-2.4,1.84-3.88l-2.96-.51c-.17.99-.55,1.76-1.11,2.39l2.23,2.01Zm1.82-3.83c.31-1.43.24-2.82-.38-4.06l-2.68,1.34c.24.47.34,1.13.13,2.09l2.93.63Zm-.38-4.06c-.58-1.15-1.47-2.04-2.63-2.64l-1.39,2.66c.63.33,1.06.77,1.34,1.33l2.68-1.34Zm-2.63-2.64c-1.16-.61-2.5-.88-3.96-.88v3c1.1,0,1.94.2,2.57.53l1.39-2.66Zm-3.96-.88h-8.77v3h8.77v-3Zm31.39-7.33v-1.5h-1.35l-.14,1.34,1.49.16Zm11.78,0l1.46.34.43-1.84h-1.89v1.5Zm-7.04,30.02v1.5h1.19l.27-1.16-1.46-.34Zm-7.87,0l-1.49-.16-.17,1.66h1.66v-1.5Zm-2.18,6.85l-1-1.12,1,1.12Zm8.64,0l-1.02,1.1h.01s.01.02.01.02l1-1.12Zm0,7.94l-1-1.12h-.01s-.01.02-.01.02l1.02,1.1Zm-3.33-43.3h11.78V1.03h-11.78v3Zm10.32-1.84l-7.04,30.02,2.92.68,7.04-30.02-2.92-.69Zm-5.58,28.86h-7.87v3h7.87v-3Zm-6.38,1.66l3.14-30.02-2.98-.31-3.14,30.02,2.98.31Zm-3.9,10.66c0-1.22.41-2.12,1.22-2.85l-1.99-2.24c-1.49,1.32-2.23,3.06-2.23,5.09h3Zm1.22-2.85c.85-.75,1.91-1.16,3.29-1.16v-3c-2.03,0-3.83.62-5.28,1.91l1.99,2.24Zm3.29-1.16c1.49,0,2.55.42,3.33,1.14l2.04-2.2c-1.44-1.33-3.27-1.93-5.37-1.93v3Zm3.36,1.16c.81.72,1.22,1.63,1.22,2.85h3c0-2.02-.74-3.76-2.23-5.09l-1.99,2.24Zm1.22,2.85c0,1.22-.41,2.12-1.22,2.85l1.99,2.24c1.49-1.33,2.23-3.06,2.23-5.09h-3Zm-1.24,2.87c-.78.72-1.85,1.14-3.33,1.14v3c2.1,0,3.93-.61,5.37-1.93l-2.04-2.2Zm-3.33,1.14c-1.38,0-2.44-.4-3.29-1.16l-1.99,2.24c1.46,1.29,3.25,1.91,5.28,1.91v-3Zm-3.29-1.16c-.81-.72-1.22-1.63-1.22-2.85h-3c0,2.02.74,3.76,2.23,5.09l1.99-2.24Z"/></g></g></svg>