<?xml version="1.0" encoding="UTF-8"?>
<svg id="l" xmlns="http://www.w3.org/2000/svg" version="1.1" viewBox="0 0 387 47">
  <!-- Generator: Adobe Illustrator 29.1.0, SVG Export Plug-In . SVG Version: 2.1.0 Build 142)  -->
  <defs>
    <style>
      .st0 {
        fill: #7930c6;
      }

      .st1 {
        fill: #fff;
      }
    </style>
  </defs>
  <g>
    <path class="st0" d="M4.15,19.32c5.6-1.1,7.9-5.55,8-15.5h33.65v19.95c-.1,7.25-1.1,11.15-3.8,14.75-3.5,4.65-8.1,6.65-15.5,6.8H6v-8.2h17.2c10.05.05,13.35-3.15,13.6-13.1v-11.65h-17c-1.25,9.5-6.15,14.4-15.65,15.6v-8.65Z"/>
    <path class="st0" d="M70.95,36.78c9.35-.1,12.5-3.6,12.3-13.6V2.37h9.1v19.1c.05,9.5-.9,13.9-3.95,17.65-3.35,4.15-8.95,6.2-16.8,6.2h-16.35v-8.55h15.7ZM55.3,2.57h9.1v27.2h-9.1V2.57Z"/>
    <path class="st0" d="M100.9,34.98h17.1V13.72h-13.6V5.22h37.05v8.5h-14.5v21.25h17.05v8.8h-43.1v-8.8Z"/>
    <path class="st0" d="M151.1,22.97l27.6-12.95c3.65-1.75,4.4-2.8,4.4-6.1v-1.35h9.15v1.95c.15,5-1.9,8.55-6.3,10.8l-7.65,3.85v27.25h-9.25v-22.55l-17.95,8.95v-9.85Z"/>
    <path class="st0" d="M211.65,2.27v13.35c11.65,2.8,15.9,4,23.25,6.55v9.25c-6.7-2.45-13-4.3-23.25-6.8v21.95h-9.15V2.27h9.15Z"/>
    <path class="st0" d="M285.6,16.17c-.25,14.75-1.5,19.65-6.15,24.25-4.7,4.25-9.95,5.5-23.6,5.6h-9.5v-8.75h8.3c18.2.2,20.7-1.3,21.5-12.95h-31.5v-8.15h40.95ZM283.3,2.82v8.1h-36.6V2.82h36.6Z"/>
    <path class="st0" d="M293.35,22.97l27.6-12.95c3.65-1.75,4.4-2.8,4.4-6.1v-1.35h9.15v1.95c.15,5-1.9,8.55-6.3,10.8l-7.65,3.85v27.25h-9.25v-22.55l-17.95,8.95v-9.85Z"/>
    <path class="st0" d="M342.55,6.02h32.05v3.6h7.1v15.45c-.05,7.05-2.1,12.45-5.9,15.8-4.7,4.1-8.8,5.15-19.85,5.25h-11.45v-8.45h11.45c12.6-.05,16.6-3.1,16.65-12.7v-10.6h-30.05V6.02ZM380.65.42v7.65h-4.65V.42h4.65ZM386.85.42v7.65h-4.65V.42h4.65Z"/>
  </g>
  <g>
    <path class="st1" d="M.15,19.32c5.6-1.1,7.9-5.55,8-15.5h33.65v19.95c-.1,7.25-1.1,11.15-3.8,14.75-3.5,4.65-8.1,6.65-15.5,6.8H2v-8.2h17.2c10.05.05,13.35-3.15,13.6-13.1v-11.65H15.8c-1.25,9.5-6.15,14.4-15.65,15.6v-8.65Z"/>
    <path class="st1" d="M66.95,36.78c9.35-.1,12.5-3.6,12.3-13.6V2.37h9.1v19.1c.05,9.5-.9,13.9-3.95,17.65-3.35,4.15-8.95,6.2-16.8,6.2h-16.35v-8.55h15.7ZM51.3,2.57h9.1v27.2h-9.1V2.57Z"/>
    <path class="st1" d="M96.9,34.98h17.1V13.72h-13.6V5.22h37.05v8.5h-14.5v21.25h17.05v8.8h-43.1v-8.8Z"/>
    <path class="st1" d="M147.1,22.97l27.6-12.95c3.65-1.75,4.4-2.8,4.4-6.1v-1.35h9.15v1.95c.15,5-1.9,8.55-6.3,10.8l-7.65,3.85v27.25h-9.25v-22.55l-17.95,8.95v-9.85Z"/>
    <path class="st1" d="M207.65,2.27v13.35c11.65,2.8,15.9,4,23.25,6.55v9.25c-6.7-2.45-13-4.3-23.25-6.8v21.95h-9.15V2.27h9.15Z"/>
    <path class="st1" d="M281.6,16.17c-.25,14.75-1.5,19.65-6.15,24.25-4.7,4.25-9.95,5.5-23.6,5.6h-9.5v-8.75h8.3c18.2.2,20.7-1.3,21.5-12.95h-31.5v-8.15h40.95ZM279.3,2.82v8.1h-36.6V2.82h36.6Z"/>
    <path class="st1" d="M289.35,22.97l27.6-12.95c3.65-1.75,4.4-2.8,4.4-6.1v-1.35h9.15v1.95c.15,5-1.9,8.55-6.3,10.8l-7.65,3.85v27.25h-9.25v-22.55l-17.95,8.95v-9.85Z"/>
    <path class="st1" d="M338.55,6.02h32.05v3.6h7.1v15.45c-.05,7.05-2.1,12.45-5.9,15.8-4.7,4.1-8.8,5.15-19.85,5.25h-11.45v-8.45h11.45c12.6-.05,16.6-3.1,16.65-12.7v-10.6h-30.05V6.02ZM376.65.42v7.65h-4.65V.42h4.65ZM382.85.42v7.65h-4.65V.42h4.65Z"/>
  </g>
</svg>