<?xml version="1.0" encoding="UTF-8"?>
<svg id="_2024_rn" data-name="2024_rn" xmlns="http://www.w3.org/2000/svg" viewBox="0 0 50 50">
  <path d="M41.33,5.95h-18.87c-1.1,0-2,.9-2,2v4.76c0,.05.02.1.06.14l2.61,2.51c.13.12.33.03.33-.14v-6.27h14.15l-4.64,2.44c-.66.35-1.07,1.03-1.07,1.77v24.61h-8.44v-6.27c0-.17-.21-.26-.33-.14l-2.61,2.51s-.06.09-.06.14v4.76c0,1.1.9,2,2,2h9.44v2.69c0,1.5,1.6,2.47,2.93,1.77l7.44-3.9c.66-.35,1.07-1.03,1.07-1.77V7.95c0-1.1-.9-2-2-2Z" style="fill: #fff; stroke-width: 0px;"/>
  <path d="M28.09,22.91l-8.2-7.88c-.17-.16-.42-.21-.63-.11-.21.1-.35.31-.35.56v4.25H5.7c-.17,0-.3.14-.3.3v6.67c0,.17.14.3.3.3h13.21v4.25c0,.24.14.46.35.56.21.1.46.05.63-.11l8.2-7.88c.12-.11.19-.28.19-.44s-.07-.33-.19-.44Z" style="fill: #fff; stroke-width: 0px;"/>
</svg>