<?xml version="1.0" encoding="UTF-8"?><svg id="serial" xmlns="http://www.w3.org/2000/svg" viewBox="0 0 50 50"><defs><style>.cls-1,.cls-2{fill:#5a6172;}.cls-2{fill-rule:evenodd;}</style></defs><path class="cls-2" d="m38.85,10.15v4.03h-5.4v-4.2h-2.03v4.2h-5.4v-4.2h-2.03v4.2h-5.4v-4.2h-2.03v4.2h-5.4v-4.04c-2.36.52-4.13,2.59-4.13,5.11v21.41c0,3.48,2.82,6.3,6.29,6.3h23.38c3.47,0,6.29-2.82,6.29-6.3V15.27c0-2.52-1.77-4.59-4.13-5.11Zm1.13,26.53c0,1.82-1.48,3.3-3.29,3.3H13.31c-1.81,0-3.29-1.48-3.29-3.3v-16.4h29.97v16.4Z"/><path class="cls-2" d="m35.49,29.07c-1.06,0-1.93-.86-1.93-1.93s.86-1.93,1.93-1.93,1.93.86,1.93,1.93-.86,1.93-1.93,1.93Z"/><path class="cls-2" d="m28.5,34.97c-1.06,0-1.93-.86-1.93-1.93s.86-1.93,1.93-1.93,1.93.86,1.93,1.93-.86,1.93-1.93,1.93Z"/><path class="cls-2" d="m28.5,29.07c-1.06,0-1.93-.86-1.93-1.93s.86-1.93,1.93-1.93,1.93.86,1.93,1.93-.86,1.93-1.93,1.93Z"/><path class="cls-2" d="m21.5,34.97c-1.06,0-1.93-.86-1.93-1.93s.86-1.93,1.93-1.93,1.93.86,1.93,1.93-.86,1.93-1.93,1.93Z"/><path class="cls-2" d="m21.5,29.07c-1.06,0-1.93-.86-1.93-1.93s.86-1.93,1.93-1.93,1.93.86,1.93,1.93-.86,1.93-1.93,1.93Z"/><path class="cls-2" d="m14.51,34.97c-1.06,0-1.93-.86-1.93-1.93s.86-1.93,1.93-1.93,1.93.86,1.93,1.93-.86,1.93-1.93,1.93Z"/><path class="cls-2" d="m14.51,29.07c-1.06,0-1.93-.86-1.93-1.93s.86-1.93,1.93-1.93,1.93.86,1.93,1.93-.86,1.93-1.93,1.93Z"/><g><rect class="cls-1" x="34.42" y="6.77" width="3.46" height="6.45" rx=".25" ry=".25"/><rect class="cls-1" x="26.99" y="6.77" width="3.46" height="6.45" rx=".25" ry=".25"/><rect class="cls-1" x="19.55" y="6.77" width="3.46" height="6.45" rx=".25" ry=".25"/><rect class="cls-1" x="12.12" y="6.77" width="3.46" height="6.45" rx=".25" ry=".25"/></g></svg>