<?xml version="1.0" encoding="UTF-8"?>
<svg id="_2024_rn" data-name="2024_rn" xmlns="http://www.w3.org/2000/svg" viewBox="0 0 50 50">
  <path d="M31.77,9.51c-6.14-6.14-16.12-6.14-22.26,0-6.14,6.14-6.14,16.12,0,22.26,6.14,6.14,16.12,6.14,22.26,0,6.14-6.14,6.14-16.12,0-22.26ZM29.65,29.64c-2.4,2.4-5.6,3.72-9.01,3.72s-6.61-1.32-9.01-3.72c-4.97-4.97-4.96-13.05,0-18.01,2.4-2.4,5.6-3.72,9.01-3.72s6.61,1.32,9.01,3.72c4.97,4.97,4.97,13.05,0,18.01Z" style="fill: #5a6172; stroke-width: 0px;"/>
  <path d="M31.05,35.35l8.85,8.85c1.19,1.19,3.11,1.19,4.3,0,1.19-1.19,1.19-3.11,0-4.3l-8.85-8.85c-.57.83-1.21,1.62-1.94,2.35-.74.74-1.53,1.38-2.35,1.94Z" style="fill: #5a6172; stroke-width: 0px;"/>
</svg>