<svg width="52" height="56" viewBox="0 0 52 56" fill="none" xmlns="http://www.w3.org/2000/svg">
<g clip-path="url(#clip0_299_625)">
<path d="M24.2396 25.8353V16.736H2.17133C0.972599 16.736 0 17.7144 0 18.9203V25.8328H24.2396V25.8353Z" fill="white"/>
<path d="M2.1709 29.4407V49.4445C2.1709 53.0647 5.0887 55.9999 8.68731 55.9999H24.2392V29.4407H2.1709Z" fill="white"/>
<path d="M52.0003 25.8353V18.9227C52.0003 17.7168 51.0277 16.7384 49.829 16.7384H27.7607V25.8377H52.0003V25.8353Z" fill="white"/>
<path d="M27.7607 29.4407V55.9999H43.3126C46.9112 55.9999 49.829 53.0647 49.829 49.4445V29.4407H27.7607Z" fill="white"/>
<path d="M34.69 0C38.5123 0 41.6173 3.12361 41.6173 6.97126C41.6173 10.8189 38.5123 13.9425 34.6876 13.9425H27.7578V6.97126C27.7602 3.12361 30.8653 0 34.69 0Z" fill="white"/>
<path d="M10.3828 6.9688C10.3828 3.1236 13.4878 -1.43051e-05 17.3126 -1.43051e-05C21.1373 -1.43051e-05 24.2423 3.1236 24.2423 6.97124V13.9425H17.3126C13.4878 13.9401 10.3828 10.8164 10.3828 6.9688Z" fill="white"/>
</g>
<defs>
<clipPath id="clip0_299_625">
<rect width="52" height="56" fill="white"/>
</clipPath>
</defs>
</svg>
