<svg width="30" height="34" viewBox="0 0 30 34" fill="none" xmlns="http://www.w3.org/2000/svg">
<path d="M27.1362 31.1442L26.2508 30.2781L24.9585 30.5452H24.8229C24.4161 30.5452 24.0492 30.3429 23.8338 29.9867C23.6185 29.6387 23.6025 29.2097 23.778 28.8373L24.3124 27.7203L23.7142 26.6357C23.5148 26.2715 23.5148 25.8182 23.7222 25.454C23.8498 25.2273 24.0572 25.0574 24.2965 24.9602L22.5416 24.4989L20.8187 26.0206C20.5714 26.2391 20.2444 26.3605 19.9173 26.3605C19.1915 26.3605 18.5852 25.7858 18.5374 25.0493L18.4018 22.7424L16.4475 21.5445C15.9928 21.2693 15.7376 20.7594 15.7855 20.2251C15.8333 19.6909 16.1604 19.2377 16.6549 19.0434L17.4286 18.7358C16.3279 18.4444 15.1792 18.2664 13.9907 18.2664C12.8022 18.2664 11.5738 18.4525 10.4332 18.7601C4.43475 20.4194 -0.000244141 26.142 -0.000244141 32.9654C-0.000244141 33.022 -0.000244141 33.0787 -0.000244141 33.1272H27.9577C27.9577 33.0706 27.9577 33.022 27.9577 32.9654C27.9577 32.4554 27.9258 31.9617 27.878 31.4679C27.5988 31.4518 27.3276 31.3465 27.1202 31.1442H27.1362Z" fill="#818DAB"/>
<path d="M25.7163 24.9766C25.7163 24.9766 25.6844 24.9846 25.6685 24.9926H25.7323C25.7323 24.9926 25.7243 24.9846 25.7163 24.9766Z" fill="url(#paint0_linear_688_6555)"/>
<path d="M18.8901 14.9209C21.5971 12.1741 21.5971 7.72048 18.8901 4.9736C16.1831 2.22671 11.7942 2.22671 9.08722 4.9736C6.38024 7.72048 6.38024 12.1741 9.08722 14.9209C11.7942 17.6678 16.1831 17.6678 18.8901 14.9209Z" fill="#818DAB"/>
<path fill-rule="evenodd" clip-rule="evenodd" d="M19.6381 18.6957L20.2203 16.1622V16.1703C20.3001 15.8223 20.7309 15.7171 20.9542 15.9923L22.5814 17.9996C22.6692 18.1048 22.8048 18.1615 22.9404 18.1534L25.4929 17.9268C25.8439 17.8944 26.0672 18.2829 25.8837 18.5824L24.5038 20.7759C24.432 20.8973 24.416 21.043 24.4719 21.1725L25.469 23.5684C25.6046 23.9003 25.3094 24.2402 24.9744 24.1512L22.4937 23.4955C22.3581 23.4551 22.2145 23.4955 22.1108 23.5846L20.1725 25.2925C19.9093 25.5191 19.5025 25.3491 19.4785 24.993L19.327 22.3947C19.319 22.2571 19.2472 22.1276 19.1276 22.0548L16.934 20.7112C16.6389 20.5331 16.6708 20.0798 16.9978 19.9503L19.3828 18.9952C19.5104 18.9466 19.6062 18.8333 19.6381 18.6957ZM28.3962 26.6845L29.8719 27.3644L29.8799 27.3725C30.0394 27.4454 30.0394 27.672 29.8879 27.7529L28.46 28.5219C28.3962 28.5543 28.3484 28.6109 28.3484 28.6838L28.1649 30.3188C28.141 30.4969 27.9336 30.5697 27.806 30.4483L26.6414 29.307C26.5855 29.2504 26.5217 29.2342 26.4499 29.2504L24.8626 29.5741C24.6871 29.6146 24.5515 29.4365 24.6313 29.2747L25.3412 27.8015C25.3811 27.7368 25.3731 27.6639 25.3412 27.5992L24.5435 26.1665C24.4638 26.0127 24.5834 25.8265 24.7589 25.8508L26.3622 26.0775C26.426 26.0856 26.4978 26.0613 26.5457 26.0127L27.6385 24.8067C27.7501 24.6772 27.9655 24.7338 27.9974 24.9119L28.2766 26.5307C28.2846 26.5955 28.3324 26.6521 28.3962 26.6845Z" fill="#FF74B8"/>
<defs>
<linearGradient id="paint0_linear_688_6555" x1="25.7004" y1="25.0007" x2="25.7004" y2="24.9766" gradientUnits="userSpaceOnUse">
<stop stop-color="#8F9AB5"/>
<stop offset="1" stop-color="#656F93"/>
</linearGradient>
</defs>
</svg>
