<svg data-name="jmap" xmlns="http://www.w3.org/2000/svg" viewBox="0 0 450 400"><defs><style>.a1,.a2,.a3,.a4,.a5,.a6,.a7,.a8,.a9{stroke-width:0;fill:#ccc;}</style></defs><path class="a1" d="M449.8,8.1l-16.4,83.9c-.9,4.5-5.1,8.1-9.5,8.1h-109.8c-4.4,0-7.2-3.6-6.3-8.1l16.4-83.9c.9-4.5,5.1-8.1,9.5-8.1h109.8c4.4,0,7.2,3.6,6.3,8.1Z"/><path class="a2" d="M363.4,187.2l-9.6,49.3h-50.7l6.8-34.6h-23.5l16.1-82.3c.9-4.5,5.1-8.1,9.5-8.1h35.7c4.4,0,7.2,3.6,6.3,8.1l-4.6,23.7c-.7,3.6-.3,7.2,1.2,10.2l11.7,23.6c1.5,3,1.9,6.5,1.2,10.2Z"/><path class="a3" d="M303.1,236.5h50.7l-16.2,82.8c-.9,4.5-5.1,8.1-9.5,8.1h-3.3c-4.4,0-7.2-3.6-6.3-8.1l2.9-14.6c.6-3.1-1.4-5.7-4.4-5.7s-5.1,1.8-6.2,4.3l-8,18c-1.6,3.6-5.2,6.1-8.8,6.1h-8.5l5.7-29.3,12-61.5Z"/><path class="a4" d="M197.7,264.5l2.3-11.9h7.5c2,0,4.1-.8,5.8-2.2l22.4-18c1.9-1.5,3.2-3.7,3.7-5.9l2.2-11.5c.7-3.5,4-6.4,7.5-6.4h7.1c3.4,0,5.7,2.8,5,6.4l-.9,4.8c-.9,4.6,4,7,7.9,3.9l13.6-10.9c1.9-1.5,3.2-3.7,3.7-5.9l1-5h23.5l-6.8,34.6-12,61.5h-30.1l7.2-36.8h-24.2l-5.7,29.1h-19.9l5-25.8h-25.8Z"/><path class="a5" d="M291.1,298l-5.7,29.3h-54c-3.2,0-6.6,2-8.3,5.1l-12.9,22.4c-1.8,3.1-5.1,5.1-8.3,5.1h-3.3l10.3-52.6h6.4l3.3-17.1h19.9l5.7-29.1h24.2l-7.2,36.8h30.1Z"/><path class="a6" d="M208.7,307.4l-10.3,52.6h-24.6c-4.4,0-7.2-3.6-6.3-8.1l8.8-44.9c.9-4.5-2-8.1-6.3-8.1h-6.9l9.1-46.4h27.9l-2.3,11.9h25.8l-5,25.8-3.3,17.1h-6.4Z"/><path class="a7" d="M172.1,252.6l-9.1,46.4h-58.6c-4.4,0-7.2-3.6-6.3-8.1l5.9-30.3c.9-4.5,5.1-8.1,9.5-8.1h58.6Z"/><path class="a8" d="M164.7,315.5l-3.6,18.6c-.9,4.5-5.1,8.1-9.5,8.1h-55.6c-4.4,0-7.2-3.6-6.3-8.1l3.6-18.6c.9-4.5,5.1-8.1,9.5-8.1h55.6c4.4,0,7.2,3.6,6.3,8.1Z"/><path class="a9" d="M95.8,260.7l-17.8,91.3c-.9,4.5-5.1,8.1-9.5,8.1h-23.4c-4.4,0-7.2-3.6-6.3-8.1l7.1-36.5c.9-4.5-2-8.1-6.3-8.1h-5.9c-4.4,0-7.2-3.6-6.3-8.1l7.6-38.7c.9-4.5,5.1-8.1,9.5-8.1h45c4.4,0,7.2,3.6,6.3,8.1ZM17,370.5h-4.8c-4.4,0-8.6,3.6-9.5,8.1l-2.6,13.4c-.9,4.5,2,8.1,6.3,8.1h4.8c4.4,0,8.6-3.6,9.5-8.1l2.6-13.4c.9-4.5-2-8.1-6.3-8.1Z"/></svg>