<svg xmlns="http://www.w3.org/2000/svg" width="11" height="15" viewBox="0 0 11 15" fill="none">
	<path d="M9.24401 5.56626C7.84777 4.32837 6.58388 2.61718 6.19253 1.11426C6.14605 0.935854 5.89201 0.950904 5.85985 1.13331L4.09071 11.1666C3.67504 10.8026 3.09592 10.5769 2.45377 10.5787C1.18631 10.5822 0.155799 11.4691 0.152368 12.5589C0.148937 13.6487 1.17411 14.5297 2.44245 14.5257C3.70991 14.5222 4.74042 13.6353 4.74385 12.5455L5.94574 5.72924C5.95504 5.67648 6.0052 5.64335 6.0558 5.65538C7.28042 5.95992 8.18068 6.87331 8.39753 7.8232C8.6816 9.06783 8.30147 9.95831 7.90633 10.505C7.79819 10.6545 7.96719 10.8444 8.1232 10.7484C10.0959 9.53172 10.8407 6.98018 9.24401 5.56626Z" fill="#FF74B8"/>
  </svg>