<?xml version="1.0" encoding="UTF-8"?><svg xmlns="http://www.w3.org/2000/svg" viewBox="0 0 176 15"><g id="brand"><path d="m24.47,4.73h-1.06c-.17,0-.3.13-.3.3v1.65h-2.54v-1.65c0-.17-.13-.3-.3-.3h-1.06c-.17,0-.3.13-.3.3h0c0-.17-.13-.31-.3-.31h-5.23c-.17,0-.3.13-.3.3v.77c0,.17.13.3.3.3h1.78v3.64c0,.17.14.3.31.3h1.06c.17,0,.3-.13.3-.3v-3.64h1.79c.17,0,.3-.13.3-.3v3.94c0,.17.13.3.3.3h1.06c.17,0,.3-.13.3-.3v-1.68h2.54v1.68c0,.17.13.3.3.3h1.06c.17,0,.3-.13.3-.3v-4.7c0-.17-.13-.3-.3-.3Z" style="fill:#fff;"/><path d="m30.83,8.84c-.05-.11-.16-.17-.27-.17h-3.65v-.67h2.69c.17,0,.3-.13.3-.3v-.79c0-.17-.13-.3-.3-.3h-2.69v-.5h3.62c.17,0,.3-.13.3-.3v-.77c0-.17-.13-.3-.3-.3h-4.98c-.17,0-.3.13-.3.3v4.7c0,.17.13.3.3.3h4.37c.37,0,.63-.01.78-.03.16-.02.48-.06.48-.36,0-.04,0-.09-.03-.13l-.32-.68Z" style="fill:#fff;"/><rect x="32.74" y="4.73" width="1.66" height="5.3" rx=".3" ry=".3" style="fill:#fff;"/><path d="m40.01,4.92c-.28-.13-.64-.19-1.12-.19h-3.71c-.09,0-.17.04-.22.1-.06.06-.08.15-.07.24l.08.6v4.06c0,.17.13.3.3.3h3.63c.49,0,.85-.06,1.13-.19.3-.14.51-.35.63-.63.1-.25.16-.55.16-.91v-1.85c0-.36-.05-.66-.16-.91-.12-.28-.33-.49-.63-.63Zm-3.4,1.18h2.21c.17,0,.24.04.26.06.04.05.07.12.07.2v2.04c0,.16-.03.27-.32.27h-2.21v-2.57Z" style="fill:#fff;"/><path d="m46.16,4.93c-.26-.13-.59-.2-1.01-.2h-2.34c-.43,0-.77.06-1.02.2-.28.14-.48.36-.59.63-.1.25-.15.54-.15.89v1.85c0,.35.05.66.15.91.12.28.32.5.59.63.26.13.59.19,1.01.19h2.34c.65,0,1.1-.15,1.37-.47.26-.3.38-.72.38-1.26v-1.85c0-.35-.05-.65-.16-.9-.12-.28-.31-.49-.59-.63Zm-.91,1.43v2.04c0,.12-.04.17-.07.2-.05.05-.14.07-.26.07h-1.88c-.12,0-.21-.02-.27-.08-.03-.03-.07-.07-.07-.19v-2.04c0-.1.04-.15.07-.18.06-.05.15-.08.27-.08h1.88c.17,0,.23.06.25.08.05.05.08.11.08.18Z" style="fill:#fff;"/><path d="m52.32,8.84c-.05-.1-.16-.17-.27-.17h-3.01v-3.64c0-.17-.13-.3-.3-.3h-1.06c-.17,0-.3.13-.3.3v4.03s-.08.64-.08.64c-.01.09.02.17.07.24.06.06.14.1.22.1h3.81c.37,0,.63-.01.78-.03.16-.02.48-.06.48-.36,0-.04,0-.09-.03-.13l-.32-.68Z" style="fill:#fff;"/><path d="m58.86,4.73h-1.08c-.11,0-.21.06-.26.15l-1.61,2.75-1.55-2.75c-.05-.09-.15-.15-.26-.15h-1.22c-.09,0-.17.04-.22.1-.06.06-.08.15-.07.24l.08.6v4.06c0,.17.13.3.3.3h1.06c.17,0,.3-.13.3-.3v-1.85l.85,1.52c.05.1.15.15.26.15h.97c.11,0,.21-.06.26-.15l.85-1.52v1.85c0,.17.13.3.3.3h1.06c.17,0,.3-.13.3-.3v-4.7c0-.17-.13-.3-.3-.3Z" style="fill:#fff;"/><path d="m64.76,4.57h-3.28c-.42,0-.77.08-1.04.24-.28.16-.48.39-.61.67-.12.26-.18.57-.18.9v2.82c0,.29.06.56.19.81.13.26.34.46.62.61.27.15.61.22,1.03.22h2.92c.15,0,.27-.01.36-.04.13-.03.2-.07.26-.12.03-.03.05-.06.07-.1l.24-.56c.04-.09.03-.2-.03-.28-.05-.08-.15-.13-.25-.13h-3.52c-.22,0-.34-.04-.39-.07-.09-.05-.12-.1-.13-.14-.03-.09-.05-.18-.05-.29v-2.78c0-.11.02-.2.05-.29.01-.03.04-.09.13-.14.06-.03.17-.07.39-.07h3.05c.24,0,.35.04.39.07.09.05.12.1.13.14.03.08.04.17.04.29v1.86c0,.06,0,.09,0,.1-.03,0-.16.01-.16.01l-.08-.11v-2.05c0-.17-.13-.3-.3-.3h-.32s-.09.01-.13.03l-.42.2s-.89-.06-1.09-.06c-.2,0-.36-.01-.48-.01-.31,0-.55.09-.73.26-.18.17-.27.41-.27.68v1.74c0,.26.09.49.27.66.18.18.42.27.74.27h.62c.32,0,.58-.04.78-.12.16-.06.29-.15.4-.25.02.03.05.05.08.08.2.18.49.27.85.27h.14c.42,0,.76-.11,1.02-.31.28-.22.42-.55.42-.98v-2.06c0-.5-.15-.9-.45-1.2-.3-.3-.72-.45-1.26-.45Zm-1.42,2.74v.55c0,.15-.03.26-.09.33-.05.05-.17.08-.33.08l-.19.05v-1.01h.61Z" style="fill:#fff;"/><path d="m71.52,6.79c-.27-.08-.59-.12-.96-.12h-1.78c-.22,0-.29-.05-.29-.06-.04-.03-.05-.11-.05-.17v-.13c0-.11.04-.16.06-.18,0,0,.06-.05.24-.05,0,0,.11,0,.11,0,.82,0,1.48,0,1.96.03.48.02.79.03.92.05.01,0,.02,0,.03,0,.14,0,.26-.09.29-.23l.17-.74c0-.32-.37-.38-.59-.42-.24-.04-.55-.06-.93-.06h-2.18c-.43,0-.76.07-1.03.22-.27.15-.46.36-.58.62-.1.23-.16.49-.16.77v.13c0,.55.16.95.48,1.21.3.25.75.37,1.37.37h1.86c.22,0,.29.03.3.03,0,0,.03.06.03.19v.16c0,.13-.03.18-.04.19,0,0-.07.05-.29.05h-.15c-.85,0-1.51,0-2-.03-.47-.02-.76-.04-.88-.06-.02,0-.04,0-.05,0-.12,0-.22.07-.27.17l-.32.7s-.03.08-.03.13c0,.31.35.38.5.41.19.04.47.05.86.05h2.66c.6,0,1.04-.16,1.3-.48.25-.3.38-.69.38-1.16v-.13c0-.42-.08-.75-.25-.98-.17-.24-.41-.41-.71-.5Z" style="fill:#fff;"/><path d="m83.73,8.84c-.05-.1-.16-.17-.27-.17h-3.65v-.67h2.69c.17,0,.3-.13.3-.3v-.79c0-.17-.13-.3-.3-.3h-2.69v-.5h3.62c.17,0,.3-.13.3-.3v-.77c0-.17-.13-.3-.3-.3h-4.98c-.17,0-.3.13-.3.3h0c0-.17-.13-.31-.3-.31h-5.23c-.17,0-.3.13-.3.3v.77c0,.17.13.3.3.3h1.78v3.64c0,.17.14.3.31.3h1.06c.17,0,.3-.13.3-.3v-3.64h1.79c.17,0,.3-.13.3-.3v3.94c0,.17.13.3.3.3h4.37c.37,0,.63-.01.78-.03.16-.02.48-.06.48-.36,0-.04,0-.09-.03-.13l-.32-.68Z" style="fill:#fff;"/><path d="m90.29,8.79h-.15c-.07-.01-.17-.03-.3-.07-.12-.04-.27-.1-.44-.2-.05-.03-.11-.08-.19-.14,0,0-.36-.28-.38-.3.03-.01.06-.03.09-.05.21-.12.37-.27.49-.45.11-.17.18-.34.22-.52.04-.16.05-.32.05-.46v-.15c0-.16-.01-.34-.04-.52-.03-.2-.11-.4-.22-.58-.12-.2-.31-.35-.56-.47-.24-.11-.54-.16-.93-.16h-3.54c-.09,0-.17.04-.22.1s-.08.15-.07.24l.08.61v4.06c0,.17.13.3.3.3h1.06c.17,0,.3-.13.3-.3v-1.48c.36,0,.66.05.89.15.24.1.47.25.67.46l.58.58c.3.3.57.48.82.57.24.08.48.11.72.11.17,0,.32-.01.44-.03.13-.02.23-.04.29-.06.1-.03.17-.11.2-.21l.16-.65c.02-.09,0-.18-.05-.26-.06-.07-.14-.12-.24-.12Zm-4.47-2.7h1.88c.15,0,.23.03.25.06.05.07.07.15.07.25v.18c0,.12-.04.17-.06.2-.03.03-.13.08-.29.1-.12.01-.27.02-.42.03-.16,0-.33.01-.53.01-.17,0-.35,0-.54,0-.11,0-.23,0-.36-.01v-.81Z" style="fill:#fff;"/><path d="m97.53,8.72c-.06-.09-.15-.14-.25-.14-.02,0-.04,0-.05,0-.11.02-.4.04-.87.06-.49.02-1.17.03-2.05.03h-.33c-.18,0-.26-.04-.28-.05-.04-.04-.06-.11-.06-.21v-2.04c0-.16.02-.27.34-.27h.41c.84,0,1.49,0,1.93.03.42.02.68.03.76.05.02,0,.04,0,.05,0,.14,0,.26-.09.29-.23l.17-.73c0-.31-.35-.38-.53-.42-.22-.04-.51-.07-.9-.07h-2.41c-.6,0-1.05.15-1.34.46-.28.3-.43.75-.43,1.34v1.78c0,.36.05.65.15.9.11.28.31.5.59.64.26.13.59.19,1.02.19h2.22c.46,0,.81-.02,1.07-.07.28-.05.46-.11.58-.18.09-.05.28-.17.28-.38,0-.06-.02-.11-.04-.16l-.33-.53Z" style="fill:#fff;"/><rect x="97.91" y="4.73" width="1.66" height="5.3" rx=".3" ry=".3" style="fill:#fff;"/><path d="m105.67,4.73h-1.06c-.17,0-.3.13-.3.3v2.52l-2.6-2.73c-.06-.06-.13-.09-.22-.09h-1.15c-.09,0-.17.04-.22.1-.06.06-.08.15-.07.24l.08.6v4.06c0,.17.13.3.3.3h1.06c.17,0,.3-.13.3-.3v-2.56l2.66,2.77c.06.06.13.09.22.09h1.02c.17,0,.3-.13.3-.3v-4.7c0-.17-.13-.3-.3-.3Z" style="fill:#fff;"/><path d="m111.58,4.92c-.28-.13-.64-.19-1.12-.19h-3.71c-.09,0-.17.04-.22.1-.06.06-.08.15-.07.24l.08.6v4.06c0,.17.13.3.3.3h3.63c.49,0,.85-.06,1.13-.19.3-.14.51-.35.63-.63.1-.25.16-.55.16-.91v-1.85c0-.36-.05-.66-.16-.91-.12-.28-.33-.49-.63-.63Zm-3.4,1.18h2.21c.17,0,.24.04.26.06.04.05.07.12.07.2v2.04c0,.16-.03.27-.32.27h-2.21v-2.57Z" style="fill:#fff;"/><path d="m118.28,8.84c-.05-.11-.16-.17-.27-.17h-3.65v-.67h2.69c.17,0,.3-.13.3-.3v-.79c0-.17-.13-.3-.3-.3h-2.69v-.5h3.62c.17,0,.3-.13.3-.3v-.77c0-.17-.13-.3-.3-.3h-4.98c-.17,0-.3.13-.3.3v4.7c0,.17.13.3.3.3h4.37c.37,0,.63-.01.78-.03.16-.02.48-.06.48-.36,0-.04,0-.09-.03-.13l-.32-.68Z" style="fill:#fff;"/><path d="m130.63,8.84c-.05-.11-.16-.17-.27-.17h-3.65v-.67h2.69c.17,0,.3-.13.3-.3v-.79c0-.17-.13-.3-.3-.3h-2.69v-.5h3.62c.17,0,.3-.13.3-.3v-.77c0-.17-.13-.3-.3-.3h-4.98c-.17,0-.3.13-.3.3v3.86c-.06-.06-.13-.1-.22-.1h-.15c-.05-.01-.14-.02-.3-.07-.12-.03-.27-.1-.44-.2-.05-.03-.11-.07-.19-.14,0,0-.36-.28-.38-.3.03-.01.06-.03.09-.05.21-.12.37-.27.49-.45.11-.17.19-.35.23-.52.04-.17.06-.32.06-.46v-.15c0-.16-.01-.34-.04-.52-.03-.21-.11-.4-.22-.58-.12-.19-.31-.35-.56-.47-.24-.11-.54-.16-.93-.16h-3.54c-.09,0-.17.04-.22.1s-.08.15-.07.24l.08.61v4.06c0,.17.13.3.3.3h1.06c.17,0,.3-.13.3-.3v-1.48c.36,0,.66.05.89.15.24.1.46.25.67.46l.58.58c.3.3.57.48.82.57.24.08.48.11.72.11.17,0,.32-.01.44-.03.13-.02.23-.04.29-.06.1-.03.17-.11.2-.21l.09-.36v.29c0,.17.13.3.3.3h4.37c.37,0,.63-.01.78-.03.16-.02.48-.06.48-.36,0-.04,0-.09-.03-.13l-.32-.68Zm-10.27-2.75h1.88c.15,0,.23.03.25.06.05.06.07.14.07.25v.18c0,.12-.04.17-.06.2-.02.02-.08.07-.29.1-.12.01-.27.02-.42.03-.16,0-.33.01-.53.01-.17,0-.35,0-.54,0-.11,0-.23,0-.36-.01v-.81Z" style="fill:#fff;"/><path d="m145.4,4.9c-.05-.1-.15-.17-.27-.17h-1.58c-.11,0-.22.06-.27.17l-1.99,3.98-.02-.04c-.05-.1-.16-.17-.27-.17h-3.01v-3.64c0-.17-.13-.3-.3-.3h-1.06c-.17,0-.3.13-.3.3v4.03s-.05.42-.05.42l-.3-.63c-.05-.1-.16-.17-.27-.17h-3.01v-3.64c0-.17-.13-.3-.3-.3h-1.06c-.17,0-.3.13-.3.3v4.03s-.08.64-.08.64c-.01.09.02.17.07.24.06.06.14.1.22.1h3.81c.37,0,.63-.01.78-.03.12-.02.34-.05.43-.2.01.05,0,.1.04.13.06.06.14.1.22.1h3.81c.34,0,.58-.01.74-.03.03.01.07.03.1.03h1.17c.11,0,.22-.06.27-.16l.44-.85h2.49l.39.84c.05.11.16.17.27.17h1.23c.1,0,.2-.05.25-.14.05-.09.06-.2.01-.29l-2.34-4.7Zm-1.72,2.74l.66-1.3.65,1.3h-1.31Z" style="fill:#fff;"/><path d="m154.93,9.33v-2.18c0-.17-.13-.3-.3-.3h-2.58c-.17,0-.3.13-.3.3v.78c0,.08.03.16.1.22.06.05.13.08.2.08,0,0,1.05-.08,1.05-.08h.18s0,.49,0,.49h-.58c-.35.02-.78.03-1.29.03h-.33c-.23,0-.28-.05-.28-.05-.04-.04-.06-.11-.06-.21v-2.04c0-.16.02-.27.34-.27h.41c.84,0,1.48,0,1.93.03.42.02.68.03.76.05.02,0,.04,0,.05,0,.14,0,.26-.09.29-.23l.17-.73c0-.31-.35-.38-.53-.42-.22-.04-.51-.07-.9-.07h-2.41c-.6,0-1.05.15-1.34.46-.28.3-.42.75-.42,1.34v1.78c0,.35.05.65.15.9.11.28.31.5.59.64.26.13.59.19,1.02.19h2.38c.55,0,.94-.02,1.18-.06.22-.03.59-.09.59-.41,0-.04,0-.09-.03-.13l-.05-.11Z" style="fill:#fff;"/><rect x="155.33" y="4.73" width="1.66" height="5.3" rx=".3" ry=".3" style="fill:#fff;"/><path d="m174.46,7.29c-.17-.24-.41-.41-.71-.5-.27-.08-.59-.12-.96-.12h-1.78c-.22,0-.29-.05-.29-.06-.04-.03-.05-.11-.05-.17v-.13c0-.11.04-.16.06-.18,0,0,.06-.05.24-.05,0,0,.11,0,.11,0,.82,0,1.48,0,1.96.03.48.02.79.03.92.05.01,0,.02,0,.03,0,.14,0,.26-.09.29-.23l.17-.74c0-.32-.37-.38-.59-.42-.24-.04-.55-.06-.93-.06h-2.18c-.43,0-.76.07-1.03.22-.27.15-.46.36-.58.62-.1.23-.16.49-.16.77v.13c0,.55.16.95.48,1.21.3.25.75.37,1.37.37h1.86c.22,0,.29.03.3.03,0,0,.03.06.03.19v.16c0,.13-.03.18-.04.19,0,0-.07.05-.29.05h-.15c-.85,0-1.51,0-2-.03-.47-.02-.76-.04-.88-.06-.02,0-.04,0-.05,0-.12,0-.22.07-.27.17l-.25.53-.21-.45c-.05-.1-.16-.17-.27-.17h-3.01v-3.64c0-.17-.13-.3-.3-.3h-1.06c-.17,0-.3.13-.3.3v4.03s0,.08,0,.08c.02-.08,0-.17-.05-.24-.06-.07-.14-.12-.24-.12h-.15c-.07-.01-.17-.03-.3-.07-.12-.04-.27-.1-.44-.2-.05-.03-.11-.08-.19-.14,0,0-.36-.28-.38-.3.03-.01.06-.03.09-.05.21-.12.37-.27.49-.45.11-.17.18-.34.22-.52.04-.16.05-.32.05-.46v-.15c0-.16-.01-.34-.04-.52-.03-.2-.11-.4-.22-.58-.12-.2-.31-.35-.56-.47-.24-.11-.54-.16-.93-.16h-3.54c-.09,0-.17.04-.22.1s-.08.15-.07.24l.08.61v4.06c0,.17.13.3.3.3h1.06c.17,0,.3-.13.3-.3v-1.48c.36,0,.66.05.89.15.24.1.47.25.67.46l.58.58c.3.3.57.48.82.57.24.08.48.11.72.11.17,0,.32-.01.44-.03.13-.02.23-.04.29-.06.1-.03.17-.11.2-.21l.16-.63-.07.52c-.01.09.02.17.07.24.06.06.14.1.22.1h3.81c.37,0,.63-.01.78-.03.11-.01.29-.04.39-.15.11.08.26.11.35.13.19.04.47.05.86.05h2.66c.6,0,1.04-.16,1.3-.48.25-.3.38-.69.38-1.16v-.13c0-.42-.08-.75-.25-.98Zm-15.26-1.2h1.88c.15,0,.23.03.25.06.05.07.07.15.07.25v.18c0,.12-.04.17-.06.2-.03.03-.13.08-.29.1-.12.01-.27.02-.42.03-.16,0-.33.01-.53.01-.17,0-.35,0-.54,0-.11,0-.23,0-.36-.01v-.81Z" style="fill:#fff;"/><path d="m15.48,9.73v-3.94h-2.09v-.77h5.23v.77h-2.09v3.94h-1.06Z" style="fill:#5a6172;"/><path d="m19.22,9.73v-4.7h1.06v1.95h3.14v-1.95h1.06v4.7h-1.06v-1.98h-3.14v1.98h-1.06Z" style="fill:#5a6172;"/><path d="m25.55,9.73v-4.7h4.98v.77h-3.92v1.1h2.99v.79h-2.99v1.27h3.95l.32.68s-.07.04-.22.06c-.14.02-.39.03-.74.03h-4.37Z" style="fill:#5a6172;"/><path d="m33.04,9.73v-4.7h1.06v4.7h-1.06Z" style="fill:#5a6172;"/><path d="m35.26,9.73v-4.06l-.08-.64h3.71c.43,0,.76.05,1,.16.23.11.39.27.48.48.09.21.14.47.14.79v1.85c0,.32-.04.59-.13.8-.09.21-.25.37-.48.48-.23.11-.57.16-1,.16h-3.63Zm1.06-.77h2.51c.41,0,.62-.19.62-.57v-2.04c0-.15-.04-.29-.14-.4s-.25-.16-.49-.16h-2.51v3.17Z" style="fill:#5a6172;"/><path d="m42.81,9.73c-.37,0-.67-.05-.88-.16-.21-.11-.36-.27-.45-.48-.09-.21-.13-.48-.13-.79v-1.85c0-.31.04-.57.13-.78.08-.21.23-.37.45-.48.21-.11.51-.16.89-.16h2.34c.37,0,.67.05.88.16s.36.27.45.48c.09.21.13.47.13.78v1.85c0,.47-.1.83-.31,1.07s-.59.36-1.14.36h-2.34Zm.23-.77h1.88c.2,0,.35-.05.46-.15.11-.1.16-.24.16-.42v-2.04c0-.15-.06-.29-.17-.4-.11-.11-.26-.16-.46-.16h-1.88c-.19,0-.35.05-.46.15-.12.1-.18.24-.18.41v2.04c0,.18.06.32.17.42.12.1.27.15.47.15Z" style="fill:#5a6172;"/><path d="m47.6,9.73l.08-.64v-4.06h1.06v3.94h3.31l.32.68s-.07.04-.22.06c-.14.02-.39.03-.74.03h-3.81Z" style="fill:#5a6172;"/><path d="m52.97,9.73v-4.06l-.08-.64h1.22l1.81,3.2,1.87-3.2h1.08v4.7h-1.06v-2.98h-.09l-.31.7-1.01,1.81h-.97l-1.01-1.81-.32-.7h-.08v2.98h-1.06Z" style="fill:#5a6172;"/><path d="m61.48,10.53c-.37,0-.66-.06-.89-.18-.22-.12-.39-.29-.49-.49-.1-.2-.16-.43-.16-.67v-2.82c0-.29.05-.55.16-.77.1-.23.27-.41.49-.54.22-.13.52-.2.89-.2h3.28c.46,0,.81.12,1.05.36.24.24.36.57.36.98v2.06c0,.33-.1.58-.31.74-.21.17-.48.25-.83.25h-.14c-.29,0-.51-.06-.66-.2s-.22-.31-.22-.52c-.04.14-.1.26-.18.38-.09.11-.21.2-.38.27-.17.07-.39.1-.67.1h-.62c-.23,0-.4-.06-.52-.18-.12-.12-.18-.27-.18-.45v-1.74c0-.2.06-.35.18-.47.12-.11.29-.17.52-.17.12,0,.28,0,.47.01.19,0,.39.02.6.03.21.01.4.03.56.04l.49-.24h.32v2.05c0,.13.04.23.11.3.07.07.16.1.27.1h.08c.14,0,.24-.03.3-.1.06-.07.09-.17.09-.3v-1.86c0-.14-.01-.28-.06-.4-.04-.12-.13-.22-.26-.29s-.31-.11-.55-.11h-3.05c-.24,0-.42.04-.54.11s-.21.17-.26.29c-.05.12-.07.25-.07.4v2.78c0,.14.02.27.07.39.04.12.13.22.26.3s.31.11.54.11h3.52l-.24.56s-.06.03-.13.05-.17.03-.29.03h-2.92Zm1.2-1.96h.24c.26,0,.45-.06.56-.18.11-.12.16-.3.16-.53v-.85h-.96c-.1,0-.16.02-.2.05-.04.03-.05.1-.05.19v1.07c0,.09.02.15.06.19.04.04.1.06.18.06Z" style="fill:#5a6172;"/><path d="m68.15,9.73c-.36,0-.63-.02-.8-.05-.17-.03-.26-.07-.26-.11l.32-.7c.12.02.43.04.92.06s1.16.03,2.01.03h.15c.23,0,.39-.04.49-.12.1-.08.14-.22.14-.42v-.16c0-.19-.04-.32-.12-.4s-.25-.12-.52-.12h-1.86c-.54,0-.93-.1-1.18-.3s-.37-.53-.37-.98v-.13c0-.23.04-.45.13-.65.09-.2.24-.36.45-.48.21-.12.51-.18.88-.18h2.18c.36,0,.66.02.88.06.22.04.34.08.34.12l-.16.67c-.14-.02-.45-.03-.94-.05-.49-.02-1.15-.03-1.98-.03h-.09c-.25,0-.41.04-.5.14-.09.1-.13.22-.14.37v.14c0,.18.05.31.15.4s.26.13.49.13h1.78c.34,0,.63.03.87.1.24.07.42.2.55.38s.19.45.19.81v.13c0,.4-.1.72-.31.97-.21.25-.56.37-1.07.37h-2.66Z" style="fill:#5a6172;"/><path d="m74.71,9.73v-3.94h-2.09v-.77h5.23v.77h-2.09v3.94h-1.06Z" style="fill:#5a6172;"/><path d="m78.46,9.73v-4.7h4.98v.77h-3.92v1.1h2.99v.79h-2.99v1.27h3.95l.32.68s-.07.04-.22.06c-.14.02-.39.03-.74.03h-4.37Z" style="fill:#5a6172;"/><path d="m89.5,9.81c-.21,0-.42-.03-.63-.1-.21-.07-.44-.23-.7-.49l-.58-.58c-.23-.24-.49-.42-.77-.53-.28-.11-.63-.17-1.05-.17h-.25v1.78h-1.06v-4.06l-.08-.65h3.54c.34,0,.61.05.8.14.2.09.34.21.43.36.09.15.15.3.18.47s.04.32.04.47v.15c0,.12-.02.25-.05.39s-.09.29-.18.42c-.09.14-.22.26-.39.35s-.39.15-.66.17c.07.04.16.09.26.17.11.08.22.16.33.25.11.09.22.17.32.25.1.07.17.13.22.16.19.11.36.19.51.23.15.04.27.07.37.07.1,0,.15,0,.17,0l-.16.65s-.13.03-.24.05c-.11.02-.24.03-.39.03Zm-2.78-2.59c.2,0,.38,0,.54-.01.16,0,.3-.02.43-.03.23-.03.4-.09.49-.2.09-.1.14-.24.14-.4v-.18c0-.17-.05-.31-.14-.43-.09-.12-.25-.18-.49-.18h-2.18v1.39c.24.02.45.03.65.03s.38,0,.55,0Z" style="fill:#5a6172;"/><path d="m93.75,9.73c-.38,0-.67-.05-.89-.16-.21-.11-.36-.27-.45-.48-.09-.21-.13-.48-.13-.79v-1.78c0-.51.11-.89.34-1.13s.6-.36,1.12-.36h2.41c.37,0,.65.02.84.06.19.04.29.08.29.12l-.16.66c-.09-.02-.36-.03-.8-.05s-1.09-.03-1.94-.03h-.41c-.43,0-.64.19-.64.57v2.04c0,.18.05.32.14.42.09.1.26.15.5.15h.33c.89,0,1.57,0,2.06-.03.49-.02.79-.04.91-.06l.33.53s-.04.07-.13.12-.25.1-.48.14c-.24.04-.57.06-1.02.06h-2.22Z" style="fill:#5a6172;"/><path d="m98.21,9.73v-4.7h1.06v4.7h-1.06Z" style="fill:#5a6172;"/><path d="m100.42,9.73v-4.06l-.08-.64h1.15l2.72,2.85.31.43h.09v-3.28h1.06v4.7h-1.02l-2.78-2.9-.31-.38h-.08v3.27h-1.06Z" style="fill:#5a6172;"/><path d="m106.83,9.73v-4.06l-.08-.64h3.71c.43,0,.76.05,1,.16.23.11.39.27.48.48.09.21.14.47.14.79v1.85c0,.32-.04.59-.13.8-.09.21-.25.37-.48.48-.23.11-.57.16-1,.16h-3.63Zm1.06-.77h2.51c.41,0,.62-.19.62-.57v-2.04c0-.15-.04-.29-.14-.4s-.25-.16-.49-.16h-2.51v3.17Z" style="fill:#5a6172;"/><path d="m113,9.73v-4.7h4.98v.77h-3.92v1.1h2.99v.79h-2.99v1.27h3.95l.32.68s-.07.04-.22.06c-.14.02-.39.03-.74.03h-4.37Z" style="fill:#5a6172;"/><path d="m124.04,9.81c-.21,0-.42-.03-.63-.1s-.44-.23-.7-.49l-.58-.58c-.24-.24-.49-.42-.77-.53-.28-.11-.63-.17-1.05-.17h-.25v1.78h-1.06v-4.06l-.08-.65h3.54c.34,0,.61.05.8.14.19.09.34.21.43.36.09.15.15.3.18.47.03.17.04.32.04.47v.15c0,.12-.02.25-.05.39-.03.14-.09.29-.18.42s-.22.26-.39.35-.39.15-.66.17c.07.04.16.09.26.17.11.08.22.16.33.25.12.09.22.17.32.25.1.07.17.13.22.16.19.11.36.19.51.23.15.04.27.07.37.07.1,0,.15,0,.17,0l-.16.65s-.13.03-.24.05c-.11.02-.24.03-.39.03Zm-2.78-2.59c.2,0,.38,0,.54-.01.16,0,.3-.02.43-.03.23-.03.4-.09.49-.2.09-.1.14-.24.14-.4v-.18c0-.17-.04-.31-.14-.43-.09-.12-.25-.18-.49-.18h-2.18v1.39c.23.02.45.03.65.03s.38,0,.55,0Z" style="fill:#5a6172;"/><path d="m125.35,9.73v-4.7h4.98v.77h-3.92v1.1h2.99v.79h-2.99v1.27h3.95l.32.68s-.07.04-.22.06c-.14.02-.39.03-.74.03h-4.37Z" style="fill:#5a6172;"/><path d="m131.28,9.73l.08-.64v-4.06h1.06v3.94h3.31l.32.68s-.07.04-.22.06c-.14.02-.39.03-.74.03h-3.81Z" style="fill:#5a6172;"/><path d="m136.57,9.73l.08-.64v-4.06h1.06v3.94h3.31l.32.68s-.07.04-.22.06c-.14.02-.39.03-.74.03h-3.81Z" style="fill:#5a6172;"/><path d="m141.21,9.73l2.34-4.7h1.58l2.34,4.7h-1.23l-.47-1.02h-2.86l-.52,1.02h-1.17Zm1.98-1.8h2.28l-1.1-2.18h-.08l-1.1,2.18Z" style="fill:#5a6172;"/><path d="m150.85,9.73c-.38,0-.67-.05-.89-.16-.21-.11-.36-.27-.45-.48-.08-.21-.13-.48-.13-.79v-1.78c0-.51.12-.89.34-1.13.23-.24.6-.36,1.12-.36h2.41c.37,0,.65.02.84.06.2.04.29.08.29.12l-.16.66c-.09-.02-.36-.03-.8-.05s-1.09-.03-1.94-.03h-.41c-.43,0-.64.19-.64.57v2.04c0,.18.05.32.14.42.09.1.26.15.5.15h.33c.51,0,.94,0,1.3-.01.35,0,.64-.01.87-.02v-1.09h-.48s-1.05.09-1.05.09v-.78h2.58v2.25l.08.17s-.11.08-.34.12c-.22.03-.6.05-1.14.05h-2.38Z" style="fill:#5a6172;"/><path d="m155.63,9.73v-4.7h1.06v4.7h-1.06Z" style="fill:#5a6172;"/><path d="m162.88,9.81c-.21,0-.42-.03-.63-.1-.21-.07-.44-.23-.7-.49l-.58-.58c-.23-.24-.49-.42-.77-.53-.28-.11-.63-.17-1.05-.17h-.25v1.78h-1.06v-4.06l-.08-.65h3.54c.34,0,.61.05.8.14.2.09.34.21.43.36.09.15.15.3.18.47s.04.32.04.47v.15c0,.12-.02.25-.05.39s-.09.29-.18.42c-.09.14-.22.26-.39.35s-.39.15-.66.17c.07.04.16.09.26.17.11.08.22.16.33.25.11.09.22.17.32.25.1.07.17.13.22.16.19.11.36.19.51.23.15.04.27.07.37.07.1,0,.15,0,.17,0l-.16.65s-.13.03-.24.05c-.11.02-.24.03-.39.03Zm-2.78-2.59c.2,0,.38,0,.54-.01.16,0,.3-.02.43-.03.23-.03.4-.09.49-.2.09-.1.14-.24.14-.4v-.18c0-.17-.05-.31-.14-.43-.09-.12-.25-.18-.49-.18h-2.18v1.39c.24.02.45.03.65.03s.38,0,.55,0Z" style="fill:#5a6172;"/><path d="m164.19,9.73l.08-.64v-4.06h1.06v3.94h3.31l.32.68s-.07.04-.22.06c-.14.02-.39.03-.74.03h-3.81Z" style="fill:#5a6172;"/><path d="m170.37,9.73c-.36,0-.63-.02-.8-.05-.17-.03-.26-.07-.26-.11l.32-.7c.12.02.43.04.92.06s1.16.03,2.01.03h.15c.23,0,.39-.04.49-.12.1-.08.14-.22.14-.42v-.16c0-.19-.04-.32-.12-.4s-.25-.12-.52-.12h-1.86c-.54,0-.93-.1-1.18-.3s-.37-.53-.37-.98v-.13c0-.23.04-.45.13-.65.09-.2.24-.36.45-.48.21-.12.51-.18.88-.18h2.18c.36,0,.66.02.88.06.22.04.34.08.34.12l-.16.67c-.14-.02-.45-.03-.94-.05-.49-.02-1.15-.03-1.98-.03h-.09c-.25,0-.41.04-.5.14-.09.1-.13.22-.14.37v.14c0,.18.05.31.15.4s.26.13.49.13h1.78c.34,0,.63.03.87.1.24.07.42.2.55.38s.19.45.19.81v.13c0,.4-.1.72-.31.97-.21.25-.56.37-1.07.37h-2.66Z" style="fill:#5a6172;"/></g><g id="brand_room"><path d="m12.82,3.89c-.7-.06-.84-.16-.91-1.14-.01-.16-.14-.28-.3-.28s-.29.12-.3.28c-.07.98-.21,1.07-.91,1.14-.15.01-.27.14-.27.3s.12.28.27.3c.63.06.81.14.88.88-.48-.47-1.13-.73-1.85-.73-.34,0-.69.06-1.03.18l.18-.27c.14-.09.24-.25.24-.43,0-.28-.23-.5-.5-.5s-.5.23-.5.5c0,.03,0,.06,0,.09-.08.06-.16.09-.22.09-.09,0-.17-.1-.24-.29.06-.09.09-.19.09-.3,0-.29-.24-.52-.53-.52s-.52.24-.52.52c0,.11.03.21.09.3-.07.18-.16.29-.24.29-.06,0-.14-.03-.22-.09,0-.03,0-.06,0-.09,0-.28-.23-.5-.5-.5s-.5.23-.5.5c0,.18.09.34.24.43l.18.27c-.33-.12-.68-.18-1.03-.18-.75,0-1.44.29-1.92.81-.18-.02-.38-.06-.56-.09-.22-.04-.43-.08-.55-.08-.06,0-.22,0-.34.13-.06.06-.09.19-.08.27.01.11.08.2.18.24.05.02.17.14.25.22.09.09.19.18.29.27-.19.25-.27.56-.22.86.05.29.21.56.45.73,0,.04,0,.09.01.13.21.6.64,1.2,1.24,1.72.26.47.6.72.95.72.12,0,.25-.03.36-.09.09-.05.17-.1.24-.16-.05.15-.08.27-.12.42-.02.09,0,.19.06.26.17.2.43.38.73.59.21.14.43.3.64.47.05.05.12.07.19.07.04,0,.08,0,.12-.02.02,0,.04-.02.06-.03-.01.32.23.7.23.7.05.1.14.16.25.17,0,0,.01,0,.02,0,.1,0,.2-.05.25-.13.4-.61,1.18-1.19,2.01-1.81,1.36-1.01,2.76-2.06,2.85-3.48.04-.61-.08-1.16-.35-1.62.12-.03.21-.14.21-.27.07-.98.21-1.07.91-1.14.15-.01.27-.14.27-.3s-.12-.28-.27-.3Zm-5.87,1.96c-.12-.14-.25-.27-.39-.39h.77c-.15.13-.28.26-.38.39Z" style="fill:#fff;"/><path d="m7.23,9.67c.06-.04.07-.05.12-.09-.06-.24-.05-.65.25-.89-.53,0-.99-.25-1.18-.82-.5-.28-.69-.65-.75-1.01-.44-.09-.69-.3-.81-.54-.23,0-1.04-.03-1.27-.77.22.26.49.5,1.18.49-.03-.19-.01-.39.03-.56.11.56.22.98.86,1.1,0-.21.04-.4.08-.55.09.36.02,1.04.62,1.4.01-.29.1-.74.47-1.26-1.3-1.59-3.27-1.55-4.2-.42-.54-.01-1.38-.3-1.36-.11.2.08.45.43.76.64,0,0,0,0,0,0,0,0,0,0,0,0,.24.16.69.23.98-.04,0,0-.17.56-1.05.32-.15.18-.22.41-.18.66.04.25.19.45.38.57,0,0,0,0,0,0,.13.08.28.12.44.12-.58-.44-.43-.95-.32-1.07.04.18.18.4.52.55,0,0-.17.02-.36-.06.01.23.3.55.55.67-.08.04-.17.06-.26.08-.18.03-.35.01-.5-.04.21.6.67,1.18,1.22,1.67.27.5.61.67.91.51.46-.25.62-.7.17-1.06-.03-.24-.01-.41.05-.56.08-.2.14-.24.12-.54-.04-.57-.14-.81-.77-1.27.88.26,1,.92.98,1.85.39.63.25,1.42.16,1.67-.08.23-.11.35-.15.51.25.3.84.6,1.34,1.02.02-.28.16-.48.51-.78-.09-.31-.11-.94.46-1.37Zm-3.6-.98s-.36-.17-.44-.41c-.04-.12.03-.27.16-.32.14-.05.29,0,.33.13.08.21-.06.59-.06.59Zm4.46-3.4c-.94.56-1.26,1.25-1.3,1.38-.18.53-.15,1.02.32,1.33.23.15.54.15.76,0,.36-.24.37-.74-.14-.56.05-.21.45-.25.62-.02.14.19.18.45.08.66-.07.16-.23.34-.4.47-.31.29-.33.58-.28.82.75-.43,1.8-.95,1.84-1.59,0,0,0-.01,0-.02h0s0,.01,0,.02c.06,1.03-1.54,1.57-2.12,2.07-.39.33-.34.62-.26.88.81-.56,2.39-1.38,3.09-2.34.37-.51.51-1.3.11-1.99.62.62.42,1.57.09,2.1-.69,1.08-2.64,2.07-3.34,2.67-.64.56-.42,1.11-.26,1.42.01.02.03.05.04.07,1.09-1.66,4.68-3.03,4.81-5.14.14-2.14-1.92-3.14-3.65-2.21Zm1.2,2.14c-.05-.68-.18-.86-.76-.92.58-.05.72-.24.76-.92.05.68.18.86.76.92-.58.05-.72.24-.76.92Zm2.32-4.66c-.07,1.05-.27,1.33-1.18,1.42.9.08,1.11.37,1.18,1.42.07-1.05.27-1.33,1.18-1.42-.9-.08-1.11-.37-1.18-1.42Zm-6.13,1.54l.56.86h1.77l.56-.86c.08-.03.14-.1.14-.19,0-.11-.09-.2-.2-.2s-.2.09-.2.2c0,.06.03.12.08.16-.31.35-.91.64-1.18-.35.08-.03.14-.11.14-.21,0-.12-.1-.23-.23-.23s-.23.1-.23.23c0,.09.06.17.14.21-.27.99-.86.71-1.18.35.05-.04.08-.09.08-.16,0-.11-.09-.2-.2-.2s-.2.09-.2.2c0,.09.06.17.14.19Z" style="fill:#2581c7;"/></g></svg>