<svg width="16" height="99" viewBox="0 0 16 99" fill="none" xmlns="http://www.w3.org/2000/svg">
<g id="_2" clip-path="url(#clip0_699_2394)">
<g id="Group">
<path id="Vector" d="M3.45337 4.56552L12.3153 4.56552C12.431 4.56552 12.5004 4.64592 12.5004 4.76078L12.5004 7.3278C12.5004 9.35501 11.303 10.4059 9.60232 10.4059C7.90167 10.4059 6.70427 9.36075 6.70427 7.3278L6.70427 5.79448L3.45915 5.79448C3.34346 5.79448 3.27405 5.73131 3.27405 5.61071L3.27405 4.76078C3.27405 4.64592 3.33768 4.56552 3.45915 4.56552L3.45337 4.56552ZM7.79176 7.2474C7.79176 8.33279 8.25452 9.21144 9.59653 9.21144C10.9385 9.21144 11.4013 8.33279 11.4013 7.24741L11.4013 5.79448L7.79176 5.79448L7.79176 7.2474Z" fill="black"/>
<path id="Vector_2" d="M3.40131 16.746L6.69849 14.6154L6.69849 13.3577L3.45337 13.3577C3.33768 13.3577 3.26826 13.2946 3.26826 13.174L3.26826 12.324C3.26826 12.2092 3.33189 12.1288 3.45337 12.1288L12.3153 12.1288C12.431 12.1288 12.5004 12.2092 12.5004 12.324L12.5004 14.8911C12.5004 16.9183 11.303 17.9692 9.60232 17.9692C8.19089 17.9692 7.12654 17.2514 6.80839 15.8386L3.51121 18.0266C3.3666 18.1185 3.27405 18.0553 3.27405 17.8945L3.27405 16.9929C3.27405 16.8896 3.31454 16.8092 3.40709 16.7575L3.40131 16.746ZM7.79176 14.8107C7.79176 15.8961 8.25452 16.7747 9.59654 16.7747C10.9385 16.7747 11.4013 15.8961 11.4013 14.8107L11.4013 13.3577L7.79176 13.3577L7.79176 14.8107Z" fill="black"/>
<path id="Vector_3" d="M7.84383 19.5197C10.5221 19.5197 12.6045 21.5871 12.6045 24.2173C12.6045 26.8475 10.5221 28.9035 7.84383 28.9035C5.16559 28.9035 3.10052 26.8361 3.10052 24.2173C3.10052 21.5986 5.18295 19.5197 7.84383 19.5197ZM4.29791 24.2173C4.29791 26.1814 5.82503 27.6745 7.84383 27.6745C9.86263 27.6745 11.4013 26.1814 11.4013 24.2173C11.4013 22.2533 9.8742 20.7602 7.84383 20.7602C5.81346 20.7602 4.29791 22.2533 4.29791 24.2173Z" fill="black"/>
<path id="Vector_4" d="M4.02025 30.4655C4.12438 30.3851 4.21693 30.3851 4.30948 30.4655L4.90529 30.9077C4.98627 30.9709 4.99784 31.08 4.91685 31.1546C4.61606 31.4935 4.29791 31.8725 4.29791 32.5674C4.29791 33.5609 4.94578 34.1639 6.38034 34.1639L12.3153 34.1639C12.431 34.1639 12.5004 34.227 12.5004 34.3476L12.5004 35.1976C12.5004 35.3124 12.4367 35.3813 12.3153 35.3813L6.38612 35.3813C4.19957 35.3813 3.1063 34.2443 3.1063 32.5961C3.1063 31.5509 3.55749 30.879 4.02604 30.4655L4.02025 30.4655Z" fill="black"/>
<path id="Vector_5" d="M3.45337 37.5004L12.3153 37.5004C12.431 37.5004 12.5004 37.5808 12.5004 37.6957L12.5004 42.1463C12.5004 42.2612 12.4367 42.3416 12.3153 42.3416L11.5922 42.3416C11.4765 42.3416 11.4071 42.2612 11.4071 42.1463L11.4071 38.7294L8.56111 38.7294L8.56111 41.9741C8.56111 42.0889 8.49748 42.1578 8.376 42.1578L7.65293 42.1578C7.53724 42.1578 7.46783 42.0947 7.46783 41.9741L7.46783 38.7294L4.38468 38.7294L4.38468 42.1578C4.38468 42.2727 4.3037 42.3416 4.18801 42.3416L3.46494 42.3416C3.34925 42.3416 3.27983 42.2784 3.27983 42.1578L3.27983 37.6957C3.27983 37.5808 3.34346 37.5004 3.46494 37.5004L3.45337 37.5004Z" fill="black"/>
<path id="Vector_6" d="M7.84383 44.0874C10.5221 44.0874 12.6045 46.0744 12.6045 48.7563C12.6045 50.037 12.1302 51.0707 11.3782 51.8861C11.2856 51.978 11.1931 52.001 11.0774 51.9149L10.5105 51.3923C10.4179 51.3119 10.4179 51.22 10.5105 51.1166C11.0658 50.4734 11.4071 49.7154 11.4071 48.7736C11.4071 46.8095 9.89155 45.3336 7.84961 45.3336C5.80768 45.3336 4.3037 46.8153 4.3037 48.7736C4.3037 49.7154 4.64499 50.4734 5.2003 51.1166C5.30442 51.22 5.29285 51.3119 5.21187 51.3923L4.63342 51.9149C4.5293 52.0182 4.43674 51.978 4.34419 51.8861C3.58063 51.0764 3.1063 50.0427 3.1063 48.7563C3.1063 46.0744 5.17716 44.0874 7.84961 44.0874L7.84383 44.0874Z" fill="black"/>
<path id="Vector_7" d="M3.45337 55.6132L11.4071 55.6132L11.4071 53.7009C11.4071 53.586 11.4707 53.5056 11.5922 53.5056L12.3153 53.5056C12.431 53.5056 12.5004 53.586 12.5004 53.7009L12.5004 58.7373C12.5004 58.8522 12.4367 58.9211 12.3153 58.9211L11.5922 58.9211C11.4765 58.9211 11.4071 58.8579 11.4071 58.7373L11.4071 56.8249L3.45915 56.8249C3.34346 56.8249 3.27405 56.7618 3.27405 56.6412L3.27405 55.7912C3.27405 55.6764 3.33768 55.6075 3.45915 55.6075L3.45337 55.6132Z" fill="black"/>
<path id="Vector_8" d="M3.45337 63.4004L12.3153 63.4004C12.431 63.4004 12.5004 63.4808 12.5004 63.5957L12.5004 64.4456C12.5004 64.5605 12.4367 64.6294 12.3153 64.6294L3.45915 64.6294C3.34346 64.6294 3.27405 64.5662 3.27405 64.4456L3.27405 63.5957C3.27405 63.4808 3.33768 63.4004 3.45915 63.4004L3.45337 63.4004Z" fill="black"/>
<path id="Vector_9" d="M3.45337 66.7485L12.3153 66.7485C12.431 66.7485 12.5004 66.8289 12.5004 66.9437L12.5004 68.0291C12.5004 68.1325 12.4599 68.2014 12.3673 68.2359L4.65655 71.4174L12.3673 74.5989C12.4599 74.6391 12.5004 74.7137 12.5004 74.8228L12.5004 75.9082C12.5004 76.0231 12.4367 76.092 12.3153 76.092L3.45915 76.092C3.34346 76.092 3.27405 76.0288 3.27405 75.9082L3.27405 75.0583C3.27405 74.9434 3.33768 74.863 3.45915 74.863L10.3254 74.863L3.41866 72.0606C3.31454 72.0204 3.27405 71.9457 3.27405 71.8366L3.27405 70.9981C3.27405 70.8948 3.31454 70.8144 3.41866 70.7742L10.3254 67.9717L3.45915 67.9717C3.34346 67.9717 3.27405 67.9085 3.27405 67.7879L3.27405 66.938C3.27405 66.8231 3.33768 66.7427 3.45915 66.7427L3.45337 66.7485Z" fill="black"/>
<path id="Vector_10" d="M7.87275 77.9527C10.8402 77.9527 12.6045 80.3072 12.6045 82.7422C12.6045 85.1771 10.8229 87.3594 7.99423 87.3594C6.04484 87.3594 5.39697 86.3371 5.39697 85.424C5.39697 84.8612 5.64571 84.4018 6.1721 84.2353C5.69777 83.8275 5.39697 83.2131 5.39697 82.4952C5.39697 81.1227 6.46711 80.1924 7.80912 80.1924C9.15113 80.1924 10.2328 81.1457 10.2328 82.5354C10.2328 83.282 9.90312 83.885 9.3883 84.264L9.96675 84.4593L9.96675 85.0737L7.18439 84.7981C6.4324 84.7177 6.26465 85.0967 6.26465 85.424C6.26465 86.0672 6.87203 86.3544 7.88432 86.3544C10.3774 86.3544 11.6385 84.6143 11.6385 82.7536C11.6385 80.893 10.3312 78.9577 7.86697 78.9577C5.40276 78.9577 4.06075 80.8815 4.06075 82.7536C4.06075 83.4887 4.25742 84.1549 4.65655 84.689L3.9682 85.2805C3.44181 84.7062 3.10052 83.7471 3.10052 82.7134C3.10052 80.2383 4.95735 77.9527 7.87275 77.9527ZM6.27622 82.5756C6.27622 83.4772 6.93566 84.0687 7.82069 84.0687C8.70572 84.0687 9.3478 83.4772 9.3478 82.5756C9.3478 81.674 8.69994 81.094 7.82069 81.094C6.94144 81.094 6.27622 81.6568 6.27622 82.5756Z" fill="black"/>
<path id="Vector_11" d="M4.49456 88.9042C4.59868 88.841 4.67967 88.841 4.78379 88.9329L5.28704 89.3636C5.39116 89.4555 5.36802 89.5704 5.27547 89.6622C4.65653 90.1619 4.24583 90.7648 4.24583 91.678C4.24583 92.7519 4.80114 93.3951 5.68039 93.3951C6.55963 93.3951 6.9472 92.7404 7.35212 91.8904L7.89008 90.7763C8.33548 89.8058 9.03541 89.0994 10.2097 89.0994C11.7021 89.0994 12.5929 90.2652 12.5929 91.7182C12.5929 92.7806 12.1475 93.6018 11.4071 94.2163C11.2914 94.3369 11.2104 94.3082 11.1063 94.2278L10.6204 93.8085C10.4989 93.7166 10.4989 93.6133 10.6088 93.5099C11.1641 92.9873 11.4649 92.4647 11.4649 91.7584C11.4649 90.9199 11.0311 90.2939 10.227 90.2939C9.57916 90.2939 9.20895 90.673 8.82717 91.4597L8.32392 92.4934C7.80909 93.5558 7.17858 94.5896 5.6746 94.5896C4.02601 94.5896 3.10627 93.3204 3.10627 91.6952C3.10627 90.3341 3.75414 89.421 4.48878 88.9099L4.49456 88.9042Z" fill="black"/>
</g>
<path id="Vector_12" d="M4.66696e-06 2.32009L4.76837e-06 -6.99382e-07L16 0L16 2.32009L15.1208 2.32009L15.1208 0.872904L0.879252 0.872904L0.879252 2.32009L4.66696e-06 2.32009Z" fill="black"/>
<path id="Vector_13" d="M4.66696e-06 99L4.76837e-06 96.6799L0.879252 96.6799L0.879252 98.1271L15.1208 98.1271L15.1208 96.6799L16 96.6799L16 99L4.66696e-06 99Z" fill="black"/>
</g>
<defs>
<clipPath id="clip0_699_2394">
<rect width="99" height="16" fill="white" transform="translate(16) rotate(90)"/>
</clipPath>
</defs>
</svg>
