<svg width="72" height="72" viewBox="0 0 72 72" fill="none" xmlns="http://www.w3.org/2000/svg">
<circle cx="36" cy="36" r="36" fill="black"/>
<path d="M36.4947 25.8328C30.6075 25.8328 25.8252 30.6141 25.8252 36.5C25.8252 42.3859 30.6075 47.1672 36.4947 47.1672C42.3819 47.1672 47.1642 42.3859 47.1642 36.5C47.1642 30.6141 42.3819 25.8328 36.4947 25.8328ZM36.4947 45.502C31.531 45.502 27.4743 41.4627 27.4743 36.4835C27.4743 31.5044 31.5145 27.465 36.4947 27.465C41.4749 27.465 45.5152 31.5044 45.5152 36.4835C45.5152 41.4627 41.4749 45.502 36.4947 45.502ZM36.4288 29.8062C32.7348 29.8062 29.7335 32.8069 29.7335 36.5C29.7335 40.1931 32.7348 43.1938 36.4288 43.1938C40.1227 43.1938 43.124 40.1931 43.124 36.5C43.124 32.8069 40.1227 29.8062 36.4288 29.8062ZM36.4288 41.5451C33.6418 41.5451 31.3826 39.2863 31.3826 36.5C31.3826 33.7137 33.6418 31.4549 36.4288 31.4549C39.2157 31.4549 41.4749 33.7137 41.4749 36.5C41.4749 39.2863 39.2157 41.5451 36.4288 41.5451ZM60.9835 36.5C60.9835 50.003 50.0007 61 36.4782 61C22.9558 61 11.9894 50.003 11.9894 36.5C11.9894 33.3345 12.6326 30.3338 13.7375 27.5639C13.8199 27.6629 13.9024 27.7453 13.9683 27.8607C14.2817 28.3388 14.4631 29.0808 14.4631 29.8227V30.5481C13.9354 32.4441 13.6385 34.4391 13.6385 36.5C13.6385 49.0962 23.8958 59.3513 36.4947 59.3513C49.0937 59.3513 59.3509 49.0962 59.3509 36.5C59.3509 23.9038 49.0937 13.6487 36.4947 13.6487C32.9657 13.6487 29.6511 14.4731 26.6662 15.9075C26.5013 15.8415 26.3199 15.7921 26.188 15.7096C25.7922 15.4458 25.4789 15.1326 25.2315 14.7863C28.6121 13.0222 32.438 12 36.4947 12C50.0007 12 61 22.9805 61 36.5H60.9835ZM15.6009 22.6013C14.2157 21.711 12.6161 21.2988 11 21.2988V21.1174C12.6161 21.1174 14.2652 20.7052 15.6009 19.8149C16.6563 19.1225 17.4809 18.2322 18.124 17.2594C18.998 15.858 19.4103 14.2258 19.4103 12.61H19.5917C19.5917 14.2423 20.004 15.924 20.878 17.2594C21.5706 18.3311 22.4446 19.1719 23.4011 19.8149C24.7863 20.7052 26.3859 21.1174 28.002 21.1174V21.2988C26.3859 21.2988 24.7368 21.711 23.4011 22.6013C22.3456 23.2937 21.5211 24.1841 20.878 25.1568C20.004 26.5582 19.5917 28.1904 19.5917 29.8062H19.4103C19.4103 28.174 18.998 26.4923 18.124 25.1568C17.4314 24.0851 16.5574 23.2443 15.6009 22.6013ZM36.4288 54.8832C46.5706 54.8832 54.8325 46.6396 54.8325 36.4835H56.4815C56.4815 47.5299 47.4941 56.532 36.4288 56.532V54.8832ZM50.4129 36.5H52.062C52.062 45.1228 45.0534 52.1299 36.4288 52.1299V50.4812C44.1299 50.4812 50.4129 44.216 50.4129 36.5Z" fill="white"/>
</svg>
