<?xml version="1.0" encoding="UTF-8"?>
<svg id="_レイヤー_1" data-name="レイヤー 1" xmlns="http://www.w3.org/2000/svg" version="1.1" viewBox="0 0 50 50">
  <defs>
    <style>
      .cls-1 {
        fill: #000;
      }

      .cls-1, .cls-2 {
        stroke-width: 0px;
      }

      .cls-2 {
        fill: #fff;
      }
    </style>
  </defs>
  <circle class="cls-1" cx="25" cy="25" r="25"/>
  <path class="cls-2" d="M24.46,23.32c3.47,0,6.3-2.82,6.3-6.3s-2.83-6.3-6.3-6.3-6.3,2.83-6.3,6.3,2.82,6.3,6.3,6.3ZM24.46,11.73c2.92,0,5.3,2.38,5.3,5.3s-2.38,5.3-5.3,5.3-5.3-2.38-5.3-5.3,2.38-5.3,5.3-5.3ZM24.46,24.46c-6.79,0-12.31,5.52-12.31,12.31v.5h24.63v-.5c0-6.79-5.52-12.31-12.31-12.31ZM13.16,36.27c.26-6.01,5.23-10.81,11.3-10.81s11.04,4.81,11.3,10.81H13.16ZM37.85,22.3v.08c-.73,0-1.47.19-2.07.58-.48.31-.85.71-1.14,1.14-.39.62-.58,1.35-.58,2.07h-.08c0-.73-.19-1.47-.58-2.07-.31-.48-.71-.85-1.14-1.14-.62-.39-1.35-.58-2.07-.58v-.08c.73,0,1.47-.19,2.07-.58.48-.31.85-.71,1.14-1.14.39-.62.58-1.35.58-2.07h.08c0,.73.19,1.47.58,2.07.31.48.71.85,1.14,1.14.62.39,1.35.58,2.07.58Z"/>
</svg>