<svg width="17" height="30" viewBox="0 0 17 30" fill="none" xmlns="http://www.w3.org/2000/svg">
<g id="_1" clip-path="url(#clip0_699_2409)">
<path id="Vector" d="M17 11.6072L17 4.23547L1.90735e-06 4.23547L1.58512e-06 11.6072L17 11.6072Z" fill="black"/>
<path id="Vector_2" d="M17 21.9101L17 18.8031L1.90735e-06 18.8031L1.77154e-06 21.9101L17 21.9101Z" fill="black"/>
<path id="Vector_3" d="M17 30L17 24.1524L1.90735e-06 24.1524L1.65174e-06 30L17 30Z" fill="black"/>
<path id="Vector_4" d="M17 16.0919L17 13.6884L1.90735e-06 13.6884L1.80229e-06 16.0919L17 16.0919Z" fill="black"/>
<path id="Vector_5" d="M17 2.40352L17 0L1.90735e-06 -7.43094e-07L1.80229e-06 2.40352L17 2.40352Z" fill="black"/>
</g>
<defs>
<clipPath id="clip0_699_2409">
<rect width="30" height="17" fill="white" transform="translate(17) rotate(90)"/>
</clipPath>
</defs>
</svg>
