<svg width="72" height="72" viewBox="0 0 72 72" fill="none" xmlns="http://www.w3.org/2000/svg">
<circle cx="36" cy="36" r="36" fill="black"/>
<path d="M50.82 21.1791H45.9275V18.6084C45.9275 18.2738 45.6425 18 45.31 18C44.9775 18 44.6925 18.2738 44.6925 18.6084V21.1791H27.2917V18.6084C27.2917 18.2738 27.0067 18 26.6742 18C26.3417 18 26.0567 18.2738 26.0567 18.6084V21.1791H21.1642C18.8683 21.1791 17 22.9891 17 25.2099V48.9691C17 51.1899 18.8683 53 21.1642 53H50.8358C53.1317 53 55 51.1899 55 48.9691V25.2099C55 22.9739 53.1158 21.1791 50.82 21.1791ZM53.7333 48.9691C53.7333 50.5206 52.4192 51.7831 50.82 51.7831H21.1483C19.5333 51.7831 18.235 50.5206 18.235 48.9691V29.6515H53.7333V48.9691ZM53.7333 28.4346H18.235V25.1947C18.235 23.6432 19.5492 22.3807 21.1483 22.3807H26.0408V24.6319C26.0408 24.9665 26.3258 25.2403 26.6583 25.2403C26.9908 25.2403 27.2758 24.9665 27.2758 24.6319V22.3807H44.6767V24.6319C44.6767 24.9665 44.9617 25.2403 45.2942 25.2403C45.6267 25.2403 45.9117 24.9665 45.9117 24.6319V22.3807H50.8042C52.4192 22.3807 53.7175 23.6432 53.7175 25.1947V28.4346H53.7333ZM25.3442 36.9374C26.0725 36.9374 26.6583 36.3594 26.6583 35.6597C26.6583 34.96 26.0725 34.382 25.3442 34.382C24.6158 34.382 24.03 34.96 24.03 35.6597C24.0142 36.3594 24.6158 36.9374 25.3442 36.9374ZM32.4375 36.9374C33.1658 36.9374 33.7517 36.3594 33.7517 35.6597C33.7517 34.96 33.1658 34.382 32.4375 34.382C31.7092 34.382 31.1233 34.96 31.1233 35.6597C31.1075 36.3594 31.7092 36.9374 32.4375 36.9374ZM39.5308 36.9374C40.2592 36.9374 40.845 36.3594 40.845 35.6597C40.845 34.96 40.2592 34.382 39.5308 34.382C38.8025 34.382 38.2167 34.96 38.2167 35.6597C38.2167 36.3594 38.8025 36.9374 39.5308 36.9374ZM46.6242 36.9374C47.3525 36.9374 47.9383 36.3594 47.9383 35.6597C47.9383 34.96 47.3525 34.382 46.6242 34.382C45.8958 34.382 45.31 34.96 45.31 35.6597C45.31 36.3594 45.8958 36.9374 46.6242 36.9374ZM25.3442 42.2308C26.0725 42.2308 26.6583 41.6528 26.6583 40.9531C26.6583 40.2534 26.0725 39.6754 25.3442 39.6754C24.6158 39.6754 24.03 40.2534 24.03 40.9531C24.0142 41.6528 24.6158 42.2308 25.3442 42.2308ZM32.4375 42.2308C33.1658 42.2308 33.7517 41.6528 33.7517 40.9531C33.7517 40.2534 33.1658 39.6754 32.4375 39.6754C31.7092 39.6754 31.1233 40.2534 31.1233 40.9531C31.1075 41.6528 31.7092 42.2308 32.4375 42.2308ZM39.5308 42.2308C40.2592 42.2308 40.845 41.6528 40.845 40.9531C40.845 40.2534 40.2592 39.6754 39.5308 39.6754C38.8025 39.6754 38.2167 40.2534 38.2167 40.9531C38.2167 41.6528 38.8025 42.2308 39.5308 42.2308ZM46.6242 42.2308C47.3525 42.2308 47.9383 41.6528 47.9383 40.9531C47.9383 40.2534 47.3525 39.6754 46.6242 39.6754C45.8958 39.6754 45.31 40.2534 45.31 40.9531C45.31 41.6528 45.8958 42.2308 46.6242 42.2308ZM25.3442 47.5089C26.0725 47.5089 26.6583 46.9309 26.6583 46.2312C26.6583 45.5315 26.0725 44.9535 25.3442 44.9535C24.6158 44.9535 24.03 45.5315 24.03 46.2312C24.0142 46.9309 24.6158 47.5089 25.3442 47.5089ZM32.4375 47.5089C33.1658 47.5089 33.7517 46.9309 33.7517 46.2312C33.7517 45.5315 33.1658 44.9535 32.4375 44.9535C31.7092 44.9535 31.1233 45.5315 31.1233 46.2312C31.1075 46.9309 31.7092 47.5089 32.4375 47.5089ZM39.5308 47.5089C40.2592 47.5089 40.845 46.9309 40.845 46.2312C40.845 45.5315 40.2592 44.9535 39.5308 44.9535C38.8025 44.9535 38.2167 45.5315 38.2167 46.2312C38.2167 46.9309 38.8025 47.5089 39.5308 47.5089ZM46.6242 47.5089C47.3525 47.5089 47.9383 46.9309 47.9383 46.2312C47.9383 45.5315 47.3525 44.9535 46.6242 44.9535C45.8958 44.9535 45.31 45.5315 45.31 46.2312C45.31 46.9309 45.8958 47.5089 46.6242 47.5089Z" fill="white"/>
</svg>
