<?xml version="1.0" encoding="UTF-8"?>
<svg id="_レイヤー_1" data-name="レイヤー_1" xmlns="http://www.w3.org/2000/svg" width="152" height="43" version="1.1" viewBox="0 0 152 43">
  <!-- Generator: Adobe Illustrator 29.1.0, SVG Export Plug-In . SVG Version: 2.1.0 Build 142)  -->
  <defs>
    <style>
      .st0 {
        fill: #4d4f5e;
      }
    </style>
  </defs>
  <path class="st0" d="M16.04,16.7v-3.3h14.46c-1.08,3.48-1.98,5.76-3.24,8.16,2.22,3.1,3.68,5.54,5.16,8.58h-4.34c-.88-2.1-1.5-3.28-2.68-5.18-1.9,3.44-4.54,5.16-8.22,5.4h-2.52v-3.38h1.26c3.04.02,4.6-.74,6.08-2.96.98-1.38,2.52-4.58,3.52-7.32h-9.48Z"/>
  <path class="st0" d="M35.88,18.5h17.2v3.32h-6.56v2.02c.06,4.04-2.36,6.46-6.34,6.38h-3.22v-3.4h2.98c2.2.06,2.94-.82,2.92-3.52v-1.48h-6.98v-3.32ZM37.2,13.26h14.64v3.24h-14.64v-3.24Z"/>
  <path class="st0" d="M73.7,19.86v3.4h-16.38v-3.4h16.38Z"/>
  <path class="st0" d="M78.2,26.56h6.92c4.78-.02,5.98-1.14,6.06-5.68v-4.94h3.58v5.04c.02,3.46-.62,5.38-2.34,7-1.58,1.46-3.46,1.94-7.76,1.96h-6.46v-3.38ZM86.8,18.18c-4.12-.82-5.94-1.14-8.5-1.44v-3.32c2.88.42,5.1.8,8.5,1.48v3.28ZM86.8,23.78c-3.5-.72-4.38-.88-8.5-1.5v-3.42l1.48.26c4.1.7,4.36.76,7.02,1.34v3.32ZM92.84,12.28v3h-1.88v-3h1.88ZM93.46,12.28h1.88v3h-1.88v-3Z"/>
  <path class="st0" d="M98.34,17.74v-2.9h7.16v-2.54h3.6v2.54h6.96v2.9h-8.38c.68,1.8,1.18,2.64,2.38,4.04l1.56-2.98h3.8l-2.88,5.12c1.38.98,2.2,1.36,3.88,1.84v3.54c-1.88-.42-2.98-.84-4.64-1.82v2.3c-2.5.5-7.82.88-12.66.92v-3.2c1.62,0,1.92-.02,3.12-.04v-4.78c-1.74,1.52-2.52,2-4.28,2.74v-3.74c2.02-.78,4-2.28,5.16-3.94h-4.78ZM105.7,27.26c2.64-.14,3.18-.18,4.98-.42-2.24-1.7-3.5-3.18-4.98-5.94v6.36Z"/>
  <path class="st0" d="M126.54,20.96v-1.1h.78v-2.48h3.06v-1.1h-3.84v-2.42h3.84v-1.62h3.18v1.62h3.78v2.42h-3.78v1.1h3.12v2.54h-6.74v1.04h7.4v2.5h-7.34c.6.84.9,1.14,1.86,1.92l.86-1.4h3.74l-1.6,2.72c.84.26,1.28.34,2.48.46v2.94c-2.34-.3-3.34-.52-5-1.18v.96c-3.02.46-5.76.7-10.76.88v-2.98c1.16-.04,1.34-.04,2.24-.1v-1.3c-1.48.78-2.38,1.08-4.52,1.54v-2.92c1.84-.34,2.74-.64,4.52-1.54h-4.52v-2.5h7.24ZM122.58,13.56v-1.3h3.2v7.94h-3.2v-1.06l-3.08.9v-2.74l3.08-.72v-.36l-3.08-.84v-2.8l3.08.98ZM127.12,27.54c1-.06,1.22-.08,2.5-.22-1.2-1.02-1.68-1.54-2.5-2.78v3Z"/>
</svg>