<?xml version="1.0" encoding="UTF-8"?>
<svg id="_レイヤー_1" xmlns="http://www.w3.org/2000/svg" width="152" height="43" version="1.1" xmlns:xlink="http://www.w3.org/1999/xlink" viewBox="0 0 152 43">
  <!-- Generator: Adobe Illustrator 29.1.0, SVG Export Plug-In . SVG Version: 2.1.0 Build 142)  -->
  <defs>
    <style>
      .st0 {
        fill: #fff;
      }

      .st1 {
        fill: url(#_名称未設定グラデーション_194);
      }
    </style>
    <linearGradient id="_名称未設定グラデーション_194" data-name="名称未設定グラデーション 194" x1="0" y1="21.5" x2="152" y2="21.5" gradientUnits="userSpaceOnUse">
      <stop offset="0" stop-color="#4ac3ff"/>
      <stop offset=".49" stop-color="#80a1ff"/>
      <stop offset="1" stop-color="#6a91ff"/>
    </linearGradient>
  </defs>
  <path class="st1" d="M131.99,43H.28S0,20,0,20C0,8.95,8.95,0,20,0h132s-.01,23-.01,23c0,11.04-8.95,20-20,20Z"/>
  <path class="st0" d="M15.83,13.35h16.34v4.4c.06,3.32-1.84,5.18-5.42,5.26h-1.44c-.08,3.04-.36,4.08-1.38,5.36-1.06,1.26-2.58,1.92-4.36,1.9h-3.72v-3.24h2.54c2.68.02,3.34-.66,3.34-3.46v-3.78h4.86c1.56-.06,2.14-.64,2.16-2.16v-.88h-12.92s0-3.4,0-3.4Z"/>
  <path class="st0" d="M36.67,19.51c2.24-.44,3.16-2.22,3.2-6.2h13.46v7.98c-.04,2.9-.44,4.46-1.52,5.9-1.4,1.86-3.24,2.66-6.2,2.72h-8.2v-3.28h6.88c4.02.02,5.34-1.26,5.44-5.24v-4.66h-6.8c-.5,3.8-2.46,5.76-6.26,6.24,0,0,0-3.46,0-3.46Z"/>
  <path class="st0" d="M57.49,16.01h3.42v-3.26h3.42v3.26h9.76v3.86c.12,3.08-1.68,4.72-5.24,4.8h-2.2v-3.24h2.02c1.38-.02,1.82-.46,1.84-1.76v-.54h-6.18v6.16c0,1.14.38,1.5,1.58,1.48h8.26v3.24h-8.58c-2.98.06-4.66-1.38-4.68-4.04v-6.84h-3.42s0-3.12,0-3.12Z"/>
  <path class="st0" d="M81.09,16.41v-3.4h3.42v3.4h4.96v-3.4h3.56v3.4h3.46v3.24h-3.46v2.34c.1,5.24-2.82,8.2-7.94,8.06h-4.24v-3.22h4.52c2.9.04,4.14-1.42,4.1-4.82v-2.36h-4.96v4.26h-3.42v-4.26h-3.32v-3.24h3.32Z"/>
  <path class="st0" d="M106.39,26.49c3.74-.04,5-1.44,4.92-5.44v-8.32h3.64v7.64c.02,3.8-.36,5.56-1.58,7.06-1.34,1.66-3.58,2.48-6.72,2.48h-6.54v-3.42s6.28,0,6.28,0ZM100.13,12.81h3.64v10.88h-3.64v-10.88Z"/>
  <path class="st0" d="M136.17,19.85v3.4h-16.38v-3.4h16.38Z"/>
</svg>