<?xml version="1.0" encoding="UTF-8"?>
<svg id="_レイヤー_1" data-name="レイヤー_1" xmlns="http://www.w3.org/2000/svg" width="152" height="43" version="1.1" viewBox="0 0 152 43">
  <!-- Generator: Adobe Illustrator 29.1.0, SVG Export Plug-In . SVG Version: 2.1.0 Build 142)  -->
  <defs>
    <style>
      .st0 {
        fill: #4d4f5e;
      }
    </style>
  </defs>
  <path class="st0" d="M31.78,16.02h-8.82c-1.24.02-1.46.2-1.48,1.16v1.04c.02.76.26.88,1.78.9h5.1c1.96.02,2.32.06,2.98.44.86.54,1.16,1.18,1.18,2.56v3.56c-.02,1.44-.62,2.62-1.56,3.08-.82.4-1.7.52-3.88.54h-9.2v-3.16h8.44c2.18-.02,2.42-.12,2.44-.98v-1.6c-.02-1.04-.44-1.24-2.62-1.26h-4.78c-2.46-.02-3.56-.88-3.58-2.84v-2.9c.06-2.58,1.08-3.62,3.62-3.68h10.38v3.14Z"/>
  <path class="st0" d="M46.34,12.88c2.96-.08,4.28,1.18,4.32,4.08v3.94c-.02,2.36-1.48,3.54-4.36,3.56h-6.5v4.84h-3.58V12.88h10.12ZM45.18,21.28c1.48-.02,1.82-.3,1.84-1.56v-1.84c-.02-1.36-.62-1.84-2.32-1.86h-4.9v5.26h5.38Z"/>
  <path class="st0" d="M54.52,13.5h16.34v4.4c.06,3.32-1.84,5.18-5.42,5.26h-1.44c-.08,3.04-.36,4.08-1.38,5.36-1.06,1.26-2.58,1.92-4.36,1.9h-3.72v-3.24h2.54c2.68.02,3.34-.66,3.34-3.46v-3.78h4.86c1.56-.06,2.14-.64,2.16-2.16v-.88h-12.92v-3.4Z"/>
  <path class="st0" d="M79.38,13.74v4.9l8.1-1.68c.66.54,1.16.74,1.9.74.2,0,.46-.02.88-.1v2.34l-10.88,2.02v3.08c0,1.44.44,1.78,2.2,1.74h9.4v3.22h-9.74c-4.1.06-5.38-1.06-5.34-4.62v-11.64h3.48ZM91.78,14.84c0,1.3-1.08,2.38-2.38,2.38s-2.38-1.08-2.38-2.4,1.08-2.36,2.42-2.36c1.26,0,2.34,1.08,2.34,2.38ZM88.48,14.82c0,.52.42.94.92.94s.92-.42.92-.94-.42-.92-.94-.92c-.48,0-.9.44-.9.92Z"/>
  <path class="st0" d="M112.46,20v3.4h-16.38v-3.4h16.38Z"/>
  <path class="st0" d="M122.02,13.14v8.7c.08,5.08-2.08,8.18-6.08,8.7v-3.8c1.94-.58,2.56-1.66,2.68-4.58v-9.02h3.4ZM124.22,13.14h3.46v13.18c2.78-.14,3.14-.64,3.18-4.54v-4.68h3.36v5.16c0,3.36-.4,4.86-1.62,6.02-1.28,1.18-2.74,1.62-5.36,1.64h-3.02V13.14Z"/>
</svg>