<?xml version="1.0" encoding="UTF-8"?>
<svg id="_レイヤー_1" xmlns="http://www.w3.org/2000/svg" version="1.1" viewBox="0 0 339 82">
  <!-- Generator: Adobe Illustrator 29.1.0, SVG Export Plug-In . SVG Version: 2.1.0 Build 142)  -->
  <defs>
    <style>
      .st0 {
        fill: #ff4ebf;
      }

      .st1 {
        fill: #fff;
      }

      .st2 {
        fill: #6c99e6;
      }

      .st3 {
        fill: #77e3fc;
      }
    </style>
  </defs>
  <g>
    <path class="st0" d="M29.24,58.43l-7.97-.02v-2.88c-1.44,2.59-4.75,3.78-7.88,3.77C4.95,59.28.02,52.64.04,45.01c.02-8.74,6.32-14.19,13.43-14.18,4.37.01,6.81,2.13,7.86,3.76v-2.83l7.97.02-.06,26.64h0ZM8,45.17c0,2.45,1.81,6.68,6.61,6.69,2.83,0,4.56-1.33,5.58-2.96.67-1.05,1.01-2.21,1.11-3.41s-.14-2.4-.66-3.51c-.86-1.83-2.68-3.7-6.04-3.71-4.56,0-6.59,3.82-6.59,6.85v.05h-.01Z"/>
    <path class="st0" d="M35.11,31.8l7.44.02v2.83c.91-1.29,2.59-3.74,7.35-3.73,8.98.02,9.87,7.32,9.86,10.92l-.04,16.66-7.97-.02.04-14.55c0-2.93-.61-5.52-4.16-5.53-3.94,0-4.57,2.82-4.57,5.56l-.04,14.5-7.97-.02s.06-26.64.06-26.64Z"/>
    <path class="st0" d="M93.13,58.58l-7.58-.02v-2.88c-.76,1.1-2.69,3.74-8.07,3.73-8.06-.02-13.33-6.27-13.31-14.29.02-9.02,6.47-14.15,13.23-14.13,4.71.01,6.96,2.32,7.82,3.19v-2.88l.03-8.26,7.97.02s-.09,35.52-.09,35.52ZM72.13,45.14c-.01,4.08,2.91,6.82,6.66,6.83,1.92,0,3.7-.76,4.95-2s1.97-2.97,1.88-4.94c0-1.92-.76-3.55-1.96-4.71-1.2-1.2-2.88-1.88-4.75-1.88-4.61,0-6.78,3.58-6.78,6.66v.05h0Z"/>
    <path class="st0" d="M113.78,31.99l7.44.02v2.83s.48-.96,1.63-1.87c1.15-.96,3.03-1.86,5.81-1.86,1.82,0,4.13.49,6.09,2.56.58.58,1.1,1.3,1.58,2.21.53-.82,1.16-1.63,1.92-2.3,1.59-1.44,3.75-2.44,6.53-2.43,1.87,0,4.85.44,7,2.7,2.49,2.65,2.87,4.42,2.86,10.33l-.04,14.55-7.97-.02.03-14.16c0-1.1,0-2.54-.52-3.75-.48-1.25-1.48-2.16-3.55-2.17-2.21,0-3.31,1-3.84,2.2-.58,1.2-.58,2.54-.58,3.31l-.04,14.55-7.97-.02.04-14.5c0-.72,0-2.11-.47-3.31-.52-1.25-1.48-2.26-3.5-2.26-2.26,0-3.36,1.05-3.94,2.34s-.58,2.73-.58,3.55l-.03,14.16-7.97-.02.06-26.64h.01Z"/>
    <path class="st0" d="M159.01,45.34c0-6.48,4.69-14.1,14.39-14.08s14.33,7.67,14.32,14.2c-.02,6.53-4.69,14.15-14.39,14.13s-14.33-7.67-14.32-14.2v-.05h0ZM166.98,45.46c0,3.84,2.91,6.68,6.37,6.69s6.39-2.82,6.4-6.71c0-3.89-2.91-6.73-6.37-6.74s-6.39,2.82-6.4,6.71v.05Z"/>
    <path class="st0" d="M192.21,32.18l7.49.02v2.98c.76-1.44,2.16-3.88,6.77-3.87l-.02,8.02h-.29c-4.08,0-6,1.47-6.01,5.22l-.04,14.31-7.97-.02.06-26.64v-.02Z"/>
    <path class="st0" d="M215.45,48.31c.33,2.83,3.01,4.71,6.13,4.72,2.54,0,3.89-1.09,4.85-2.48l8.16.02c-1.3,2.97-3.18,5.27-5.44,6.8-2.21,1.58-4.85,2.39-7.59,2.38-7.63-.02-14.1-6.23-14.08-14.15.02-7.44,5.89-14.29,14-14.27,4.08,0,7.58,1.6,10.07,4.25,3.35,3.61,4.35,7.88,3.71,12.78l-19.83-.05h.02ZM227.46,42.29c-.19-1.25-1.81-4.23-5.94-4.24-4.13,0-5.77,2.96-5.96,4.21l11.91.03h0Z"/>
  </g>
  <g>
    <path class="st3" d="M298.99,81.94h-.1c-10.68-.03-20.71-4.21-28.24-11.78s-11.67-17.62-11.64-28.29c.05-22.01,17.98-39.88,39.97-39.88h.1c10.68.03,20.71,4.21,28.24,11.78,7.53,7.57,11.67,17.62,11.64,28.29-.05,22.01-17.98,39.88-39.97,39.88Z"/>
    <path class="st2" d="M296.42,80.01h-.1c-10.68-.03-20.71-4.21-28.24-11.78-7.53-7.56-11.66-17.61-11.64-28.29.06-22.01,17.98-39.88,39.98-39.88h.1c10.68.03,20.71,4.21,28.24,11.78,7.53,7.57,11.67,17.62,11.64,28.29-.05,22.01-17.98,39.88-39.97,39.88h-.01Z"/>
    <path class="st1" d="M296.42,1.04c-21.46,0-38.94,17.43-39,38.9-.02,10.42,4.01,20.22,11.35,27.6s17.13,11.46,27.54,11.49h.1c10.38,0,20.14-4.03,27.5-11.35,7.38-7.35,11.46-17.13,11.49-27.54s-4.01-20.22-11.35-27.6c-7.34-7.39-17.12-11.47-27.54-11.5h-.1.01Z"/>
    <polygon class="st2" points="282.17 24.87 282.15 34.05 296.32 41.87 282.11 49.63 282.09 58.81 313.03 41.91 282.17 24.87"/>
  </g>
</svg>