<?xml version="1.0" encoding="UTF-8"?>
<svg id="l" xmlns="http://www.w3.org/2000/svg" version="1.1" viewBox="0 0 288 84">
  <!-- Generator: Adobe Illustrator 29.1.0, SVG Export Plug-In . SVG Version: 2.1.0 Build 142)  -->
  <defs>
    <style>
      .st0 {
        fill: #4d4f5e;
      }

      .st1 {
        fill: #bebdbd;
      }
    </style>
  </defs>
  <g>
    <path class="st0" d="M85.05,45.77l-.13-14.43h5.79v23.68h-5.25l-9.06-14.27.13,14.27h-5.79v-23.68h5.22l9.09,14.43Z"/>
    <path class="st0" d="M95.84,31.34h13.41v5.31h-7.36v3.68h7.14v5.31h-7.14v4.06h7.36v5.31h-13.41v-23.68h0Z"/>
    <path class="st0" d="M111.9,31.34h6.14l3.23,15.39,3.49-15.39h4.64l3.49,15.45,3.23-15.45h6.11l-6.27,23.68h-5.31l-3.62-15.33-3.55,15.33h-5.47s-6.11-23.68-6.11-23.68Z"/>
    <path class="st0" d="M150.4,47.18c0,2.75,1.7,3.23,2.46,3.23,1.44,0,2.3-1.18,2.3-2.27,0-1.25-.99-1.63-4.64-3.17-1.66-.67-5.79-2.34-5.79-6.78,0-4.77,4.32-7.3,8.29-7.3,3.26,0,7.87,1.66,7.97,7.36h-5.98c-.13-.8-.32-2.3-2.18-2.3-1.06,0-2.08.74-2.08,1.86s.64,1.38,4.9,3.3c4.42,1.98,5.54,4.03,5.54,6.78,0,3.78-1.98,7.58-8.26,7.58s-8.7-3.65-8.54-8.29h6.02-.01Z"/>
  </g>
  <g>
    <path class="st1" d="M85.57,79.47v3.13h-15.95v-3.13h15.95ZM71.06,68.74h13.27v3.04h-13.27v-3.04Z"/>
    <path class="st1" d="M87.35,79.87h8.41v-4.95c-.02-.95-.23-1.19-1.12-1.19h-5.89v-2.95h6.99c1.08,0,1.69.22,2.3.76.74.79.88,1.3.86,3.04v5.29h3.53v2.68h-15.09v-2.68h.01Z"/>
    <path class="st1" d="M119.55,74.05v3.06h-14.75v-3.06h14.75Z"/>
    <path class="st1" d="M123.45,71.21v-2.97h13.02c-.97,3.13-1.78,5.19-2.92,7.35,2,2.79,3.31,4.99,4.65,7.72h-3.91c-.79-1.89-1.35-2.95-2.41-4.66-1.71,3.1-4.09,4.65-7.4,4.86h-2.27v-3.04h1.13c2.74.02,4.14-.67,5.47-2.66.88-1.24,2.27-4.12,3.17-6.59h-8.53,0Z"/>
  </g>
</svg>