<?xml version="1.0" encoding="UTF-8"?>
<svg id="l" xmlns="http://www.w3.org/2000/svg" version="1.1" viewBox="0 0 288 84">
  <!-- Generator: Adobe Illustrator 29.1.0, SVG Export Plug-In . SVG Version: 2.1.0 Build 142)  -->
  <defs>
    <style>
      .st0 {
        fill: #4d4f5e;
      }

      .st1 {
        fill: #bebdbd;
      }
    </style>
  </defs>
  <g>
    <path class="st0" d="M70.75,55.02v-23.68h6.05v8.9h7.74v-8.9h6.05v23.68h-6.05v-9.47h-7.74v9.47h-6.05Z"/>
    <path class="st0" d="M93.85,43.43c0-7.74,5.95-12.54,12.48-12.54,7.3,0,12.51,5.7,12.51,12.29s-5.18,12.29-12.54,12.29-12.45-5.92-12.45-12v-.03ZM99.9,43.15c0,3.62,2.46,7.01,6.53,7.01,4.29,0,6.37-3.9,6.37-6.94s-2.08-7.01-6.43-7.01-6.46,3.58-6.46,6.91v.03Z"/>
    <path class="st0" d="M119.83,31.34h6.14l3.23,15.39,3.49-15.39h4.64l3.49,15.45,3.23-15.45h6.11l-6.27,23.68h-5.31l-3.62-15.33-3.55,15.33h-5.47l-6.11-23.68Z"/>
    <path class="st0" d="M163.19,36.65h-4.67v-5.31h15.36v5.31h-4.64v18.37h-6.05v-18.37Z"/>
    <path class="st0" d="M174.33,43.43c0-7.74,5.95-12.54,12.48-12.54,7.3,0,12.51,5.7,12.51,12.29s-5.18,12.29-12.54,12.29-12.45-5.92-12.45-12v-.03ZM180.38,43.15c0,3.62,2.46,7.01,6.53,7.01,4.29,0,6.37-3.9,6.37-6.94s-2.08-7.01-6.43-7.01-6.46,3.58-6.46,6.91v.03Z"/>
    <path class="st0" d="M220.22,31.34c4.38,0,6.02.67,7.3,1.73,1.86,1.54,2.78,3.87,2.78,6.27s-.99,4.93-2.5,6.21c-1.63,1.38-3.23,2.05-6.91,2.05h-2.37v7.42h-6.05v-23.68h7.74ZM218.52,42.28h2.21c.58,0,1.54,0,2.34-.35.8-.35,1.44-1.09,1.44-2.5s-.67-2.08-1.5-2.43c-.83-.35-1.82-.35-2.5-.35h-1.98v5.63Z"/>
    <path class="st0" d="M232.98,31.34h6.05v18.37h7.01v5.31h-13.06v-23.68Z"/>
    <path class="st0" d="M253.11,55.02h-6.56l9.38-23.68h5.22l9.09,23.68h-6.62l-1.12-3.42h-8.29l-1.09,3.42ZM258.26,38.54l-2.56,8.26h5.22l-2.66-8.26Z"/>
    <path class="st0" d="M274.68,46.41l-7.07-15.07h6.56l3.52,9.5,3.55-9.5h6.5l-7.01,15.07v8.61h-6.05v-8.61Z"/>
  </g>
  <g>
    <path class="st1" d="M69.2,79.88c1.17-.5,1.71-1.15,1.76-2.12v-2.88h-1.55v-2.41h4.18v6.01c0,.7.07.9.49,1.28v-2.95c.58-.81.72-1.57.72-3.87v-2.43h-.72v-2.12h1.84v-1.69h2.4v1.69h1.49v2.12h-2.74v.99h2.7c-.02,1.35-.02,1.57-.04,2.66h1.69v-.23l.9-1.19h-2.07v-2.07h5.1v1.75l-1.22,1.75h1.62v2.2h-1.85v.95c.04,1.93-.4,2.43-2.14,2.43h-1.39v-2.25h1.06v-1.13h-1.76c-.09,1.15-.18,1.67-.34,2.09-.2.68-1.21,1.26-2.18,1.26h-.7v-2.25h.41c.61.09.67-.23.72-3.84h-.63c-.2,3.82-.79,5.15-2.77,6.23.5.31.72.34,1.78.34h9.9v2.47h-9.78c-2.32.02-3.06-.27-4.09-1.53-.68.99-1.49,1.55-2.79,1.93v-3.17ZM69.74,66.95c1.55.41,2.32.65,3.85,1.13v2.81c-2.02-.72-2.61-.92-3.85-1.26v-2.68ZM80.93,66.68h2.58l-.49,1.28h2.54v2.03h-5.64l1.01-3.31Z"/>
    <path class="st1" d="M88.38,67.92h7.02v2.65c-1.22,1.22-1.71,1.8-2.25,2.65-.7,1.1-1.06,2.27-1.06,3.42,0,1.03.31,1.76.95,2.39.74.68,1.66,1.03,2.72,1.03,2.3,0,3.71-1.37,3.71-3.6,0-.92-.27-2.07-.72-3.17-.41-.99-.83-1.62-1.8-2.72v-2.92l1.26.23v1.62h4.38v-.72h1.01v3.24l-2.54-.58c1.13,2.41,1.57,4,1.57,5.6,0,3.4-2.9,5.98-6.73,5.98-2.38,0-4.38-.88-5.56-2.41-.86-1.15-1.35-2.48-1.35-3.8,0-1.08.36-2.32,1.12-3.89q.13-.27.83-1.49c.2-.36.22-.36.41-.74h-2.95v-2.77ZM100.21,66.32v2.68h-1.58v-2.68h1.58ZM102.23,66.32v2.68h-1.58v-2.68h1.58Z"/>
    <path class="st1" d="M106.49,71.45v-2.86h6.32v-1.89h3.37v1.89h6.09v2.86h-8.48v1.39h7.49c-.09,4.56-.18,6.1-.41,6.99-.23.94-.77,1.76-1.49,2.29-.99.67-1.39.74-3.84.76h-2.09v-2.88h2.39c2.05-.02,2.07-.07,2.12-3.75l.02-.61h-4.43c-.56,3.98-3.26,6.81-7.11,7.45v-3.15c1.57-.36,2.77-1.37,3.44-2.84.58-1.31.76-2.79.76-5.64h-4.14Z"/>
  </g>
</svg>