<?xml version="1.0" encoding="UTF-8"?>
<svg id="l" xmlns="http://www.w3.org/2000/svg" version="1.1" viewBox="0 0 288 84">
  <!-- Generator: Adobe Illustrator 29.1.0, SVG Export Plug-In . SVG Version: 2.1.0 Build 142)  -->
  <defs>
    <style>
      .st0 {
        fill: #4d4f5e;
      }

      .st1 {
        fill: #bebdbd;
      }
    </style>
  </defs>
  <g>
    <path class="st0" d="M70.75,31.34h6.05v23.68h-6.05v-23.68Z"/>
    <path class="st0" d="M81.88,31.34h7.84c2.66,0,7.39,0,10.46,4.42,1.63,2.24,2.18,4.77,2.18,7.36,0,6.46-3.2,11.9-12.19,11.9h-8.29v-23.68ZM87.93,49.71h2.59c4.51,0,5.79-3.14,5.79-6.5,0-1.34-.29-3.04-1.15-4.38-.7-1.06-1.92-2.18-4.61-2.18h-2.62v13.06Z"/>
    <path class="st0" d="M105.4,43.44c0-7.74,5.95-12.54,12.48-12.54,7.3,0,12.51,5.7,12.51,12.29s-5.18,12.29-12.54,12.29-12.45-5.92-12.45-12v-.03ZM111.45,43.15c0,3.62,2.46,7.01,6.53,7.01,4.29,0,6.37-3.9,6.37-6.94s-2.08-7.01-6.43-7.01-6.46,3.58-6.46,6.91v.03Z"/>
    <path class="st0" d="M134.62,31.34h6.05v18.37h7.01v5.31h-13.06v-23.68Z"/>
  </g>
  <g>
    <path class="st1" d="M70.1,66.71h14.71v3.96c.05,2.99-1.66,4.66-4.88,4.74h-1.3c-.07,2.74-.32,3.67-1.24,4.83-.95,1.13-2.32,1.73-3.93,1.71h-3.35v-2.92h2.29c2.41.02,3.01-.59,3.01-3.11v-3.4h4.38c1.4-.05,1.93-.58,1.94-1.94v-.79h-11.63v-3.06Z"/>
    <path class="st1" d="M87.94,73.57l9.94-4.66c1.31-.63,1.58-1.01,1.58-2.2v-.49h3.29v.7c.05,1.8-.68,3.08-2.27,3.89l-2.75,1.39v9.81h-3.33v-8.12l-6.46,3.22v-3.55Z"/>
    <path class="st1" d="M109.66,66.39v4.83l1.51.41c.99.29,1.98.56,2.97.83.76.2,1.57.45,3.69,1.1v3.4c-1.93-.76-4.5-1.57-8.17-2.59v7.67h-3.33v-15.65h3.33ZM115.79,66.3v2.74h-1.69v-2.74h1.69ZM118.04,66.3v2.74h-1.67v-2.74h1.67Z"/>
    <path class="st1" d="M125.9,66.39v7.83c.07,4.57-1.87,7.36-5.47,7.83v-3.42c1.75-.52,2.3-1.49,2.41-4.12v-8.12h3.06ZM127.88,66.39h3.11v11.87c2.5-.13,2.83-.58,2.86-4.09v-4.21h3.03v4.65c0,3.02-.36,4.38-1.46,5.42-1.15,1.06-2.47,1.46-4.83,1.48h-2.72v-15.11Z"/>
  </g>
</svg>