<?xml version="1.0" encoding="UTF-8"?>
<svg id="l" xmlns="http://www.w3.org/2000/svg" version="1.1" viewBox="0 0 288 84">
  <!-- Generator: Adobe Illustrator 29.1.0, SVG Export Plug-In . SVG Version: 2.1.0 Build 142)  -->
  <defs>
    <style>
      .st0 {
        fill: #4d4f5e;
      }

      .st1 {
        fill: #bebdbd;
      }
    </style>
  </defs>
  <g>
    <path class="st0" d="M94.57,46.15c-1.38,5.6-6.24,9.31-11.97,9.31-7.42,0-12.48-5.92-12.48-12.32,0-6.05,4.67-12.26,12.42-12.26s11.39,5.73,12.03,9.44h-6.34c-.67-1.76-2.46-4.13-5.73-4.13-4.06,0-6.34,3.55-6.34,6.91,0,3.58,2.43,7.04,6.37,7.04s5.31-3.17,5.7-4h6.34Z"/>
    <path class="st0" d="M101.29,55.02h-6.56l9.38-23.68h5.22l9.09,23.68h-6.62l-1.12-3.42h-8.29l-1.09,3.42ZM106.44,38.54l-2.56,8.26h5.22l-2.66-8.26Z"/>
    <path class="st0" d="M121.64,31.34h7.74c3.71,0,6.02.67,7.33,1.7,1.98,1.54,2.88,3.87,2.88,6.46,0,1.82-.51,3.23-1.18,4.29-.8,1.25-1.95,2.05-3.07,2.53l4.9,8.7h-6.24l-6.18-11.42h.99c1.54,0,2.85-.13,3.65-.64.74-.48,1.34-1.6,1.34-2.91s-.61-2.24-1.41-2.75c-.67-.42-1.63-.64-2.46-.64h-2.24v18.37h-6.05v-23.68Z"/>
    <path class="st0" d="M143.34,31.34h7.84c2.66,0,7.39,0,10.46,4.42,1.63,2.24,2.18,4.77,2.18,7.36,0,6.46-3.2,11.9-12.19,11.9h-8.29v-23.68ZM149.38,49.7h2.59c4.51,0,5.79-3.14,5.79-6.5,0-1.34-.29-3.04-1.15-4.38-.7-1.06-1.92-2.18-4.61-2.18h-2.62v13.06Z"/>
    <path class="st0" d="M168.04,31.34h6.05v18.37h7.01v5.31h-13.06v-23.68Z"/>
    <path class="st0" d="M184.26,31.34h6.05v23.68h-6.05v-23.68Z"/>
    <path class="st0" d="M200.07,47.18c0,2.75,1.7,3.23,2.46,3.23,1.44,0,2.3-1.18,2.3-2.27,0-1.25-.99-1.63-4.64-3.17-1.66-.67-5.79-2.34-5.79-6.78,0-4.77,4.32-7.3,8.29-7.3,3.26,0,7.87,1.66,7.97,7.36h-5.98c-.13-.8-.32-2.3-2.18-2.3-1.06,0-2.08.74-2.08,1.86s.64,1.38,4.9,3.3c4.42,1.98,5.54,4.03,5.54,6.78,0,3.78-1.98,7.58-8.26,7.58s-8.7-3.65-8.54-8.29h6.02Z"/>
    <path class="st0" d="M217.38,36.65h-4.67v-5.31h15.36v5.31h-4.64v18.37h-6.05v-18.37Z"/>
  </g>
  <g>
    <path class="st1" d="M70.25,77.63c3.29-.41,4.45-2.11,4.52-6.61h-4.02v-3.08h4.16v-3.13h3.15v3.13h7.18v6.82c.04,4-1.46,5.51-5.51,5.62h-1.71v-3.08h1.3c2.39-.04,2.74-.43,2.74-3.1v-3.19h-4.14c-.22,3.53-.77,5.51-1.98,6.91-1.46,1.71-3.2,2.56-5.69,2.75v-3.06Z"/>
    <path class="st1" d="M103.32,71.07v3.06h-14.75v-3.06h14.75Z"/>
    <path class="st1" d="M110.45,64.9v4.83l1.51.41c.99.29,1.98.56,2.97.83.76.2,1.57.45,3.69,1.1v3.4c-1.93-.76-4.5-1.57-8.17-2.59v7.67h-3.33v-15.65h3.33ZM116.57,64.81v2.74h-1.69v-2.74h1.69ZM118.82,64.81v2.74h-1.67v-2.74h1.67Z"/>
    <path class="st1" d="M128,77.05c3.37-.04,4.5-1.3,4.43-4.9v-7.49h3.28v6.88c.02,3.42-.32,5.01-1.42,6.36-1.21,1.49-3.22,2.23-6.05,2.23h-5.89v-3.08h5.65ZM122.36,64.73h3.28v9.79h-3.28v-9.79Z"/>
    <path class="st1" d="M139.8,68.23v-2.97h13.02c-.97,3.13-1.78,5.19-2.92,7.35,2,2.79,3.31,4.99,4.65,7.72h-3.91c-.79-1.89-1.35-2.95-2.41-4.66-1.71,3.1-4.09,4.65-7.4,4.86h-2.27v-3.04h1.13c2.74.02,4.14-.67,5.47-2.66.88-1.24,2.27-4.12,3.17-6.59h-8.53Z"/>
    <path class="st1" d="M161.1,64.63v4.81c4.2,1.01,5.73,1.44,8.37,2.36v3.33c-2.41-.88-4.68-1.55-8.37-2.45v7.9h-3.29v-15.95h3.29Z"/>
  </g>
</svg>