<?xml version="1.0" encoding="UTF-8"?>
<svg id="l" xmlns="http://www.w3.org/2000/svg" version="1.1" viewBox="0 0 288 84">
  <!-- Generator: Adobe Illustrator 29.1.0, SVG Export Plug-In . SVG Version: 2.1.0 Build 142)  -->
  <defs>
    <style>
      .st0 {
        fill: #4d4f5e;
      }

      .st1 {
        fill: #bebdbd;
      }
    </style>
  </defs>
  <g>
    <path class="st0" d="M70.75,55.02v-23.68h8.1l4.45,15.26,4.32-15.26h8.13v23.68h-5.57l.19-17.73-5.12,17.73h-4l-5.12-17.73.19,17.73h-5.57Z"/>
    <path class="st0" d="M99.8,43.44c0-7.74,5.95-12.54,12.48-12.54,7.3,0,12.51,5.7,12.51,12.29s-5.18,12.29-12.54,12.29-12.45-5.92-12.45-12v-.03ZM105.85,43.15c0,3.62,2.46,7.01,6.53,7.01,4.29,0,6.37-3.9,6.37-6.94s-2.08-7.01-6.43-7.01-6.46,3.58-6.46,6.91v.03Z"/>
    <path class="st0" d="M125.79,31.34h6.21l4.8,16.61,4.83-16.61h6.24l-7.94,23.68h-6.24l-7.9-23.68Z"/>
    <path class="st0" d="M151.32,31.34h6.05v23.68h-6.05v-23.68Z"/>
    <path class="st0" d="M162.46,31.34h13.41v5.31h-7.36v3.68h7.14v5.31h-7.14v4.06h7.36v5.31h-13.41v-23.68Z"/>
  </g>
  <g>
    <path class="st1" d="M72.83,79.4h-3.3v-1.98h3.3v-.49h-3.17v-4.97h3.17v-.58h-3.64v-2h3.64v-.56l-.76.02-1.48.05-1.1.02v-2.23c5.38-.11,5.85-.13,8.37-.43v2.27c-.9.11-1.49.14-2.61.22v.65h3.04v2h-3.04v.58h3.04v2.99c.02,1.48-.49,1.94-2.14,1.98h-.9v.49h2.93v1.78c1.15-1.26,1.28-1.94,1.39-7.2h-.92v-2.75h.92v-3.04h2.59v3.04h3.58l-.25,8.89c-.02,2.7-1.04,4.07-3.06,4.09h-1.19v-2.7c-.58,1.24-1.48,2.09-3.24,3.08v-.79c-2.03.22-6.61.52-8.77.61v-2.27c1.42-.04,1.75-.05,3.58-.14v-.61ZM72.83,73.76v-.54h-.83v.54h.83ZM72.83,75.6v-.58h-.83v.58h.83ZM75.93,73.76v-.59h-.67v.59h.67ZM75.93,75.6v-.58h-.67v.58h.67ZM78.02,79.72v-.32h-2.75v.49l2.75-.16ZM82.14,71.99c-.2,5.06-.31,6.1-.81,7.4,1.26.04,1.55-.25,1.58-1.55l.2-5.85h-.97Z"/>
    <path class="st1" d="M103.67,66.32v2.45h-6.99v1.48h3.15v7.4c-.02.99-.41,1.31-1.55,1.31h-7.29v-8.71h3.15v-1.48h-6.84v-2.45h16.37ZM87.66,70.25h2.7v9.31h10.08v-9.31h2.88v8.77c.05,2.2-.72,2.97-2.94,2.95h-12.73v-11.72ZM94.15,73.53v-1.12h-.76v1.12h.76ZM93.39,76.8h.76v-1.33h-.76v1.33ZM97.44,73.53v-1.12h-.76v1.12h.76ZM97.44,76.8v-1.33h-.76v1.33h.76Z"/>
  </g>
</svg>