<?xml version="1.0" encoding="UTF-8"?>
<svg id="l" xmlns="http://www.w3.org/2000/svg" width="288" height="84" version="1.1" viewBox="0 0 288 84">
  <!-- Generator: Adobe Illustrator 29.1.0, SVG Export Plug-In . SVG Version: 2.1.0 Build 142)  -->
  <defs>
    <style>
      .st0 {
        fill: #4d4f5e;
      }

      .st1 {
        fill: #bebdbd;
      }
    </style>
  </defs>
  <g>
    <path class="st0" d="M88.5,39.7c-.3-.6-.7-1.1-1.2-1.6-1-.9-2.3-1.5-4-1.5-3,0-6.5,2.2-6.5,6.9s3.5,7.1,6.5,7.1,2.8-.4,3.7-1.1c1-.6,1.6-1.6,1.9-2.8h-7.1v-4.8h14.1c.1,1.7,0,4.5-1.1,6.8-2.3,5.2-7.6,7.2-11.5,7.2-7.2,0-12.6-5.6-12.6-12.4s5.7-12.2,12.7-12.2,10.5,3.8,11.8,8.4h-6.8Z"/>
    <path class="st0" d="M98.9,43.9c0-7.7,5.9-12.5,12.5-12.5s12.5,5.7,12.5,12.3-5.2,12.3-12.5,12.3-12.4-5.9-12.4-12h0ZM104.9,43.6c0,3.6,2.5,7,6.5,7s6.4-3.9,6.4-6.9-2.1-7-6.4-7-6.5,3.6-6.5,6.9h0s0,0,0,0Z"/>
    <path class="st0" d="M126.9,43.9c0-7.7,5.9-12.5,12.5-12.5s12.5,5.7,12.5,12.3-5.2,12.3-12.5,12.3-12.4-5.9-12.4-12h0ZM133,43.6c0,3.6,2.5,7,6.5,7s6.4-3.9,6.4-6.9-2.1-7-6.4-7-6.5,3.6-6.5,6.9h0s0,0,0,0Z"/>
    <path class="st0" d="M156,31.8h7.8c2.7,0,7.4,0,10.5,4.4,1.6,2.2,2.2,4.8,2.2,7.4,0,6.5-3.2,11.9-12.2,11.9h-8.3v-23.7ZM162,50.2h2.6c4.5,0,5.8-3.1,5.8-6.5s-.3-3-1.1-4.4c-.7-1.1-1.9-2.2-4.6-2.2h-2.6v13.1Z"/>
    <path class="st0" d="M185.2,47.6c0,2.8,1.7,3.2,2.5,3.2,1.4,0,2.3-1.2,2.3-2.3s-1-1.6-4.6-3.2c-1.7-.7-5.8-2.3-5.8-6.8s4.3-7.3,8.3-7.3,7.9,1.7,8,7.4h-6c-.1-.8-.3-2.3-2.2-2.3s-2.1.7-2.1,1.9.6,1.4,4.9,3.3c4.4,2,5.5,4,5.5,6.8s-2,7.6-8.3,7.6-8.7-3.7-8.5-8.3h6,0Z"/>
  </g>
  <g>
    <path class="st1" d="M81.7,67.2v2h3.6v4.8c0,2.9-.6,4.7-1.7,5.9-1.6,1.6-3.3,2.1-6.8,2.1h-5.6v-3h5.7c2.3,0,3.3-.3,4-1.1.7-.8,1-1.9,1-3.6v-3.9h-5.9c-.5,3.1-2.4,5-5.5,5.6v-3.2c2-.7,2.6-1.9,2.8-5.4h8.2,0ZM82.3,65.9h1.7v2.8h-1.7v-2.8ZM86.2,65.9v2.8h-1.7v-2.8h1.7Z"/>
    <path class="st1" d="M90.9,69c.7,2.5,1,3.9,1.5,6.2h-3.1c-.3-2.2-.7-4.2-1.3-6.2h2.8ZM102.3,68.9v5.2c.2,5.4-2,7.9-6.8,7.9h-6.7v-2.7h6.7c2.9-.1,4-1.4,3.9-4.8v-5.5h2.9ZM95.6,69c.7,2.2,1.2,4.5,1.5,6.2h-3.1c-.5-2.7-.7-3.8-1.4-6.2h2.9Z"/>
    <path class="st1" d="M106.3,70.8v-2.8h10.6v1.5h1.6c-1.3,3.2-1.5,3.6-2.2,5.1,2,3.1,3,4.8,4.4,7.6h-3.7c-.7-1.3-.7-1.4-2.4-4.4-1.8,3.2-4,4.5-7.2,4.5h-2.1v-2.9h1.4c3.6,0,5.2-1.7,7.9-8.7h-8.3ZM117.4,66.2h1.6v2.8h-1.6v-2.8ZM121.2,66.2v2.8h-1.6v-2.8h1.6Z"/>
  </g>
</svg>