<?xml version="1.0" encoding="UTF-8"?>
<svg id="l" xmlns="http://www.w3.org/2000/svg" width="288" height="84" version="1.1" viewBox="0 0 288 84">
  <!-- Generator: Adobe Illustrator 29.1.0, SVG Export Plug-In . SVG Version: 2.1.0 Build 142)  -->
  <defs>
    <style>
      .st0 {
        fill: #4d4f5e;
      }

      .st1 {
        fill: #bebdbd;
      }
    </style>
  </defs>
  <g>
    <path class="st0" d="M75.4,54.8v-18.4h-4.7v-5.3h15.4v5.3h-4.6v18.4h-6Z"/>
    <path class="st0" d="M87.8,43.5c0-7.3,5.3-12.8,12.5-12.8s12.5,5.3,12.5,12.1-5.4,12.4-12.2,12.4-12.8-4.7-12.8-11.7ZM106.7,43c0-3.7-2.7-7-6.5-7s-6.4,3.2-6.4,6.9,2.7,7,6.5,7,6.4-3.2,6.4-6.9Z"/>
    <path class="st0" d="M116.8,54.8v-23.7h8c2.5,0,4.4.3,5.7.9,2.6,1.2,4.2,3.9,4.2,7.1s-2.4,8.3-9.2,8.3h-2.8v7.4h-5.8ZM125.2,42.1c2.4,0,3.6-.8,3.6-2.8s-1.2-2.8-3.9-2.8h-2.4v5.6h2.6Z"/>
  </g>
  <g>
    <path class="st1" d="M74,67.4v4.8c4.2,1,5.7,1.4,8.4,2.4v3.3c-2.4-.9-4.7-1.5-8.4-2.4v7.9h-3.3v-16h3.3Z"/>
    <path class="st1" d="M87.7,70c.7,2.5,1,3.9,1.5,6.2h-3.1c-.3-2.2-.7-4.2-1.3-6.2h2.8ZM99.1,69.9v5.2c.2,5.4-2,7.9-6.8,7.9h-6.7v-2.7h6.7c2.9-.1,4-1.4,3.9-4.8v-5.5h3ZM92.5,70c.6,2.3,1.2,4.5,1.5,6.2h-3.1c-.5-2.7-.7-3.8-1.4-6.2h2.9Z"/>
    <path class="st1" d="M102.5,68.8h11.5c0,1.8,1,2.8,2.7,2.9v3.5c0,5.5-2.6,8-8.4,8h-5v-3h4.5c4.2,0,5.7-1.6,5.7-6v-2.4h-10.9v-3ZM118.6,69c0,1.2-1,2.1-2.1,2.1s-2.1-1-2.1-2.1,1-2.1,2.2-2.1,2.1,1,2.1,2.1ZM115.7,69c0,.5.4.8.8.8s.8-.4.8-.8-.4-.8-.8-.8-.8.4-.8.8Z"/>
    <path class="st1" d="M124.4,68.7h3.9l7.4,14.4h-3.7l-5.8-11.5-3.2,7h-3.5l4.9-9.9ZM135.9,69.7c0,1.2-1,2.2-2.2,2.2s-2.2-1-2.2-2.2,1-2.2,2.3-2.2,2.2,1,2.2,2.2ZM132.8,69.7c0,.5.4.9.9.9s.9-.4.9-.9-.4-.9-.9-.9-.9.4-.9.9Z"/>
    <path class="st1" d="M153.2,73.9v3.1h-14.7v-3.1h14.7Z"/>
    <path class="st1" d="M156.3,79.9h6.2c4.3,0,5.4-1,5.5-5.1v-4.4h3.2v4.5c0,3.1-.6,4.8-2.1,6.3-1.4,1.3-3.1,1.7-7,1.8h-5.8v-3ZM164,72.3c-3.7-.7-5.3-1-7.7-1.3v-3c2.6.4,4.6.7,7.7,1.3v3ZM164,77.4c-3.2-.6-3.9-.8-7.7-1.4v-3.1l1.3.2c3.7.6,3.9.7,6.3,1.2v3ZM169.5,67v2.7h-1.7v-2.7h1.7ZM170,67h1.7v2.7h-1.7v-2.7Z"/>
  </g>
</svg>