<?xml version="1.0" encoding="UTF-8"?>
<svg id="l" xmlns="http://www.w3.org/2000/svg" width="288" height="84" version="1.1" viewBox="0 0 288 84">
  <!-- Generator: Adobe Illustrator 29.1.0, SVG Export Plug-In . SVG Version: 2.1.0 Build 142)  -->
  <defs>
    <style>
      .st0 {
        fill: #7a7ecc;
      }

      .st1 {
        fill: #1b1c81;
      }
    </style>
  </defs>
  <g>
    <path class="st1" d="M90,54.8l.2-17.7h0c0,0-5.1,17.7-5.1,17.7h-4l-5.1-18,.2,18h-5.6v-23.7h7.8l4.7,15.6h0l4.6-15.6h7.8v23.7h-5.6Z"/>
    <path class="st1" d="M105.8,54.8v-8.6l-7.1-15.1h6.6l3.5,9.5,3.6-9.5h6.5l-7,15.1v8.6h-6Z"/>
    <path class="st1" d="M132.8,54.8v-23.7h8c2.5,0,4.4.3,5.7.9,2.6,1.2,4.2,3.9,4.2,7.1s-2.4,8.3-9.2,8.3h-2.8v7.4h-5.8ZM141.2,42.1c2.4,0,3.6-.8,3.6-2.8s-1.2-2.8-3.9-2.8h-2.4v5.6h2.6Z"/>
    <path class="st1" d="M166.5,54.8l-1.2-3.4h-8.2l-1.2,3.4h-6.5l9.5-23.7h4.8l9.4,23.7h-6.6ZM161.3,38.5h0s-2.4,8.1-2.4,8.1h5l-2.4-8.1Z"/>
    <path class="st1" d="M198.9,42.7c0,6.4-4.7,12.6-12.6,12.6s-12.6-5.5-12.6-12.4,5.8-12.2,12.7-12.2,10.5,3.6,11.8,8.4h-6.8c-1.1-2-2.9-3.1-5.2-3.1-3.8,0-6.5,3.1-6.5,6.9s2.5,7.1,6.5,7.1,4.9-1.4,5.7-3.8h-7.1v-4.8h14.1v1.3Z"/>
    <path class="st1" d="M202.8,54.8v-23.7h13.2v5.3h-7.4v3.7h7.1v5.3h-7.1v4.1h7.4v5.3h-13.2Z"/>
  </g>
  <g>
    <path class="st0" d="M69.5,68.5h15.4v3.9c0,4.6-2.1,6.7-7.4,7.5.6,1.1.9,1.8,1.6,3.3h-3.5c-1.4-2.8-3-5.6-4.9-8.7h3.6l.9,1.5c.2.3.3.4.7,1.2,4.4-.4,5.8-1.6,5.9-4.7v-1.1h-12.2v-2.9Z"/>
    <path class="st0" d="M87.7,75l9.9-4.7c1.3-.6,1.6-1,1.6-2.2v-.5h3.3v.7c0,1.8-.7,3.1-2.3,3.9l-2.8,1.4v9.8h-3.3v-8.1l-6.5,3.2v-3.5Z"/>
    <path class="st0" d="M109.6,68.8h3.9l7.4,14.4h-3.7l-5.8-11.5-3.2,7h-3.5l4.9-9.9ZM121,69.9c0,1.2-1,2.2-2.2,2.2s-2.2-1-2.2-2.2,1-2.2,2.3-2.2,2.2,1,2.2,2.2ZM117.9,69.9c0,.5.4.9.9.9s.9-.4.9-.9-.4-.9-.9-.9-.9.4-.9.9Z"/>
    <path class="st0" d="M138.3,74v3.1h-14.7v-3.1h14.7Z"/>
    <path class="st0" d="M141.5,80h6.2c4.3,0,5.4-1,5.5-5.1v-4.4h3.2v4.5c0,3.1-.6,4.8-2.1,6.3-1.4,1.3-3.1,1.7-7,1.8h-5.8v-3ZM149.2,72.5c-3.7-.7-5.3-1-7.7-1.3v-3c2.6.4,4.6.7,7.7,1.3v3ZM149.2,77.5c-3.2-.6-3.9-.8-7.7-1.4v-3.1l1.3.2c3.7.6,3.9.7,6.3,1.2v3ZM154.6,67.2v2.7h-1.7v-2.7h1.7ZM155.2,67.2h1.7v2.7h-1.7v-2.7Z"/>
  </g>
</svg>