<?xml version="1.0" encoding="UTF-8"?>
<svg id="_2024_rn" data-name="2024_rn" xmlns="http://www.w3.org/2000/svg" viewBox="0 0 50 50">
  <path d="M7.69,4.66v36.91c0,1.35.71,2.59,1.86,3.27.57.34,1.21.5,1.85.5s1.28-.17,1.86-.51l10.08-5.93c.51-.3,1.08-.45,1.65-.45s1.14.15,1.65.45l10.08,5.93h0c.57.34,1.22.51,1.86.51s1.28-.17,1.85-.5c1.15-.67,1.86-1.92,1.86-3.27V4.66H7.69ZM39.31,41.57c0,.28-.14.54-.37.68-.13.08-.25.09-.34.09-.12,0-.23-.03-.34-.1l-10.08-5.93c-.96-.57-2.06-.87-3.17-.87s-2.22.3-3.18.87l-10.08,5.93c-.11.06-.22.09-.34.09s-.23-.03-.34-.09c-.23-.13-.37-.4-.37-.68V7.66h28.61v33.91Z" style="fill: #7cb0ff; fill-rule: evenodd; stroke-width: 0px;"/>
  <path d="M31.51,25.85l-6.09,5.05c-.25.18-.5.18-.75,0l-6.15-5.05c-.54-.35-1.01-.82-1.39-1.42-.61-.99-.86-2.04-.75-3.16.11-1.12.58-2.09,1.39-2.92.97-.97,2.1-1.45,3.37-1.43,1.27.01,2.39.49,3.37,1.43.16.14.33.21.51.21s.34-.07.48-.21c1.04-.99,2.23-1.46,3.57-1.42,1.34.05,2.49.62,3.47,1.73.68.85,1.05,1.8,1.11,2.85.06,1.05-.2,2.03-.76,2.96-.39.58-.84,1.04-1.36,1.38Z" style="fill: #7cb0ff; fill-rule: evenodd; stroke-width: 0px;"/>
</svg>