<?xml version="1.0" encoding="UTF-8"?>
<svg id="_2024_rn" data-name="2024_rn" xmlns="http://www.w3.org/2000/svg" viewBox="0 0 50 50">
  <g>
    <path d="M13.46,33.66v-8.85l-.17-1.39h2.65l3.94,6.97,4.08-6.97h2.35v10.25h-2.3v-6.5h-.19l-.68,1.52-2.2,3.94h-2.11l-2.19-3.94-.7-1.52h-.17v6.5h-2.3Z" style="fill: #7cb0ff; stroke-width: 0px;"/>
    <path d="M29.04,37.07c-.56,0-1.07-.06-1.53-.19s-.78-.24-.94-.35l.52-1.57c.2.08.48.18.85.29s.78.17,1.24.17h.19c.54,0,1.01-.16,1.42-.48s.73-.75.95-1.28h-.87l-3.42-7.81h2.44l2,4.81.45,1.25h.17l.45-1.25,2.04-4.81h2.37l-.28,1.06c-.22.45-.47.97-.76,1.56-.29.58-.58,1.19-.88,1.82s-.6,1.23-.88,1.81-.54,1.1-.76,1.55c-.34.7-.71,1.3-1.11,1.81-.4.51-.86.91-1.38,1.18s-1.13.42-1.84.42h-.47Z" style="fill: #7cb0ff; stroke-width: 0px;"/>
  </g>
  <g>
    <path d="M38.85,10.15v4.03h-5.4v-4.2h-2.03v4.2h-5.4v-4.2h-2.03v4.2h-5.4v-4.2h-2.03v4.2h-5.4v-4.04c-2.36.52-4.13,2.59-4.13,5.11v21.41c0,3.48,2.82,6.3,6.29,6.3h23.38c3.47,0,6.29-2.82,6.29-6.3V15.27c0-2.52-1.77-4.59-4.13-5.11ZM39.98,36.68c0,1.82-1.48,3.3-3.29,3.3H13.31c-1.81,0-3.29-1.48-3.29-3.3v-16.4h29.97v16.4Z" style="fill: #7cb0ff; fill-rule: evenodd; stroke-width: 0px;"/>
    <g>
      <rect x="34.42" y="6.77" width="3.46" height="6.45" rx=".25" ry=".25" style="fill: #7cb0ff; stroke-width: 0px;"/>
      <rect x="26.99" y="6.77" width="3.46" height="6.45" rx=".25" ry=".25" style="fill: #7cb0ff; stroke-width: 0px;"/>
      <rect x="19.55" y="6.77" width="3.46" height="6.45" rx=".25" ry=".25" style="fill: #7cb0ff; stroke-width: 0px;"/>
      <rect x="12.12" y="6.77" width="3.46" height="6.45" rx=".25" ry=".25" style="fill: #7cb0ff; stroke-width: 0px;"/>
    </g>
  </g>
</svg>