<?xml version="1.0" encoding="UTF-8"?>
<svg id="_2024_rn" data-name="2024_rn" xmlns="http://www.w3.org/2000/svg" viewBox="0 0 50 50">
  <path d="M5.2,17.73c1.62.27,2.08.74,2.36,2.37.02.15.15.25.29.25s.27-.1.29-.25c.27-1.63.73-2.09,2.36-2.37.15-.02.25-.15.25-.29s-.1-.27-.25-.29c-1.62-.27-2.08-.74-2.36-2.37-.02-.15-.15-.25-.29-.25s-.27.1-.29.25c-.27,1.63-.73,2.09-2.36,2.37-.15.02-.25.15-.25.29s.1.27.25.29ZM5.22,17.59h0s0,0,0,0ZM8.01,20.07h0s0,0,0,0ZM7.69,14.8h0,0Z" style="fill: #7cb0ff; stroke-width: 0px;"/>
  <path d="M32.68,39.75h-4.05c-.11,0-.2-.09-.2-.2v-6.14c0-2.05-1.66-3.71-3.71-3.71H8.65c-2.04,0-3.69,1.65-3.69,3.69v10.12c0,.12.1.22.22.22h27.51c.22,0,.4-.18.4-.4v-3.2c0-.22-.18-.4-.4-.4ZM25.24,40.75H8.15c-.11,0-.2-.09-.2-.2v-7.15c0-.38.31-.69.69-.69h16.09c.39,0,.71.32.71.71v7.14c0,.11-.09.2-.2.2Z" style="fill: #7cb0ff; stroke-width: 0px;"/>
  <path d="M16.3,34.76c-.55.03-1.06.27-1.43.68-.76.84-.7,2.16.14,2.92.38.35.87.54,1.39.54.03,0,.07,0,.1,0,.55-.03,1.06-.27,1.43-.68.76-.84.7-2.16-.14-2.92-.41-.37-.93-.57-1.48-.54Z" style="fill: #7cb0ff; stroke-width: 0px;"/>
  <path d="M26.02,6.25c-5.67,0-10.28,4.6-10.28,10.28s4.6,10.28,10.28,10.28,10.28-4.6,10.28-10.28-4.6-10.28-10.28-10.28ZM26.02,23.8c-4.01,0-7.28-3.26-7.28-7.28s3.26-7.28,7.28-7.28,7.27,3.26,7.27,7.28-3.26,7.28-7.27,7.28Z" style="fill: #7cb0ff; fill-rule: evenodd; stroke-width: 0px;"/>
  <path d="M27.61,23.86c-4.84-.4-9.32,1.04-12.87,3.66-.08.06-.03.19.06.19h5.91s.02,0,.03,0c1.65-.58,3.42-.91,5.27-.91,8.07,0,14.77,6,15.87,13.78.01.09-.06.18-.16.18h-6.45c-.11,0-.2.09-.2.2v2.6c0,.11.09.2.2.2h9.47c.16,0,.3-.13.3-.3v-.23c0-9.97-7.5-18.55-17.44-19.37Z" style="fill: #7cb0ff; fill-rule: evenodd; stroke-width: 0px;"/>
</svg>