<?xml version="1.0" encoding="UTF-8"?>
<svg id="_レイヤー_1" data-name="レイヤー_1" xmlns="http://www.w3.org/2000/svg" version="1.1" xmlns:xlink="http://www.w3.org/1999/xlink" viewBox="0 0 110 84">
  <!-- Generator: Adobe Illustrator 29.1.0, SVG Export Plug-In . SVG Version: 2.1.0 Build 142)  -->
  <defs>
    <style>
      .st0 {
        fill: #4d4f5e;
      }

      .st1 {
        fill: url(#_名称未設定グラデーション_388);
      }
    </style>
    <linearGradient id="_名称未設定グラデーション_388" data-name="名称未設定グラデーション 388" x1="18.47" y1="42.24" x2="109.9" y2="42.24" gradientUnits="userSpaceOnUse">
      <stop offset="0" stop-color="#46d7ff"/>
      <stop offset="1" stop-color="#93afff"/>
    </linearGradient>
  </defs>
  <g>
    <path class="st0" d="M6.53,48.64l-2.15,3.76L.1,49.95l7.08-12.37,4.28,2.45-2.14,3.74,14.79,8.47-2.79,4.87-14.79-8.47Z"/>
    <path class="st0" d="M17.87,41.51c-6.24-3.57-7.36-10.58-4.34-15.83,3.36-5.88,10.36-7.45,15.67-4.41s7.5,9.84,4.11,15.77c-3.44,6-10.51,7.29-15.4,4.49h-.03ZM20.42,36.5c2.91,1.67,6.78,1.25,8.65-2.02,1.98-3.45-.21-6.93-2.65-8.33-2.47-1.42-6.6-1.56-8.61,1.95-1.93,3.38-.1,6.86,2.58,8.39h.03Z"/>
    <path class="st0" d="M25.47,5.65c2.02-3.53,3.32-4.53,4.76-5.08,2.09-.79,4.4-.46,6.33.65,1.93,1.11,3.51,3.07,3.85,4.87.36,1.95.16,3.55-1.54,6.51l-1.09,1.91,5.98,3.42-2.79,4.87-19.07-10.92,3.57-6.24ZM33.5,12.06l1.02-1.78c.27-.46.71-1.24.79-2.04.08-.81-.21-1.66-1.35-2.31s-1.98-.42-2.65.09c-.67.51-1.12,1.31-1.43,1.85l-.92,1.6,4.54,2.6Z"/>
  </g>
  <polygon class="st1" points="18.47 83.86 43.2 83.86 64.19 45.64 85.18 83.86 109.9 83.86 64.19 .62 18.47 83.86"/>
</svg>