<?xml version="1.0" encoding="UTF-8"?>
<svg id="l" xmlns="http://www.w3.org/2000/svg" version="1.1" viewBox="0 0 288 84">
  <!-- Generator: Adobe Illustrator 29.1.0, SVG Export Plug-In . SVG Version: 2.1.0 Build 142)  -->
  <defs>
    <style>
      .st0 {
        fill: #4d4f5e;
      }

      .st1 {
        fill: #bebdbd;
      }
    </style>
  </defs>
  <g>
    <path class="st0" d="M76.16,47.19c0,2.75,1.7,3.23,2.46,3.23,1.44,0,2.3-1.18,2.3-2.27,0-1.25-.99-1.63-4.64-3.17-1.66-.67-5.79-2.34-5.79-6.78,0-4.77,4.32-7.3,8.29-7.3,3.26,0,7.87,1.66,7.97,7.36h-5.98c-.13-.8-.32-2.3-2.18-2.3-1.06,0-2.08.74-2.08,1.86s.64,1.38,4.9,3.3c4.42,1.98,5.54,4.03,5.54,6.78,0,3.78-1.98,7.58-8.26,7.58s-8.7-3.65-8.54-8.29h6.02Z"/>
    <path class="st0" d="M89.6,43.44c0-7.74,5.95-12.54,12.48-12.54,7.3,0,12.51,5.7,12.51,12.29s-5.18,12.29-12.54,12.29-12.45-5.92-12.45-12v-.03ZM95.65,43.16c0,3.62,2.46,7.01,6.53,7.01,4.29,0,6.37-3.9,6.37-6.94s-2.08-7.01-6.43-7.01-6.46,3.58-6.46,6.91v.03Z"/>
    <path class="st0" d="M132.96,45.78l-.13-14.43h5.79v23.68h-5.25l-9.06-14.27.13,14.27h-5.79v-23.68h5.22l9.09,14.43Z"/>
    <path class="st0" d="M160.45,39.28c-.32-.58-.74-1.12-1.25-1.6-.99-.86-2.3-1.47-3.97-1.47-2.98,0-6.46,2.21-6.46,6.88,0,4.96,3.52,7.1,6.5,7.1,1.5,0,2.75-.38,3.71-1.06.96-.64,1.63-1.6,1.95-2.75h-7.07v-4.83h14.05c.13,1.7-.06,4.48-1.09,6.78-2.3,5.22-7.62,7.17-11.52,7.17-7.17,0-12.57-5.6-12.57-12.42s5.7-12.19,12.67-12.19c5.66,0,10.53,3.81,11.84,8.38h-6.78Z"/>
    <path class="st0" d="M176.55,47.19c0,2.75,1.7,3.23,2.46,3.23,1.44,0,2.3-1.18,2.3-2.27,0-1.25-.99-1.63-4.64-3.17-1.66-.67-5.79-2.34-5.79-6.78,0-4.77,4.32-7.3,8.29-7.3,3.26,0,7.87,1.66,7.97,7.36h-5.98c-.13-.8-.32-2.3-2.18-2.3-1.06,0-2.08.74-2.08,1.86s.64,1.38,4.9,3.3c4.42,1.98,5.54,4.03,5.54,6.78,0,3.78-1.98,7.58-8.26,7.58s-8.7-3.65-8.54-8.29h6.02Z"/>
  </g>
  <g>
    <path class="st1" d="M70.12,76.9v-2.48h6.7v-.72h-1.89v-7.47h1.87l.4-1.17h3.06l-.45,1.17h2.12v6.07c0,1.01-.4,1.4-1.4,1.4h-.65v.72h6.68v2.48h-4.66c1.3.94,2.86,1.46,4.66,1.55v2.81c-3.01-.31-5.35-1.37-6.68-3.06v3.28h-3.06v-2.88c-1.93,1.51-4.16,2.38-6.7,2.57v-2.79c2-.2,2.99-.52,4.41-1.48h-4.41ZM70.59,65.47l3.75.76v2.75l-3.75-.81v-2.7ZM74.33,72.58c-1.06.38-1.26.45-3.75,1.17v-2.9c1.24-.29,1.57-.38,3.75-1.04v2.77ZM79.34,69.11v-.81h-1.85v.81h1.85ZM79.34,71.48v-.72h-1.85v.72h1.85ZM86.33,65.51v2.63l-3.78.76v-2.61l3.78-.77ZM86.33,73.88c-2-.52-2.65-.74-3.78-1.22v-2.79c1.42.5,2.25.76,3.78,1.19v2.83Z"/>
    <path class="st1" d="M92.78,67.72v-2.41h2.86v2.41h1.35v-2.41h2.95v2.41h4.3v10.66c.02,2.16-.65,2.81-2.83,2.77h-12.84v-13.43h4.2ZM92.78,73.11v-2.68h-1.22v2.68h1.22ZM92.78,78.42v-2.75h-1.22v2.75h1.22ZM97,73.11v-2.68h-1.35v2.68h1.35ZM97,78.42v-2.75h-1.35v2.75h1.35ZM101.23,73.11v-2.68h-1.28v2.68h1.28ZM101.23,78.42v-2.75h-1.28v2.75h1.28Z"/>
  </g>
</svg>