<?xml version="1.0" encoding="UTF-8"?>
<svg id="l" xmlns="http://www.w3.org/2000/svg" version="1.1" viewBox="0 0 288 84">
  <!-- Generator: Adobe Illustrator 29.1.0, SVG Export Plug-In . SVG Version: 2.1.0 Build 142)  -->
  <defs>
    <style>
      .st0 {
        fill: #4d4f5e;
      }

      .st1 {
        fill: #bebdbd;
      }
    </style>
  </defs>
  <g>
    <path class="st0" d="M76.14,47.18c0,2.75,1.7,3.23,2.46,3.23,1.44,0,2.3-1.18,2.3-2.27,0-1.25-.99-1.63-4.64-3.17-1.66-.67-5.79-2.34-5.79-6.78,0-4.77,4.32-7.3,8.29-7.3,3.26,0,7.87,1.66,7.97,7.36h-5.98c-.13-.8-.32-2.3-2.18-2.3-1.06,0-2.08.74-2.08,1.86s.64,1.38,4.9,3.3c4.42,1.98,5.54,4.03,5.54,6.78,0,3.78-1.98,7.58-8.26,7.58s-8.7-3.65-8.54-8.29h6.02Z"/>
    <path class="st0" d="M114.09,46.16c-1.38,5.6-6.24,9.31-11.97,9.31-7.42,0-12.48-5.92-12.48-12.32,0-6.05,4.67-12.26,12.42-12.26s11.39,5.73,12.03,9.44h-6.34c-.67-1.76-2.46-4.13-5.73-4.13-4.06,0-6.34,3.55-6.34,6.91,0,3.58,2.43,7.04,6.37,7.04s5.31-3.17,5.7-4h6.34Z"/>
    <path class="st0" d="M118.03,55.02v-23.68h6.05v8.9h7.74v-8.9h6.05v23.68h-6.05v-9.47h-7.74v9.47h-6.05Z"/>
    <path class="st0" d="M142.96,31.34h13.41v5.31h-7.36v3.68h7.14v5.31h-7.14v4.06h7.36v5.31h-13.41v-23.68Z"/>
    <path class="st0" d="M160.65,31.34h7.84c2.66,0,7.39,0,10.46,4.42,1.63,2.24,2.18,4.77,2.18,7.36,0,6.46-3.2,11.9-12.19,11.9h-8.29v-23.68ZM166.7,49.71h2.59c4.51,0,5.79-3.14,5.79-6.5,0-1.34-.29-3.04-1.15-4.38-.7-1.06-1.92-2.18-4.61-2.18h-2.62v13.06Z"/>
    <path class="st0" d="M191.18,31.34v14.3c0,.8.03,1.92.42,2.85.42.93,1.18,1.66,2.66,1.66s2.27-.67,2.62-1.54c.38-.9.38-2.05.38-2.98v-14.3h6.05v14.3c0,3.97-.86,5.73-2.37,7.26-1.54,1.57-3.68,2.56-6.62,2.56-1.73,0-4.86-.42-6.82-2.53-1.95-2.14-2.37-3.81-2.37-7.3v-14.3h6.05Z"/>
    <path class="st0" d="M208.49,31.34h6.05v18.37h7.01v5.31h-13.06v-23.68Z"/>
    <path class="st0" d="M224.72,31.34h13.41v5.31h-7.36v3.68h7.14v5.31h-7.14v4.06h7.36v5.31h-13.41v-23.68Z"/>
  </g>
  <g>
    <path class="st1" d="M71.61,67.48v-2.97h13.02c-.97,3.13-1.78,5.19-2.92,7.35,2,2.79,3.31,4.99,4.65,7.72h-3.91c-.79-1.89-1.35-2.95-2.41-4.66-1.71,3.1-4.09,4.65-7.4,4.86h-2.27v-3.04h1.13c2.74.02,4.14-.67,5.47-2.66.88-1.24,2.27-4.12,3.17-6.59h-8.53Z"/>
    <path class="st1" d="M88.48,70.29c2.14-.76,2.94-2.27,3.28-6.32h3.28c-.29,1.87-.36,2.27-.7,3.37h9.71v2.93h-3.94v3.35c-.02,3.6-2.25,5.94-5.67,5.98h-4.86v-2.81h3.83c2.2.05,3.31-1.01,3.38-3.17v-3.35h-3.65c-.92,1.66-2.11,2.5-4.65,3.24v-3.22Z"/>
    <path class="st1" d="M106.68,76.36h6.23c4.3-.02,5.38-1.03,5.46-5.11v-4.45h3.22v4.54c.02,3.11-.56,4.84-2.11,6.3-1.42,1.31-3.11,1.75-6.99,1.76h-5.82v-3.04ZM114.42,68.82c-3.71-.74-5.35-1.03-7.65-1.3v-2.99c2.59.38,4.59.72,7.65,1.33v2.95ZM114.42,73.86c-3.15-.65-3.94-.79-7.65-1.35v-3.08l1.33.23c3.69.63,3.93.68,6.32,1.21v2.99ZM119.86,63.5v2.7h-1.69v-2.7h1.69ZM120.42,63.5h1.69v2.7h-1.69v-2.7Z"/>
    <path class="st1" d="M123.71,76.14h8.41v-4.95c-.02-.95-.23-1.19-1.12-1.19h-5.89v-2.95h6.99c1.08,0,1.69.22,2.3.76.74.79.88,1.3.86,3.04v5.29h3.53v2.68h-15.09v-2.68Z"/>
    <path class="st1" d="M155.91,70.33v3.06h-14.75v-3.06h14.75Z"/>
    <path class="st1" d="M163.61,64.15v7.83c.07,4.57-1.87,7.36-5.47,7.83v-3.42c1.75-.52,2.3-1.49,2.41-4.12v-8.12h3.06ZM165.59,64.15h3.11v11.87c2.5-.13,2.83-.58,2.86-4.09v-4.21h3.03v4.65c0,3.02-.36,4.38-1.46,5.42-1.15,1.06-2.47,1.46-4.83,1.48h-2.72v-15.11Z"/>
  </g>
</svg>