<?xml version="1.0" encoding="UTF-8"?>
<svg id="l" xmlns="http://www.w3.org/2000/svg" version="1.1" viewBox="0 0 288 84">
  <!-- Generator: Adobe Illustrator 29.1.0, SVG Export Plug-In . SVG Version: 2.1.0 Build 142)  -->
  <defs>
    <style>
      .st0 {
        fill: #4d4f5e;
      }

      .st1 {
        fill: #bebdbd;
      }
    </style>
  </defs>
  <g>
    <path class="st0" d="M70.76,31.34h7.74c3.71,0,6.02.67,7.33,1.7,1.98,1.54,2.88,3.87,2.88,6.46,0,1.82-.51,3.23-1.18,4.29-.8,1.25-1.95,2.05-3.07,2.53l4.9,8.7h-6.24l-6.18-11.42h.99c1.54,0,2.85-.13,3.65-.64.74-.48,1.34-1.6,1.34-2.91s-.61-2.24-1.41-2.75c-.67-.42-1.63-.64-2.46-.64h-2.24v18.37h-6.05v-23.68Z"/>
    <path class="st0" d="M97.16,55.02h-6.56l9.38-23.68h5.22l9.09,23.68h-6.62l-1.12-3.42h-8.29l-1.09,3.42ZM102.31,38.54l-2.56,8.26h5.22l-2.66-8.26Z"/>
    <path class="st0" d="M131.81,45.77l-.13-14.43h5.79v23.68h-5.25l-9.06-14.27.13,14.27h-5.79v-23.68h5.22l9.09,14.43Z"/>
    <path class="st0" d="M143.24,31.34h6.05v10.66l6.75-10.66h6.34l-7.81,11.78,8.61,11.9h-7.36l-6.53-10.24v10.24h-6.05v-23.68Z"/>
    <path class="st0" d="M166.02,31.34h6.05v23.68h-6.05v-23.68Z"/>
    <path class="st0" d="M191.46,45.77l-.13-14.43h5.79v23.68h-5.25l-9.06-14.27.13,14.27h-5.79v-23.68h5.22l9.09,14.43Z"/>
    <path class="st0" d="M218.95,39.28c-.32-.58-.74-1.12-1.25-1.6-.99-.86-2.3-1.47-3.97-1.47-2.98,0-6.46,2.21-6.46,6.88,0,4.96,3.52,7.1,6.5,7.1,1.5,0,2.75-.38,3.71-1.06.96-.64,1.63-1.6,1.95-2.75h-7.07v-4.83h14.05c.13,1.7-.06,4.48-1.09,6.78-2.3,5.22-7.62,7.17-11.52,7.17-7.17,0-12.57-5.6-12.57-12.42s5.7-12.19,12.67-12.19c5.66,0,10.53,3.81,11.84,8.38h-6.78Z"/>
  </g>
  <g>
    <path class="st1" d="M85.16,71.65c-.09,5.31-.54,7.08-2.21,8.73-1.69,1.53-3.58,1.98-8.5,2.02h-3.42v-3.15h2.99c6.55.07,7.45-.47,7.74-4.66h-11.34v-2.93h14.75ZM84.33,66.85v2.92h-13.18v-2.92h13.18Z"/>
    <path class="st1" d="M103.38,68.52v5.42c-.02,3.15-.85,5.13-2.74,6.54-1.58,1.22-3.58,1.69-7.4,1.73h-4.99v-3.11h5.04c2.14-.02,3.89-.31,4.74-.79,1.31-.65,2.12-2.05,2.14-3.71v-6.07h3.21ZM88.4,67.03c3.2.83,6.64,1.85,8.25,2.47v3.24c-2.79-.95-5.91-1.91-8.25-2.52v-3.19Z"/>
    <path class="st1" d="M105.84,75.51l6.07-.07-.18-2.81-4.81.07v-2.79l4.63-.07-.2-2.99h3.22l.2,2.95,5.53-.09v2.79l-5.35.07.18,2.83,6.14-.07v2.95l-5.94.07.29,4.11h-3.22l-.29-4.07-6.27.07v-2.95Z"/>
    <path class="st1" d="M139.38,68.52v5.42c-.02,3.15-.85,5.13-2.74,6.54-1.58,1.22-3.58,1.69-7.4,1.73h-4.99v-3.11h5.04c2.14-.02,3.89-.31,4.74-.79,1.31-.65,2.12-2.05,2.14-3.71v-6.07h3.21ZM124.4,67.03c3.2.83,6.64,1.85,8.25,2.47v3.24c-2.79-.95-5.91-1.91-8.25-2.52v-3.19Z"/>
    <path class="st1" d="M152.95,67.48v1.96h3.64v4.77c-.04,2.86-.58,4.74-1.67,5.89-1.55,1.55-3.35,2.11-6.75,2.07h-5.55v-2.99h5.71c2.29-.02,3.28-.31,4.02-1.13.7-.83,1.03-1.93,1.03-3.57v-3.94h-5.94c-.49,3.08-2.39,5.02-5.46,5.55v-3.17c2.02-.74,2.61-1.91,2.77-5.44h8.21ZM153.54,66.13h1.69v2.77h-1.69v-2.77ZM157.47,66.13v2.77h-1.73v-2.77h1.73Z"/>
  </g>
</svg>