<?xml version="1.0" encoding="UTF-8"?>
<svg id="l" xmlns="http://www.w3.org/2000/svg" width="288" height="84" version="1.1" viewBox="0 0 288 84">
  <!-- Generator: Adobe Illustrator 29.1.0, SVG Export Plug-In . SVG Version: 2.1.0 Build 142)  -->
  <defs>
    <style>
      .st0 {
        fill: #4d4f5e;
      }

      .st1 {
        fill: #bebdbd;
      }
    </style>
  </defs>
  <g>
    <path class="st0" d="M70.8,55v-23.7h6v18.4h7v5.3h-13.1,0Z"/>
    <path class="st0" d="M84.9,43.7c0-7.3,5.3-12.8,12.5-12.8s12.5,5.3,12.5,12.1-5.4,12.4-12.2,12.4-12.8-4.7-12.8-11.7ZM103.9,43.2c0-3.7-2.7-7-6.5-7s-6.4,3.2-6.4,6.9,2.7,7,6.5,7,6.4-3.2,6.4-6.9Z"/>
    <path class="st0" d="M130.3,40.3c-1-2.6-3.3-4.1-5.7-4.1-3.8,0-6.3,3.2-6.3,6.9s2.6,7,6.4,7,4.4-1.3,5.7-4h6.3c-1.5,5.7-6.4,9.3-12,9.3s-6.4-1.2-8.8-3.6c-2.6-2.5-3.6-5.5-3.6-9.1,0-6.3,5.4-11.9,12.2-11.9s5.9.9,8.3,2.9c2.2,1.9,3.6,4.1,4,6.5h-6.5Z"/>
    <path class="st0" d="M153.8,55l-1.2-3.4h-8.2l-1.2,3.4h-6.5l9.5-23.7h4.8l9.4,23.7h-6.6ZM148.6,38.7h0l-2.4,8.1h5l-2.4-8.1h-.2Z"/>
    <path class="st0" d="M164.8,55v-18.4h-4.7v-5.3h15.4v5.3h-4.6v18.4h-6.1Z"/>
    <path class="st0" d="M177.9,55v-23.7h6v23.7h-6Z"/>
    <path class="st0" d="M187.2,43.7c0-7.3,5.3-12.8,12.5-12.8s12.5,5.3,12.5,12.1-5.4,12.4-12.2,12.4-12.8-4.7-12.8-11.7ZM206.2,43.2c0-3.7-2.7-7-6.5-7s-6.4,3.2-6.4,6.9,2.7,7,6.5,7,6.4-3.2,6.4-6.9Z"/>
    <path class="st0" d="M230.2,55l-9.1-14.5.2,14.5h-5.8v-23.7h5.2l9.2,15-.3-15h5.8v23.7h-5.2,0Z"/>
  </g>
  <g>
    <path class="st1" d="M69.7,79.4c1.2-.5,1.7-1.2,1.8-2.1v-2.9h-1.5v-2.4h4.2v6c0,.7,0,.9.5,1.3v-3c.6-.8.7-1.6.7-3.9v-2.4h-.7v-2.1h1.8v-1.7h2.4v1.7h1.5v2.1h-2.7v1h2.7c0,1.4,0,1.6,0,2.7h1.7v-.2l.9-1.2h-2.1v-2.1h5.1v1.7l-1.2,1.7h1.6v2.2h-1.9v1c0,1.9-.4,2.4-2.1,2.4h-1.4v-2.3h1.1v-1.1h-1.8c0,1.2-.2,1.7-.3,2.1-.2.7-1.2,1.3-2.2,1.3h-.7v-2.3h.4c.6,0,.7-.2.7-3.8h-.6c-.2,3.8-.8,5.1-2.8,6.2.5.3.7.3,1.8.3h9.9v2.5h-9.8c-2.3,0-3.1-.3-4.1-1.5-.7,1-1.5,1.5-2.8,1.9v-3.2ZM70.2,66.4c1.5.4,2.3.6,3.9,1.1v2.8c-2-.7-2.6-.9-3.9-1.3v-2.7ZM81.4,66.2h2.6l-.5,1.3h2.5v2h-5.6l1-3.3Z"/>
    <path class="st1" d="M91.2,70.2l.4-.6c.6-1.1.6-1.2,1-1.6.6-.6,1.4-.8,2.5-.8s1.8.3,2.6,1.3c.5.6.6,1,1.5,2.8l5.2,10.8h-3.8l-4.4-9.8c-.7-1.5-.8-1.6-1.3-1.6s-.5,0-1.4,1.8l-2.3,5.2h-3.7l3.6-7.4ZM101.2,66.7v2.8h-1.7v-2.8h1.7ZM103.4,66.7v2.8h-1.7v-2.8h1.7Z"/>
    <path class="st1" d="M108.4,69.6v-2.8h11.1v2.6l-4.2,2.5c.8-.1,1.2-.1,1.6-.1,2.6,0,4.7,2,4.7,4.6s-.7,3.3-1.8,4.3c-1.3,1.1-3.1,1.7-5.6,1.7-3.8,0-5.8-1.2-5.8-3.4s1.6-3.3,3.7-3.3,3.6,1.3,3.6,2.9,0,.5,0,.8c1.2-.1,1.7-.4,2.1-.9.4-.5.6-1.2.6-1.9,0-1.6-1.1-2.4-3.1-2.4s-3.4.3-5.3,1.2c-1.5.6-2.1,1-3.3,1.9v-3.1c.1-.1.6-.4.6-.4.6-.3,1.2-.7,1.8-1,.4-.2,1.1-.6,1.8-1,1.9-1.1,2.1-1.3,4-2.3h-6.4ZM113,79.8c-.1-1-.5-1.4-1.2-1.4s-.6.2-.6.5c0,.5.6.9,1.4.9h.4Z"/>
    <path class="st1" d="M124.7,70.8v-2.9h4v-1.7h3.1v1.7h3.1v2.9h-3.1v.9c.5,0,.8,0,1,0,4.1,0,6.7,2.1,6.7,5.3s-.6,3-1.8,3.9c-1.2.9-2.9,1.5-4.5,1.5s-.3,0-.6,0v-3c1.5,0,2.1-.2,2.6-.6.5-.5.8-1.1.8-1.8s-.1-.8-.3-1.1c-.6-.8-1.9-1.4-3.2-1.4s-.6,0-1,0v4.2c0,1.2-.1,2-.4,2.5-.3.6-1.1.9-2.2.9-3.2,0-5.2-1.8-5.2-4.7s.7-3,2.2-4.2c.7-.5,1.2-.8,2.8-1.4v-1.2h-4ZM128.6,75.2c-.6.2-.9.4-1.2.7-.4.5-.6,1.1-.6,1.7,0,.8.6,1.6,1.3,1.6s.5-.2.5-1.1v-2.9ZM138,67.3c.8,1.8,1,2.2,1.4,3.6h-3c-.5-1.7-.6-1.9-1.3-3.6h3Z"/>
    <path class="st1" d="M148.6,67.3v-1.3h3.1v1.3h6.2v2.6h-12.5v5.8c0,3.7-1.2,5.5-3.8,6.3v-3.2c.7-.6.9-1.3,1-2.8v-8.7h6.2ZM145.6,75.1h3.7v-4.7h3.2v1h5.1v2.4h-5.1v1.3h5.1v4.7c0,1.8-.6,2.4-2.6,2.3h-9.3v-7.1ZM154.4,79.7v-2.2h-5.9v2.2h5.9Z"/>
  </g>
</svg>