<?xml version="1.0" encoding="UTF-8"?><svg id="brand_room" xmlns="http://www.w3.org/2000/svg" viewBox="0 0 176 15"><g id="million"><path d="m37.74,5.02h-1.06c-.17,0-.3.13-.3.3v1.65h-2.54v-1.65c0-.17-.13-.3-.3-.3h-1.06c-.17,0-.3.13-.3.3h0c0-.17-.13-.31-.3-.31h-5.23c-.17,0-.3.13-.3.3v.77c0,.17.13.3.3.3h1.78v3.64c0,.17.14.3.31.3h1.06c.17,0,.3-.13.3-.3v-3.64h1.79c.17,0,.3-.13.3-.3v3.94c0,.17.13.3.3.3h1.06c.17,0,.3-.13.3-.3v-1.68h2.54v1.68c0,.17.13.3.3.3h1.06c.17,0,.3-.13.3-.3v-4.7c0-.17-.13-.3-.3-.3Z" style="fill:#fff;"/><path d="m44.1,9.13c-.05-.1-.16-.17-.27-.17h-3.65v-.67h2.69c.17,0,.3-.13.3-.3v-.79c0-.17-.13-.3-.3-.3h-2.69v-.5h3.62c.17,0,.3-.13.3-.3v-.77c0-.17-.13-.3-.3-.3h-4.98c-.17,0-.3.13-.3.3v4.7c0,.17.13.3.3.3h4.37c.37,0,.63-.01.78-.03.16-.02.48-.06.48-.36,0-.04,0-.09-.03-.13l-.32-.68Z" style="fill:#fff;"/><rect x="46.01" y="5.02" width="1.65" height="5.3" rx=".3" ry=".3" style="fill:#fff;"/><path d="m53.28,5.21c-.28-.13-.64-.19-1.12-.19h-3.71c-.09,0-.17.04-.22.1-.06.06-.08.15-.07.24l.08.6v4.06c0,.17.13.3.3.3h3.63c.49,0,.85-.06,1.13-.19.3-.14.51-.35.63-.63.1-.25.15-.55.15-.91v-1.85c0-.35-.05-.66-.16-.91-.12-.28-.33-.49-.63-.63Zm-3.4,1.18h2.21c.17,0,.24.04.26.06.05.06.07.12.07.2v2.04c0,.17-.03.27-.33.27h-2.21v-2.57Z" style="fill:#fff;"/><path d="m59.43,5.22c-.26-.13-.59-.2-1.01-.2h-2.34c-.43,0-.77.06-1.02.2-.28.14-.48.35-.59.63-.1.25-.15.54-.15.89v1.85c0,.35.05.66.15.91.12.28.32.5.6.63.26.13.59.19,1.01.19h2.34c.65,0,1.1-.15,1.37-.47.25-.3.38-.72.38-1.26v-1.85c0-.35-.05-.65-.16-.9-.12-.28-.31-.49-.59-.63Zm-.91,1.43v2.04c0,.12-.04.17-.07.2-.05.05-.14.07-.26.07h-1.88c-.12,0-.21-.03-.27-.08-.03-.03-.07-.07-.07-.19v-2.04c0-.1.04-.15.07-.18.06-.05.15-.08.27-.08h1.88c.15,0,.21.05.25.08.05.05.08.11.08.18Z" style="fill:#fff;"/><path d="m65.59,9.13c-.05-.1-.16-.17-.27-.17h-3.01v-3.64c0-.17-.13-.3-.3-.3h-1.06c-.17,0-.3.13-.3.3v4.03s-.08.64-.08.64c-.01.09.02.17.07.24.06.06.14.1.22.1h3.81c.37,0,.63-.01.78-.03.16-.02.48-.06.48-.36,0-.04,0-.09-.03-.13l-.32-.68Z" style="fill:#fff;"/><path d="m72.13,5.02h-1.08c-.11,0-.21.06-.26.15l-1.61,2.75-1.55-2.75c-.05-.09-.15-.15-.26-.15h-1.22c-.09,0-.17.04-.22.1-.06.06-.08.15-.07.24l.08.6v4.06c0,.17.13.3.3.3h1.06c.17,0,.3-.13.3-.3v-1.85l.85,1.52c.05.1.15.15.26.15h.97c.11,0,.21-.06.26-.15l.85-1.52v1.85c0,.17.13.3.3.3h1.06c.17,0,.3-.13.3-.3v-4.7c0-.17-.13-.3-.3-.3Z" style="fill:#fff;"/><path d="m78.03,4.87h-3.28c-.42,0-.77.08-1.04.24-.28.16-.48.39-.61.67-.12.26-.18.57-.18.9v2.82c0,.29.06.56.19.81.13.26.34.46.62.61.27.15.61.22,1.03.22h2.92c.15,0,.27-.01.36-.04.13-.03.21-.07.26-.13.03-.03.05-.06.06-.09l.24-.56c.04-.09.03-.2-.03-.28-.05-.08-.15-.13-.25-.13h-3.52c-.22,0-.34-.04-.39-.07-.09-.05-.12-.1-.13-.14-.03-.09-.05-.19-.05-.29v-2.78c0-.11.02-.2.05-.29.01-.03.04-.09.13-.14.06-.03.17-.07.39-.07h3.05c.24,0,.35.04.39.07.09.05.12.11.13.14.03.08.04.18.04.29v1.86c0,.06,0,.09,0,.1-.03,0-.16,0-.16,0l-.08-.11v-2.05c0-.17-.13-.3-.3-.3h-.32s-.09.01-.13.03l-.42.2s-.89-.06-1.09-.06c-.2,0-.36-.01-.49-.01-.31,0-.55.09-.73.25-.18.17-.27.4-.27.69v1.74c0,.26.09.49.27.66.18.18.42.27.74.27h.62c.32,0,.58-.04.78-.12.16-.06.29-.15.4-.25.02.03.05.05.08.08.2.18.49.27.85.27h.14c.42,0,.76-.11,1.02-.31.28-.22.42-.55.42-.98v-2.06c0-.5-.15-.9-.45-1.2-.3-.3-.72-.45-1.26-.45Zm-1.42,2.74v.55c0,.15-.03.26-.09.33-.05.05-.17.08-.33.08l-.19.05v-1.01h.61Z" style="fill:#fff;"/><path d="m84.79,7.09c-.27-.08-.58-.12-.96-.12h-1.78c-.22,0-.28-.05-.29-.06-.04-.03-.05-.11-.05-.17v-.13c0-.1.04-.16.06-.18,0,0,.06-.05.24-.05,0,0,.11,0,.11,0,.82,0,1.48,0,1.96.03.48.02.79.03.92.05.01,0,.02,0,.03,0,.14,0,.26-.09.29-.23l.17-.74c0-.32-.37-.38-.59-.42-.24-.04-.55-.06-.93-.06h-2.18c-.43,0-.77.07-1.03.22-.27.15-.46.36-.58.62-.11.24-.16.5-.16.77v.13c0,.55.16.95.48,1.21.3.25.75.37,1.37.37h1.86c.22,0,.29.03.3.03h0s.03.05.03.19v.16c0,.12-.03.18-.04.19,0,0-.06.05-.29.05h-.15c-.85,0-1.51,0-2-.03-.47-.02-.76-.04-.88-.06-.02,0-.04,0-.05,0-.12,0-.22.07-.27.17l-.32.7s-.03.08-.03.13c0,.31.35.38.5.41.19.04.47.05.86.05h2.66c.6,0,1.03-.16,1.3-.48.25-.3.38-.69.38-1.16v-.13c0-.42-.08-.75-.25-.98-.17-.24-.41-.41-.71-.5Z" style="fill:#fff;"/><path d="m91.13,5.02h-5.23c-.17,0-.3.13-.3.3v.77c0,.17.13.3.3.3h1.78v3.64c0,.17.14.3.31.3h1.06c.17,0,.3-.13.3-.3v-3.64h1.79c.17,0,.3-.13.3-.3v-.77c0-.17-.13-.3-.3-.3Z" style="fill:#fff;"/><path d="m97.01,9.13c-.05-.11-.16-.17-.27-.17h-3.65v-.67h2.69c.17,0,.3-.13.3-.3v-.79c0-.17-.13-.3-.3-.3h-2.69v-.5h3.62c.17,0,.3-.13.3-.3v-.77c0-.17-.13-.3-.3-.3h-4.98c-.17,0-.3.13-.3.3v4.7c0,.17.13.3.3.3h4.37c.37,0,.63-.01.78-.03.16-.02.48-.06.48-.36,0-.04,0-.09-.03-.13l-.32-.68Z" style="fill:#fff;"/><path d="m103.56,9.08h-.15c-.07-.01-.17-.03-.3-.07-.12-.04-.27-.1-.44-.2-.05-.03-.11-.08-.19-.14,0,0-.36-.28-.38-.3.03-.01.06-.03.09-.05.21-.12.37-.27.49-.45.11-.17.19-.35.22-.52.04-.17.06-.32.06-.46v-.15c0-.17-.01-.34-.04-.52-.03-.21-.11-.4-.22-.58-.12-.19-.31-.35-.56-.47-.24-.11-.54-.16-.93-.16h-3.54c-.09,0-.17.04-.22.1s-.08.15-.07.24l.08.61v4.06c0,.17.13.3.3.3h1.05c.17,0,.3-.13.3-.3v-1.48c.36,0,.66.05.89.15.24.1.47.25.67.46l.58.58c.3.3.57.48.82.57.24.08.48.11.72.11.17,0,.32-.01.44-.03.13-.02.23-.04.29-.06.1-.03.17-.11.2-.21l.16-.65c.02-.09,0-.18-.05-.26-.06-.07-.14-.12-.24-.12Zm-4.47-2.7h1.88c.15,0,.23.03.25.06.05.06.07.14.07.25v.18c0,.12-.04.17-.06.2-.03.03-.13.08-.29.1-.12.01-.27.02-.42.03-.16,0-.33.01-.53.01-.17,0-.35,0-.54,0-.11,0-.23,0-.36-.01v-.81Z" style="fill:#fff;"/><path d="m111.61,5.02h-1.08c-.11,0-.21.06-.26.15l-1.61,2.75-1.55-2.75c-.05-.09-.15-.15-.26-.15h-1.22c-.09,0-.17.04-.22.1-.06.06-.08.15-.07.24l.08.6v4.06c0,.17.13.3.3.3h1.06c.17,0,.3-.13.3-.3v-1.85l.85,1.52c.05.1.15.15.26.15h.97c.11,0,.21-.06.26-.15l.85-1.52v1.85c0,.17.13.3.3.3h1.06c.17,0,.3-.13.3-.3v-4.7c0-.17-.13-.3-.3-.3Z" style="fill:#fff;"/><rect x="112.39" y="5.02" width="1.66" height="5.3" rx=".3" ry=".3" style="fill:#fff;"/><path d="m126.46,5.02h-1.06c-.17,0-.3.13-.3.3v4.38l-.27-.57c-.05-.1-.16-.17-.27-.17h-3.01v-3.64c0-.17-.13-.3-.3-.3h-1.06c-.17,0-.3.13-.3.3v4.03s-.05.42-.05.42l-.3-.63c-.05-.1-.16-.17-.27-.17h-3.01v-3.64c0-.17-.13-.3-.3-.3h-1.05c-.17,0-.3.13-.3.3v4.03s-.08.64-.08.64c-.01.09.02.17.07.24.06.06.14.1.22.1h3.81c.37,0,.63-.01.78-.03.12-.02.34-.05.43-.2.01.05,0,.1.04.13.06.06.14.1.22.1h3.81c.37,0,.63-.01.78-.03.12-.02.34-.05.43-.19.04.12.13.23.27.23h1.06c.17,0,.3-.13.3-.3v-4.7c0-.17-.13-.3-.3-.3Z" style="fill:#fff;"/><path d="m132.27,5.22c-.26-.13-.59-.2-1.01-.2h-2.34c-.43,0-.77.06-1.02.2-.28.14-.48.36-.59.63-.1.25-.15.55-.15.89v1.85c0,.35.05.66.15.91.12.28.32.49.59.63.26.13.59.19,1.01.19h2.34c.65,0,1.1-.15,1.37-.47.26-.3.38-.72.38-1.26v-1.85c0-.35-.05-.65-.16-.9-.12-.28-.31-.49-.59-.63Zm-.91,1.43v2.04c0,.12-.04.17-.07.2-.05.05-.14.07-.26.07h-1.88c-.12,0-.21-.03-.27-.08-.03-.03-.07-.07-.07-.19v-2.04c0-.1.04-.15.07-.18.06-.05.15-.08.27-.08h1.88c.17,0,.23.06.25.08.05.05.08.11.08.18Z" style="fill:#fff;"/><path d="m139.04,5.02h-1.06c-.17,0-.3.13-.3.3v2.52l-2.6-2.73c-.06-.06-.13-.09-.22-.09h-1.15c-.09,0-.17.04-.22.1-.06.06-.08.15-.07.24l.08.6v4.06c0,.17.13.3.3.3h1.06c.17,0,.3-.13.3-.3v-2.56l2.66,2.77c.06.06.13.09.22.09h1.02c.17,0,.3-.13.3-.3v-4.7c0-.17-.13-.3-.3-.3Z" style="fill:#fff;"/><path d="m160.08,9.13c-.05-.1-.16-.17-.27-.17h-3.65v-.67h2.69c.17,0,.3-.13.3-.3v-.79c0-.17-.13-.3-.3-.3h-2.69v-.5h3.62c.17,0,.3-.13.3-.3v-.77c0-.17-.13-.3-.3-.3h-4.98c-.12,0-.21.08-.25.19,0-.02-.01-.04-.03-.06-.06-.07-.14-.12-.24-.12h-1.09c-.12,0-.22.07-.27.17l-1.5,3.19-1.48-3.19c-.05-.11-.16-.17-.27-.17h-1.12c-.1,0-.2.05-.25.14,0,.01,0,.03-.01.04-.05-.1-.13-.19-.25-.19h-1.06c-.17,0-.3.13-.3.3v4.38l-.27-.57c-.05-.1-.16-.17-.27-.17h-3.01v-3.64c0-.17-.13-.3-.3-.3h-1.05c-.17,0-.3.13-.3.3v4.03s-.08.64-.08.64c-.01.09.02.17.07.24.06.06.14.1.22.1h3.81c.37,0,.63-.01.78-.03.12-.02.34-.05.43-.19.04.12.13.22.27.22h1.06c.17,0,.3-.13.3-.3v-4.46l2.18,4.59c.05.1.15.17.27.17h1.28c.11,0,.22-.06.27-.17l2.11-4.27.06-.22v4.36c0,.17.13.3.3.3h4.37c.37,0,.63-.01.78-.03.16-.02.48-.06.48-.36,0-.04,0-.09-.03-.13l-.32-.68Z" style="fill:#fff;"/><path d="m162.33,5.24c-.05-.11-.19-.29-.54-.29h-.74c-.38,0-.51.2-.56.32-.04.11-.06.26-.06.46,0,.06.01.19.04.4l.1.67c.04.26.08.53.13.81l.14.8c.03.14.15.25.3.25h.58c.15,0,.27-.11.3-.25,0,0,.23-1.35.27-1.61.04-.26.07-.49.1-.67.03-.2.04-.34.04-.4,0-.21-.02-.36-.08-.48Z" style="fill:#fff;"/><path d="m161.41,8.69c-.28,0-.49.06-.63.19-.16.14-.23.35-.23.63s.08.49.24.62c.15.13.35.19.63.19s.49-.07.64-.2c.16-.14.23-.35.23-.62,0-.28-.08-.5-.24-.63-.15-.13-.36-.19-.64-.19Z" style="fill:#fff;"/><path d="m24.79,3.85c-.07-.18-.17-.28-.27-.35h.01c.12-.04.2-.13.22-.25.02-.12-.04-.23-.14-.3l-.13-.08v-.16c.01-.12-.05-.23-.16-.28-.04-.02-.09-.03-.13-.03-.07,0-.14.02-.2.07l-.11.1-.14-.06s-.08-.02-.11-.02c-.08,0-.15.03-.21.09-.09.08-.11.21-.07.32l.06.15-.1.11s-.04.08-.06.12v-.06c-.02-.12-.1-.22-.22-.26-.03,0-.06-.01-.09-.01-.09,0-.17.04-.23.1l-.26.31-.4-.1s-.05,0-.07,0c-.09,0-.18.04-.24.12-.07.1-.08.23-.02.33l.2.33c-.12.04-.24.08-.35.13,0-.16-.04-.31-.14-.43-.14-.17-.37-.28-.61-.28-.27,0-1.07.15-1.42,1.79-.36-1.64-1.15-1.79-1.42-1.79-.24,0-.47.1-.61.28-.1.12-.14.27-.14.43-.38-.16-.76-.25-1.15-.33l-.34-.08c-.22-.05-.4-.12-.56-.18-.22-.08-.41-.15-.59-.15s-.44.07-.58.43c-.2.5-.17,1.37.54,2.22.02.3.12,1.05.74,1.49.08.43.38.75.85.95-.08.11-.14.23-.18.36-.08.27-.08.57-.07.87,0,.03,0,.06,0,.08-.03,0-.09,0-.1,0-.5.01-.78.31-.84.61-.03.19.01.36.12.52-.02.02-.04.03-.06.05l-.23.29-.35-.07s-.04,0-.06,0c-.1,0-.19.05-.25.13-.07.1-.07.23-.01.33l.2.32-.17.31c-.06.1-.05.23.02.33.06.08.15.12.24.12.02,0,.05,0,.07,0l.35-.08.25.26c.06.06.14.09.21.09.04,0,.07,0,.11-.02.11-.04.19-.15.19-.26l.02-.35.33-.16c.1-.05.15-.15.16-.25l.16.1v.2c-.02.12.04.23.15.28.04.02.09.03.14.03.07,0,.13-.02.19-.07l.16-.13.19.07s.07.02.1.02c.08,0,.16-.03.22-.09.08-.09.11-.21.06-.32l-.07-.18.13-.17c.07-.08.07-.2.04-.29.88,0,1.57-.54,1.71-1.33.02-.11.05-.37,0-.66.04.01.08.02.13.02s.09,0,.13-.02c-.06.29-.03.55,0,.66.14.8.84,1.33,1.72,1.33.07,0,.15,0,.22-.01.22-.02.42-.07.64-.16.21.09.44.15.67.15.18,0,.36-.03.52-.09.4-.16.62-.49.56-.85-.05-.3-.33-.6-.86-.61-.02,0-.05,0-.07,0,0-.03,0-.06,0-.08,0-.29,0-.59-.07-.86-.04-.13-.1-.25-.18-.36.47-.2.76-.52.85-.95.62-.44.72-1.19.74-1.49.71-.85.73-1.72.54-2.22Zm-6.55.9c.06.08.13.2.2.34-.09-.1-.18-.21-.27-.3.02-.01.05-.02.07-.04Zm-1.33,1.95s-.01.03-.02.05c-.03-.1-.05-.21-.06-.33-.01-.13,0-.23.04-.28.03-.04.1-.04.14-.04.1,0,.24.03.4.11-.23.09-.41.26-.51.5Zm.58,3.19c.07.08.16.13.25.16.06.02.12.03.17.04,0,.01-.02.03-.03.04-.09.1-.25.16-.44.17.03-.14.04-.28.05-.41Zm1.38-1.19c-.18-.16-.42-.25-.66-.25,0-.03.01-.06.01-.09,0-.13-.08-.24-.21-.28,0,0-.02,0-.04-.01.16-.04.31-.12.43-.25.12-.13.17-.29.17-.46.12.19.23.39.33.61-.03.16-.05.34-.05.52,0,.08,0,.16.01.23Zm2.5-2.49c.16-.08.3-.11.4-.11.05,0,.11,0,.14.04.04.05.06.15.04.28-.01.12-.03.23-.06.33,0-.02-.01-.03-.02-.05-.1-.23-.28-.4-.51-.5Zm-.5,3.88c.05,0,.11-.02.17-.04.1-.03.18-.09.26-.16,0,.13.02.27.05.41-.2,0-.36-.06-.44-.17-.01-.01-.02-.03-.03-.04Zm-.24-5.29c-.09.08-.17.17-.26.27.07-.13.13-.23.19-.31.02.02.05.03.07.04Zm-.45,2.58s.03-.02.04-.03c0,.17.05.33.17.46.12.13.26.22.43.25-.02,0-.03.01-.04.01-.12.04-.21.15-.21.28,0,.03,0,.06.01.09-.24,0-.48.1-.66.25,0-.07.01-.15.01-.23,0-.18-.02-.36-.05-.52.1-.22.21-.43.29-.57Zm3.29-3.73s-.06.02-.1.03l-.08-.03v-.14c.03.07.1.12.18.14Zm-4.07,3.02s0,0,0,0c0,0,0,0,0,0,0,0,0,0,0,0,0,0,0,0,0,0Zm-3.44,4.97s0,.03,0,.05c-.02-.01-.03-.03-.05-.04l-.33-.12-.03-.23c.15.05.3.09.47.09.12,0,.23-.01.35-.04h0s-.19.05-.19.05c-.12.03-.21.12-.23.24Z" style="fill:#fff;"/><path d="m19.17,6.37c-.29-1.6-1.03-2.26-1.03-2.04,0,.23-.28.29-.45.18-.22-.14-.23-.42-.09-.59.3-.37,1.45-.34,1.65,2.43,0,.07-.07.08-.08.02Z" style="fill:#ffc20b;"/><path d="m19.63,6.37c.29-1.6,1.03-2.26,1.03-2.04,0,.23.28.29.45.18.22-.14.23-.42.09-.59-.3-.37-1.45-.34-1.65,2.43,0,.07.07.08.08.02Z" style="fill:#ffc20b;"/><polygon points="16.71 11.2 16.91 11.52 17.29 11.49 17.05 11.79 17.19 12.14 16.84 12.01 16.55 12.24 16.57 11.87 16.25 11.66 16.62 11.57 16.71 11.2" style="fill:#ffc20b;"/><polygon points="15.24 11.17 15.3 11.72 15.81 11.91 15.32 12.15 15.29 12.68 14.91 12.3 14.39 12.42 14.65 11.96 14.36 11.49 14.89 11.6 15.24 11.17" style="fill:#ffc20b;"/><path d="m23.36,3.98l-.35-.15-.06-.59-.38.44-.58-.14.31.51-.13.21c.32-.09.64-.15.97-.22.08-.02.15-.04.22-.06Z" style="fill:#ffc20b;"/><polygon points="23.63 2.78 23.76 3.1 23.54 3.35 23.88 3.33 24.05 3.61 24.14 3.29 24.45 3.21 24.18 3.03 24.2 2.7 23.94 2.91 23.63 2.78" style="fill:#ffc20b;"/><path d="m23.24,7.37c.75-.43.72-1.42.72-1.42.64-.72.75-1.5.56-2-.18-.44-.54-.16-1.16.03l.18.08-.53.24-.07.58-.37-.44-.58.12.18-.29c-.96.27-1.86.83-2.76,3.16-1.2-3.08-2.39-3.07-3.74-3.38-.76-.18-1.18-.59-1.38-.09-.2.49-.08,1.28.56,2,0,0-.03,1,.72,1.42.05.63.63.9,1.21.99-.31.12-.47.38-.53.58-.11.36-.04.85-.07,1.22-.13-.04-.26-.06-.38-.06-.63.01-.77.64-.17.88.31.12.74.1,1.07-.1.19.09.42.16.68.19.85.08,1.5-.38,1.62-1.07.06-.31.03-.75-.26-1.05-.24-.25-.76-.35-1.02.04-.22.33-.08.69.15.76.34.11.36-.16.41-.05.13.72-.55,1.02-1.21.82.43-.81-.3-1.79.89-2.19,0,0-1.23-.38-1.39-1.9-.1-.94.96-.86,1.89.18-1.05-.64-1.63.38-1.08.95.13.14.56.33.85.01.22-.24-.02-.61-.15-.61-.02.12-.14.14-.17.04-.07-.23.42-.34.94.11.15.23.29.48.41.76-.04.16-.06.36-.06.55,0,.42.13.66.23.66s.23-.24.23-.66c0-.2-.02-.39-.06-.55.12-.28.26-.54.41-.76.52-.45,1.01-.34.94-.11-.03.1-.15.08-.17-.04-.13,0-.37.37-.15.61.29.32.71.13.85-.01.54-.57-.03-1.59-1.08-.95.93-1.05,1.99-1.13,1.89-.18-.16,1.52-1.39,1.9-1.39,1.9,1.19.4.46,1.38.89,2.19-.66.2-1.34-.1-1.21-.82.04-.11.07.16.41.05.23-.07.37-.43.15-.76-.26-.39-.78-.29-1.02-.04-.29.29-.32.73-.26,1.05.12.69.77,1.16,1.62,1.07.26-.02.48-.1.68-.19.33.2.76.23,1.07.1.6-.24.46-.87-.17-.88-.12,0-.25.02-.38.06-.03-.38.04-.86-.07-1.22-.06-.2-.23-.46-.53-.58.58-.1,1.16-.37,1.21-.99Zm-7.52,3.36c-.28.02-.31-.26-.07-.32.13-.03.26.02.42.11-.07.12-.18.19-.35.2Zm.39-3.53l-.26-.1-.22.18.02-.28-.24-.16.28-.07.07-.28.16.25.28-.03-.18.23.11.26Zm.28-1.24l-.38-.14-.32.26.02-.4-.35-.23.4-.1.1-.41.23.36.41-.04-.26.33.15.37Zm6.77,4.46c.24.06.21.33-.07.32-.18-.01-.29-.09-.35-.2.16-.09.3-.15.42-.11Zm-.53-4.67l.37-.09.09-.38.21.33.38-.03-.24.3.14.34-.35-.13-.29.24.02-.37-.32-.21Z" style="fill:#ffc20b;"/><path d="m28.75,10.03v-3.94h-2.09v-.77h5.23v.77h-2.09v3.94h-1.06Z" style="fill:#5a6172;"/><path d="m32.5,10.03v-4.7h1.06v1.95h3.14v-1.95h1.06v4.7h-1.06v-1.98h-3.14v1.98h-1.06Z" style="fill:#5a6172;"/><path d="m38.83,10.03v-4.7h4.98v.77h-3.92v1.1h2.99v.79h-2.99v1.27h3.95l.32.68s-.07.04-.22.06c-.14.02-.39.03-.74.03h-4.37Z" style="fill:#5a6172;"/><path d="m46.32,10.03v-4.7h1.05v4.7h-1.05Z" style="fill:#5a6172;"/><path d="m48.53,10.03v-4.06l-.08-.64h3.71c.43,0,.76.05,1,.16.23.11.39.27.48.48.09.21.13.47.13.79v1.85c0,.32-.04.59-.13.8-.09.21-.25.37-.48.48-.23.11-.57.16-1,.16h-3.63Zm1.06-.77h2.51c.41,0,.62-.19.62-.57v-2.04c0-.15-.05-.29-.14-.4s-.25-.16-.49-.16h-2.51v3.17Z" style="fill:#5a6172;"/><path d="m56.08,10.03c-.37,0-.67-.05-.88-.16-.21-.11-.36-.27-.45-.48-.09-.21-.13-.48-.13-.79v-1.85c0-.31.04-.57.13-.78.09-.21.23-.37.45-.48.21-.11.51-.16.89-.16h2.34c.37,0,.67.05.88.16.21.11.36.27.45.48.09.21.13.47.13.78v1.85c0,.47-.1.83-.31,1.07-.21.24-.59.36-1.14.36h-2.34Zm.23-.77h1.88c.2,0,.35-.05.46-.15.11-.1.16-.24.16-.42v-2.04c0-.15-.06-.29-.17-.4-.11-.11-.26-.16-.46-.16h-1.88c-.19,0-.35.05-.46.15-.12.1-.18.24-.18.41v2.04c0,.18.06.32.17.42.12.1.27.15.47.15Z" style="fill:#5a6172;"/><path d="m60.87,10.03l.08-.64v-4.06h1.06v3.94h3.31l.32.68s-.07.04-.22.06-.39.03-.74.03h-3.81Z" style="fill:#5a6172;"/><path d="m66.24,10.03v-4.06l-.08-.64h1.22l1.81,3.2,1.87-3.2h1.08v4.7h-1.06v-2.98h-.09l-.31.7-1.01,1.81h-.97l-1.01-1.81-.32-.7h-.08v2.98h-1.06Z" style="fill:#5a6172;"/><path d="m74.75,10.83c-.37,0-.66-.06-.89-.18-.22-.12-.39-.29-.49-.49-.1-.2-.16-.43-.16-.67v-2.82c0-.29.05-.55.16-.77.1-.23.27-.41.49-.54.22-.13.52-.2.89-.2h3.28c.46,0,.81.12,1.05.36.24.24.36.57.36.98v2.06c0,.33-.1.58-.31.74-.21.17-.48.25-.83.25h-.14c-.29,0-.51-.06-.66-.2s-.22-.31-.22-.52c-.04.14-.1.26-.18.38-.09.11-.21.2-.38.27-.17.07-.39.1-.67.1h-.62c-.23,0-.4-.06-.52-.18-.12-.12-.18-.27-.18-.45v-1.74c0-.2.06-.35.18-.47.12-.11.29-.17.52-.17.12,0,.28,0,.47.01.19,0,.39.02.6.03.21.01.4.03.56.04l.49-.24h.32v2.05c0,.13.04.23.11.3.07.07.16.1.27.1h.08c.14,0,.24-.03.3-.1.06-.07.09-.17.09-.3v-1.86c0-.14-.01-.28-.06-.4-.05-.12-.13-.22-.26-.29-.13-.07-.31-.11-.55-.11h-3.05c-.24,0-.42.04-.54.11s-.21.17-.26.29c-.04.12-.07.25-.07.4v2.78c0,.14.02.27.07.39s.13.22.26.3.31.11.54.11h3.52l-.24.56s-.06.03-.13.05c-.07.02-.16.03-.29.03h-2.92Zm1.2-1.96h.24c.26,0,.45-.06.56-.18.11-.12.16-.3.16-.53v-.85h-.96c-.1,0-.16.02-.2.05s-.05.1-.05.19v1.07c0,.09.02.15.06.19.04.04.1.06.18.06Z" style="fill:#5a6172;"/><path d="m81.43,10.03c-.36,0-.63-.02-.8-.05-.17-.03-.26-.07-.26-.11l.32-.7c.12.02.43.04.92.06s1.16.03,2.01.03h.15c.23,0,.39-.04.49-.12.1-.08.14-.22.14-.42v-.16c0-.19-.04-.32-.12-.4-.08-.08-.25-.12-.52-.12h-1.86c-.54,0-.93-.1-1.18-.3-.25-.2-.37-.53-.37-.98v-.13c0-.23.04-.45.13-.65s.24-.36.45-.48c.21-.12.51-.18.88-.18h2.18c.36,0,.66.02.88.06s.34.08.34.12l-.16.67c-.14-.02-.45-.03-.94-.05-.49-.02-1.15-.03-1.98-.03h-.09c-.25,0-.41.04-.5.14s-.13.22-.14.37v.14c0,.18.05.31.15.4.1.09.26.13.49.13h1.78c.34,0,.63.03.87.1.24.07.42.2.55.38s.19.45.19.81v.13c0,.4-.1.72-.31.97-.21.25-.56.37-1.07.37h-2.66Z" style="fill:#5a6172;"/><path d="m87.99,10.03v-3.94h-2.09v-.77h5.23v.77h-2.09v3.94h-1.06Z" style="fill:#5a6172;"/><path d="m91.73,10.03v-4.7h4.98v.77h-3.92v1.1h2.99v.79h-2.99v1.27h3.95l.32.68s-.07.04-.22.06-.39.03-.74.03h-4.37Z" style="fill:#5a6172;"/><path d="m102.77,10.11c-.21,0-.42-.03-.63-.1-.21-.07-.44-.23-.7-.49l-.58-.58c-.23-.24-.49-.42-.77-.53-.28-.11-.63-.17-1.05-.17h-.25v1.78h-1.05v-4.06l-.08-.65h3.54c.34,0,.61.05.8.14.19.09.34.21.43.36.09.15.15.3.18.47.03.17.04.32.04.47v.15c0,.12-.02.25-.05.39-.03.14-.09.29-.18.42-.09.14-.22.26-.39.35s-.39.15-.66.17c.07.04.16.09.26.17.11.08.22.16.33.25.11.09.22.17.32.25.1.07.17.13.22.16.19.11.36.19.51.23.15.04.27.07.37.07s.15,0,.17,0l-.16.65s-.13.03-.24.05c-.11.02-.24.03-.39.03Zm-2.78-2.59c.2,0,.38,0,.54-.01.16,0,.3-.02.43-.03.23-.03.4-.09.49-.2.09-.1.14-.24.14-.4v-.18c0-.17-.04-.31-.14-.43-.09-.12-.25-.18-.49-.18h-2.18v1.39c.24.02.45.03.65.03s.38,0,.55,0Z" style="fill:#5a6172;"/><path d="m105.72,10.03v-4.06l-.08-.64h1.22l1.81,3.2,1.87-3.2h1.08v4.7h-1.06v-2.98h-.09l-.31.7-1.01,1.81h-.97l-1.01-1.81-.32-.7h-.08v2.98h-1.06Z" style="fill:#5a6172;"/><path d="m112.7,10.03v-4.7h1.06v4.7h-1.06Z" style="fill:#5a6172;"/><path d="m114.83,10.03l.08-.64v-4.06h1.05v3.94h3.31l.32.68s-.07.04-.22.06c-.14.02-.39.03-.74.03h-3.81Z" style="fill:#5a6172;"/><path d="m120.12,10.03l.08-.64v-4.06h1.06v3.94h3.31l.32.68s-.07.04-.22.06-.39.03-.74.03h-3.81Z" style="fill:#5a6172;"/><path d="m125.41,10.03v-4.7h1.06v4.7h-1.06Z" style="fill:#5a6172;"/><path d="m128.93,10.03c-.37,0-.67-.05-.88-.16-.21-.11-.36-.27-.45-.48-.09-.21-.13-.48-.13-.79v-1.85c0-.31.04-.57.13-.78.08-.21.24-.37.45-.48s.51-.16.89-.16h2.34c.37,0,.67.05.88.16s.36.27.45.48c.09.21.13.47.13.78v1.85c0,.47-.1.83-.31,1.07-.21.24-.59.36-1.14.36h-2.34Zm.23-.77h1.88c.2,0,.35-.05.46-.15.11-.1.16-.24.16-.42v-2.04c0-.15-.05-.29-.17-.4-.11-.11-.26-.16-.46-.16h-1.88c-.19,0-.35.05-.46.15-.12.1-.18.24-.18.41v2.04c0,.18.06.32.17.42.11.1.27.15.47.15Z" style="fill:#5a6172;"/><path d="m133.8,10.03v-4.06l-.08-.64h1.15l2.72,2.85.31.43h.09v-3.28h1.06v4.7h-1.02l-2.78-2.9-.31-.38h-.08v3.27h-1.06Z" style="fill:#5a6172;"/><path d="m141.69,10.03l.08-.64v-4.06h1.05v3.94h3.31l.32.68s-.07.04-.22.06c-.14.02-.39.03-.74.03h-3.81Z" style="fill:#5a6172;"/><path d="m146.98,10.03v-4.7h1.06v4.7h-1.06Z" style="fill:#5a6172;"/><path d="m150.79,10.03l-2.23-4.7h1.12l1.5,3.24.22.58h.07l.21-.58,1.52-3.24h1.09l-.13.48-2.09,4.22h-1.28Z" style="fill:#5a6172;"/><path d="m154.8,10.03v-4.7h4.98v.77h-3.92v1.1h2.99v.79h-2.99v1.27h3.95l.32.68s-.07.04-.22.06c-.14.02-.39.03-.74.03h-4.37Z" style="fill:#5a6172;"/><path d="m161.14,8.35c-.04-.25-.09-.52-.14-.8-.05-.28-.09-.55-.13-.81-.04-.26-.07-.48-.1-.67-.03-.19-.04-.31-.04-.36,0-.15.01-.27.04-.35s.12-.12.28-.12h.74c.14,0,.23.04.27.12s.05.2.05.36c0,.06-.01.18-.04.36-.02.18-.06.41-.1.66-.04.26-.08.53-.13.81-.05.28-.09.55-.13.8h-.58Zm.28,1.68c-.2,0-.34-.04-.43-.12s-.14-.21-.14-.4.04-.33.13-.4c.09-.08.23-.12.44-.12s.35.04.44.12c.09.08.14.21.14.4,0,.18-.04.31-.14.4-.09.08-.24.12-.44.12Z" style="fill:#5a6172;"/></g></svg>